<svg width="100" height="100" viewBox="0 0 100 100" fill="none" xmlns="http://www.w3.org/2000/svg">
<g clip-path="url(#clip0_921_4565)">
<path d="M29.9439 22.8165C30.2971 22.8165 30.6423 22.7118 30.936 22.5156C31.2297 22.3193 31.4585 22.0404 31.5937 21.7142C31.7289 21.3879 31.7642 21.0288 31.6953 20.6824C31.6264 20.336 31.4563 20.0178 31.2066 19.7681C30.9569 19.5184 30.6387 19.3483 30.2923 19.2794C29.9459 19.2105 29.5868 19.2458 29.2606 19.381C28.9343 19.5162 28.6554 19.745 28.4592 20.0387C28.2629 20.3324 28.1582 20.6776 28.1582 21.0308C28.1587 21.5042 28.3471 21.9581 28.6818 22.2929C29.0166 22.6276 29.4705 22.816 29.9439 22.8165ZM29.9439 20.1379C30.1205 20.1379 30.2931 20.1903 30.44 20.2884C30.5868 20.3865 30.7012 20.526 30.7688 20.6891C30.8364 20.8523 30.8541 21.0318 30.8196 21.205C30.7852 21.3782 30.7001 21.5373 30.5753 21.6621C30.4504 21.787 30.2913 21.872 30.1181 21.9065C29.9449 21.9409 29.7654 21.9233 29.6022 21.8557C29.4391 21.7881 29.2996 21.6737 29.2015 21.5268C29.1034 21.38 29.0511 21.2074 29.0511 21.0308C29.0513 20.7941 29.1454 20.5671 29.3128 20.3997C29.4802 20.2323 29.7072 20.1382 29.9439 20.1379ZM94.2296 43.0546C93.9942 43.0546 93.764 43.1244 93.5682 43.2552C93.3725 43.386 93.2199 43.572 93.1298 43.7895C93.0397 44.007 93.0161 44.2464 93.062 44.4773C93.108 44.7083 93.2214 44.9204 93.3878 45.0869C93.5543 45.2534 93.7665 45.3667 93.9974 45.4127C94.2283 45.4586 94.4677 45.435 94.6852 45.3449C94.9027 45.2548 95.0887 45.1022 95.2195 44.9065C95.3503 44.7107 95.4201 44.4805 95.4201 44.2451C95.4197 43.9295 95.2942 43.6269 95.071 43.4037C94.8479 43.1805 94.5453 43.055 94.2296 43.0546ZM94.2296 44.8403C94.1119 44.8403 93.9968 44.8054 93.8989 44.74C93.8011 44.6746 93.7248 44.5816 93.6797 44.4729C93.6347 44.3641 93.6229 44.2444 93.6458 44.129C93.6688 44.0135 93.7255 43.9074 93.8087 43.8242C93.892 43.7409 93.998 43.6842 94.1135 43.6613C94.229 43.6383 94.3487 43.6501 94.4574 43.6951C94.5662 43.7402 94.6592 43.8165 94.7246 43.9144C94.79 44.0123 94.8249 44.1273 94.8249 44.2451C94.8247 44.4029 94.762 44.5542 94.6504 44.6658C94.5388 44.7774 94.3874 44.8402 94.2296 44.8403ZM76.9677 26.3879C76.7323 26.3879 76.5021 26.4578 76.3063 26.5886C76.1106 26.7194 75.958 26.9053 75.8679 27.1228C75.7778 27.3404 75.7542 27.5797 75.8001 27.8107C75.8461 28.0416 75.9594 28.2537 76.1259 28.4202C76.2924 28.5867 76.5045 28.7001 76.7355 28.746C76.9664 28.7919 77.2058 28.7684 77.4233 28.6783C77.6408 28.5882 77.8268 28.4356 77.9576 28.2398C78.0884 28.044 78.1582 27.8139 78.1582 27.5784C78.1578 27.2628 78.0323 26.9602 77.8091 26.737C77.5859 26.5138 77.2833 26.3883 76.9677 26.3879ZM76.9677 28.1736C76.85 28.1736 76.7349 28.1387 76.637 28.0733C76.5391 28.0079 76.4628 27.915 76.4178 27.8062C76.3727 27.6974 76.361 27.5777 76.3839 27.4623C76.4069 27.3468 76.4636 27.2408 76.5468 27.1575C76.6301 27.0743 76.7361 27.0176 76.8516 26.9946C76.9671 26.9716 77.0867 26.9834 77.1955 27.0285C77.3043 27.0735 77.3972 27.1498 77.4627 27.2477C77.5281 27.3456 77.563 27.4607 77.563 27.5784C77.5628 27.7362 77.5 27.8875 77.3884 27.9991C77.2769 28.1107 77.1255 28.1735 76.9677 28.1736ZM94.2296 7.93555C93.9942 7.93555 93.764 8.00537 93.5682 8.13618C93.3725 8.26699 93.2199 8.45292 93.1298 8.67045C93.0397 8.88798 93.0161 9.12734 93.062 9.35827C93.108 9.5892 93.2214 9.80133 93.3878 9.96782C93.5543 10.1343 93.7665 10.2477 93.9974 10.2936C94.2283 10.3396 94.4677 10.316 94.6852 10.2259C94.9027 10.1358 95.0887 9.98319 95.2195 9.78742C95.3503 9.59164 95.4201 9.36148 95.4201 9.12602C95.4197 8.8104 95.2942 8.50781 95.071 8.28463C94.8479 8.06145 94.5453 7.93591 94.2296 7.93555ZM94.2296 9.72126C94.1119 9.72126 93.9968 9.68635 93.8989 9.62095C93.8011 9.55554 93.7248 9.46258 93.6797 9.35381C93.6347 9.24505 93.6229 9.12536 93.6458 9.0099C93.6688 8.89443 93.7255 8.78837 93.8087 8.70513C93.892 8.62188 93.998 8.56519 94.1135 8.54222C94.229 8.51925 94.3487 8.53104 94.4574 8.57609C94.5662 8.62115 94.6592 8.69744 94.7246 8.79533C94.79 8.89321 94.8249 9.0083 94.8249 9.12602C94.8247 9.28384 94.762 9.43515 94.6504 9.54675C94.5388 9.65834 94.3874 9.7211 94.2296 9.72126ZM5.53916 38.8879C5.53916 38.6525 5.46934 38.4223 5.33852 38.2265C5.20771 38.0308 5.02179 37.8782 4.80426 37.7881C4.58672 37.698 4.34736 37.6744 4.11643 37.7203C3.8855 37.7663 3.67338 37.8796 3.50689 38.0461C3.34039 38.2126 3.22701 38.4248 3.18108 38.6557C3.13514 38.8866 3.15872 39.126 3.24882 39.3435C3.33893 39.561 3.49151 39.747 3.68729 39.8778C3.88306 40.0086 4.11323 40.0784 4.34868 40.0784C4.6643 40.078 4.9669 39.9525 5.19008 39.7293C5.41325 39.5061 5.5388 39.2036 5.53916 38.8879ZM3.75344 38.8879C3.75344 38.7702 3.78835 38.6551 3.85376 38.5572C3.91916 38.4593 4.01213 38.3831 4.12089 38.338C4.22966 38.293 4.34934 38.2812 4.4648 38.3041C4.58027 38.3271 4.68633 38.3838 4.76958 38.467C4.85282 38.5503 4.90951 38.6563 4.93248 38.7718C4.95545 38.8873 4.94366 39.007 4.89861 39.1157C4.85356 39.2245 4.77726 39.3174 4.67938 39.3829C4.58149 39.4483 4.46641 39.4832 4.34868 39.4832C4.19086 39.483 4.03955 39.4202 3.92796 39.3087C3.81636 39.1971 3.7536 39.0458 3.75344 38.8879Z" fill="#989898"/>
<path d="M4.09981 16.2755L4.98493 15.1112L4.426 14.7952L3.85755 16.0987H3.8391L3.26172 14.8041L2.69327 15.1303L3.56886 16.2666V16.285L2.19922 16.1077V16.741L3.57779 16.5642V16.5833L2.69327 17.719L3.22362 18.0547L3.82958 16.741H3.84803L4.40696 18.0452L4.99386 17.71L4.09981 16.5922V16.5737L5.50577 16.741V16.1077L4.09981 16.294V16.2755Z" fill="#7210FF"/>
<path d="M41.714 6.18919L41.2044 6.84335L41.5104 7.0368L41.8592 6.28026H41.8693L42.1914 7.03145L42.5294 6.838L42.0146 6.19454V6.18383L42.8241 6.28026V5.91597L42.0146 6.02311V6.0124L42.5241 5.34216L42.2027 5.15942L41.8753 5.91002H41.8646L41.5318 5.16478L41.2044 5.35288L41.7086 6.00704V6.01776L40.9199 5.91597V6.28026L41.714 6.17847V6.18919Z" fill="#7210FF"/>
<path d="M95.4192 27.4077V26.7869L94.0401 26.969V26.9512L94.9079 25.8095L94.3597 25.4988L93.8026 26.7774H93.7841L93.218 25.5077L92.6603 25.8273L93.5192 26.9422V26.9601L92.1758 26.7869V27.4077L93.5282 27.2345V27.2529L92.6603 28.3666L93.1811 28.6958L93.7752 27.4077H93.793L94.3413 28.6869L94.9169 28.3577L94.0401 27.2619V27.2434L95.4192 27.4077Z" fill="#7210FF"/>
<path d="M68.8968 9.4743L69.6456 8.48978L69.1724 8.22192L68.692 9.3249H68.676L68.1879 8.22966L67.7063 8.50526L68.4474 9.46716V9.48264L67.2891 9.33264V9.86835L68.4551 9.71895V9.73502L67.7063 10.6957L68.1557 10.9797L68.6682 9.86835H68.6837L69.1569 10.9719L69.6533 10.688L68.8968 9.74276V9.72669L70.0861 9.86835V9.33264L68.8968 9.49038V9.4743Z" fill="#7210FF"/>
<path d="M1.19048 86.5072C1.84796 86.5072 2.38095 85.9742 2.38095 85.3167C2.38095 84.6592 1.84796 84.1262 1.19048 84.1262C0.532994 84.1262 0 84.6592 0 85.3167C0 85.9742 0.532994 86.5072 1.19048 86.5072Z" fill="#989898"/>
<path d="M6.54846 84.126H4.76274C4.44701 84.126 4.14421 84.2514 3.92095 84.4747C3.69769 84.6979 3.57227 85.0007 3.57227 85.3165C3.57227 85.6322 3.69769 85.935 3.92095 86.1582C4.14421 86.3815 4.44701 86.5069 4.76274 86.5069H6.54846C6.86419 86.5069 7.16699 86.3815 7.39025 86.1582C7.61351 85.935 7.73893 85.6322 7.73893 85.3165C7.73893 85.0007 7.61351 84.6979 7.39025 84.4747C7.16699 84.2514 6.86419 84.126 6.54846 84.126ZM95.2389 84.126H93.4532C93.1375 84.126 92.8347 84.2514 92.6114 84.4747C92.3882 84.6979 92.2627 85.0007 92.2627 85.3165C92.2627 85.6322 92.3882 85.935 92.6114 86.1582C92.8347 86.3815 93.1375 86.5069 93.4532 86.5069H95.2389C95.5547 86.5069 95.8575 86.3815 96.0807 86.1582C96.304 85.935 96.4294 85.6322 96.4294 85.3165C96.4294 85.0007 96.304 84.6979 96.0807 84.4747C95.8575 84.2514 95.5547 84.126 95.2389 84.126Z" fill="#989898"/>
<path d="M98.8096 86.5072C99.4671 86.5072 100 85.9742 100 85.3167C100 84.6592 99.4671 84.1262 98.8096 84.1262C98.1521 84.1262 97.6191 84.6592 97.6191 85.3167C97.6191 85.9742 98.1521 86.5072 98.8096 86.5072Z" fill="#989898"/>
<path d="M70.3305 88.8879H65.3855C65.0862 88.9119 64.8069 89.0477 64.6033 89.2684C64.3996 89.489 64.2865 89.7782 64.2865 90.0784C64.2865 90.3787 64.3996 90.6679 64.6033 90.8885C64.8069 91.1091 65.0862 91.2449 65.3855 91.2689H70.3305C70.6298 91.2449 70.9091 91.1091 71.1127 90.8885C71.3164 90.6679 71.4294 90.3787 71.4294 90.0784C71.4294 89.7782 71.3164 89.489 71.1127 89.2684C70.9091 89.0477 70.6298 88.9119 70.3305 88.8879ZM34.6163 88.8879H29.6712C29.3719 88.9119 29.0926 89.0477 28.889 89.2684C28.6853 89.489 28.5723 89.7782 28.5723 90.0784C28.5723 90.3787 28.6853 90.6679 28.889 90.8885C29.0926 91.1091 29.3719 91.2449 29.6712 91.2689H34.6163C34.9155 91.2449 35.1948 91.1091 35.3984 90.8885C35.6021 90.6679 35.7152 90.3787 35.7152 90.0784C35.7152 89.7782 35.6021 89.489 35.3984 89.2684C35.1948 89.0477 34.9155 88.9119 34.6163 88.8879ZM61.9056 88.8879H38.0961C37.7804 88.8879 37.4776 89.0134 37.2543 89.2366C37.031 89.4599 36.9056 89.7627 36.9056 90.0784C36.9056 90.3942 37.031 90.697 37.2543 90.9202C37.4776 91.1435 37.7804 91.2689 38.0961 91.2689H47.5842V92.4594H42.858C42.5423 92.4594 42.2395 92.5848 42.0162 92.8081C41.7929 93.0313 41.6675 93.3341 41.6675 93.6498C41.6675 93.9656 41.7929 94.2684 42.0162 94.4916C42.2395 94.7149 42.5423 94.8403 42.858 94.8403H57.7389C58.0547 94.8403 58.3575 94.7149 58.5807 94.4916C58.804 94.2684 58.9294 93.9656 58.9294 93.6498C58.9294 93.3341 58.804 93.0313 58.5807 92.8081C58.3575 92.5848 58.0547 92.4594 57.7389 92.4594H52.4175V91.2689H61.9056C62.2213 91.2689 62.5242 91.1435 62.7474 90.9202C62.9707 90.697 63.0961 90.3942 63.0961 90.0784C63.0961 89.7627 62.9707 89.4599 62.7474 89.2366C62.5242 89.0134 62.2213 88.8879 61.9056 88.8879ZM50.0009 50.9712C51.1028 50.9727 52.1602 50.537 52.9413 49.7598C53.7224 48.9825 54.1633 47.9272 54.1673 46.8253V45.0485C54.1665 44.7336 54.0407 44.4319 53.8174 44.2097C53.5942 43.9876 53.2918 43.8632 52.9769 43.864H47.0248C46.7099 43.8632 46.4075 43.9876 46.1843 44.2097C45.961 44.4319 45.8352 44.7336 45.8344 45.0485V46.8253C45.8384 47.9272 46.2793 48.9825 47.0604 49.7598C47.8415 50.537 48.899 50.9727 50.0009 50.9712ZM48.2152 46.2331H51.7865V46.8253C51.7844 47.2975 51.5953 47.7497 51.2607 48.0828C50.926 48.416 50.4731 48.603 50.0009 48.603C49.5286 48.603 49.0757 48.416 48.741 48.0828C48.4064 47.7497 48.2173 47.2975 48.2152 46.8253V46.2331Z" fill="#7210FF"/>
<path d="M49.4053 61.8542C50.0628 61.8542 50.5958 61.3238 50.5958 60.6696C50.5958 60.0154 50.0628 59.4851 49.4053 59.4851C48.7478 59.4851 48.2148 60.0154 48.2148 60.6696C48.2148 61.3238 48.7478 61.8542 49.4053 61.8542Z" fill="#7210FF"/>
<path d="M24.3486 77.0307H62.5722C62.2579 76.2791 62.2146 75.4416 62.4497 74.6616H24.3486C24.193 74.6616 24.039 74.6923 23.8953 74.7518C23.7516 74.8113 23.621 74.8986 23.511 75.0086C23.401 75.1186 23.3138 75.2491 23.2542 75.3928C23.1947 75.5366 23.1641 75.6906 23.1641 75.8461C23.1641 76.0017 23.1947 76.1557 23.2542 76.2994C23.3138 76.4432 23.401 76.5737 23.511 76.6837C23.621 76.7937 23.7516 76.881 23.8953 76.9405C24.039 77 24.193 77.0307 24.3486 77.0307ZM75.6499 77.0307C75.8054 77.0307 75.9595 77 76.1032 76.9405C76.2469 76.881 76.3775 76.7937 76.4875 76.6837C76.5975 76.5737 76.6847 76.4432 76.7442 76.2994C76.8038 76.1557 76.8344 76.0017 76.8344 75.8461C76.8344 75.6906 76.8038 75.5366 76.7442 75.3928C76.6847 75.2491 76.5975 75.1186 76.4875 75.0086C76.3775 74.8986 76.2469 74.8113 76.1032 74.7518C75.9595 74.6923 75.8054 74.6616 75.6499 74.6616H69.2932C69.5284 75.4416 69.4851 76.2791 69.1707 77.0307H75.6499Z" fill="#989898"/>
<path d="M65.8721 76.8578C66.5296 76.8578 67.0626 76.3275 67.0626 75.6733C67.0626 75.0191 66.5296 74.4888 65.8721 74.4888C65.2146 74.4888 64.6816 75.0191 64.6816 75.6733C64.6816 76.3275 65.2146 76.8578 65.8721 76.8578Z" fill="#7210FF"/>
<path d="M78.0307 81.769C78.1863 81.769 78.3403 81.7383 78.484 81.6788C78.6277 81.6193 78.7583 81.532 78.8683 81.422C78.9783 81.312 79.0655 81.1815 79.1251 81.0377C79.1846 80.894 79.2152 80.74 79.2152 80.5844C79.2152 80.4289 79.1846 80.2749 79.1251 80.1312C79.0655 79.9874 78.9783 79.8569 78.8683 79.7469C78.7583 79.6369 78.6277 79.5496 78.484 79.4901C78.3403 79.4306 78.1863 79.3999 78.0307 79.3999H33.0531C33.312 80.1718 33.2927 81.0099 32.9985 81.769H78.0307ZM26.2727 79.3999H21.9677C21.6536 79.3999 21.3523 79.5247 21.1301 79.7468C20.908 79.969 20.7832 80.2703 20.7832 80.5844C20.7832 80.8986 20.908 81.1999 21.1301 81.422C21.3523 81.6442 21.6536 81.7689 21.9677 81.7689H26.3273C26.0331 81.0099 26.0138 80.1717 26.2727 79.3999Z" fill="#989898"/>
<path d="M29.6631 81.6947C30.3206 81.6947 30.8536 81.1644 30.8536 80.5102C30.8536 79.856 30.3206 79.3257 29.6631 79.3257C29.0057 79.3257 28.4727 79.856 28.4727 80.5102C28.4727 81.1644 29.0057 81.6947 29.6631 81.6947Z" fill="#7210FF"/>
<path d="M29.9074 36.7568C30.9727 33.9219 32.6253 31.3441 34.7568 29.1927C36.8882 27.0412 39.4504 25.3646 42.2753 24.2728C42.5348 24.7246 42.9086 25.1002 43.3593 25.3618C43.8099 25.6233 44.3215 25.7617 44.8425 25.763H55.1593C55.6803 25.7617 56.1919 25.6233 56.6425 25.3618C57.0932 25.1002 57.467 24.7246 57.7265 24.2728C60.5514 25.3646 63.1136 27.0412 65.245 29.1927C67.3765 31.3441 69.0291 33.9219 70.0944 36.7568H70.3705C71.1493 36.7595 71.9261 36.8362 72.6904 36.986C71.563 33.5011 69.648 30.3227 67.0939 27.6974C64.5399 25.0721 61.4154 23.0704 57.9628 21.8477C57.7625 21.2629 57.3848 20.7552 56.8822 20.3954C56.3797 20.0355 55.7773 19.8415 55.1592 19.8403H44.8425C44.2244 19.8415 43.6221 20.0355 43.1195 20.3954C42.617 20.7552 42.2392 21.2629 42.0389 21.8477C38.5864 23.0705 35.4619 25.0721 32.9078 27.6974C30.3538 30.3227 28.4388 33.5011 27.3114 36.986C28.0757 36.8362 28.8525 36.7595 29.6313 36.7568L29.9074 36.7568ZM44.8425 22.2094H55.1593C55.3164 22.2094 55.467 22.2718 55.5781 22.3828C55.6892 22.4939 55.7516 22.6446 55.7516 22.8016C55.7516 22.9587 55.6892 23.1094 55.5781 23.2204C55.467 23.3315 55.3164 23.3939 55.1593 23.3939H44.8425C44.6854 23.3939 44.5348 23.3315 44.4237 23.2204C44.3126 23.1094 44.2502 22.9587 44.2502 22.8016C44.2502 22.6446 44.3126 22.4939 44.4237 22.3828C44.5348 22.2718 44.6854 22.2094 44.8425 22.2094ZM89.716 84.126H84.5215C85.076 83.6541 85.5784 83.1242 86.0201 82.5453C86.9765 81.3002 87.6275 79.8481 87.9209 78.3057C88.2142 76.7633 88.1417 75.1736 87.7092 73.6643L80.0473 46.4731C79.4499 44.3644 78.1827 42.5072 76.4371 41.1819C74.6916 39.8565 72.5622 39.1349 70.3705 39.1259H29.6313C27.4396 39.1349 25.3102 39.8565 23.5646 41.1819C21.8191 42.5072 20.5519 44.3644 19.9545 46.4731L12.2926 73.6643C11.8601 75.1736 11.7876 76.7633 12.0809 78.3057C12.3743 79.8481 13.0253 81.3002 13.9817 82.5454C14.4234 83.1243 14.9258 83.6542 15.4803 84.1261H10.2858C10.1165 84.104 9.94434 84.1182 9.78093 84.1679C9.61752 84.2176 9.46659 84.3016 9.33824 84.4143C9.20988 84.527 9.10704 84.6657 9.03658 84.8213C8.96613 84.9769 8.92969 85.1458 8.92969 85.3166C8.92969 85.4874 8.96613 85.6562 9.03658 85.8118C9.10704 85.9674 9.20988 86.1061 9.33824 86.2188C9.46659 86.3315 9.61752 86.4155 9.78093 86.4652C9.94434 86.5149 10.1165 86.5292 10.2858 86.507H89.716C89.8853 86.5292 90.0575 86.5149 90.2209 86.4652C90.3843 86.4155 90.5352 86.3315 90.6636 86.2188C90.7919 86.1061 90.8948 85.9674 90.9652 85.8118C91.0357 85.6562 91.0721 85.4874 91.0721 85.3166C91.0721 85.1458 91.0357 84.9769 90.9652 84.8213C90.8948 84.6657 90.7919 84.527 90.6636 84.4143C90.5352 84.3016 90.3843 84.2176 90.2209 84.1679C90.0575 84.1182 89.8853 84.1039 89.716 84.126ZM67.4174 41.495L59.8849 49.1927C58.4246 50.6821 56.667 51.8475 54.7267 52.6131C52.7863 53.3786 50.7065 53.7272 48.6226 53.6362C46.5386 53.5451 44.4972 53.0165 42.631 52.0846C40.7648 51.1527 39.1156 49.8385 37.7907 48.2274L32.2712 41.495H67.4174ZM15.879 81.1141C15.1458 80.1593 14.6468 79.0457 14.422 77.863C14.1973 76.6802 14.2532 75.4613 14.5851 74.304L21.8656 48.4662L39.6597 59.09C41.5815 60.237 43.7003 61.0157 45.9075 61.3862C45.7429 60.5905 45.8584 59.7623 46.2346 59.0421C44.3446 58.7148 42.531 58.0425 40.8844 57.0587L22.5991 46.1415C23.1659 44.834 24.0841 43.7092 25.2517 42.8921C26.4192 42.0749 27.7905 41.5974 29.213 41.5126L35.9458 49.7248C37.4829 51.595 39.3966 53.1207 41.5624 54.2023C43.7282 55.284 46.0975 55.8975 48.5161 56.0028C48.7675 56.0138 49.0183 56.0193 49.2685 56.0193C51.5633 56.0194 53.8351 55.5619 55.9509 54.6734C58.0667 53.785 59.9841 52.4835 61.5909 50.8451L70.7257 41.5099C72.2419 41.5874 73.7014 42.1108 74.9213 43.0143C76.1412 43.9178 77.0673 45.1614 77.5835 46.589L55.9274 57.5748C54.8265 58.1321 53.6638 58.5577 52.4633 58.8429C52.8933 59.5378 53.0613 60.3632 52.9371 61.1708C54.3488 60.8402 55.7157 60.3415 57.0086 59.6854L78.2598 48.9049L85.4167 74.304C85.7486 75.4612 85.8045 76.6802 85.5798 77.863C85.3551 79.0457 84.856 80.1593 84.1228 81.1141C83.4325 82.027 82.5449 82.772 81.5261 83.2936C80.5074 83.8151 79.384 84.0997 78.2398 84.126H21.762C20.6178 84.0997 19.4944 83.8151 18.4757 83.2936C17.4569 82.772 16.5693 82.027 15.879 81.1141Z" fill="#989898"/>
</g>
<defs>
<clipPath id="clip0_921_4565">
<rect width="100" height="100" fill="white"/>
</clipPath>
</defs>
</svg>
