<svg width="20" height="20" viewBox="0 0 20 20" fill="none" xmlns="http://www.w3.org/2000/svg">
<g clip-path="url(#clip0_790_3835)">
<path d="M9.82917 17.5001H4.16667C3.72464 17.5001 3.30072 17.3245 2.98816 17.0119C2.67559 16.6994 2.5 16.2754 2.5 15.8334V5.83341C2.5 5.39139 2.67559 4.96746 2.98816 4.6549C3.30072 4.34234 3.72464 4.16675 4.16667 4.16675H14.1667C14.6087 4.16675 15.0326 4.34234 15.3452 4.6549C15.6577 4.96746 15.8333 5.39139 15.8333 5.83341V9.16675" stroke="#989898" stroke-width="1.5" stroke-linecap="round" stroke-linejoin="round"/>
<path d="M11.667 15.0001C11.667 15.8841 12.0182 16.732 12.6433 17.3571C13.2684 17.9822 14.1163 18.3334 15.0003 18.3334C15.8844 18.3334 16.7322 17.9822 17.3573 17.3571C17.9825 16.732 18.3337 15.8841 18.3337 15.0001C18.3337 14.116 17.9825 13.2682 17.3573 12.6431C16.7322 12.0179 15.8844 11.6667 15.0003 11.6667C14.1163 11.6667 13.2684 12.0179 12.6433 12.6431C12.0182 13.2682 11.667 14.116 11.667 15.0001Z" stroke="#989898" stroke-width="1.5" stroke-linecap="round" stroke-linejoin="round"/>
<path d="M12.5 2.5V5.83333" stroke="#989898" stroke-width="1.5" stroke-linecap="round" stroke-linejoin="round"/>
<path d="M5.83301 2.5V5.83333" stroke="#989898" stroke-width="1.5" stroke-linecap="round" stroke-linejoin="round"/>
<path d="M2.5 9.16675H15.8333" stroke="#989898" stroke-width="1.5" stroke-linecap="round" stroke-linejoin="round"/>
<path d="M15 13.7466V14.9999L15.8333 15.8332" stroke="#989898" stroke-width="1.5" stroke-linecap="round" stroke-linejoin="round"/>
</g>
<defs>
<clipPath id="clip0_790_3835">
<rect width="20" height="20" fill="white"/>
</clipPath>
</defs>
</svg>
