<svg width="66" height="66" viewBox="0 0 66 66" fill="none" xmlns="http://www.w3.org/2000/svg">
    <g clip-path="url(#vgw9c0ixla)">
        <path d="M33 66c18.219 0 32.989-14.775 32.989-33S51.219 0 32.998 0C14.78 0 .01 14.775.01 33S14.78 66 33 66z" fill="#31D474"/>
        <path d="M33 0h-.045v66H33c18.22 0 32.99-14.775 32.99-33C65.99 14.774 51.22 0 33 0z" fill="#31D474"/>
        <path d="m14.349 33.656 13.343 13.343a1.49 1.49 0 0 0 2.107 0l21.906-21.906a1.49 1.49 0 0 0 0-2.108l-3.987-3.987a1.49 1.49 0 0 0-2.108 0L29.677 34.931a1.49 1.49 0 0 1-2.107 0l-7.14-7.14a1.49 1.49 0 0 0-2.078-.03L14.38 31.52a1.49 1.49 0 0 0-.03 2.137z" fill="#FFF5F5"/>
        <path d="M47.718 18.998a1.49 1.49 0 0 0-2.108 0L32.955 31.654v12.19l18.75-18.75a1.49 1.49 0 0 0 0-2.109l-3.987-3.987z" fill="#DFEBF1"/>
    </g>
    <defs>
        <clipPath id="vgw9c0ixla">
            <path fill="#fff" d="M0 0h66v66H0z"/>
        </clipPath>
    </defs>
</svg>
