<svg width="64" height="64" viewBox="0 0 64 64" fill="none" xmlns="http://www.w3.org/2000/svg">
<g clip-path="url(#clip0_291_1662)">
<path d="M54.6275 9.37263C48.5834 3.32863 40.5475 0 32 0C23.4525 0 15.4166 3.32863 9.3725 9.37263C3.32863 15.4166 0 23.4525 0 32C0 40.5475 3.32863 48.5834 9.3725 54.6274C15.4166 60.6714 23.4525 64 32 64C40.5475 64 48.5834 60.6714 54.6275 54.6274C60.6714 48.5834 64 40.5475 64 32C64 23.4525 60.6714 15.4166 54.6275 9.37263ZM32 60.25C23.6414 60.25 16.1204 56.5998 10.9435 50.8111C14.1529 42.3027 22.3685 36.25 32 36.25C25.7868 36.25 20.75 31.2132 20.75 25C20.75 18.7868 25.7868 13.75 32 13.75C38.2132 13.75 43.25 18.7868 43.25 25C43.25 31.2132 38.2132 36.25 32 36.25C41.6315 36.25 49.8471 42.3027 53.0565 50.8111C47.8796 56.5998 40.3586 60.25 32 60.25Z" fill="#D9D9D9"/>
</g>
<defs>
<clipPath id="clip0_291_1662">
<rect width="64" height="64" fill="white"/>
</clipPath>
</defs>
</svg>
