<svg width="24" height="24" viewBox="0 0 24 24" fill="none" xmlns="http://www.w3.org/2000/svg">
<path d="M19.6 4.40011C17.7699 2.58102 15.346 1.48164 12.7718 1.3031C10.1976 1.12455 7.64515 1.87877 5.58142 3.42778C3.51769 4.97679 2.08064 7.21704 1.53317 9.73868C0.985694 12.2603 1.36439 14.8948 2.59999 17.1601C2.62287 17.2248 2.62287 17.2954 2.59999 17.3601L1.80999 20.0001C1.72263 20.3031 1.71733 20.6239 1.79464 20.9296C1.87195 21.2354 2.02909 21.5151 2.24999 21.7401C2.47421 21.9655 2.75559 22.1255 3.06391 22.2031C3.37223 22.2806 3.69584 22.2726 3.99999 22.1801L6.64999 21.3901C6.68168 21.3769 6.71566 21.3701 6.74999 21.3701C6.78432 21.3701 6.81831 21.3769 6.84999 21.3901C8.42325 22.2736 10.1957 22.7416 12 22.7501C12.7761 22.7485 13.5501 22.6681 14.31 22.5101C16.195 22.0966 17.934 21.1834 19.3444 19.8661C20.7547 18.5489 21.7845 16.8763 22.3256 15.0239C22.8667 13.1715 22.8992 11.2075 22.4196 9.33825C21.94 7.46895 20.9661 5.76323 19.6 4.40011Z" fill="#0DB561"/>
<path d="M12 9.80005C13.1046 9.80005 14 8.90462 14 7.80005C14 6.69548 13.1046 5.80005 12 5.80005C10.8954 5.80005 10 6.69548 10 7.80005C10 8.90462 10.8954 9.80005 12 9.80005Z" fill="white"/>
<path d="M12 10.8301C11.4696 10.8301 10.9609 11.0408 10.5858 11.4159C10.2107 11.7909 10 12.2996 10 12.8301V16.3901C10 16.9205 10.2107 17.4292 10.5858 17.8043C10.9609 18.1794 11.4696 18.3901 12 18.3901C12.5304 18.3901 13.0391 18.1794 13.4142 17.8043C13.7893 17.4292 14 16.9205 14 16.3901V12.8301C14 12.2996 13.7893 11.7909 13.4142 11.4159C13.0391 11.0408 12.5304 10.8301 12 10.8301Z" fill="white"/>
</svg>
