<svg width="28" height="28" viewBox="0 0 28 28" fill="none" xmlns="http://www.w3.org/2000/svg">
<g clip-path="url(#clip0_290_1524)">
<path d="M27.6261 8.7776L24.7053 7.80394V6.85123C24.7053 6.27116 24.5079 5.49487 24.1901 4.82544C23.738 3.87355 22.7647 3.25842 21.7104 3.25842H19.6445C18.4706 3.25842 17.4272 4.00534 17.0482 5.11709L16.9786 5.32129C16.162 7.72327 15.2367 10.4449 12.427 11.0516C12.3424 11.0625 12.0209 11.1041 11.5894 11.1577L11.5224 11.6207L12.5988 12.1314C12.6169 12.1287 12.6286 12.1269 12.6328 12.1261C14.1732 11.8002 15.3818 10.9449 16.3275 9.51123C17.1384 8.28191 17.6142 6.84997 18.0834 5.46993C18.3113 4.80138 18.9387 4.35212 19.6445 4.35212H21.7104C22.3447 4.35212 22.9302 4.72208 23.202 5.29455C23.4849 5.89042 23.6116 6.50571 23.6116 6.85117V8.19807C23.6116 8.31285 23.6477 8.42472 23.7148 8.51783C23.7819 8.61094 23.8766 8.68057 23.9855 8.71684L26.8728 9.67934C26.6911 10.7098 25.7893 11.495 24.7076 11.495H21.9621C21.6486 11.495 21.3984 11.7584 21.4161 12.0724C21.4786 13.1897 21.2757 14.2022 20.8131 15.082C20.7972 15.1121 20.8602 14.9749 19.8156 17.3096C19.7783 17.3928 19.7625 17.484 19.7695 17.5749L20.3186 24.7088C20.3286 24.839 20.3849 24.9613 20.4772 25.0536L21.74 26.3164H20.7491C19.864 26.3164 19.1131 25.6254 19.0394 24.7433L18.6633 20.233C18.6525 20.1016 18.5945 19.9785 18.5 19.8865C18.4055 19.7945 18.281 19.7398 18.1493 19.7324C7.81905 19.1588 8.26163 19.1823 8.23281 19.1823C8.11107 19.1825 7.99286 19.2233 7.89702 19.2984C7.80118 19.3735 7.73321 19.4785 7.70393 19.5966C7.51258 20.3617 7.01788 21.3789 4.93975 21.3789C4.63771 21.3789 4.39288 21.6237 4.39288 21.9257V25.2159C4.39288 25.3609 4.45052 25.5 4.55306 25.6026L5.26684 26.3164H4.28082C3.43185 26.3164 2.74115 25.6256 2.74115 24.7766V21.4431C2.74115 20.8426 2.97866 20.2632 3.39281 19.8533C3.70831 19.5411 3.95876 19.1693 4.12965 18.7596C4.30054 18.3499 4.38848 17.9104 4.38839 17.4665V14.7896C4.38841 14.6815 4.35635 14.5757 4.29628 14.4858C4.23621 14.3959 4.15082 14.3258 4.05091 14.2844C3.951 14.243 3.84106 14.2321 3.73499 14.2532C3.62891 14.2743 3.53147 14.3263 3.45499 14.4028L1.41049 16.4459L1.77083 14.5262C1.9811 13.405 2.96034 12.5908 4.10046 12.5887C5.04382 12.6059 7.57093 12.6401 8.51199 12.5878C8.67031 12.579 8.88584 12.561 9.13543 12.5371L9.0802 11.9539L8.07526 11.5102C6.76353 11.5448 4.14202 11.4949 4.10517 11.4949C2.4372 11.4949 1.00335 12.685 0.695892 14.3245L0.00939962 17.9812C-0.012184 18.096 0.00356675 18.2147 0.0543442 18.3199C0.105122 18.4251 0.188257 18.5113 0.291569 18.5659C0.394882 18.6204 0.512941 18.6404 0.628451 18.6229C0.743961 18.6055 0.850848 18.5515 0.933454 18.4689L3.29459 16.1093V17.4665C3.29467 17.7658 3.23538 18.0622 3.12017 18.3385C3.00495 18.6148 2.83609 18.8654 2.62335 19.076C2.00309 19.6898 1.64735 20.5526 1.64735 21.4432V24.7767C1.64735 26.2288 2.8287 27.4102 4.28077 27.4102H6.58814C6.89018 27.4102 7.13502 27.1653 7.13502 26.8633C7.1351 26.7866 7.119 26.7107 7.08776 26.6406C7.05652 26.5705 7.01085 26.5078 6.95373 26.4565L5.48657 24.9894V22.4506C7.40463 22.2906 8.25792 21.285 8.62908 20.2989L17.6128 20.7981L17.9494 24.8342C18.0708 26.289 19.2867 27.4102 20.749 27.4102H23.0602C23.1684 27.4102 23.2741 27.3781 23.3641 27.318C23.454 27.2579 23.5241 27.1725 23.5655 27.0726C23.6069 26.9726 23.6177 26.8627 23.5966 26.7566C23.5755 26.6505 23.5234 26.5531 23.4469 26.4766L21.3935 24.4233L20.8707 17.6295L21.7893 15.5753C22.2578 14.6783 22.5027 13.676 22.5199 12.5888H24.7075C26.523 12.5888 27.9999 11.1118 27.9999 9.29636C28 9.18159 27.9639 9.06973 27.8968 8.97662C27.8297 8.88351 27.735 8.81388 27.6261 8.7776Z" fill="#7210FF"/>
<path d="M20.8638 6.5531C20.5618 6.5531 20.3169 6.79799 20.3169 7.09998V9.81362C19.2142 9.66099 19.2143 9.03526 19.2143 8.74727C19.2143 8.44523 18.9694 8.2004 18.6674 8.2004C18.3654 8.2004 18.1205 8.44523 18.1205 8.74727C18.1205 9.40702 18.3878 10.9415 20.8638 10.9415C21.1659 10.9415 21.4107 10.6966 21.4107 10.3946V7.09998C21.4107 6.79799 21.1659 6.5531 20.8638 6.5531Z" fill="#7210FF"/>
<path d="M13.7255 19.4867L15.9225 19.6087L15.9219 17.5329H19.7689C19.7689 17.4562 19.7841 17.38 19.8155 17.3097L20.698 15.3365H15.9219L0.632614 0.589722V4.3006L13.7255 16.9838V19.4867Z" fill="#7210FF" fill-opacity="0.4"/>
</g>
<defs>
<clipPath id="clip0_290_1524">
<rect width="28" height="28" fill="white"/>
</clipPath>
</defs>
</svg>
