<svg width="40" height="40" viewBox="0 0 40 40" fill="none" xmlns="http://www.w3.org/2000/svg">
<path d="M20.0625 0H19.9375C11.093 0 3.92188 7.17031 3.92188 16.0156V40H36.0781V16.0156C36.0781 7.17031 28.907 0 20.0625 0ZM32.1586 36.0812H7.84141V16.0781C7.84141 9.37344 13.2953 3.91875 20 3.91875C26.7047 3.91875 32.1586 9.37344 32.1586 16.0781V36.0812Z" fill="#7210FF" fill-opacity="0.4"/>
<path d="M20 3.91895C13.2956 3.91895 7.84119 9.3734 7.84119 16.0778V36.081H32.1588V16.0778C32.1588 9.37332 26.7045 3.91895 20 3.91895ZM20 3.91895V36.081" stroke="#7210FF" stroke-miterlimit="10" stroke-linecap="round" stroke-linejoin="round"/>
<path d="M11.6505 7.24731L20 16.47L28.3496 7.24731M7.84119 16.47H32.1588V26.2754H7.84119V16.47ZM7.84119 26.2755H32.1588V36.081H7.84119V26.2755Z" stroke="#7210FF" stroke-miterlimit="10" stroke-linecap="round" stroke-linejoin="round"/>
</svg>
