<svg width="40" height="40" viewBox="0 0 40 40" fill="none" xmlns="http://www.w3.org/2000/svg">
<path d="M34.4315 28.8176H5.56854V24.3835C5.56854 23.0868 6.61971 22.0356 7.91643 22.0356H32.0836C33.3803 22.0356 34.4315 23.0868 34.4315 24.3835V28.8176Z" fill="#7210FF" fill-opacity="0.4"/>
<path d="M13.7151 7.96484H35.8436C37.7077 7.96484 39.2188 9.47594 39.2188 11.34V25.4425C39.2188 27.3066 37.7077 28.8177 35.8436 28.8177H4.15641C2.29234 28.8177 0.78125 27.3066 0.78125 25.4425V11.34C0.78125 9.47594 2.29234 7.96484 4.15641 7.96484H7.51828M1.18016 17.8469H38.8198" stroke="#7210FF" stroke-miterlimit="10" stroke-linecap="round" stroke-linejoin="round"/>
<path d="M26.4144 14.2787C27.2082 14.2787 27.8517 13.6352 27.8517 12.8414C27.8517 12.0476 27.2082 11.4041 26.4144 11.4041C25.6206 11.4041 24.9771 12.0476 24.9771 12.8414C24.9771 13.6352 25.6206 14.2787 26.4144 14.2787Z" stroke="#7210FF" stroke-miterlimit="10" stroke-linecap="round" stroke-linejoin="round"/>
<path d="M32.9942 14.2787C33.788 14.2787 34.4316 13.6352 34.4316 12.8414C34.4316 12.0476 33.788 11.4041 32.9942 11.4041C32.2004 11.4041 31.5569 12.0476 31.5569 12.8414C31.5569 13.6352 32.2004 14.2787 32.9942 14.2787Z" stroke="#7210FF" stroke-miterlimit="10" stroke-linecap="round" stroke-linejoin="round"/>
<path d="M12.0114 25.4266H27.9887M20 32.4445V35.38M27.8367 33.9123C27.8367 34.7229 27.1796 35.38 26.3689 35.38C25.5583 35.38 24.9012 34.7229 24.9012 33.9123V32.4445M12.1634 33.9123C12.1634 34.7229 12.8205 35.38 13.6311 35.38C14.4417 35.38 15.0989 34.7229 15.0989 33.9123V32.4445" stroke="#7210FF" stroke-miterlimit="10" stroke-linecap="round" stroke-linejoin="round"/>
<path d="M10.605 14.2327C13.4752 14.2327 15.8019 11.9059 15.8019 9.0357C15.8019 6.1655 13.4752 3.83875 10.605 3.83875C7.73478 3.83875 5.40802 6.1655 5.40802 9.0357C5.40802 11.9059 7.73478 14.2327 10.605 14.2327Z" fill="#7210FF" fill-opacity="0.4"/>
<path d="M10.605 7.13525V9.03564L11.6857 9.93174" stroke="#7210FF" stroke-miterlimit="10" stroke-linecap="round" stroke-linejoin="round"/>
</svg>
