<svg width="36" height="36" viewBox="0 0 36 36" fill="none" xmlns="http://www.w3.org/2000/svg">
    <path d="M3 14.625c-.615 0-1.125-.51-1.125-1.125V9.75c0-4.35 3.54-7.875 7.875-7.875h3.75c.615 0 1.125.51 1.125 1.125s-.51 1.125-1.125 1.125H9.75A5.627 5.627 0 0 0 4.125 9.75v3.75c0 .615-.51 1.125-1.125 1.125zm30 0c-.615 0-1.125-.51-1.125-1.125V9.75a5.627 5.627 0 0 0-5.625-5.625H22.5c-.615 0-1.125-.51-1.125-1.125s.51-1.125 1.125-1.125h3.75c4.335 0 7.875 3.525 7.875 7.875v3.75c0 .615-.51 1.125-1.125 1.125zm-6.75 19.5H24c-.615 0-1.125-.51-1.125-1.125s.51-1.125 1.125-1.125h2.25a5.627 5.627 0 0 0 5.625-5.625V24c0-.615.51-1.125 1.125-1.125s1.125.51 1.125 1.125v2.25c0 4.35-3.54 7.875-7.875 7.875zm-12.75 0H9.75c-4.335 0-7.875-3.525-7.875-7.875V22.5c0-.615.51-1.125 1.125-1.125s1.125.51 1.125 1.125v3.75a5.627 5.627 0 0 0 5.625 5.625h3.75c.615 0 1.125.51 1.125 1.125s-.51 1.125-1.125 1.125z" fill="#fff"/>
    <path d="M13.5 7.875h-3c-1.71 0-2.625.9-2.625 2.625v3c0 1.725.915 2.625 2.625 2.625h3c1.71 0 2.625-.9 2.625-2.625v-3c0-1.725-.915-2.625-2.625-2.625zm12 0h-3c-1.71 0-2.625.9-2.625 2.625v3c0 1.725.915 2.625 2.625 2.625h3c1.71 0 2.625-.9 2.625-2.625v-3c0-1.725-.915-2.625-2.625-2.625zm-12 12h-3c-1.71 0-2.625.9-2.625 2.625v3c0 1.725.915 2.625 2.625 2.625h3c1.71 0 2.625-.9 2.625-2.625v-3c0-1.725-.915-2.625-2.625-2.625zm12 0h-3c-1.71 0-2.625.9-2.625 2.625v3c0 1.725.915 2.625 2.625 2.625h3c1.71 0 2.625-.9 2.625-2.625v-3c0-1.725-.915-2.625-2.625-2.625z" fill="#fff"/>
</svg>
