<svg width="24" height="24" viewBox="0 0 24 24" fill="none" xmlns="http://www.w3.org/2000/svg">
<path d="M12.02 2.90991C8.71 2.90991 6.02 5.59991 6.02 8.90991V11.7999C6.02 12.4099 5.76 13.3399 5.45 13.8599L4.3 15.7699C3.59 16.9499 4.08 18.2599 5.38 18.6999C9.69 20.1399 14.34 20.1399 18.65 18.6999C19.86 18.2999 20.39 16.8699 19.73 15.7699L18.58 13.8599C18.28 13.3399 18.02 12.4099 18.02 11.7999V8.90991C18.02 5.60991 15.32 2.90991 12.02 2.90991Z" stroke="#989898" stroke-width="1.5" stroke-miterlimit="10" stroke-linecap="round"/>
<path d="M13.87 3.20092C12.6607 2.85651 11.3793 2.85651 10.17 3.20092C10.46 2.46092 11.18 1.94092 12.02 1.94092C12.86 1.94092 13.58 2.46092 13.87 3.20092Z" stroke="#989898" stroke-width="1.5" stroke-miterlimit="10" stroke-linecap="round" stroke-linejoin="round"/>
<path opacity="0.4" d="M15.02 19.0591C15.02 20.7091 13.67 22.0591 12.02 22.0591C11.2 22.0591 10.44 21.7191 9.9 21.1791C9.33816 20.6164 9.0218 19.8542 9.02 19.0591" stroke="#989898" stroke-width="1.5" stroke-miterlimit="10"/>
</svg>
