<svg width="40" height="40" viewBox="0 0 40 40" fill="none" xmlns="http://www.w3.org/2000/svg">
<g clip-path="url(#clip0_289_1460)">
<path fill-rule="evenodd" clip-rule="evenodd" d="M3.19828 19.7638L3.23766 19.7244C4.93648 17.7634 6.0543 15.4323 6.80226 12.9613C7.9375 9.21063 8.26195 5.07281 8.26195 1.17188V0.78125H14.6681V1.17188C14.6681 5.24516 14.1271 9.47461 12.4455 13.2198C11.2422 15.8996 9.5307 18.1552 7.26859 20H3.19828V19.7638ZM25.3319 0.78125H31.738V1.17188C31.738 5.07281 32.0625 9.21063 33.1977 12.9613C33.9457 15.4323 35.0635 17.7634 36.7623 19.7244L37.038 20H32.7314C30.4693 18.1552 28.7578 15.8996 27.5545 13.2198C25.8729 9.47469 25.3319 5.24516 25.3319 1.17188V0.78125Z" fill="#7210FF" fill-opacity="0.4"/>
<path d="M1.17188 20H9.76562M9.76562 20C10.625 20 11.3281 20.7032 11.3281 21.5625C11.3281 22.4218 10.6249 23.125 9.76562 23.125H1.17188M9.76562 20C15.5538 16.6582 20 11.172 20 1.17188" stroke="#7210FF" stroke-miterlimit="22.9256" stroke-linecap="round" stroke-linejoin="round"/>
<path d="M9.76562 23.125L14.1016 34.6192C12.2986 36.827 9.31813 35.7967 9.31813 35.7967C7.88305 37.8205 4.6818 37.0478 4.6818 37.0478C3.91992 38.3673 2.54758 39.2188 0.78125 39.2188V0.78125H39.2188V39.2188C37.4525 39.2188 36.0801 38.3673 35.3183 37.0478C35.3183 37.0478 32.117 37.8205 30.682 35.7967C30.682 35.7967 27.7014 36.827 25.8984 34.6192L30.2344 23.125" stroke="#7210FF" stroke-miterlimit="22.9256" stroke-linecap="round" stroke-linejoin="round"/>
<path d="M38.8281 20H30.2344M30.2344 20C29.375 20 28.6719 20.7032 28.6719 21.5625C28.6719 22.4218 29.3751 23.125 30.2344 23.125H38.8281M30.2344 20C24.4462 16.6582 20 11.172 20 1.17188M9.76562 23.125L14.1016 34.6192M6.31476 23.4139L7.09875 26.8291M3.39429 23.3853L4.11187 30.4737M33.6852 23.4139L32.9012 26.8291M36.6057 23.3853L35.8881 30.4737" stroke="#7210FF" stroke-miterlimit="22.9256" stroke-linecap="round" stroke-linejoin="round"/>
</g>
<defs>
<clipPath id="clip0_289_1460">
<rect width="40" height="40" fill="white"/>
</clipPath>
</defs>
</svg>
