<svg width="40" height="40" viewBox="0 0 40 40" fill="none" xmlns="http://www.w3.org/2000/svg">
<path d="M16.8105 19.1218L11.8293 26.2792M14.7599 28.4845V28.4838L19.9529 20.9065M36.4784 18.5384L38.8126 19.8513L35.6983 25.305L30.25 22.1875M8.72602 28.6281H4.70344M9.68617 31.7689H4.70344M14.8788 7.96594L19.6461 10.6936M0.78125 23.1316V37.2656M0.78125 24.702C2.94742 24.702 4.70344 26.4599 4.70344 28.6282V31.7691C4.70344 33.9374 2.94742 35.6952 0.78125 35.6952" stroke="#7210FF" stroke-miterlimit="10" stroke-linecap="round" stroke-linejoin="round"/>
<path d="M27.4556 18.8479L10.5373 9.23986L10.9251 8.56072L10.2288 8.20447L8.50078 11.2308C7.53133 12.9282 8.12391 15.0872 9.82063 16.0509L25.525 25.0164C26.0549 25.3175 26.6538 25.4761 27.2632 25.4768H27.2634C28.5271 25.4768 29.7013 24.7952 30.3313 23.6918L32.426 19.9438C30.7545 20.0838 29.0247 19.739 27.4556 18.8479ZM11.7634 33.3382C9.60242 33.3382 7.84438 31.5795 7.84438 29.4177C7.84438 27.256 9.60242 25.4972 11.7634 25.4972C13.9243 25.4972 15.6824 27.256 15.6824 29.4177C15.6824 31.5795 13.9243 33.3382 11.7634 33.3382Z" fill="#7210FF" fill-opacity="0.4"/>
<path d="M27.4556 18.8478L10.5373 9.2398L13.4612 4.11933C14.2119 2.80449 15.8837 2.34542 17.1996 3.09285L39.2187 15.5976C36.867 19.7468 31.6005 21.202 27.4556 18.8478Z" stroke="#7210FF" stroke-miterlimit="10" stroke-linecap="round" stroke-linejoin="round"/>
</svg>
