<svg width="28" height="28" viewBox="0 0 28 28" fill="none" xmlns="http://www.w3.org/2000/svg">
<g clip-path="url(#clip0_290_1510)">
<path d="M19.9104 20.1112L17.1224 16.2365C16.6121 15.5273 15.7891 15.1064 14.9123 15.1064H10.3654C9.5187 15.1064 8.72032 15.499 8.20614 16.1682L5.17624 20.1112H19.9104Z" fill="#7210FF" fill-opacity="0.4"/>
<path d="M17.17 25.6027H19.9104V20.1112H4.21044C2.43611 20.1112 0.984375 21.5631 0.984375 23.3376V25.6027H4.01685M7.98087 25.6027H13.2692" stroke="#7210FF" stroke-miterlimit="10" stroke-linecap="round" stroke-linejoin="round"/>
<path d="M15.2205 27.453C16.2478 27.453 17.0806 26.6246 17.0806 25.6027C17.0806 24.5807 16.2478 23.7523 15.2205 23.7523C14.1932 23.7523 13.3604 24.5807 13.3604 25.6027C13.3604 26.6246 14.1932 27.453 15.2205 27.453Z" stroke="#7210FF" stroke-miterlimit="10" stroke-linecap="round" stroke-linejoin="round"/>
<path d="M5.98969 27.453C7.01699 27.453 7.84978 26.6246 7.84978 25.6027C7.84978 24.5807 7.01699 23.7523 5.98969 23.7523C4.9624 23.7523 4.12961 24.5807 4.12961 25.6027C4.12961 26.6246 4.9624 27.453 5.98969 27.453Z" stroke="#7210FF" stroke-miterlimit="10" stroke-linecap="round" stroke-linejoin="round"/>
<path d="M10.9536 20.2107V25.4847M19.9104 3.78875V10.0071M19.9104 13.249H22.2117V27.4531H19.9104V13.249ZM25.2254 13.249H16.8965C15.9078 13.249 15.1063 12.4475 15.1063 11.4588V2.33707C15.1063 1.34838 15.9078 0.546875 16.8965 0.546875H25.2254C26.2141 0.546875 27.0156 1.34838 27.0156 2.33707V11.4588C27.0156 12.4475 26.2141 13.249 25.2254 13.249Z" stroke="#7210FF" stroke-miterlimit="10" stroke-linecap="round" stroke-linejoin="round"/>
<path d="M23.4306 5.54351C23.4306 6.51268 22.6107 7.29832 21.6416 7.29832C21.161 7.29832 19.9224 7.30609 19.9224 7.30609C19.9224 7.30609 19.9146 6.03203 19.9146 5.54351C19.9146 5.14227 19.9103 3.7887 19.9103 3.7887H21.6416C22.6107 3.7887 23.4306 4.57434 23.4306 5.54351Z" stroke="#7210FF" stroke-miterlimit="10" stroke-linecap="round" stroke-linejoin="round"/>
</g>
<defs>
<clipPath id="clip0_290_1510">
<rect width="28" height="28" fill="white"/>
</clipPath>
</defs>
</svg>
