<svg width="32" height="32" viewBox="0 0 32 32" fill="none" xmlns="http://www.w3.org/2000/svg">
    <path d="M16 13h-3v-3a1 1 0 0 0-1.707-.707l-6 6a1 1 0 0 0 0 1.414l6 6A1 1 0 0 0 13 22v-3h3a1 1 0 0 0 1-1v-4a1 1 0 0 0-1-1z" fill="#66BB6A"/>
    <path d="M25 16c2.206 0 4-1.794 4-4s-1.794-4-4-4-4 1.794-4 4 1.794 4 4 4z" fill="#FFE082"/>
    <path d="M28.901 17.44a1.003 1.003 0 0 0-1.116-.126c-1.707.897-3.863.897-5.57 0a1.002 1.002 0 0 0-1.116.127A6.009 6.009 0 0 0 19 22v1a1 1 0 0 0 1 1h10a1 1 0 0 0 1-1v-1a6.006 6.006 0 0 0-2.099-4.56z" fill="#42A5F5"/>
    <path d="M29 12c0 2.21-1.79 4-4 4V8c2.21 0 4 1.79 4 4zm2 10v1c0 .55-.45 1-1 1h-5v-6.02c.97 0 1.94-.22 2.79-.67.36-.18.8-.14 1.11.13A5.995 5.995 0 0 1 31 22z" fill="#000" opacity=".1"/>
    <path d="M16 31H5c-2.206 0-4-1.794-4-4V5c0-2.206 1.794-4 4-4h11a1 1 0 1 1 0 2H5c-1.103 0-2 .897-2 2v22c0 1.103.897 2 2 2h11a1 1 0 0 1 0 2z" fill="#FFCA28"/>
    <path d="M17 14v4c0 .55-.45 1-1 1h-3v3c0 .4-.24.77-.62.92-.12.06-.25.08-.38.08-.26 0-.52-.1-.71-.29l-.29-.29V9.58l.29-.29c.29-.28.72-.37 1.09-.21.38.15.62.52.62.92v3h3c.55 0 1 .45 1 1zm0 16c0 .55-.45 1-1 1h-5v-2h5c.55 0 1 .45 1 1zM16 3h-5V1h5c.55 0 1 .45 1 1s-.45 1-1 1z" fill="#000" opacity=".1"/>
</svg>
