<svg width="120" height="120" viewBox="0 0 120 120" fill="none" xmlns="http://www.w3.org/2000/svg">
    <g clip-path="url(#uh6nyso4sa)">
        <path d="M37.03 25.023h45.715v17.143h2.857v-20a5.721 5.721 0 0 0-5.714-5.714h-40a5.72 5.72 0 0 0-5.714 5.714v20h2.857V25.023zm2.858-5.714h40a2.86 2.86 0 0 1 2.857 2.857H37.031a2.86 2.86 0 0 1 2.857-2.857zm-7.143 61.428H51.44l7.439 7.439a1.427 1.427 0 0 0 2.02 0l7.439-7.439H87.03a4.29 4.29 0 0 0 4.286-4.285V49.309a4.29 4.29 0 0 0-4.286-4.286h-7.143v2.857h7.143a1.43 1.43 0 0 1 1.428 1.429v27.143a1.43 1.43 0 0 1-1.428 1.428H67.745c-.379 0-.742.15-1.01.419l-6.847 6.846-6.847-6.846a1.429 1.429 0 0 0-1.01-.419H32.745a1.43 1.43 0 0 1-1.428-1.428V49.309a1.43 1.43 0 0 1 1.428-1.429h7.143v-2.857h-7.143a4.29 4.29 0 0 0-4.285 4.286v27.143a4.29 4.29 0 0 0 4.285 4.285z" fill="#989898"/>
        <path d="M45.694 57.166h28.388a2.926 2.926 0 0 0 2.949-2.894v-15.64a2.926 2.926 0 0 0-2.95-2.895H45.695a2.926 2.926 0 0 0-2.949 2.895v15.64a2.926 2.926 0 0 0 2.95 2.894zM71.62 38.595l-11.57 8.438c-.174.09-.257.046-.26.046h.001l-11.635-8.484H71.62zM58.157 49.423a3.06 3.06 0 0 0 1.707.523 3.294 3.294 0 0 0 1.805-.558l12.505-9.12v12.274l-5.705-4.577-2.392 1.744 5.734 4.6H47.965l5.733-4.6-2.391-1.744-5.705 4.576V40.268l12.555 9.155z" fill="#7210FF"/>
        <path d="M76.317 60.023H43.459a1.429 1.429 0 0 0 0 2.857h32.858a1.428 1.428 0 1 0 0-2.857z" fill="#989898"/>
        <path d="M43.46 68.594h11.428a1.429 1.429 0 0 0 0-2.857H43.459a1.429 1.429 0 0 0 0 2.857zm32.857-2.857H60.602a1.429 1.429 0 1 0 0 2.857h15.715a1.428 1.428 0 1 0 0-2.857z" fill="#7210FF"/>
        <path d="M43.46 74.309h32.856a1.428 1.428 0 0 0 0-2.857H43.46a1.428 1.428 0 1 0 0 2.857zM27.22 19.962a2.143 2.143 0 1 0 0-4.285 2.143 2.143 0 0 0 0 4.285zm0-3.214a1.072 1.072 0 1 1 0 2.143 1.072 1.072 0 0 1 0-2.143zM113.65 31.15a1.43 1.43 0 0 0-1.32.882 1.43 1.43 0 0 0 1.867 1.867 1.43 1.43 0 0 0-.547-2.749zm0 2.143a.717.717 0 0 1-.66-.44.711.711 0 0 1 .155-.78.713.713 0 1 1 .505 1.22zM6.35 7.58a1.429 1.429 0 1 0 0 2.857 1.429 1.429 0 0 0 0-2.857zm0 2.143a.714.714 0 1 1 0-1.429.714.714 0 0 1 0 1.429zm76.902-7.579a1.429 1.429 0 1 0 0 2.858 1.429 1.429 0 0 0 0-2.858zm0 2.143a.714.714 0 1 1 0-1.428.714.714 0 0 1 0 1.428zm-20.474 6.15a1.428 1.428 0 1 0-2.857 0 1.428 1.428 0 0 0 2.857 0zm-2.143 0a.714.714 0 1 1 1.43 0 .714.714 0 0 1-1.43 0z" fill="#989898"/>
        <path d="m11.645 33.3 1.062-1.396-.67-.38-.682 1.565h-.023l-.693-1.554-.682.392 1.05 1.363v.022L9.365 33.1v.76l1.654-.212v.022l-1.06 1.363.636.403.727-1.576h.022l.67 1.564.705-.402-1.073-1.341v-.022l1.687.201v-.76l-1.687.224V33.3zM44.844 5.484l-.612.785.367.231.419-.907h.013l.386.9.405-.23-.617-.773v-.013l.97.116v-.438l-.97.129V5.27l.61-.804-.385-.219-.393.9h-.012l-.4-.894-.393.225.606.785v.013l-.946-.122v.438l.952-.122v.013zM98.744 25.619v-.746l-1.655.22v-.023l1.042-1.37-.658-.373-.669 1.535h-.022l-.68-1.524-.669.384 1.031 1.337v.022l-1.612-.208v.746l1.623-.209v.022l-1.041 1.337.624.395.713-1.545h.022l.658 1.534.69-.394-1.052-1.316v-.022l1.655.198zM108.095 7.997l.898-1.182-.567-.321-.577 1.323h-.019l-.586-1.314-.578.331.89 1.154v.02l-1.39-.18v.642l1.399-.18v.02l-.899 1.153.54.34.615-1.333h.018l.567 1.324.597-.34-.908-1.135V8.3l1.427.17v-.643l-1.427.189v-.019z" fill="#7210FF"/>
        <path d="M1.429 107.857a1.428 1.428 0 1 0 0-2.856 1.428 1.428 0 0 0 0 2.856zM7.857 105H5.714a1.432 1.432 0 0 0-1.428 1.429 1.43 1.43 0 0 0 1.428 1.428h2.143a1.428 1.428 0 1 0 0-2.857zm106.429 0h-2.143a1.432 1.432 0 0 0-1.429 1.429 1.43 1.43 0 0 0 1.429 1.428h2.143a1.427 1.427 0 1 0 0-2.857zM118.572 107.857a1.428 1.428 0 1 0 0-2.855 1.428 1.428 0 0 0 0 2.855z" fill="#989898"/>
        <path d="M84.396 110.714h-5.934a1.433 1.433 0 0 0 0 2.857h5.934a1.428 1.428 0 0 0 1.318-1.428 1.434 1.434 0 0 0-1.318-1.429zm-42.858 0h-5.934a1.434 1.434 0 0 0 0 2.857h5.934a1.434 1.434 0 0 0 0-2.857zm32.748 0H45.714a1.429 1.429 0 0 0 0 2.857H57.1V115h-5.672A1.432 1.432 0 0 0 50 116.429a1.428 1.428 0 0 0 1.428 1.428h17.858a1.428 1.428 0 1 0 0-2.857H62.9v-1.429h11.386a1.428 1.428 0 1 0 0-2.857z" fill="#7210FF"/>
        <path d="M107.658 105H84.843c.497-.862.759-1.839.76-2.834V83.595h-2.858v15.714H37.031V83.595h-2.858v18.571c0 .995.262 1.972.76 2.834H12.342a1.45 1.45 0 0 0-1.5.835 1.437 1.437 0 0 0 .363 1.677 1.434 1.434 0 0 0 1.137.345h95.316a1.428 1.428 0 0 0 1.137-.345 1.454 1.454 0 0 0 .49-1.083 1.43 1.43 0 0 0-.49-1.083 1.45 1.45 0 0 0-1.137-.346zm-70.627-2.834h45.714a2.853 2.853 0 0 1-2.63 2.834H39.66a2.852 2.852 0 0 1-2.63-2.834z" fill="#989898"/>
    </g>
    <defs>
        <clipPath id="uh6nyso4sa">
            <path fill="#fff" d="M0 0h120v120H0z"/>
        </clipPath>
    </defs>
</svg>
