<svg width="40" height="40" viewBox="0 0 40 40" fill="none" xmlns="http://www.w3.org/2000/svg">
<g clip-path="url(#clip0_289_1442)">
<path fill-rule="evenodd" clip-rule="evenodd" d="M13.662 17.0463L20.7752 26.3761L24.437 25.7502L23.812 22.0965L27.4739 21.4728L26.8489 17.8191L30.5108 17.1954L29.8857 13.5416L33.5476 12.918L32.9226 9.26203L36.5845 8.63836L35.9595 4.98461L39.6236 4.36102L36.3286 0L13.662 17.0463Z" fill="#7210FF" fill-opacity="0.4"/>
<path d="M21.5552 26.3503C21.5498 26.1883 21.4941 26.0319 21.3958 25.9029L14.2827 16.5731C14.0225 16.2319 13.5357 16.1646 13.1929 16.4226L7.64431 20.5963C5.32522 22.3404 3.00631 24.0848 0.687592 25.8294C0.605571 25.8911 0.536526 25.9684 0.484413 26.0568C0.4323 26.1452 0.398142 26.243 0.383896 26.3447C0.36965 26.4463 0.375596 26.5497 0.401393 26.6491C0.42719 26.7484 0.472332 26.8417 0.534232 26.9235L2.36853 29.3503C2.45169 29.4604 2.56262 29.5466 2.68997 29.5998C2.81733 29.653 2.95654 29.6715 3.09337 29.6533L6.19783 29.243L9.50095 33.618L8.25212 36.4806C8.19676 36.6076 8.17617 36.747 8.19247 36.8845C8.20876 37.0221 8.26136 37.1528 8.34486 37.2633L10.1792 39.6901C10.2519 39.7865 10.3461 39.8647 10.4542 39.9185C10.5623 39.9722 10.6815 40.0001 10.8023 39.9999C10.9656 39.9999 11.1304 39.9489 11.271 39.8431C14.6519 37.2989 18.0352 34.7546 21.4162 32.2127C21.5164 32.1373 21.597 32.039 21.6511 31.9259C21.7052 31.8128 21.7313 31.6884 21.7272 31.5631L21.5552 26.3503ZM10.9548 38.1278L9.86525 36.6864L11.114 33.824C11.1693 33.6971 11.1899 33.5578 11.1737 33.4204C11.1574 33.2829 11.1049 33.1522 11.0215 33.0417L7.16939 27.9396C7.08623 27.8293 6.97528 27.7431 6.84788 27.6898C6.72048 27.6365 6.58121 27.618 6.44431 27.6361L3.33954 28.0465L2.25095 26.6064C4.67345 24.7837 6.59447 23.3389 8.58244 21.8437L13.5115 18.136L20.0034 26.6511L20.1539 31.2092C17.0882 33.5141 14.0206 35.8209 10.9548 38.1278Z" fill="#7210FF"/>
<path d="M12.559 22.1027C12.2996 21.7595 11.8116 21.6911 11.4676 21.9493L7.91892 24.6156C7.83682 24.6773 7.7677 24.7545 7.71552 24.8429C7.66333 24.9313 7.62911 25.0292 7.61481 25.1309C7.60051 25.2325 7.60642 25.336 7.6322 25.4354C7.65797 25.5348 7.70311 25.6281 7.76501 25.71L13.3382 33.0876C13.411 33.184 13.5051 33.2623 13.6133 33.3161C13.7215 33.3699 13.8407 33.3978 13.9615 33.3976C14.1307 33.3977 14.2954 33.3426 14.4304 33.2405L16.2033 31.9053C16.8427 31.4242 17.2562 30.7213 17.3677 29.926C17.4791 29.1318 17.2752 28.3435 16.7938 27.7065L12.559 22.1027ZM15.8221 29.7093C15.7686 30.091 15.5707 30.4279 15.2647 30.6582L14.114 31.5249L9.48212 25.3934L11.7831 23.6647L15.5487 28.6476C15.7783 28.9515 15.8755 29.3285 15.8221 29.7093Z" fill="#7210FF"/>
</g>
<defs>
<clipPath id="clip0_289_1442">
<rect width="40" height="40" fill="white"/>
</clipPath>
</defs>
</svg>
