<svg width="24" height="24" viewBox="0 0 24 24" fill="none" xmlns="http://www.w3.org/2000/svg">
<g clip-path="url(#clip0_291_1681)">
<path d="M12 23.6363C18.4266 23.6363 23.6364 18.4265 23.6364 11.9999C23.6364 5.5733 18.4266 0.363525 12 0.363525C5.57342 0.363525 0.363647 5.5733 0.363647 11.9999C0.363647 18.4265 5.57342 23.6363 12 23.6363Z" fill="#FA4968"/>
<path d="M16.2182 5.85454V17.3818H9.6V18.5455C9.6 19.2 9.05455 19.7455 8.4 19.7455C7.74545 19.7455 7.2 19.2 7.2 18.5455V5.85454C7.2 5.2 6.65455 4.65454 6 4.65454H15.0182C15.6727 4.65454 16.2182 5.16363 16.2182 5.85454Z" fill="#F4F4F4"/>
<path d="M8.39999 19.9272C7.63636 19.9272 7.01818 19.309 7.01818 18.5454V5.85447C7.01818 5.30902 6.54545 4.83629 5.99999 4.83629C5.8909 4.83629 5.81818 4.76357 5.81818 4.65447C5.81818 4.54538 5.8909 4.47266 5.99999 4.47266H15.0182C15.7818 4.47266 16.4 5.09084 16.4 5.85447V17.3817C16.4 17.4908 16.3273 17.5636 16.2182 17.5636H9.78181V18.5454C9.78181 19.309 9.16363 19.9272 8.39999 19.9272ZM6.90909 4.83629C7.19999 5.09084 7.38181 5.45447 7.38181 5.85447V18.5454C7.38181 19.0908 7.85454 19.5636 8.39999 19.5636C8.94545 19.5636 9.41818 19.0908 9.41818 18.5454V17.3817C9.41818 17.2727 9.4909 17.1999 9.59999 17.1999H16.0364V5.85447C16.0364 5.27266 15.6 4.83629 15.0182 4.83629H6.90909Z" fill="#682F2A"/>
<path d="M7.16367 7.67272V5.85454C7.16367 5.2 6.61822 4.65454 5.96367 4.65454C5.30913 4.65454 4.76367 5.2 4.76367 5.85454V7.67272H7.16367Z" fill="#CCCACA"/>
<path d="M7.16367 7.85447H4.76367C4.65458 7.85447 4.58185 7.78175 4.58185 7.67266V5.85447C4.58185 5.09084 5.20003 4.47266 5.96367 4.47266C6.7273 4.47266 7.34548 5.09084 7.34548 5.85447V7.67266C7.34548 7.78175 7.27276 7.85447 7.16367 7.85447ZM4.94548 7.49084H6.98185V5.85447C6.98185 5.30902 6.50912 4.83629 5.96367 4.83629C5.41821 4.83629 4.94548 5.30902 4.94548 5.85447V7.49084Z" fill="#682F2A"/>
<path d="M18.6546 17.3455V18.5091C18.6546 19.1636 18.1091 19.7091 17.4546 19.7091H8.40002C9.05457 19.7091 9.60002 19.1636 9.60002 18.5091V17.3455H18.6546Z" fill="#E5E5E5"/>
<path d="M17.4546 19.8908H8.40002C8.29093 19.8908 8.2182 19.8181 8.2182 19.709C8.2182 19.5999 8.29093 19.5272 8.40002 19.5272C8.94547 19.5272 9.4182 19.0545 9.4182 18.509V17.3454C9.4182 17.2363 9.49093 17.1636 9.60002 17.1636H18.6546C18.7637 17.1636 18.8364 17.2363 18.8364 17.3454V18.509C18.8364 19.2727 18.2182 19.8908 17.4546 19.8908ZM9.30911 19.5272H17.4546C18 19.5272 18.4727 19.0545 18.4727 18.509V17.5272H9.78184V18.509C9.78184 18.909 9.60002 19.2727 9.30911 19.5272Z" fill="#682F2A"/>
<path d="M9.49092 10.2909C9.93275 10.2909 10.2909 9.93275 10.2909 9.49092C10.2909 9.04909 9.93275 8.69092 9.49092 8.69092C9.04909 8.69092 8.69092 9.04909 8.69092 9.49092C8.69092 9.93275 9.04909 10.2909 9.49092 10.2909Z" fill="#ABB734"/>
<path d="M9.49091 10.4727C8.94546 10.4727 8.50909 10.0363 8.50909 9.49085C8.50909 8.9454 8.94546 8.50903 9.49091 8.50903C10.0364 8.50903 10.4727 8.9454 10.4727 9.49085C10.4727 10.0363 10.0364 10.4727 9.49091 10.4727ZM9.49091 8.87267C9.16364 8.87267 8.87273 9.16358 8.87273 9.49085C8.87273 9.81812 9.16364 10.109 9.49091 10.109C9.81819 10.109 10.1091 9.81812 10.1091 9.49085C10.1091 9.16358 9.81819 8.87267 9.49091 8.87267Z" fill="#682F2A"/>
<path d="M14.6909 9.19982H11.4909C11.3818 9.19982 11.3091 9.12709 11.3091 9.018C11.3091 8.90891 11.3818 8.83618 11.4909 8.83618H14.6909C14.8 8.83618 14.8727 8.90891 14.8727 9.018C14.8727 9.12709 14.8 9.19982 14.6909 9.19982ZM13.7454 10.1453H11.4909C11.3818 10.1453 11.3091 10.0725 11.3091 9.96345C11.3091 9.85436 11.3818 9.78164 11.4909 9.78164H13.7454C13.8545 9.78164 13.9273 9.85436 13.9273 9.96345C13.9273 10.0725 13.8545 10.1453 13.7454 10.1453Z" fill="#CCCACA"/>
<path d="M9.49092 13.1635C9.93275 13.1635 10.2909 12.8053 10.2909 12.3635C10.2909 11.9216 9.93275 11.5635 9.49092 11.5635C9.04909 11.5635 8.69092 11.9216 8.69092 12.3635C8.69092 12.8053 9.04909 13.1635 9.49092 13.1635Z" fill="#6CD8D5"/>
<path d="M9.49091 13.3452C8.94546 13.3452 8.50909 12.9089 8.50909 12.3634C8.50909 11.818 8.94546 11.3816 9.49091 11.3816C10.0364 11.3816 10.4727 11.818 10.4727 12.3634C10.4727 12.9089 10.0364 13.3452 9.49091 13.3452ZM9.49091 11.7452C9.16364 11.7452 8.87273 12.0361 8.87273 12.3634C8.87273 12.6907 9.16364 12.9816 9.49091 12.9816C9.81819 12.9816 10.1091 12.6907 10.1091 12.3634C10.1091 12.0361 9.81819 11.7452 9.49091 11.7452Z" fill="#682F2A"/>
<path d="M13.3454 12.0726H11.4909C11.3818 12.0726 11.3091 11.9999 11.3091 11.8908C11.3091 11.7817 11.3818 11.709 11.4909 11.709H13.3454C13.4545 11.709 13.5273 11.7817 13.5273 11.8908C13.5273 11.9999 13.4545 12.0726 13.3454 12.0726ZM13.4182 13.0181H11.4909C11.3818 13.0181 11.3091 12.9453 11.3091 12.8363C11.3091 12.7272 11.3818 12.6544 11.4909 12.6544H13.4182C13.5273 12.6544 13.6 12.7272 13.6 12.8363C13.6 12.9453 13.5273 13.0181 13.4182 13.0181Z" fill="#CCCACA"/>
<path d="M9.49092 16.0363C9.93275 16.0363 10.2909 15.6781 10.2909 15.2363C10.2909 14.7945 9.93275 14.4363 9.49092 14.4363C9.04909 14.4363 8.69092 14.7945 8.69092 15.2363C8.69092 15.6781 9.04909 16.0363 9.49092 16.0363Z" fill="#559AFF"/>
<path d="M9.49091 16.218C8.94546 16.218 8.50909 15.7817 8.50909 15.2362C8.50909 14.6908 8.94546 14.2544 9.49091 14.2544C10.0364 14.2544 10.4727 14.6908 10.4727 15.2362C10.4727 15.7817 10.0364 16.218 9.49091 16.218ZM9.49091 14.618C9.16364 14.618 8.87273 14.9089 8.87273 15.2362C8.87273 15.5635 9.16364 15.8544 9.49091 15.8544C9.81819 15.8544 10.1091 15.5635 10.1091 15.2362C10.1091 14.9089 9.81819 14.618 9.49091 14.618Z" fill="#682F2A"/>
<path d="M14.3637 14.9091H11.4909C11.3818 14.9091 11.3091 14.8364 11.3091 14.7273C11.3091 14.6182 11.3818 14.5454 11.4909 14.5454H14.3637C14.4727 14.5454 14.5455 14.6182 14.5455 14.7273C14.5455 14.8364 14.4727 14.9091 14.3637 14.9091ZM13.4182 15.8909H11.4909C11.3818 15.8909 11.3091 15.8182 11.3091 15.7091C11.3091 15.6 11.3818 15.5273 11.4909 15.5273H13.4182C13.5273 15.5273 13.6 15.6 13.6 15.7091C13.6 15.8182 13.5273 15.8909 13.4182 15.8909ZM14.6909 6.32726H8.72729C8.6182 6.32726 8.54547 6.25453 8.54547 6.14544C8.54547 6.03635 8.6182 5.96362 8.72729 5.96362H14.6909C14.8 5.96362 14.8727 6.03635 14.8727 6.14544C14.8727 6.25453 14.8 6.32726 14.6909 6.32726ZM14.6909 7.41817H8.72729C8.6182 7.41817 8.54547 7.34544 8.54547 7.23635C8.54547 7.12726 8.6182 7.05453 8.72729 7.05453H14.6909C14.8 7.05453 14.8727 7.12726 14.8727 7.23635C14.8727 7.34544 14.8 7.41817 14.6909 7.41817Z" fill="#CCCACA"/>
<path d="M19.9636 10.3998V12.618C19.9636 14.0725 17.3091 15.7089 17.3091 15.7089C17.3091 15.7089 14.6545 14.0725 14.6545 12.618V10.3998C14.8 10.4362 14.9091 10.4362 15.0545 10.4362C15.9273 10.4362 16.7273 10.0725 17.3091 9.49072C17.8909 10.0725 18.6909 10.4362 19.5636 10.4362C19.7091 10.3998 19.8545 10.3998 19.9636 10.3998Z" fill="#FECD04"/>
<path d="M17.3091 15.8908C17.2727 15.8908 17.2364 15.8908 17.2 15.8544C17.0909 15.7817 14.4727 14.1453 14.4727 12.618V10.3999C14.4727 10.3271 14.5091 10.2908 14.5454 10.2544C14.5818 10.218 14.6545 10.218 14.6909 10.218C14.8 10.2544 14.9091 10.2544 15.0545 10.2544C15.8545 10.2544 16.6182 9.92714 17.1636 9.34532C17.2364 9.27259 17.3454 9.27259 17.4182 9.34532C18 9.92714 18.7273 10.218 19.5273 10.2544C19.6727 10.218 19.8545 10.218 19.9636 10.218C20.0727 10.218 20.1454 10.2908 20.1454 10.3999V12.618C20.1454 14.1453 17.5273 15.7817 17.4182 15.8544C17.3818 15.8908 17.3454 15.8908 17.3091 15.8908ZM14.8364 10.618V12.618C14.8364 13.818 16.8364 15.1999 17.3091 15.4908C17.7818 15.1999 19.7818 13.818 19.7818 12.618V10.5817C19.7091 10.5817 19.6727 10.5817 19.6 10.618H19.5636C18.7273 10.618 17.9273 10.2908 17.3091 9.74532C16.6909 10.3271 15.8909 10.618 15.0545 10.618H14.8364Z" fill="#682F2A"/>
<g opacity="0.4">
<path d="M17.0909 10.6909C17.1637 10.6545 17.2364 10.5818 17.3091 10.5454L17.0909 10.6909ZM15.4909 11.2C15.8182 11.1636 16.1091 11.0909 16.4 10.9818L15.4909 11.2Z" fill="#FECD04"/>
<path d="M15.4909 11.3818C15.3818 11.3818 15.3091 11.3091 15.3091 11.2364C15.3091 11.1273 15.3818 11.0545 15.4546 11.0182C15.7455 10.9818 16.0364 10.9091 16.3273 10.8C16.4364 10.7636 16.5091 10.8 16.5455 10.9091C16.5818 11.0182 16.5455 11.0909 16.4364 11.1273C16.1455 11.2727 15.8546 11.3454 15.4909 11.3818ZM17.0909 10.8727C17.0182 10.8727 16.9455 10.8364 16.9455 10.7636C16.9091 10.6909 16.9455 10.5818 17.0182 10.5091C17.0546 10.5091 17.0546 10.4727 17.0909 10.4364C17.1273 10.4 17.2 10.3636 17.2364 10.3636C17.3091 10.3273 17.4182 10.3636 17.4909 10.4364C17.5273 10.5091 17.4909 10.6182 17.4182 10.6909C17.3818 10.6909 17.3818 10.7273 17.3455 10.7636C17.3091 10.8 17.2364 10.8364 17.2 10.8364C17.1637 10.8727 17.1273 10.8727 17.0909 10.8727Z" fill="white"/>
</g>
<path d="M16.8364 13.309C16.8 13.309 16.7637 13.309 16.7273 13.2727L16.2909 12.8727C16.2182 12.8 16.2182 12.6909 16.2909 12.6181C16.3637 12.5454 16.4728 12.5454 16.5455 12.6181L16.8364 12.909L18.1455 11.6C18.2182 11.5272 18.3273 11.5272 18.4 11.6C18.4728 11.6727 18.4728 11.7818 18.4 11.8545L16.9818 13.2727C16.9455 13.309 16.8728 13.309 16.8364 13.309Z" fill="#682F2A"/>
<path d="M16.0364 18.4361H13.8909C13.7818 18.4361 13.7091 18.3634 13.7091 18.2543C13.7091 18.1452 13.7818 18.0725 13.8909 18.0725H16.0364C16.1455 18.0725 16.2182 18.1452 16.2182 18.2543C16.2182 18.3634 16.1455 18.4361 16.0364 18.4361ZM17.3455 18.4361H16.9455C16.8364 18.4361 16.7637 18.3634 16.7637 18.2543C16.7637 18.1452 16.8364 18.0725 16.9455 18.0725H17.3455C17.4546 18.0725 17.5273 18.1452 17.5273 18.2543C17.5273 18.3634 17.4546 18.4361 17.3455 18.4361Z" fill="#F4F4F4"/>
</g>
<defs>
<clipPath id="clip0_291_1681">
<rect width="24" height="24" fill="white"/>
</clipPath>
</defs>
</svg>
