<svg width="28" height="28" viewBox="0 0 28 28" fill="none" xmlns="http://www.w3.org/2000/svg">
<g clip-path="url(#clip0_290_1518)">
<path d="M8.23435 22.5089C7.32725 22.5089 6.5893 21.7709 6.5893 20.8638C6.5893 19.9567 7.32725 19.2188 8.23435 19.2188C9.14145 19.2188 9.87946 19.9567 9.87946 20.8638C9.87946 21.7709 9.14145 22.5089 8.23435 22.5089ZM19.7656 22.5089C18.8585 22.5089 18.1205 21.7709 18.1205 20.8638C18.1205 19.9567 18.8585 19.2188 19.7656 19.2188C20.6727 19.2188 21.4107 19.9567 21.4107 20.8638C21.4107 21.7709 20.6727 22.5089 19.7656 22.5089ZM28 3.29016H0V0H28V3.29016Z" fill="#7210FF" fill-opacity="0.4"/>
<path d="M22.5156 24.7076H5.48441C4.88033 24.7076 4.39066 24.2179 4.39066 23.6139V19.2076C4.39066 17.9995 5.37005 17.0201 6.57816 17.0201H21.4219C22.63 17.0201 23.6094 17.9995 23.6094 19.2076V23.6139C23.6094 24.2179 23.1197 24.7076 22.5156 24.7076Z" stroke="#7210FF" stroke-miterlimit="10" stroke-linecap="round" stroke-linejoin="round"/>
<path d="M6.28671 17.0403L7.42514 11.2131C7.57624 10.4397 8.25387 9.88159 9.04192 9.88159H18.9581C19.7461 9.88159 20.4238 10.4397 20.5749 11.2131L21.7133 17.0403M6.03793 24.7075H9.33258V27.4531H6.03793V24.7075ZM18.6674 24.7075H21.9621V27.4531H18.6674V24.7075Z" stroke="#7210FF" stroke-miterlimit="10" stroke-linecap="round" stroke-linejoin="round"/>
<path d="M21.2801 14.8236H22.5112C23.1179 14.8236 23.6094 15.3151 23.6094 15.9219C23.6094 16.5281 23.1175 17.0201 22.5112 17.0201H21.7084M6.29164 17.0201H5.48883C4.88262 17.0201 4.39059 16.5281 4.39059 15.9218C4.39059 15.3151 4.88207 14.8236 5.48883 14.8236H6.71995M11.529 19.7656H16.471M11.529 21.9621H16.471M1.91965 4.9397V6.03793M4.11606 6.58705V7.68528M6.31253 4.9397V6.03793M8.50894 6.58705V7.68528M10.7054 4.9397V6.03793M12.9018 6.58705V7.68528M15.0982 4.9397V6.03793M17.2947 6.58705V7.68528M19.4911 4.9397V6.03793M21.6875 6.58705V7.68528M23.884 4.9397V6.03793M26.0804 6.58705V7.68528" stroke="#7210FF" stroke-miterlimit="10" stroke-linecap="round" stroke-linejoin="round"/>
</g>
<defs>
<clipPath id="clip0_290_1518">
<rect width="28" height="28" fill="white"/>
</clipPath>
</defs>
</svg>
