<svg width="28" height="28" viewBox="0 0 28 28" fill="none" xmlns="http://www.w3.org/2000/svg">
<g clip-path="url(#clip0_300_1908)">
<path d="M14 23.059C16.4257 23.059 18.3922 21.0925 18.3922 18.6668C18.3922 16.2411 16.4257 14.2747 14 14.2747C11.5743 14.2747 9.60785 16.2411 9.60785 18.6668C9.60785 21.0925 11.5743 23.059 14 23.059Z" fill="#7210FF" fill-opacity="0.24"/>
<path d="M23.0588 13.1765H27.451V24.1569H23.0588V13.1765ZM0.549011 13.1765H4.94117V24.1569H0.549011V13.1765Z" fill="#7210FF" fill-opacity="0.24"/>
<path d="M25.8039 9.33337H23.9699L22.4654 5.823C22.4231 5.72424 22.3527 5.64007 22.263 5.58092C22.1733 5.52177 22.0682 5.49024 21.9608 5.49023H12.0784C11.971 5.49024 11.8659 5.52177 11.7762 5.58092C11.6865 5.64007 11.6161 5.72424 11.5738 5.823L10.0693 9.33337H7.68627V7.68631C7.68627 7.38309 7.44048 7.13729 7.13726 7.13729H4.39216C4.08899 7.13729 3.84314 7.38309 3.84314 7.68631V9.33337H2.19608C0.985161 9.33337 0 10.3185 0 11.5295V25.804C0 27.0149 0.985161 28 2.19608 28H25.8039C27.0148 28 28 27.0149 28 25.804V11.5295C28 10.3185 27.0148 9.33337 25.8039 9.33337ZM12.4405 6.58827H21.5988L22.7753 9.33337H11.264L12.4405 6.58827ZM4.94118 8.23533H6.58824V9.33337H4.94118V8.23533ZM26.902 25.804C26.902 26.4094 26.4094 26.902 25.8039 26.902H2.19608C1.59062 26.902 1.09804 26.4094 1.09804 25.804V11.5295C1.09804 10.924 1.59062 10.4314 2.19608 10.4314H23.6059L23.6081 10.4316C23.6092 10.4316 23.6103 10.4314 23.6114 10.4314H25.8039C26.4094 10.4314 26.902 10.924 26.902 11.5295V25.804Z" fill="#7210FF"/>
<path d="M14 11.5294C10.0644 11.5294 6.86273 14.7311 6.86273 18.6667C6.86273 22.6022 10.0644 25.8039 14 25.8039C17.9355 25.8039 21.1372 22.6022 21.1372 18.6667C21.1372 14.7311 17.9355 11.5294 14 11.5294ZM14 24.7059C10.67 24.7059 7.96077 21.9967 7.96077 18.6667C7.96077 15.3366 10.67 12.6275 14 12.6275C17.33 12.6275 20.0392 15.3366 20.0392 18.6667C20.0392 21.9967 17.33 24.7059 14 24.7059ZM17.0196 4.39216C17.3228 4.39216 17.5686 4.14631 17.5686 3.84314V0.54902C17.5686 0.245796 17.3228 0 17.0196 0C16.7164 0 16.4706 0.245796 16.4706 0.54902V3.84314C16.4706 4.14631 16.7164 4.39216 17.0196 4.39216ZM19.2152 4.39227C19.4166 4.39227 19.6105 4.28109 19.7067 4.08866L20.8048 1.89258C20.9404 1.62142 20.8305 1.29162 20.5592 1.15602C20.288 1.02041 19.9582 1.13027 19.8226 1.40159L18.7246 3.59767C18.5407 3.96546 18.812 4.39227 19.2152 4.39227ZM14.3325 4.08866C14.3781 4.17995 14.4482 4.25673 14.535 4.31036C14.6219 4.36399 14.7219 4.39235 14.824 4.39227C15.2274 4.39227 15.4983 3.96496 15.3146 3.59762L14.2165 1.40154C14.0809 1.13027 13.751 1.02035 13.48 1.15596C13.2087 1.29157 13.0988 1.62131 13.2344 1.89253L14.3325 4.08866Z" fill="#7210FF"/>
</g>
<defs>
<clipPath id="clip0_300_1908">
<rect width="28" height="28" fill="white"/>
</clipPath>
</defs>
</svg>
