<svg width="16" height="16" viewBox="0 0 16 16" fill="none" xmlns="http://www.w3.org/2000/svg">
<g clip-path="url(#clip0_291_1658)">
<path d="M14.087 3.82618H12.4174L11.4957 2.43488C11.1478 1.91314 10.5391 1.6001 9.91305 1.6001H6.08696C5.46088 1.6001 4.85218 1.91314 4.50436 2.43488L3.58262 3.82618H1.91305C1.66162 3.82546 1.41253 3.87444 1.1801 3.97033C0.947674 4.06621 0.736493 4.20709 0.558706 4.38488C0.380918 4.56267 0.240032 4.77385 0.14415 5.00628C0.0482681 5.23871 -0.000718391 5.4878 7.9606e-06 5.73923V12.4871C-0.000718391 12.7385 0.0482681 12.9876 0.14415 13.22C0.240032 13.4524 0.380918 13.6636 0.558706 13.8414C0.736493 14.0192 0.947674 14.1601 1.1801 14.256C1.41253 14.3518 1.66162 14.4008 1.91305 14.4001H14.087C14.3384 14.4008 14.5875 14.3518 14.8199 14.256C15.0523 14.1601 15.2635 14.0192 15.4413 13.8414C15.6191 13.6636 15.76 13.4524 15.8559 13.22C15.9517 12.9876 16.0007 12.7385 16 12.4871V5.73923C16.0007 5.4878 15.9517 5.23871 15.8559 5.00628C15.76 4.77385 15.6191 4.56267 15.4413 4.38488C15.2635 4.20709 15.0523 4.06621 14.8199 3.97033C14.5875 3.87444 14.3384 3.82546 14.087 3.82618ZM8.00001 12.8349C5.6174 12.8349 3.68696 10.9044 3.68696 8.52184C3.68696 6.13923 5.6174 4.22618 8.00001 4.22618C10.3826 4.22618 12.3131 6.15662 12.3131 8.53923C12.3131 10.9044 10.3826 12.8349 8.00001 12.8349ZM13.8435 6.52184H13.0783C12.7652 6.50444 12.5217 6.24358 12.5391 5.93053C12.5565 5.63488 12.7826 5.40879 13.0783 5.3914H13.7739C14.087 5.37401 14.3478 5.61749 14.3652 5.93053C14.3826 6.24358 14.1565 6.50444 13.8435 6.52184Z" fill="white"/>
<path d="M8.00001 6.13916C6.67827 6.13916 5.60001 7.21742 5.60001 8.53916C5.60001 9.8609 6.67827 10.9218 8.00001 10.9218C9.32174 10.9218 10.4 9.84351 10.4 8.52177C10.4 7.20003 9.32174 6.13916 8.00001 6.13916Z" fill="white"/>
</g>
<defs>
<clipPath id="clip0_291_1658">
<rect width="16" height="16" fill="white"/>
</clipPath>
</defs>
</svg>
