<svg width="32" height="32" viewBox="0 0 32 32" fill="none" xmlns="http://www.w3.org/2000/svg">
    <path d="M11 16c2.206 0 4-1.794 4-4s-1.794-4-4-4-4 1.794-4 4 1.794 4 4 4z" fill="#FFE082"/>
    <path d="M14.901 17.44a1.003 1.003 0 0 0-1.116-.126c-1.707.897-3.863.897-5.57 0a1.002 1.002 0 0 0-1.116.127A6.008 6.008 0 0 0 5 22v1a1 1 0 0 0 1 1h10a1 1 0 0 0 1-1v-1a6.006 6.006 0 0 0-2.099-4.56z" fill="#42A5F5"/>
    <path d="M15 12c0 2.21-1.79 4-4 4V8c2.21 0 4 1.79 4 4zm2 10v1c0 .55-.45 1-1 1h-5v-6.02c.97 0 1.94-.22 2.79-.67.36-.18.8-.14 1.11.13A5.995 5.995 0 0 1 17 22z" fill="#000" opacity=".1"/>
    <path d="m30.707 15.293-6-6A1 1 0 0 0 23 10v3h-3a1 1 0 0 0-1 1v4a1 1 0 0 0 1 1h3v3a1 1 0 0 0 1.707.707l6-6a1 1 0 0 0 0-1.414z" fill="#EF5350"/>
    <path opacity=".1" d="M30.71 16.71 25 22.42V9.58l5.71 5.71c.39.39.39 1.03 0 1.42z" fill="#000"/>
    <path d="M16 31H5c-2.206 0-4-1.794-4-4V5c0-2.206 1.794-4 4-4h11a1 1 0 1 1 0 2H5c-1.103 0-2 .897-2 2v22c0 1.103.897 2 2 2h11a1 1 0 0 1 0 2z" fill="#FFCA28"/>
    <path d="M17 30c0 .55-.45 1-1 1h-5v-2h5c.55 0 1 .45 1 1zM16 3h-5V1h5c.55 0 1 .45 1 1s-.45 1-1 1z" fill="#000" opacity=".1"/>
</svg>
