<svg width="20" height="20" viewBox="0 0 20 20" fill="none" xmlns="http://www.w3.org/2000/svg">
<path opacity="0.4" d="M17.5 18.3334H2.5C2.15833 18.3334 1.875 18.0501 1.875 17.7084C1.875 17.3668 2.15833 17.0834 2.5 17.0834H17.5C17.8417 17.0834 18.125 17.3668 18.125 17.7084C18.125 18.0501 17.8417 18.3334 17.5 18.3334ZM15.85 2.90176C14.2333 1.28509 12.65 1.24343 10.9917 2.90176L9.98333 3.91009C9.9 3.99343 9.86667 4.12676 9.9 4.24343C10.2187 5.33707 10.8081 6.33269 11.6136 7.13819C12.4191 7.94368 13.4147 8.53305 14.5083 8.85176C14.5674 8.8711 14.6307 8.87354 14.6911 8.85882C14.7514 8.84409 14.8065 8.81278 14.85 8.76842L15.85 7.76009C16.675 6.94342 17.075 6.15176 17.075 5.35176C17.0833 4.52676 16.6833 3.72676 15.85 2.90176Z" fill="#989898"/>
<path d="M13.0083 9.60841C12.7667 9.49175 12.5333 9.37508 12.3083 9.24175C12.1256 9.13287 11.9476 9.0161 11.775 8.89175C11.6333 8.80008 11.4667 8.66675 11.3083 8.53341C11.2573 8.49624 11.2099 8.45439 11.1667 8.40841C10.8917 8.17508 10.5833 7.87508 10.3083 7.54175C10.2833 7.52508 10.2417 7.46675 10.1833 7.39175C10.1 7.29175 9.95833 7.12508 9.83333 6.93341C9.71454 6.77668 9.60598 6.61245 9.50833 6.44175C9.375 6.21675 9.25833 5.99175 9.14166 5.75841C9.025 5.50841 8.93333 5.26675 8.85 5.04175L3.61666 10.2751C3.50833 10.3834 3.40833 10.5917 3.38333 10.7334L2.93333 13.9251C2.85 14.4917 3.00833 15.0251 3.35833 15.3834C3.65833 15.6751 4.075 15.8334 4.525 15.8334C4.625 15.8334 4.725 15.8251 4.825 15.8084L8.025 15.3584C8.175 15.3334 8.38333 15.2334 8.48333 15.1251L13.7167 9.89175C13.4833 9.80841 13.2583 9.71675 13.0083 9.60841Z" fill="#989898"/>
</svg>
