<svg width="40" height="40" viewBox="0 0 40 40" fill="none" xmlns="http://www.w3.org/2000/svg">
<g clip-path="url(#clip0_289_1437)">
<path d="M10.724 23.8397C12.3837 25.3624 13.3355 27.5022 13.3355 29.7105V29.8055H26.6645V29.7105C26.6645 27.5043 27.619 25.3621 29.283 23.8334C32.1057 21.24 33.7246 17.5556 33.7246 13.7245C33.7246 9.98642 32.2486 6.49212 29.5683 3.88533C26.889 1.27955 23.3514 -0.0985014 19.6099 0.00548295C16.0366 0.104702 12.6864 1.57955 10.1763 4.15822C7.66702 6.73626 6.28163 10.125 6.27553 13.7005C6.26897 17.5443 7.8903 21.2399 10.724 23.8397Z" fill="#7210FF" fill-opacity="0.4"/>
<path d="M25.8897 32.9433H14.1103M25.8897 32.9433C26.7526 32.9433 27.4522 32.2437 27.4522 31.3808V31.368C27.4522 30.5051 26.7526 29.8055 25.8897 29.8055H14.1103C13.2473 29.8055 12.5478 30.5051 12.5478 31.368V31.3808C12.5478 32.2437 13.2473 32.9433 14.1103 32.9433M25.8897 32.9433C26.7526 32.9433 27.4522 33.6429 27.4522 34.5059V34.5186C27.4522 35.3815 26.7526 36.0811 25.8897 36.0811H14.1103C13.2473 36.0811 12.5478 35.3816 12.5478 34.5186V34.5059C12.5478 33.6429 13.2473 32.9433 14.1103 32.9433" stroke="#7210FF" stroke-miterlimit="10" stroke-linecap="round" stroke-linejoin="round"/>
<path d="M16.47 17.2545V19.4226C16.47 20.5761 16.7385 21.7138 17.2544 22.7455C17.7703 23.7773 18.0388 24.915 18.0389 26.0685V29.8055H21.961V26.0685C21.9611 24.915 22.2296 23.7773 22.7455 22.7455C23.2614 21.7138 23.5299 20.5761 23.53 19.4226V17.2545M25.0988 18.8234H14.9011M20.0111 39.2188H19.9888C18.4786 39.2188 17.2544 37.9946 17.2544 36.4844V36.0811H22.7455V36.4844C22.7455 37.9946 21.5213 39.2188 20.0111 39.2188Z" stroke="#7210FF" stroke-miterlimit="10" stroke-linecap="round" stroke-linejoin="round"/>
</g>
<defs>
<clipPath id="clip0_289_1437">
<rect width="40" height="40" fill="white"/>
</clipPath>
</defs>
</svg>
