<svg width="40" height="40" viewBox="0 0 40 40" fill="none" xmlns="http://www.w3.org/2000/svg">
<g clip-path="url(#clip0_289_1454)">
<path d="M8.62602 13.4477L6.86102 10.3906L8.62602 7.33362H12.156L13.921 10.3906L12.156 13.4477H8.62602ZM27.844 13.4477L26.079 10.3906L27.844 7.33362H31.374L33.1389 10.3906L31.374 13.4477H27.844ZM27.844 32.6664L26.079 29.6094L27.844 26.5524H31.374L33.1389 29.6094L31.374 32.6664H27.844ZM8.62602 32.6664L6.86102 29.6094L8.62602 26.5524H12.156L13.921 29.6094L12.156 32.6664H8.62602Z" fill="#7210FF" fill-opacity="0.4"/>
<path d="M20 39.2188V23.9222M20 16.0778V0.78125M16.0778 20H0.78125M39.2188 20H23.9222M0.78125 0.78125H39.2188V39.2188H0.78125V0.78125Z" stroke="#7210FF" stroke-miterlimit="10" stroke-linecap="round" stroke-linejoin="round"/>
<path d="M14.1175 0.78125C14.1175 4.03039 16.7516 6.66453 20.0008 6.66453C23.2499 6.66453 25.8841 4.03039 25.8841 0.78125M0.78125 6.66453C4.03039 6.66453 6.66453 4.03039 6.66453 0.78125M0.78125 14.1167C4.03039 14.1167 6.66453 16.7509 6.66453 20C6.66453 23.2491 4.03039 25.8833 0.78125 25.8833M0.78125 33.3355C4.03039 33.3355 6.66453 35.9696 6.66453 39.2188M14.1159 39.2188C14.1159 35.9696 16.7501 33.3355 19.9992 33.3355C23.2484 33.3355 25.8825 35.9696 25.8825 39.2188M33.3355 39.2188C33.3355 35.9696 35.9696 33.3355 39.2188 33.3355M39.2188 25.8833C35.9696 25.8833 33.3355 23.2491 33.3355 20C33.3355 16.7509 35.9696 14.1167 39.2188 14.1167M33.3355 0.78125C33.3355 4.03039 35.9696 6.66453 39.2188 6.66453" stroke="#7210FF" stroke-miterlimit="10" stroke-linecap="round" stroke-linejoin="round"/>
<path d="M20 23.9221C22.1662 23.9221 23.9222 22.1661 23.9222 19.9999C23.9222 17.8338 22.1662 16.0778 20 16.0778C17.8338 16.0778 16.0778 17.8338 16.0778 19.9999C16.0778 22.1661 17.8338 23.9221 20 23.9221Z" stroke="#7210FF" stroke-miterlimit="10" stroke-linecap="round" stroke-linejoin="round"/>
</g>
<defs>
<clipPath id="clip0_289_1454">
<rect width="40" height="40" fill="white"/>
</clipPath>
</defs>
</svg>
