<svg width="24" height="24" viewBox="0 0 24 24" fill="none" xmlns="http://www.w3.org/2000/svg">
<g clip-path="url(#clip0_291_1777)">
<path d="M7.47637 17.3098C6.84446 17.5854 6.10881 17.2965 5.83322 16.6647L5.62157 16.1794C5.12903 15.05 5.39961 13.7297 6.29487 12.8938C6.96826 12.2651 7.13791 11.254 6.70734 10.4351C6.2359 9.53834 5.16142 9.12118 4.20813 9.46475C3.19952 9.82758 2.63483 10.9165 2.92177 11.9427C2.9477 12.0353 2.98002 12.1259 3.01848 12.2141C3.29407 12.846 3.00521 13.5816 2.37335 13.8572C1.74149 14.1328 1.0058 13.8439 0.730207 13.2121C0.645665 13.0182 0.574617 12.8186 0.517572 12.6149C-0.119631 10.3359 1.12955 7.92019 3.3618 7.11615C5.4808 6.35256 7.86906 7.27994 8.91709 9.27335C9.86959 11.0851 9.49195 13.3243 7.99867 14.7186C7.87515 14.8339 7.83952 15.0199 7.90993 15.1814L8.12158 15.6668C8.39708 16.2986 8.10827 17.0342 7.47637 17.3098ZM8.96116 20.7142C8.32925 20.9898 7.59361 20.7009 7.31801 20.069L7.31389 20.0596C7.0383 19.4277 7.32716 18.692 7.95901 18.4164C8.59092 18.1408 9.32657 18.4297 9.60216 19.0616L9.60628 19.071C9.88187 19.7029 9.59302 20.4386 8.96116 20.7142Z" fill="#FFD15B"/>
<path d="M1.52893 12.1738C1.5859 12.3775 1.65698 12.577 1.74166 12.7708C1.93808 13.2211 2.36808 13.4975 2.82767 13.5187C2.70431 13.6651 2.54878 13.7808 2.37324 13.8571C1.74175 14.1325 1.00578 13.844 0.730142 13.2119C0.645649 13.018 0.574756 12.8185 0.517976 12.6148C-0.119743 10.3353 1.12991 7.91986 3.36188 7.11577C3.44147 7.08714 3.5219 7.06091 3.60306 7.03711C1.86443 8.06475 0.969357 10.1719 1.52893 12.1738ZM7.30623 12.4525C6.41111 13.2884 6.14025 14.6091 6.63279 15.7383L6.84439 16.2235C7.04081 16.6739 7.47138 16.9499 7.93096 16.9713C7.80761 17.1176 7.65208 17.2334 7.47653 17.3096C6.84449 17.5852 6.10908 17.2965 5.83344 16.6644L5.62183 16.1793C5.12934 15.05 5.39959 13.7295 6.29527 12.8934C6.96848 12.2644 7.13789 11.254 6.70728 10.4351C6.30259 9.66472 5.45303 9.24826 4.61739 9.36443C4.79726 9.21733 5.00094 9.10204 5.21963 9.02353C6.17302 8.67983 7.2473 9.0969 7.71875 9.99385C8.14941 10.8127 7.97943 11.8235 7.30623 12.4525ZM9.41571 20.3756C9.29235 20.5219 9.13682 20.6377 8.96128 20.7139C8.32923 20.9896 7.59382 20.7009 7.31818 20.0688L7.31396 20.0591C7.03856 19.4276 7.32704 18.6916 7.95909 18.416C8.13436 18.3392 8.32503 18.304 8.51618 18.3132C8.21935 18.665 8.12874 19.1684 8.32492 19.6182L8.32914 19.6279C8.52555 20.0782 8.95612 20.3543 9.41571 20.3756Z" fill="#FFC344"/>
<path d="M17.4329 17.1881C16.767 17.0096 16.3718 16.3252 16.5502 15.6593L16.6873 15.1479C17.0062 13.9578 18.0408 13.0941 19.2619 12.9986C20.1804 12.9267 20.9434 12.2419 21.1172 11.3332C21.3076 10.3381 20.7275 9.34216 19.768 9.01645C18.7531 8.67139 17.6327 9.17087 17.2174 10.1521C17.18 10.2407 17.1487 10.3317 17.1238 10.4246C16.9454 11.0904 16.261 11.4856 15.5951 11.3072C14.9292 11.1287 14.5341 10.4443 14.7125 9.7784C14.7672 9.57407 14.8361 9.37377 14.9185 9.17893C15.841 6.99965 18.3237 5.88955 20.5703 6.65243C22.7031 7.37636 23.9924 9.59028 23.5692 11.8023C23.1846 13.8127 21.4934 15.3281 19.4566 15.4874C19.2881 15.5006 19.1443 15.6238 19.0987 15.794L18.9617 16.3055C18.7832 16.9713 18.0987 17.3665 17.4329 17.1881ZM16.4715 20.7756C15.8057 20.5972 15.4105 19.9127 15.5889 19.2468L15.5916 19.2368C15.77 18.5709 16.4545 18.1758 17.1204 18.3542C17.7863 18.5326 18.1814 19.2171 18.003 19.883L18.0003 19.893C17.8219 20.5589 17.1374 20.954 16.4715 20.7756Z" fill="#6FD7A3"/>
<path d="M15.9842 9.46491C15.9017 9.65967 15.833 9.85995 15.7784 10.0643C15.6512 10.5388 15.8152 11.023 16.1612 11.3261C15.9736 11.3636 15.7798 11.3572 15.595 11.3074C14.9295 11.1291 14.5339 10.4447 14.7124 9.77866C14.7672 9.57438 14.8361 9.37416 14.9188 9.17947C15.8411 6.99963 18.324 5.88995 20.5705 6.6526C20.6506 6.67982 20.7298 6.70945 20.8081 6.74143C18.8081 6.46111 16.7946 7.55072 15.9842 9.46491ZM20.3278 13.2843C19.1068 13.3799 18.0717 14.2437 17.7528 15.4337L17.6158 15.945C17.4886 16.4195 17.6532 16.9039 17.9992 17.207C17.8116 17.2445 17.6178 17.2381 17.433 17.1883C16.7669 17.0098 16.3719 16.3256 16.5504 15.6596L16.6874 15.1483C17.0063 13.9583 18.0408 13.0943 19.2624 12.9988C20.1809 12.9268 20.9433 12.2422 21.117 11.3335C21.2808 10.4789 20.8762 9.62364 20.1504 9.19358C20.3777 9.19058 20.6084 9.22593 20.8338 9.30248C21.7935 9.62804 22.3735 10.6239 22.183 11.6192C22.0093 12.5278 21.2462 13.2121 20.3278 13.2843ZM17.038 20.7944C16.8504 20.832 16.6566 20.8255 16.4718 20.7757C15.8057 20.5972 15.4107 19.9131 15.5892 19.247L15.5919 19.2368C15.7703 18.5713 16.4546 18.1757 17.1207 18.3542C17.3056 18.4034 17.4766 18.4947 17.6204 18.621C17.1689 18.7111 16.7843 19.0483 16.6573 19.5222L16.6545 19.5324C16.5274 20.007 16.6919 20.4913 17.038 20.7944Z" fill="#3EC3A4"/>
<path d="M12.5603 15.5296C11.7863 15.5296 11.1588 14.9021 11.1588 14.1281V13.5337C11.1588 12.1504 12.0299 10.913 13.3264 10.4546C14.3016 10.1098 14.93 9.1454 14.8544 8.10936C14.7717 6.97493 13.8532 6.06336 12.7179 5.98901C11.517 5.90969 10.4472 6.77692 10.2819 7.96179C10.267 8.0687 10.2596 8.17651 10.2596 8.28445C10.2596 9.05844 9.63216 9.68589 8.85817 9.68589C8.08418 9.68589 7.45673 9.05844 7.45673 8.28445C7.45673 8.0472 7.47327 7.80832 7.5059 7.57449C7.87309 4.94304 10.2429 3.01769 12.901 3.19212C15.4245 3.35736 17.466 5.38373 17.6499 7.90559C17.8169 10.1977 16.4232 12.3325 14.2606 13.0972C14.0818 13.1604 13.9616 13.3359 13.9616 13.5337V14.1281C13.9617 14.9021 13.3342 15.5296 12.5603 15.5296ZM12.5603 19.6995C11.7863 19.6995 11.1588 19.0721 11.1588 18.2981V18.2865C11.1588 17.5125 11.7863 16.885 12.5603 16.885C13.3342 16.885 13.9617 17.5125 13.9617 18.2865V18.2981C13.9617 19.0721 13.3342 19.6995 12.5603 19.6995Z" fill="#0573CE"/>
<path d="M8.74477 7.57456C8.71197 7.80974 8.6956 8.04692 8.69578 8.28438C8.69578 8.83598 9.01427 9.31338 9.4777 9.54158C9.28509 9.63677 9.07307 9.68613 8.85821 9.68577C8.08469 9.68577 7.45682 9.05856 7.45682 8.28438C7.45687 8.0469 7.47347 7.80972 7.50651 7.57456C7.87332 4.94254 10.2435 3.01757 12.9014 3.19186C12.9966 3.19814 13.0911 3.20724 13.1849 3.21915C10.9344 3.49638 9.06747 5.26314 8.74477 7.57456ZM14.5653 10.4544C13.2689 10.9129 12.3974 12.1505 12.3974 13.5337V14.128C12.3974 14.6796 12.7166 15.157 13.18 15.3852C12.9874 15.4804 12.7754 15.5298 12.5605 15.5294C11.7864 15.5294 11.1591 14.9022 11.1591 14.128V13.5337C11.1591 12.1505 12.0299 10.9129 13.327 10.4544C14.3021 10.1093 14.93 9.14537 14.8544 8.10938C14.7837 7.13499 14.0963 6.32509 13.1842 6.06957C13.4354 5.9989 13.6967 5.97168 13.9571 5.98908C15.0925 6.06328 16.0108 6.97467 16.0934 8.10938C16.169 9.14537 15.5404 10.1093 14.5653 10.4544ZM13.18 19.5551C12.9874 19.6503 12.7753 19.6996 12.5605 19.6993C11.7863 19.6993 11.1591 19.0721 11.1591 18.2979V18.286C11.1591 17.5125 11.7863 16.8846 12.5605 16.8846C12.7831 16.8846 12.9931 16.9364 13.18 17.0288C12.7166 17.2577 12.3974 17.7351 12.3974 18.286V18.2979C12.3974 18.8495 12.7166 19.3269 13.18 19.5551Z" fill="#0067C5"/>
<path d="M9.92443 18.9209C9.75356 18.5292 9.44047 18.2275 9.04267 18.0713C8.64491 17.9151 8.21008 17.9232 7.81847 18.0941C7.42681 18.2649 7.12506 18.578 6.96886 18.9758C6.81271 19.3735 6.82078 19.8083 6.99141 20.1996L6.99568 20.2095C7.16654 20.6012 7.47964 20.9029 7.87748 21.0591C8.0638 21.1326 8.26227 21.1704 8.46256 21.1706C8.67974 21.1706 8.89664 21.1258 9.10168 21.0364C9.49334 20.8655 9.79509 20.5524 9.95124 20.1546C10.1074 19.7569 10.0993 19.3221 9.92869 18.9308L9.92443 18.9209ZM9.29674 19.8976C9.254 20.0074 9.1899 20.1076 9.10818 20.1924C9.02645 20.2772 8.92871 20.345 8.82061 20.3918C8.71275 20.4392 8.59657 20.4647 8.47879 20.4669C8.361 20.469 8.24396 20.4478 8.13442 20.4045C8.02471 20.3618 7.92455 20.2977 7.83975 20.2161C7.75495 20.1344 7.68719 20.0367 7.64038 19.9287L7.63611 19.9189C7.58871 19.811 7.56317 19.6948 7.56099 19.5771C7.55881 19.4593 7.58003 19.3422 7.62341 19.2327C7.66615 19.1229 7.73025 19.0228 7.81197 18.9379C7.8937 18.8531 7.99144 18.7853 8.09954 18.7385C8.21249 18.689 8.33446 18.6634 8.45778 18.6633C8.56855 18.6633 8.67946 18.6841 8.78568 18.7258C8.8954 18.7685 8.99555 18.8326 9.08035 18.9143C9.16515 18.9959 9.23292 19.0936 9.27972 19.2016L9.28399 19.2115C9.33138 19.3193 9.35691 19.4355 9.3591 19.5533C9.36129 19.671 9.34009 19.7881 9.29674 19.8976ZM23.0556 8.06926C23.0006 7.99389 22.918 7.94343 22.8259 7.92896C22.7338 7.91449 22.6397 7.93721 22.5644 7.99212C22.489 8.04703 22.4385 8.12963 22.424 8.22175C22.4096 8.31387 22.4323 8.40796 22.4872 8.48333C23.1714 9.42228 23.4399 10.6079 23.2239 11.7363C22.8687 13.5919 21.3082 14.9903 19.4289 15.1369C19.113 15.1616 18.8439 15.3888 18.7589 15.7031L18.6221 16.2144C18.5919 16.3283 18.5394 16.4351 18.4677 16.5286C18.3959 16.6221 18.3064 16.7004 18.2042 16.7591C18.1023 16.8183 17.9897 16.8566 17.8729 16.872C17.7562 16.8873 17.6375 16.8793 17.5238 16.8485C17.4099 16.8184 17.3032 16.7659 17.2097 16.6942C17.1163 16.6226 17.038 16.533 16.9794 16.4309C16.9202 16.329 16.8818 16.2164 16.8664 16.0996C16.8511 15.9827 16.8591 15.864 16.8899 15.7503L17.0268 15.2386C17.3072 14.1925 18.2164 13.4332 19.2891 13.3492C20.365 13.2652 21.2587 12.4636 21.4624 11.3997C21.6854 10.233 21.0053 9.06531 19.8807 8.68363C19.2469 8.46814 18.5591 8.53681 17.9855 8.83612C18.0179 8.52223 18.0241 8.20267 18.0006 7.88002C17.9779 7.56955 17.9284 7.26163 17.8525 6.95972C18.702 6.69289 19.6155 6.69965 20.4576 6.98541C20.7876 7.09749 21.1022 7.25079 21.3938 7.44167C21.4325 7.46699 21.4757 7.48444 21.5211 7.49304C21.5664 7.50164 21.6131 7.50121 21.6583 7.49178C21.7035 7.48234 21.7464 7.46409 21.7845 7.43806C21.8227 7.41203 21.8553 7.37874 21.8806 7.34008C21.9059 7.30145 21.9233 7.25822 21.9319 7.21285C21.9404 7.16748 21.94 7.12087 21.9306 7.07567C21.9211 7.03047 21.9029 6.98758 21.8769 6.94943C21.8509 6.91129 21.8176 6.87864 21.7789 6.85336C21.4377 6.63002 21.0697 6.45067 20.6836 6.31956C19.6984 5.98519 18.6301 5.97769 17.6375 6.29045C16.8805 4.37434 15.0645 2.98148 12.9241 2.84132C10.2303 2.66449 7.81312 4.50621 7.23578 7.09646C6.01294 6.43268 4.55656 6.31174 3.24268 6.78487C0.837921 7.65125 -0.507738 10.2537 0.179014 12.7088C0.240176 12.9285 0.31668 13.1436 0.407963 13.3526C0.57883 13.7443 0.891924 14.046 1.28968 14.2022C1.68738 14.3583 2.12208 14.3502 2.51383 14.1793C2.90549 14.0085 3.20719 13.6953 3.36334 13.2974C3.51949 12.8996 3.51138 12.4649 3.34061 12.0736C3.30879 12.0004 3.28198 11.9252 3.26035 11.8485C3.02264 10.9979 3.49118 10.0961 4.32728 9.79542C5.11651 9.51092 6.00595 9.85622 6.3963 10.5986C6.75309 11.2776 6.61259 12.1157 6.05461 12.6368C5.05055 13.5746 4.74711 15.0548 5.29961 16.3198L5.51112 16.8051C5.77326 17.4061 6.36264 17.7654 6.98025 17.7653C7.19322 17.7653 7.4096 17.7226 7.61699 17.6323C8.0086 17.4614 8.31035 17.1482 8.4665 16.7504C8.62265 16.3525 8.61454 15.9178 8.44381 15.5266L8.2323 15.0408C8.22077 15.0144 8.22625 14.987 8.23872 14.9755C8.38484 14.8388 8.52242 14.6933 8.65068 14.5398C8.68025 14.5043 8.70255 14.4634 8.71631 14.4193C8.73006 14.3752 8.735 14.3289 8.73084 14.2829C8.72668 14.2369 8.7135 14.1922 8.69207 14.1513C8.67063 14.1104 8.64134 14.0742 8.60589 14.0446C8.57043 14.015 8.5295 13.9927 8.48542 13.979C8.44135 13.9652 8.395 13.9603 8.34902 13.9644C8.30303 13.9686 8.25832 13.9818 8.21743 14.0032C8.17654 14.0246 8.14027 14.0539 8.1107 14.0894C8.00122 14.2205 7.88376 14.3447 7.75898 14.4614C7.52656 14.6779 7.45775 15.0237 7.58769 15.3216L7.79925 15.8076C7.84665 15.9154 7.87219 16.0315 7.87438 16.1493C7.87656 16.267 7.85536 16.384 7.812 16.4934C7.76928 16.6032 7.70522 16.7034 7.62353 16.7882C7.54185 16.873 7.44415 16.9408 7.3361 16.9877C6.88289 17.185 6.35332 16.977 6.15568 16.524L5.94412 16.0386C5.51065 15.046 5.74794 13.8854 6.53464 13.1507C7.32344 12.414 7.52253 11.2301 7.01879 10.2714C6.46601 9.22 5.20632 8.73098 4.08914 9.1338C2.90835 9.5585 2.24687 10.834 2.58344 12.0385C2.61382 12.1463 2.65147 12.2519 2.69614 12.3546C2.74354 12.4624 2.76908 12.5786 2.77127 12.6963C2.77345 12.814 2.75225 12.931 2.70889 13.0405C2.66616 13.1503 2.60207 13.2505 2.52034 13.3353C2.43861 13.4202 2.34086 13.488 2.23275 13.5348C2.01323 13.6305 1.76961 13.6351 1.54671 13.5476C1.3238 13.4601 1.1483 13.291 1.05262 13.0715C0.974425 12.8925 0.908886 12.7083 0.856484 12.5201C0.268268 10.4172 1.42117 8.18851 3.48105 7.4464C4.6865 7.01232 6.03291 7.16298 7.1236 7.84453C7.11188 7.99093 7.10527 8.13798 7.10527 8.28447C7.10527 9.25108 7.89169 10.0375 8.8583 10.0375L8.86322 10.0374C9.16337 10.9201 9.16263 11.881 8.85506 12.7709C8.82461 12.859 8.83041 12.9556 8.8712 13.0395C8.91199 13.1233 8.98442 13.1875 9.07255 13.218C9.16068 13.2485 9.25731 13.2427 9.34116 13.2019C9.42502 13.1611 9.48923 13.0887 9.51969 13.0005C9.86902 11.9897 9.87891 10.9001 9.55574 9.89232C10.1762 9.62212 10.6113 9.00324 10.6113 8.28443C10.6113 8.19227 10.6176 8.1001 10.6301 8.01038C10.7702 7.00636 11.6775 6.27264 12.695 6.33981C13.6562 6.40277 14.4338 7.17447 14.5038 8.13489C14.5679 9.01332 14.0356 9.83091 13.2093 10.1231C11.7726 10.631 10.8073 12.0016 10.8073 13.5336V14.1281C10.8073 15.0947 11.5937 15.8811 12.5603 15.8811C13.5269 15.8811 14.3133 15.0947 14.3133 14.1281V13.5336C14.3133 13.4852 14.3399 13.4421 14.378 13.4286C16.0271 12.8455 17.2573 11.5169 17.7625 9.91393C18.2027 9.34962 18.9724 9.11739 19.6547 9.34934C20.4491 9.61893 20.9294 10.4436 20.7719 11.2674C20.6276 12.0209 19.9955 12.5887 19.2344 12.6481C17.8651 12.7553 16.7051 13.7231 16.3477 15.0566L16.2108 15.5683C16.1001 15.981 16.1568 16.4122 16.3705 16.7823C16.5842 17.1525 16.9293 17.4172 17.342 17.5276C17.478 17.5642 17.6181 17.5828 17.7589 17.5829C18.036 17.5829 18.3095 17.5102 18.5559 17.3679C18.926 17.1543 19.1907 16.8092 19.3014 16.3962L19.4381 15.8856C19.446 15.8563 19.4675 15.8391 19.4837 15.8378C21.678 15.6666 23.5001 14.0343 23.9147 11.8684C24.167 10.5497 23.8539 9.16488 23.0556 8.06926ZM14.1435 12.7657C13.8245 12.8785 13.6101 13.1871 13.6101 13.5337V14.1281C13.6101 14.707 13.1391 15.178 12.5602 15.178C11.9814 15.178 11.5104 14.707 11.5104 14.1281V13.5337C11.5104 12.299 12.2873 11.1949 13.4436 10.7861C14.5678 10.3886 15.2922 9.27733 15.2051 8.08379C15.1098 6.77531 14.0504 5.72394 12.7411 5.6382C12.6827 5.63433 12.6242 5.63239 12.5657 5.63239C11.2548 5.63239 10.1164 6.60425 9.93376 7.9132C9.91665 8.03622 9.90809 8.16027 9.90811 8.28447C9.90811 8.86336 9.43714 9.33434 8.85825 9.33434C8.27932 9.33434 7.80839 8.86336 7.80839 8.28447C7.80839 8.06354 7.82381 7.84101 7.85423 7.62308C8.1962 5.17271 10.4027 3.38078 12.8782 3.54298C15.2275 3.69683 17.1282 5.58336 17.2994 7.93116C17.4548 10.0656 16.1572 12.0537 14.1435 12.7657ZM17.2114 18.0147C16.7986 17.9041 16.3675 17.9608 15.9974 18.1745C15.6273 18.3881 15.3626 18.7331 15.2523 19.145L15.2494 19.1558C15.0211 20.0079 15.5285 20.8869 16.3806 21.1152C16.5154 21.1514 16.6545 21.1698 16.7942 21.1699C17.5005 21.1699 18.1487 20.6977 18.3401 19.9833L18.3426 19.974C18.4532 19.5612 18.3965 19.1301 18.1828 18.76C17.9691 18.39 17.6241 18.1253 17.2114 18.0147ZM17.6632 19.7928L17.6607 19.802C17.5328 20.2796 17.0401 20.564 16.5625 20.4361C16.0849 20.3081 15.8005 19.8154 15.9283 19.3387L15.9312 19.3279C15.9614 19.2141 16.0138 19.1073 16.0855 19.0138C16.1572 18.9204 16.2468 18.8421 16.349 18.7835C16.4508 18.7243 16.5634 18.6859 16.6802 18.6705C16.797 18.6552 16.9156 18.6631 17.0293 18.6939C17.1432 18.7241 17.25 18.7765 17.3434 18.8482C17.4369 18.92 17.5152 19.0095 17.5738 19.1117C17.6935 19.3191 17.7254 19.5607 17.6632 19.7928Z" fill="black"/>
<path d="M12.5603 16.5334C11.5936 16.5334 10.8073 17.3199 10.8073 18.2865V18.2981C10.8073 19.2647 11.5936 20.0511 12.5603 20.0511C13.5269 20.0511 14.3133 19.2647 14.3133 18.2981V18.2865C14.3133 17.3198 13.5269 16.5334 12.5603 16.5334ZM13.6101 18.298C13.6101 18.8769 13.1391 19.3479 12.5603 19.3479C11.9814 19.3479 11.5104 18.8769 11.5104 18.298V18.2864C11.5104 17.7075 11.9814 17.2366 12.5603 17.2366C13.1391 17.2366 13.6101 17.7075 13.6101 18.2864V18.298Z" fill="black"/>
</g>
<defs>
<clipPath id="clip0_291_1777">
<rect width="24" height="24" fill="white"/>
</clipPath>
</defs>
</svg>
