<svg width="20" height="20" viewBox="0 0 20 20" fill="none" xmlns="http://www.w3.org/2000/svg">
<path d="M12.5 18.9584H7.49999C2.97499 18.9584 1.04166 17.0251 1.04166 12.5001V7.50008C1.04166 2.97508 2.97499 1.04175 7.49999 1.04175H12.5C17.025 1.04175 18.9583 2.97508 18.9583 7.50008V12.5001C18.9583 17.0251 17.025 18.9584 12.5 18.9584ZM7.49999 2.29175C3.65832 2.29175 2.29166 3.65841 2.29166 7.50008V12.5001C2.29166 16.3417 3.65832 17.7084 7.49999 17.7084H12.5C16.3417 17.7084 17.7083 16.3417 17.7083 12.5001V7.50008C17.7083 3.65841 16.3417 2.29175 12.5 2.29175H7.49999Z" fill="#989898"/>
<path d="M7.50001 8.95833C6.23334 8.95833 5.20834 7.93333 5.20834 6.66667C5.20834 5.4 6.23334 4.375 7.50001 4.375C8.76668 4.375 9.79168 5.4 9.79168 6.66667C9.79168 7.93333 8.76668 8.95833 7.50001 8.95833ZM7.50001 5.625C7.22374 5.625 6.95879 5.73475 6.76344 5.9301C6.56809 6.12545 6.45834 6.3904 6.45834 6.66667C6.45834 6.94293 6.56809 7.20789 6.76344 7.40324C6.95879 7.59859 7.22374 7.70833 7.50001 7.70833C7.77628 7.70833 8.04123 7.59859 8.23658 7.40324C8.43193 7.20789 8.54168 6.94293 8.54168 6.66667C8.54168 6.3904 8.43193 6.12545 8.23658 5.9301C8.04123 5.73475 7.77628 5.625 7.50001 5.625ZM2.22418 16.4158C2.09024 16.416 1.95982 16.373 1.85233 16.2931C1.74484 16.2132 1.66603 16.1007 1.62763 15.9724C1.58923 15.8441 1.5933 15.7068 1.63922 15.581C1.68515 15.4552 1.77048 15.3476 1.88251 15.2742L5.99084 12.5158C6.89084 11.9075 8.13251 11.9825 8.94918 12.6742L9.22418 12.9158C9.64084 13.2742 10.3492 13.2742 10.7575 12.9158L14.2242 9.94083C15.1075 9.1825 16.4992 9.1825 17.3908 9.94083L18.7492 11.1075C19.0075 11.3325 19.0408 11.7242 18.8158 11.9908C18.5908 12.2492 18.1992 12.2825 17.9325 12.0575L16.5742 10.8908C16.1575 10.5325 15.4492 10.5325 15.0325 10.8908L11.5658 13.8658C10.6825 14.6242 9.29084 14.6242 8.39918 13.8658L8.12418 13.6242C7.74084 13.2992 7.10751 13.2658 6.68251 13.5575L2.57418 16.3158C2.46584 16.3825 2.34084 16.4158 2.22418 16.4158Z" fill="#989898"/>
</svg>
