<svg width="28" height="28" viewBox="0 0 28 28" fill="none" xmlns="http://www.w3.org/2000/svg">
<path d="M0.546875 5.6875V12.0358C0.793406 19.0638 4.22866 23.6023 5.98248 25.5735C6.52608 26.1841 7.38768 26.3977 8.15199 26.1078C9.83773 25.4709 11.7058 26.0491 11.7058 26.0491C22.2739 27.6245 22.8647 18.8283 22.8647 18.8283C23.0187 18.7777 23.1711 18.7222 23.3216 18.6619C25.691 18.0985 27.4531 15.968 27.4531 13.4267C27.4531 10.4549 25.0436 8.04546 22.0719 8.04546C19.1797 8.04546 16.8202 10.3276 16.6961 13.1895C10.4583 13.9659 11.3346 20.3328 11.3346 20.3328L6.7853 15.5924C5.24891 13.9912 4.39064 11.8515 4.39064 9.6326" stroke="#7210FF" stroke-miterlimit="10" stroke-linecap="round" stroke-linejoin="round"/>
<path d="M4.48531 10.1858C2.01206 10.1858 0 8.17376 0 5.70052C0 3.22727 2.01206 1.21521 4.48531 1.21521C6.95855 1.21521 8.97061 3.22727 8.97061 5.70052C8.97061 8.17376 6.95849 10.1858 4.48531 10.1858Z" fill="#7210FF" fill-opacity="0.4"/>
<path d="M4.48531 7.01335C5.21037 7.01335 5.79814 6.42558 5.79814 5.70052C5.79814 4.97547 5.21037 4.3877 4.48531 4.3877C3.76026 4.3877 3.17249 4.97547 3.17249 5.70052C3.17249 6.42558 3.76026 7.01335 4.48531 7.01335Z" stroke="#7210FF" stroke-miterlimit="10" stroke-linecap="round" stroke-linejoin="round"/>
</svg>
