<svg width="28" height="28" viewBox="0 0 28 28" fill="none" xmlns="http://www.w3.org/2000/svg">
<g clip-path="url(#clip0_300_1888)">
<path d="M13.2341 15.3672L9.95295 18.796L7.21863 15.3672L2.73433 19.7421V24.6639H18.7028L13.2341 15.3672Z" fill="#7210FF" fill-opacity="0.24"/>
<path d="M18.7028 10.9927H2.73432C2.43229 10.9927 2.18745 11.2376 2.18745 11.5395V24.6643C2.18745 24.9663 2.43229 25.2112 2.73432 25.2112H18.7028C19.0048 25.2112 19.2497 24.9663 19.2497 24.6643V11.5395C19.2497 11.2375 19.0048 10.9927 18.7028 10.9927ZM18.1559 24.1174H3.28118V12.0864H18.1559V24.1174Z" fill="#7210FF"/>
<path d="M27.3588 11.2967L17.3048 1.24275C16.4498 0.387889 15.0663 0.387779 14.2113 1.24275L6.64895 8.80502H2.18746C0.981295 8.80502 0 9.78632 0 10.9925V25.211C0 26.4172 0.981295 27.3984 2.18746 27.3984H19.2497C20.4558 27.3984 21.4371 26.4172 21.4371 25.211V20.312L27.3587 14.3903C28.2137 13.5354 28.2138 12.1518 27.3588 11.2967ZM20.3434 25.211C20.3434 25.8141 19.8527 26.3047 19.2497 26.3047H2.18746C1.58438 26.3047 1.09373 25.8141 1.09373 25.211V10.9925C1.09373 10.3894 1.58438 9.89875 2.18746 9.89875H19.2497C19.8527 9.89875 20.3434 10.3894 20.3434 10.9925V25.211ZM26.5854 13.6168L21.4371 18.7652V10.9925C21.4371 9.78632 20.4558 8.80502 19.2497 8.80502H8.19576L14.9847 2.01613C15.4121 1.5887 16.1039 1.58864 16.5314 2.01613L26.5854 12.0701C27.0128 12.4975 27.013 13.1894 26.5854 13.6168Z" fill="#7210FF"/>
</g>
<defs>
<clipPath id="clip0_300_1888">
<rect width="28" height="28" fill="white"/>
</clipPath>
</defs>
</svg>
