<svg width="23" height="25" viewBox="0 0 23 25" fill="none" xmlns="http://www.w3.org/2000/svg">
    <path d="M3.746 3.39H19.67v3.825H3.746V3.39z" fill="#7210FF" fill-opacity=".4"/>
    <path d="M19.67 3.39h2.745v21.035H19.67V3.39zm0 0H3.746m0 0H1v21.035h2.746V3.39zm12.629 0V1H7.04v2.39m10.433 2.152h-4.942m-.823 14.102v3.825c0 .528-.492.956-1.099.956-.606 0-1.098-.428-1.098-.956v-5.02M12.27 12.887c1.173-.27 1.872-1.317 1.561-2.338-.31-1.02-1.512-1.63-2.685-1.36-1.173.271-1.872 1.318-1.561 2.338.31 1.022 1.512 1.63 2.685 1.36z" stroke="#7210FF" stroke-miterlimit="10" stroke-linecap="round" stroke-linejoin="round"/>
    <path d="M9.511 16.776v1.673c0 .528-.492.956-1.098.956-.607 0-1.098-.428-1.098-.956v-3.585c0-1.057.983-1.913 2.196-1.913h4.393c1.213 0 2.196.857 2.196 1.913v3.585c0 .528-.491.956-1.098.956-.606 0-1.098-.428-1.098-.956v-1.673" stroke="#7210FF" stroke-miterlimit="10" stroke-linecap="round" stroke-linejoin="round"/>
    <path d="M11.708 19.644v3.825c0 .528.491.956 1.098.956.606 0 1.098-.428 1.098-.956v-5.02" stroke="#7210FF" stroke-miterlimit="10" stroke-linecap="round" stroke-linejoin="round"/>
</svg>
