<svg width="20" height="20" viewBox="0 0 20 20" fill="none" xmlns="http://www.w3.org/2000/svg">
<path d="M17.7258 7.64833C17.4842 7.26499 17.2258 6.90666 16.9592 6.57333C16.8864 6.48111 16.795 6.40531 16.6909 6.3509C16.5868 6.29649 16.4724 6.2647 16.3551 6.25762C16.2379 6.25054 16.1205 6.26832 16.0106 6.3098C15.9007 6.35129 15.8008 6.41553 15.7175 6.49833L13.2175 8.99833C13.4008 9.54833 13.4342 10.1817 13.2675 10.84C13.1186 11.4226 12.8156 11.9544 12.3904 12.3796C11.9652 12.8048 11.4334 13.1077 10.8508 13.2567C10.1925 13.4233 9.55917 13.39 9.00917 13.2067L6.95917 15.2567C6.5425 15.6733 6.67583 16.4067 7.23417 16.6233C8.12583 16.965 9.05083 17.14 10.0008 17.14C11.4842 17.14 12.9258 16.7067 14.2425 15.8983C15.5842 15.065 16.7925 13.84 17.7675 12.2817C18.5592 11.0233 18.5175 8.90666 17.7258 7.64833ZM11.6833 8.31666L8.31667 11.6833C7.89167 11.25 7.61667 10.65 7.61667 9.99999C7.61667 8.69166 8.68333 7.61666 10 7.61666C10.65 7.61666 11.25 7.89166 11.6833 8.31666Z" fill="#989898"/>
<path d="M15.2083 4.79173L12.3833 7.61673C12.0717 7.30226 11.7003 7.05326 11.291 6.88439C10.8817 6.71553 10.4427 6.63019 10 6.6334C8.13333 6.6334 6.63333 8.14173 6.63333 10.0001C6.63333 10.9334 7.00833 11.7751 7.61666 12.3834L4.8 15.2084H4.79166C3.86666 14.4584 3.01666 13.5001 2.29166 12.3667C1.45833 11.0584 1.45833 8.9334 2.29166 7.62506C3.25833 6.1084 4.44166 4.91673 5.75833 4.10006C7.075 3.30007 8.51666 2.8584 10 2.8584C11.8583 2.8584 13.6583 3.54173 15.2083 4.79173ZM12.3817 9.9984C12.3817 11.3067 11.315 12.3817 9.99833 12.3817C9.94833 12.3817 9.90666 12.3817 9.85667 12.3651L12.365 9.85673C12.3817 9.90673 12.3817 9.9484 12.3817 9.9984Z" fill="#989898"/>
<path d="M18.1408 1.85742C17.8908 1.60742 17.4825 1.60742 17.2325 1.85742L1.8575 17.2408C1.6075 17.4908 1.6075 17.8991 1.8575 18.1491C1.91682 18.2082 1.98731 18.2549 2.06487 18.2866C2.14242 18.3182 2.22549 18.3341 2.30924 18.3333C2.39299 18.3325 2.47576 18.3151 2.55271 18.2821C2.62967 18.249 2.69928 18.201 2.7575 18.1408L18.1408 2.75742C18.3992 2.50742 18.3992 2.10742 18.1408 1.85742Z" fill="#989898"/>
</svg>
