<svg width="32" height="32" viewBox="0 0 32 32" fill="none" xmlns="http://www.w3.org/2000/svg">
<path fill-rule="evenodd" clip-rule="evenodd" d="M24.1807 16.6167C20.1707 15.5422 18.294 18.0324 12.9965 16.626L11.4697 19.5001C10.7946 20.7708 10.5322 21.3282 10.5322 22.7501V30.1251C10.5322 30.8126 11.0948 31.3751 11.7822 31.3751H23.0322C23.7197 31.3751 24.2822 30.8126 24.2822 30.1251V16.6439L24.1807 16.6167Z" fill="#7210FF" fill-opacity="0.4"/>
<path d="M17.0946 9.50009H23.0321C23.7196 9.50009 24.2821 10.0626 24.2821 10.7501V30.125C24.2821 30.8125 23.7196 31.375 23.0321 31.375H11.7822C11.0948 31.375 10.5322 30.8125 10.5322 30.125V22.75C10.5322 21.3282 10.7947 20.7707 11.4697 19.5001L16.7821 9.50009V6.31248C16.7821 4.96667 16.0091 3.93749 14.5946 3.93749L12.0947 3.62499V0.937499L14.5946 0.625H22.7822C23.7383 0.625 24.3759 1.25256 24.3759 2.20312V3.62499L22.5009 6.31248H17.0946" stroke="#7210FF" stroke-miterlimit="22.9256" stroke-linecap="round" stroke-linejoin="round"/>
<path d="M14.5946 0.9375V3.9375L13.9696 7.56256M21.2509 6.625V9.18762M9.42327 1.10706L7.62408 0.625M9.42327 3.76794L7.62408 4.25" stroke="#7210FF" stroke-miterlimit="22.9256" stroke-linecap="round" stroke-linejoin="round"/>
<path d="M18.1761 27.2172C19.863 26.8189 20.9076 25.1286 20.5092 23.4417C20.1109 21.7549 18.4206 20.7103 16.7337 21.1086C15.0468 21.5069 14.0023 23.1973 14.4006 24.8841C14.7989 26.571 16.4893 27.6156 18.1761 27.2172Z" stroke="#7210FF" stroke-miterlimit="22.9256" stroke-linecap="round" stroke-linejoin="round"/>
</svg>
