<svg width="28" height="28" viewBox="0 0 28 28" fill="none" xmlns="http://www.w3.org/2000/svg">
<g clip-path="url(#clip0_290_1505)">
<path d="M13.8601 11.4328L23.8506 0.759294C24.3025 0.276706 24.941 0 25.602 0C26.2427 0 26.8444 0.249255 27.2979 0.702196C27.7613 1.16612 28.0105 1.78267 27.9996 2.4382C27.9891 3.09373 27.7196 3.70149 27.2408 4.14949L16.5673 14.14L13.8601 11.4328Z" fill="#7210FF" fill-opacity="0.4"/>
<path d="M5.37622 16.8313L3.05925 19.1484M7.69325 18.3761L4.9901 21.0792M9.6241 20.3069L6.92095 23.0101M11.3619 27.451L0.549133 16.6382L1.43778 16.2574C4.42217 14.9783 7.13511 13.1416 9.43106 10.8457L17.1545 18.5691C14.8585 20.865 13.0218 23.578 11.7428 26.5624L11.3619 27.451Z" stroke="#7210FF" stroke-miterlimit="10" stroke-linecap="round" stroke-linejoin="round"/>
<path d="M10.2034 11.6181C11.2697 10.5517 12.9987 10.5517 14.0651 11.6181L16.3821 13.9351C17.4485 15.0014 17.4485 16.7304 16.3821 17.7968M7.62419 12.4872C7.64055 12.3801 7.64878 12.2709 7.64878 12.1595C7.64878 10.9531 6.6707 9.975 5.46429 9.975C7.27413 9.975 8.74106 8.50813 8.74106 6.69823C8.74106 4.88839 7.27418 3.42147 5.46429 3.42147C5.25851 3.42147 5.05752 3.44134 4.86229 3.47758C4.63977 2.50718 3.77155 1.78308 2.73363 1.78308C1.52716 1.78308 0.549133 2.7611 0.549133 3.96758C0.549133 5.0055 1.27324 5.87372 2.24363 6.09623C2.20651 6.29476 2.18773 6.49627 2.18752 6.69823C2.18699 7.27459 2.33906 7.84082 2.62827 8.33936C1.47105 8.39399 0.549188 9.34967 0.549188 10.5212C0.549188 11.1738 0.835886 11.7592 1.28976 12.1596C0.835941 12.5598 0.549188 13.1453 0.549188 13.7979C0.549188 14.8197 1.2504 15.6777 2.1985 15.9164M11.1688 22.6239L8.85179 24.9409" stroke="#7210FF" stroke-miterlimit="10" stroke-linecap="round" stroke-linejoin="round"/>
</g>
<defs>
<clipPath id="clip0_290_1505">
<rect width="28" height="28" fill="white"/>
</clipPath>
</defs>
</svg>
