<svg width="20" height="20" viewBox="0 0 20 20" fill="none" xmlns="http://www.w3.org/2000/svg">
    <path d="M11.666 6.667h4.167M12.499 10h3.334m-1.667 3.333h1.667M14.166 17.5H5.833c-3.334 0-4.167-.833-4.167-4.167V6.667c0-3.334.833-4.167 4.167-4.167h8.333c3.333 0 4.167.833 4.167 4.167v6.666c0 3.334-.834 4.167-4.167 4.167z" stroke="#989898" stroke-width="1.5" stroke-linecap="round" stroke-linejoin="round"/>
    <path d="M10 13.608a2.517 2.517 0 0 0-2.284-2.266 6.428 6.428 0 0 0-1.267 0 2.525 2.525 0 0 0-2.283 2.266m2.917-4.2a1.508 1.508 0 1 0 0-3.016 1.508 1.508 0 0 0 0 3.016z" stroke="#989898" stroke-width="1.5" stroke-linecap="round" stroke-linejoin="round"/>
</svg>
