<svg width="32" height="32" viewBox="0 0 32 32" fill="none" xmlns="http://www.w3.org/2000/svg">
    <path d="M26 1H6a4 4 0 0 0-4 4v22a4 4 0 0 0 4 4h20a4 4 0 0 0 4-4V5a4 4 0 0 0-4-4z" fill="#7210FF" fill-opacity=".12"/>
    <path d="M23.5 14.458a1 1 0 0 0-1.392.022l-4.312 4.313a1 1 0 0 0 0 1.414l10.223 10.226A3.985 3.985 0 0 0 30 27v-6.433l-6.5-6.11z" fill="#7210FF" fill-opacity=".4"/>
    <path d="M19 14a3 3 0 1 0 0-6 3 3 0 0 0 0 6zM13.707 13.293a1.029 1.029 0 0 0-1.414 0L2 23.586V27a4 4 0 0 0 4 4h20a3.985 3.985 0 0 0 3.433-1.98L13.707 13.292z" fill="#7210FF"/>
</svg>
