<svg width="40" height="40" viewBox="0 0 40 40" fill="none" xmlns="http://www.w3.org/2000/svg">
<path d="M14.7372 15.218C15.6323 17.3273 17.4247 18.9637 19.6344 19.6485M30.831 17.6466C31.3992 17.217 31.7666 16.5357 31.7666 15.7684C31.7666 14.4688 30.713 13.4152 29.4134 13.4152C28.1137 13.4152 27.0601 14.4688 27.0601 15.7684C27.0601 16.5357 27.4274 17.217 27.9957 17.6466" stroke="#7210FF" stroke-miterlimit="10" stroke-linecap="round" stroke-linejoin="round"/>
<path d="M14.8408 8.86014C16.0857 6.1742 18.8053 4.31116 21.9611 4.31116C26.2936 4.31116 29.8055 7.82311 29.8055 12.1555C29.8055 12.5909 29.7702 13.0176 29.7012 13.4334" stroke="#7210FF" stroke-miterlimit="10" stroke-linecap="round" stroke-linejoin="round"/>
<path d="M14.9789 10.5712C15.3928 9.80593 15.108 8.85002 14.3428 8.43608C13.5776 8.02214 12.6216 8.30693 12.2077 9.07217C11.7938 9.83741 12.0786 10.7933 12.8438 11.2073C13.609 11.6212 14.5649 11.3364 14.9789 10.5712Z" stroke="#7210FF" stroke-miterlimit="10" stroke-linecap="round" stroke-linejoin="round"/>
<path d="M17.4896 5.92612C15.3365 3.773 11.8455 3.773 9.69234 5.92612C8.13719 7.4812 7.70594 9.73409 8.39719 11.6768L6.90766 13.1664L6.71664 15.0283L5.2368 14.8373L4.40141 15.6727V17.9005L2.73055 17.3435L1.3382 18.7359L0.78125 22.6345H4.12289L11.7389 15.0185C13.6817 15.7097 15.9345 15.2785 17.4896 13.7233C19.6428 11.5702 19.6428 8.07925 17.4896 5.92612Z" stroke="#7210FF" stroke-miterlimit="10" stroke-linecap="round" stroke-linejoin="round"/>
<path d="M36.8655 36.47H21.9611C20.2327 36.47 18.8266 35.0638 18.8266 33.3355V20C18.8266 18.2716 20.2327 16.8655 21.9611 16.8655H36.8655C38.5938 16.8655 40 18.2716 40 20V33.3355C40 35.0638 38.5938 36.47 36.8655 36.47Z" fill="#7210FF" fill-opacity="0.4"/>
<path d="M22.7455 25.0872L29.4017 20.7844L36.0579 25.0872" stroke="#7210FF" stroke-miterlimit="10" stroke-linecap="round" stroke-linejoin="round"/>
<path d="M34.1084 23.8273V32.551H24.6951V23.8273" stroke="#7210FF" stroke-miterlimit="10" stroke-linecap="round" stroke-linejoin="round"/>
<path d="M28.7073 24.5498H30.2762M31.0606 32.5511H27.9229V28.6681C27.9229 28.2132 28.2916 27.8444 28.7466 27.8444H30.237C30.6919 27.8444 31.0607 28.2132 31.0607 28.6681V32.5511H31.0606Z" stroke="#7210FF" stroke-miterlimit="10" stroke-linecap="round" stroke-linejoin="round"/>
</svg>
