<svg width="24" height="24" viewBox="0 0 24 24" fill="none" xmlns="http://www.w3.org/2000/svg">
    <path d="M18.015 9.815V6.487a5.343 5.343 0 0 0-5.339-5.34c-.321.001-.636.034-.942.09v1.351h1.727v.638a3.354 3.354 0 0 1 2.57 3.26v3.198h-4.297v13.168h2.957c2.78 0 5.031-2.25 5.031-5.03v-5.634a2.5 2.5 0 0 0-1.707-2.373z" fill="#000"/>
    <path d="M14.693 23.079h-2.957a.226.226 0 0 1-.226-.227V9.684a.226.226 0 0 1 .226-.227h4.071v-2.97a3.114 3.114 0 0 0-2.397-3.04.226.226 0 0 1-.174-.221v-.412h-1.5a.226.226 0 0 1-.226-.226V1.237a.226.226 0 0 1 .186-.223c.324-.06.653-.091.982-.092a5.571 5.571 0 0 1 5.565 5.565v3.17a2.723 2.723 0 0 1 1.708 2.531v5.634a5.263 5.263 0 0 1-5.258 5.257zm-2.73-.453h2.73a4.81 4.81 0 0 0 4.805-4.805v-5.633a2.27 2.27 0 0 0-1.553-2.158.227.227 0 0 1-.154-.215V6.487a5.118 5.118 0 0 0-5.113-5.113c-.23 0-.466.019-.715.055v.933h1.5a.227.227 0 0 1 .226.226v.464a3.565 3.565 0 0 1 2.571 3.435v3.197a.226.226 0 0 1-.227.227h-4.07v12.715z" fill="#000"/>
    <path d="M15.666 10.898a.99.99 0 0 1-.99-.99V6.484a3.357 3.357 0 0 0-3.35-3.355 3.36 3.36 0 0 0-3.361 3.355v3.422a.99.99 0 1 1-1.98 0V6.485A5.342 5.342 0 0 1 11.32 1.15a5.34 5.34 0 0 1 5.337 5.336v3.422a.99.99 0 0 1-.99.99z" fill="#fff"/>
    <path d="M15.666 11.124a1.218 1.218 0 0 1-1.217-1.217V6.486a3.13 3.13 0 0 0-3.124-3.13 3.135 3.135 0 0 0-3.134 3.13v3.421a1.218 1.218 0 0 1-2.433 0V6.486A5.569 5.569 0 0 1 11.32.923a5.568 5.568 0 0 1 5.563 5.563v3.421a1.218 1.218 0 0 1-1.217 1.217zm-4.341-8.22a3.584 3.584 0 0 1 3.577 3.581v3.422a.765.765 0 0 0 1.528 0V6.486a5.115 5.115 0 0 0-5.11-5.11 5.116 5.116 0 0 0-5.11 5.11v3.421a.765.765 0 0 0 1.528 0V6.486a3.588 3.588 0 0 1 3.587-3.582z" fill="#000"/>
    <path d="M18.365 12.188v5.633c0 2.78-2.25 5.031-5.031 5.031H9.308c-2.78 0-5.03-2.25-5.03-5.03v-5.634a2.504 2.504 0 0 1 2.504-2.504h9.079a2.504 2.504 0 0 1 2.504 2.504z" fill="#5AE4A7"/>
    <path d="M13.334 23.079H9.308a5.263 5.263 0 0 1-5.257-5.258v-5.633a2.734 2.734 0 0 1 2.73-2.73h9.08a2.734 2.734 0 0 1 2.73 2.73v5.633a5.263 5.263 0 0 1-5.257 5.258zM6.78 9.91a2.28 2.28 0 0 0-2.277 2.278v5.633a4.81 4.81 0 0 0 4.804 4.805h4.026a4.81 4.81 0 0 0 4.804-4.805v-5.633a2.28 2.28 0 0 0-2.277-2.278H6.78z" fill="#000"/>
    <path d="M13.257 14.74a1.931 1.931 0 0 1-.865 1.61v2.31a1.07 1.07 0 1 1-2.14 0v-2.31a1.931 1.931 0 0 1-.865-1.61c0-1.065.869-1.935 1.935-1.935a1.94 1.94 0 0 1 1.935 1.935z" fill="#283E42"/>
    <path d="M11.322 19.958a1.297 1.297 0 0 1-1.297-1.297v-2.194a2.154 2.154 0 0 1-.231-3.254 2.164 2.164 0 0 1 1.527-.634 2.164 2.164 0 0 1 2.162 2.161c0 .683-.321 1.32-.865 1.727v2.194a1.298 1.298 0 0 1-1.296 1.297zm0-6.926a1.71 1.71 0 0 0-1.71 1.708c0 .572.286 1.103.764 1.421a.227.227 0 0 1 .102.189v2.311a.844.844 0 0 0 1.687 0V16.35a.227.227 0 0 1 .102-.189 1.704 1.704 0 0 0 .262-2.628c-.32-.32-.755-.5-1.207-.501z" fill="#000"/>
</svg>
