<svg width="781" height="643" viewBox="0 0 781 643" fill="none" xmlns="http://www.w3.org/2000/svg">
<path d="M195.98 507.14C195.98 525.35 181.22 540.12 163 540.12C144.78 540.12 130.02 525.36 130.02 507.14C130.02 488.92 144.78 474.17 163 474.17C181.22 474.17 195.98 488.93 195.98 507.14Z" fill="#F28705"/>
<path d="M521.95 634.97V495.06H589.55V516.28H554.57V546.93H588.37V568.15H554.57V613.74H589.55V634.96H521.95V634.97Z" fill="#F28705"/>
<path d="M634.78 583.49L607.07 495.06H638.9L650.89 550.67H651.28L663.27 495.06H695.1L667.39 583.49V634.97H634.77V583.49H634.78Z" fill="#F28705"/>
<path d="M712.64 634.97V495.06H780.24V516.28H745.26V546.93H779.06V568.15H745.26V613.74H780.24V634.96H712.64V634.97Z" fill="#F28705"/>
<path d="M85.96 583.13V602.37C85.96 629.59 71.43 642.69 42.78 642.69C20.27 642.69 0 633.48 0 600.12V533.81C0 500.45 20.26 491.24 42.78 491.24C67.54 491.24 85.96 498.61 85.96 530.13V546.09H51.99V526.03C51.99 520.09 50.15 514.57 42.78 514.57C35.82 514.57 33.98 520.1 33.98 526.03V607.89C33.98 613.83 35.82 619.35 42.78 619.35C50.15 619.35 51.99 613.82 51.99 607.89L52.19 583.13H85.96Z" fill="#32009A"/>
<path d="M145.52 639.82V494.1H179.49V639.82H145.52Z" fill="#32009A"/>
<path d="M237.41 516.2V494.1H318.87V516.2H295.13V639.82H261.16V516.2H237.42H237.41Z" fill="#32009A"/>
<path d="M403.39 586.2L374.53 494.1H407.69L420.17 552.02H420.58L433.06 494.1H466.22L437.36 586.2V639.82H403.39V586.2Z" fill="#32009A"/>
<path d="M576.32 271C574.42 268.94 572.47 266.92 570.5 264.92V181.82C561.87 174.99 546.35 162.7 533.17 152.27V130.79C520.94 121.11 494.82 100.43 481.23 89.67V0L374.63 62.13L268.03 0V89.67C254.44 100.43 228.32 121.11 216.09 130.79V147.92C203.34 158.02 188.83 169.5 180.61 176.01V263.41C180.1 263.9 179.58 264.38 179.08 264.87C173.29 270.51 176.32 280.43 184.29 281.81C184.43 281.83 184.56 281.86 184.7 281.88C187.81 282.4 190.95 281.38 193.24 279.22C228.18 246.26 275.87 221.36 326.02 207.09C357.47 198.14 390.78 197.98 422.39 206.35C473.05 219.77 519.71 243.1 554.98 277.74C536.39 296.44 512.59 312.88 484.84 326.21C481.54 327.8 478.66 332.07 478.76 335.73C478.98 342.99 486.67 347.64 493.24 344.36C527 327.48 588.33 290.18 576.34 271H576.32ZM200.41 185.49L216.07 173.09V233.89C211.07 237.32 205.75 241.39 200.41 245.77V185.48V185.49ZM235.89 221.46V140.27L268.01 114.84V198.67V173.92V205.32C268.14 205.29 268.28 205.26 268.41 205.22C257.19 210.07 246.32 215.47 235.89 221.45V221.46ZM288.2 197.37V172.55V188.41V32.91L354.98 73.58L355.48 73.88L328.68 89.5V185.1C320.01 187.24 311.43 189.64 302.99 192.32C298.01 193.9 293.08 195.59 288.2 197.36V197.37ZM420.55 185.1C417.82 184.43 415.08 183.8 412.33 183.18V120.65L392.24 136.56V179.13C386.39 178.09 380.51 177.16 374.62 176.36C366.06 175.19 357.47 174.27 348.88 173.57V101.86L376.55 84.36L394.26 73.57L461.04 32.9V188.4V172.54V197.36C456.16 195.58 451.23 193.9 446.25 192.32C437.81 189.64 429.23 187.24 420.56 185.1H420.55ZM481.22 205.33V173.93V198.68V114.85L513.34 140.28V221.47C502.91 215.5 492.04 210.09 480.82 205.24C480.95 205.27 481.09 205.3 481.22 205.34V205.33ZM533.16 177.45L550.67 191.31V246.97C545.04 242.39 539.2 238.04 533.16 233.9V177.45Z" fill="#32009A"/>
<path fill-rule="evenodd" clip-rule="evenodd" d="M376.79 319.36C394.15 319.36 408.07 305.27 408.07 288.08C408.07 284.8 407.56 281.63 406.62 278.65C403.78 283.23 398.72 286.29 392.91 286.29C384.01 286.29 376.79 279.07 376.79 270.17C376.79 264.98 379.24 260.37 383.04 257.42C381.02 257.01 378.93 256.8 376.79 256.8C359.51 256.8 345.51 270.81 345.51 288.08C345.51 305.35 359.52 319.36 376.79 319.36Z" fill="#F28705"/>
<path fill-rule="evenodd" clip-rule="evenodd" d="M426.83 311.11C422.03 308.94 416.41 310.46 413.27 314.69C412.73 315.44 412.16 316.17 411.58 316.88C411.44 317.05 411.3 317.21 411.16 317.38C410.7 317.93 410.22 318.47 409.73 319C409.58 319.16 409.43 319.32 409.27 319.48C408.71 320.06 408.15 320.63 407.56 321.18C407.49 321.25 407.42 321.32 407.35 321.39C405.93 322.71 404.43 323.93 402.86 325.05C402.85 325.05 402.84 325.07 402.83 325.07C402.06 325.62 401.28 326.13 400.48 326.63C400.43 326.66 400.37 326.7 400.32 326.73C397.89 328.23 395.3 329.5 392.61 330.51C392.41 330.59 392.2 330.66 391.99 330.73C391.36 330.96 390.72 331.17 390.07 331.37C389.75 331.47 389.42 331.57 389.09 331.66C388.56 331.81 388.02 331.95 387.48 332.08C387.09 332.17 386.71 332.27 386.31 332.36C385.81 332.47 385.3 332.56 384.79 332.65C384.03 332.79 383.27 332.9 382.5 333C382.01 333.06 381.52 333.13 381.03 333.18C380.63 333.22 380.23 333.24 379.83 333.27C379.26 333.31 378.68 333.34 378.1 333.36C377.78 333.36 377.45 333.38 377.13 333.38C376.3 333.38 375.46 333.38 374.62 333.33C374.55 333.33 374.47 333.33 374.4 333.33C373.37 333.27 372.33 333.19 371.29 333.06C371.28 333.06 371.26 333.06 371.25 333.06C352.25 330.72 337.11 316.39 332.96 298.41C332.87 298.02 332.78 297.63 332.7 297.24C332.68 297.13 332.66 297.02 332.64 296.91C332.22 294.68 331.95 292.4 331.86 290.05C331.86 290.01 331.86 289.96 331.86 289.92C331.84 289.32 331.84 288.73 331.84 288.14C331.84 287.94 331.84 287.74 331.84 287.53C331.84 287.11 331.87 286.68 331.89 286.26C331.91 285.85 331.94 285.43 331.97 285.02C332 284.68 332.02 284.34 332.06 284.01C332.1 283.61 332.15 283.22 332.2 282.83C332.25 282.44 332.3 282.04 332.36 281.65C332.39 281.45 332.43 281.24 332.46 281.04C335.71 261.85 351.43 246.25 371.35 243.84C372.4 243.71 373.44 243.63 374.47 243.57C374.53 243.57 374.59 243.57 374.66 243.57C375.51 243.53 376.35 243.52 377.19 243.53C377.52 243.53 377.85 243.54 378.18 243.55C378.73 243.57 379.29 243.6 379.84 243.64C380.27 243.67 380.69 243.69 381.12 243.73C381.5 243.77 381.88 243.82 382.26 243.87C383.25 243.99 384.24 244.14 385.21 244.33C385.58 244.4 385.94 244.46 386.31 244.54C386.78 244.64 387.24 244.76 387.71 244.88C388.16 244.99 388.6 245.1 389.04 245.23C389.45 245.34 389.85 245.47 390.25 245.59C390.78 245.76 391.3 245.93 391.83 246.12C392.14 246.23 392.46 246.34 392.77 246.46C393.6 246.78 394.42 247.11 395.23 247.47C395.23 247.47 395.23 247.47 395.24 247.47C396.1 247.86 396.95 248.28 397.78 248.72C397.92 248.79 398.06 248.87 398.2 248.95C398.87 249.32 399.54 249.7 400.19 250.1C400.38 250.21 400.56 250.33 400.75 250.45C401.37 250.84 401.98 251.25 402.58 251.67C402.75 251.79 402.91 251.9 403.08 252.02C404.54 253.07 405.93 254.22 407.26 255.44C407.52 255.68 407.76 255.92 408.01 256.16C408.38 256.52 408.75 256.89 409.11 257.26C409.41 257.57 409.71 257.89 410 258.21C410.28 258.52 410.56 258.84 410.84 259.16C411.16 259.53 411.48 259.89 411.78 260.27C411.94 260.47 412.09 260.68 412.25 260.88C412.58 261.31 412.92 261.73 413.23 262.17C416.34 266.48 422.02 268.06 426.87 265.87C433.54 262.86 435.54 254.35 430.91 248.69L428.71 246C427.14 244.08 425.47 242.28 423.74 240.57C423.25 239.94 422.68 239.34 422.03 238.81L419.34 236.61C419.27 236.55 419.2 236.51 419.13 236.45C419.07 236.4 419.01 236.36 418.95 236.31C406.91 226.58 392.44 221.73 377.98 221.5C377.59 221.5 377.21 221.48 376.82 221.48C376.5 221.48 376.18 221.49 375.86 221.5C361.19 221.68 346.49 226.6 334.32 236.56C333.66 237.1 333.02 237.67 332.38 238.23C332.24 238.35 332.09 238.47 331.95 238.6C331.13 239.33 330.34 240.08 329.57 240.85C329.56 240.86 329.55 240.87 329.54 240.88C322.96 247.4 317.97 255.02 314.65 263.21C314.48 263.63 314.33 264.05 314.17 264.47C313.95 265.04 313.72 265.62 313.52 266.19C313.27 266.9 313.05 267.62 312.82 268.33C312.72 268.63 312.62 268.93 312.53 269.24C312.29 270.05 312.08 270.86 311.87 271.67C311.81 271.9 311.74 272.12 311.69 272.35C311.49 273.15 311.32 273.94 311.16 274.74C311.11 275 311.04 275.26 310.99 275.51C310.85 276.23 310.73 276.95 310.61 277.68C310.55 278.03 310.49 278.38 310.43 278.73C310.34 279.33 310.28 279.93 310.21 280.53C310.15 281.02 310.09 281.51 310.04 282C310 282.44 309.97 282.88 309.94 283.32C309.89 283.98 309.84 284.64 309.8 285.3C309.79 285.56 309.79 285.82 309.78 286.08C309.75 286.92 309.73 287.77 309.73 288.61C309.73 288.68 309.73 288.74 309.73 288.81C309.78 299.38 312.3 309.99 317.42 319.7C320 324.6 323.21 329.24 327.05 333.47C327.32 333.77 327.61 334.06 327.89 334.36C328.36 334.86 328.83 335.37 329.32 335.86C329.84 336.38 330.38 336.88 330.91 337.38C331.18 337.64 331.45 337.9 331.73 338.16C332.38 338.75 333.04 339.31 333.71 339.87C333.9 340.03 334.07 340.19 334.26 340.35C334.26 340.35 334.3 340.38 334.32 340.4C334.86 340.84 335.4 341.25 335.95 341.67C336.33 341.96 336.69 342.26 337.07 342.54C337.17 342.61 337.27 342.68 337.37 342.75C348.86 351.1 362.3 355.27 375.72 355.47C376.06 355.47 376.39 355.49 376.73 355.49C377.13 355.49 377.53 355.47 377.93 355.47C391.19 355.27 404.47 351.17 415.87 343C416.07 342.86 416.27 342.73 416.46 342.59C416.77 342.36 417.07 342.12 417.37 341.89C417.99 341.42 418.61 340.95 419.22 340.46C419.23 340.45 419.25 340.44 419.26 340.43L421.95 338.23C422.58 337.72 423.12 337.15 423.6 336.54C425.36 334.82 427.06 333 428.65 331.05L430.85 328.36C435.49 322.7 433.5 314.19 426.84 311.17L426.83 311.11Z" fill="#F28705"/>
</svg>
