<svg width="28" height="28" viewBox="0 0 28 28" fill="none" xmlns="http://www.w3.org/2000/svg">
<g clip-path="url(#clip0_290_1494)">
<path d="M14.121 18.6926H2.82675L6.91574 13.9679C6.98433 13.8886 7.02869 13.7913 7.04356 13.6876C7.05843 13.5838 7.04318 13.478 6.99961 13.3827C6.95605 13.2874 6.88601 13.2066 6.79783 13.1499C6.70965 13.0933 6.60705 13.0631 6.50225 13.0631H4.00543L8.01818 7.93322C8.08133 7.85249 8.12052 7.75563 8.13128 7.6537C8.14204 7.55176 8.12394 7.44885 8.07903 7.35671C8.03413 7.26457 7.96423 7.18691 7.87732 7.13257C7.7904 7.07824 7.68997 7.04943 7.58747 7.04942H6.01755L9.76589 2.22379L12.5035 5.73692C12.6888 5.97547 13.0324 6.01856 13.2709 5.83333C13.5094 5.64805 13.5526 5.30451 13.3673 5.06596L10.1978 0.996771C10.1466 0.930964 10.0811 0.87771 10.0063 0.841077C9.93145 0.804444 9.84922 0.7854 9.76589 0.7854C9.68256 0.7854 9.60033 0.804444 9.52548 0.841077C9.45063 0.87771 9.38514 0.930964 9.33402 0.996771L4.46842 7.26084C4.40562 7.34167 4.36677 7.4385 4.35629 7.54032C4.3458 7.64213 4.3641 7.74485 4.4091 7.83678C4.4541 7.92871 4.52399 8.00617 4.61084 8.06035C4.69768 8.11452 4.79799 8.14324 4.90034 8.14322H6.46539L2.45264 13.2731C2.38949 13.3539 2.3503 13.4507 2.33954 13.5527C2.32878 13.6546 2.34689 13.7575 2.39179 13.8496C2.4367 13.9418 2.50659 14.0194 2.59351 14.0738C2.68042 14.1281 2.78086 14.1569 2.88336 14.1569H5.30568L1.2167 18.8816C1.14811 18.9609 1.10375 19.0581 1.08888 19.1619C1.07401 19.2656 1.08926 19.3715 1.13283 19.4668C1.17639 19.5621 1.24643 19.6429 1.33461 19.6996C1.42279 19.7562 1.52538 19.7864 1.63019 19.7864H9.21896V24.5297C9.21896 24.8318 9.46379 25.0766 9.76583 25.0766C10.0679 25.0766 10.3127 24.8318 10.3127 24.5297V19.7864H14.121C14.4231 19.7864 14.6679 19.5415 14.6679 19.2395C14.6679 18.9374 14.4231 18.6926 14.121 18.6926Z" fill="#7210FF"/>
<path fill-rule="evenodd" clip-rule="evenodd" d="M18.5878 18.4093C17.1361 20.9188 14.0565 20.6798 12.4804 19.2394C8.57249 15.669 8.14938 3.99837 18.5878 0C29.0262 3.99837 28.6032 15.669 24.6952 19.2394C23.1191 20.6799 20.0396 20.9188 18.5878 18.4093Z" fill="#7210FF" fill-opacity="0.4"/>
<path d="M20.3829 13.2153L19.1347 14.4948V11.2908L21.1658 9.20869C21.3767 8.99245 21.3724 8.64623 21.1563 8.43535C20.94 8.22442 20.5938 8.22874 20.3829 8.44492L18.5879 10.285L16.7928 8.44492C16.5819 8.22874 16.2356 8.22437 16.0195 8.43535C15.8033 8.64623 15.799 8.99251 16.0099 9.20869L18.041 11.2908V14.4947L16.7928 13.2152C16.5819 12.9991 16.2357 12.9948 16.0195 13.2056C15.8033 13.4165 15.799 13.7628 16.0099 13.979L18.041 16.0611V25.7623C18.041 26.0644 18.2858 26.3092 18.5879 26.3092C18.8899 26.3092 19.1347 26.0644 19.1347 25.7623V16.0611L21.1659 13.979C21.3768 13.7628 21.3725 13.4165 21.1563 13.2056C20.94 12.9948 20.5937 12.9991 20.3829 13.2153Z" fill="#7210FF"/>
<path fill-rule="evenodd" clip-rule="evenodd" d="M9.24263 24.5232C11.4534 24.5232 13.4735 24.843 15.0238 25.3694C16.348 24.9027 18.0339 24.6233 19.87 24.6233C24.1381 24.6233 27.5971 26.1348 27.5971 28H0.402893C0.402893 26.0799 4.36096 24.5232 9.24263 24.5232Z" fill="#7210FF" fill-opacity="0.4"/>
</g>
<defs>
<clipPath id="clip0_290_1494">
<rect width="28" height="28" fill="white"/>
</clipPath>
</defs>
</svg>
