<svg width="20" height="20" viewBox="0 0 20 20" fill="none" xmlns="http://www.w3.org/2000/svg">
<path d="M9.99999 13.5417C7.81666 13.5417 6.04166 11.7667 6.04166 9.58341V5.00008C6.04166 2.81675 7.81666 1.04175 9.99999 1.04175C12.1833 1.04175 13.9583 2.81675 13.9583 5.00008V9.58341C13.9583 11.7667 12.1833 13.5417 9.99999 13.5417ZM9.99999 2.29175C8.50832 2.29175 7.29166 3.50841 7.29166 5.00008V9.58341C7.29166 11.0751 8.50832 12.2917 9.99999 12.2917C11.4917 12.2917 12.7083 11.0751 12.7083 9.58341V5.00008C12.7083 3.50841 11.4917 2.29175 9.99999 2.29175Z" fill="#989898"/>
<path d="M10.0017 16.4568C6.14334 16.4568 3.00168 13.3151 3.00168 9.45676V8.04009C3.00168 7.69843 3.28501 7.41509 3.62668 7.41509C3.96835 7.41509 4.25168 7.69843 4.25168 8.04009V9.45676C4.25168 12.6234 6.83501 15.2068 10.0017 15.2068C13.1683 15.2068 15.7517 12.6234 15.7517 9.45676V8.04009C15.7517 7.69843 16.035 7.41509 16.3767 7.41509C16.7183 7.41509 17.0017 7.69843 17.0017 8.04009V9.45676C17.0017 13.3151 13.86 16.4568 10.0017 16.4568ZM11.16 5.98343C11.0933 5.98343 11.0183 5.97509 10.9433 5.95009C10.335 5.72509 9.66834 5.72509 9.06001 5.95009C8.98226 5.98073 8.89917 5.99546 8.81563 5.99342C8.73209 5.99138 8.6498 5.97261 8.57365 5.93821C8.49749 5.90382 8.429 5.8545 8.37223 5.79318C8.31547 5.73186 8.27158 5.65977 8.24315 5.58119C8.21473 5.50261 8.20235 5.41913 8.20676 5.33568C8.21116 5.25223 8.23225 5.17051 8.26878 5.09536C8.30532 5.0202 8.35655 4.95314 8.41946 4.89813C8.48236 4.84312 8.55566 4.80128 8.63501 4.77509C9.52147 4.45843 10.4902 4.45843 11.3767 4.77509C11.7017 4.89176 11.8683 5.25009 11.7517 5.57509C11.6517 5.82509 11.41 5.98343 11.16 5.98343Z" fill="#989898"/>
<path d="M10.665 7.7501C10.6067 7.7501 10.5567 7.74176 10.4983 7.7251C10.165 7.63343 9.82334 7.63343 9.49001 7.7251C9.41067 7.74653 9.32788 7.75209 9.24639 7.74149C9.16489 7.73088 9.08629 7.7043 9.01507 7.66328C8.94386 7.62225 8.88144 7.56759 8.83138 7.50241C8.78132 7.43723 8.74461 7.36282 8.72334 7.28343C8.63168 6.95843 8.83168 6.61676 9.16501 6.5251C9.70668 6.3751 10.29 6.3751 10.8317 6.5251C11.165 6.61676 11.365 6.95843 11.2733 7.29176C11.1983 7.56676 10.94 7.7501 10.665 7.7501ZM10 18.9584C9.65834 18.9584 9.37501 18.6751 9.37501 18.3334V15.8334C9.37501 15.4918 9.65834 15.2084 10 15.2084C10.3417 15.2084 10.625 15.4918 10.625 15.8334V18.3334C10.625 18.6751 10.3417 18.9584 10 18.9584Z" fill="#989898"/>
</svg>
