<svg width="28" height="28" viewBox="0 0 28 28" fill="none" xmlns="http://www.w3.org/2000/svg">
    <g clip-path="url(#pkpn6m94ba)">
        <path d="M14 19.815a5.815 5.815 0 1 0 0-11.63 5.815 5.815 0 0 0 0 11.63z" fill="#7210FF" fill-opacity=".4"/>
        <path d="M23.846 15.005v-2.01l-1.481-.118a8.396 8.396 0 0 0-1.657-3.997l.964-1.132-1.42-1.42-1.132.964a8.396 8.396 0 0 0-3.997-1.657l-.118-1.48h-2.01l-.118 1.48A8.397 8.397 0 0 0 8.88 7.292l-1.132-.964-1.42 1.42.963 1.132a8.397 8.397 0 0 0-1.656 3.997l-1.48.118v2.01l1.48.118a8.397 8.397 0 0 0 1.656 3.997l-.963 1.132 1.42 1.42 1.132-.964a8.397 8.397 0 0 0 3.997 1.657l.118 1.48h2.01l.118-1.48a8.397 8.397 0 0 0 3.997-1.657l1.131.964 1.421-1.42-.964-1.132a8.395 8.395 0 0 0 1.657-3.997l1.48-.118zM21.831 26.035a1.098 1.098 0 1 0 0-2.196 1.098 1.098 0 0 0 0 2.196zM3.063 22.93a1.098 1.098 0 1 0 0-2.197 1.098 1.098 0 0 0 0 2.196zM24.937 7.267a1.098 1.098 0 1 0 0-2.196 1.098 1.098 0 0 0 0 2.196zM6.169 4.161a1.098 1.098 0 1 0 0-2.196 1.098 1.098 0 0 0 0 2.196z" stroke="#7210FF" stroke-miterlimit="10" stroke-linecap="round" stroke-linejoin="round"/>
        <path d="M7.086 2.46A13.386 13.386 0 0 1 14 .55c2.922 0 5.625.93 7.831 2.513m3.709 4.023A13.385 13.385 0 0 1 27.45 14c0 2.922-.932 5.625-2.514 7.831M2.46 20.914A13.386 13.386 0 0 1 .55 14c0-2.922.932-5.625 2.514-7.831m3.106 18.768A13.39 13.39 0 0 0 14 27.451c2.528 0 4.893-.698 6.914-1.911" stroke="#7210FF" stroke-miterlimit="10" stroke-linecap="round" stroke-linejoin="round"/>
    </g>
    <defs>
        <clipPath id="pkpn6m94ba">
            <path fill="#fff" d="M0 0h28v28H0z"/>
        </clipPath>
    </defs>
</svg>
