<svg width="24" height="24" viewBox="0 0 24 24" fill="none" xmlns="http://www.w3.org/2000/svg">
<path d="M20 9.6C20 5.6 18.4 4 14.4 4H9.6C5.6 4 4 5.6 4 9.6V14.4C4 18.4 5.6 20 9.6 20" stroke="#989898" stroke-width="1.5" stroke-linecap="round" stroke-linejoin="round"/>
<path d="M16.35 8C15.8 7.3 14.88 7 13.5 7H10.5C8 7 7 8 7 10.5V13.5C7 14.88 7.3 15.8 7.99 16.35M8.01 4V2M12 4V2M16 4V2M20 8H22M8.01 20V22M2 8H4M2 12H4M2 16H4" stroke="#989898" stroke-width="1.5" stroke-linecap="round" stroke-linejoin="round"/>
<path d="M16.71 18.59C16.9188 18.59 17.1256 18.5489 17.3185 18.469C17.5114 18.3891 17.6866 18.272 17.8343 18.1243C17.9819 17.9767 18.0991 17.8014 18.179 17.6085C18.2589 17.4156 18.3 17.2088 18.3 17C18.3 16.7912 18.2589 16.5845 18.179 16.3916C18.0991 16.1987 17.9819 16.0234 17.8343 15.8757C17.6866 15.7281 17.5114 15.611 17.3185 15.5311C17.1256 15.4512 16.9188 15.41 16.71 15.41C16.2883 15.41 15.8839 15.5776 15.5857 15.8757C15.2875 16.1739 15.12 16.5783 15.12 17C15.12 17.4217 15.2875 17.8262 15.5857 18.1243C15.8839 18.4225 16.2883 18.59 16.71 18.59Z" stroke="#989898" stroke-width="1.5" stroke-miterlimit="10" stroke-linecap="round" stroke-linejoin="round"/>
<path d="M11.41 17.462V16.532C11.41 15.982 11.86 15.532 12.41 15.532C13.37 15.532 13.76 14.852 13.28 14.022C13.2139 13.9078 13.171 13.7818 13.1538 13.651C13.1367 13.5202 13.1455 13.3873 13.1799 13.26C13.2143 13.1326 13.2735 13.0134 13.3542 12.909C13.4349 12.8047 13.5354 12.7173 13.65 12.652L14.56 12.122C14.98 11.872 15.52 12.022 15.77 12.442L15.83 12.542C16.31 13.372 17.09 13.372 17.57 12.542L17.63 12.442C17.88 12.022 18.42 11.882 18.84 12.122L19.75 12.652C20.23 12.932 20.4 13.542 20.12 14.022C19.64 14.852 20.03 15.532 20.99 15.532C21.54 15.532 21.99 15.982 21.99 16.532V17.462C21.99 18.012 21.54 18.462 20.99 18.462C20.03 18.462 19.64 19.142 20.12 19.972C20.1861 20.0861 20.229 20.2122 20.2462 20.343C20.2634 20.4738 20.2545 20.6066 20.2201 20.734C20.1858 20.8613 20.1265 20.9806 20.0458 21.0849C19.9651 21.1893 19.8646 21.2766 19.75 21.342L18.84 21.872C18.42 22.122 17.88 21.972 17.63 21.552L17.57 21.452C17.09 20.622 16.31 20.622 15.83 21.452L15.77 21.552C15.52 21.972 14.98 22.112 14.56 21.872L13.65 21.342C13.17 21.062 13 20.452 13.28 19.972C13.76 19.142 13.37 18.462 12.41 18.462C12.2783 18.4633 12.1477 18.4384 12.0258 18.3886C11.9038 18.3388 11.7931 18.2652 11.6999 18.1721C11.6068 18.0789 11.5332 17.9682 11.4834 17.8462C11.4336 17.7243 11.4087 17.5937 11.41 17.462Z" stroke="#989898" stroke-width="1.5" stroke-miterlimit="10" stroke-linecap="round" stroke-linejoin="round"/>
</svg>
