<svg width="32" height="32" viewBox="0 0 32 32" fill="none" xmlns="http://www.w3.org/2000/svg">
<path d="M7.52807 26.3546V21.3342L5.01788 15.0587V7.52806H24.4719V15.0587L23.407 17.7208M21.9618 31.375H7.52807M4.39032 5.01781C3.69713 5.01781 3.13519 5.57975 3.13519 6.27294C3.13519 6.96612 3.69713 7.52806 4.39032 7.52806H25.0995C25.7927 7.52806 26.3546 6.96619 26.3546 6.27294C26.3546 5.57975 25.7927 5.01781 25.0995 5.01781H4.39032ZM4.39032 5.01781L23.8444 0.625" stroke="#7210FF" stroke-miterlimit="10" stroke-linecap="round" stroke-linejoin="round"/>
<path d="M10.0067 29.2659C10.2279 27.8973 9.29788 26.6085 7.92931 26.3872C6.56075 26.166 5.27193 27.0961 5.05066 28.4646C4.8294 29.8332 5.75947 31.122 7.12803 31.3433C8.4966 31.5645 9.78541 30.6345 10.0067 29.2659Z" stroke="#7210FF" stroke-miterlimit="10" stroke-linecap="round" stroke-linejoin="round"/>
<path d="M20.704 10.0408V15.0561H8.78567V10.0408H20.704Z" fill="#7210FF" fill-opacity="0.4"/>
<path d="M16.637 28.8647H10.0383" stroke="#7210FF" stroke-miterlimit="10" stroke-linecap="round" stroke-linejoin="round"/>
<path d="M21.9618 32C26.1194 32 29.4898 28.6295 29.4898 24.4719C29.4898 20.3143 26.1194 16.9438 21.9618 16.9438C17.8041 16.9438 14.4337 20.3143 14.4337 24.4719C14.4337 28.6295 17.8041 32 21.9618 32Z" fill="#7210FF" fill-opacity="0.4"/>
<path d="M18.824 23.4644C18.7197 23.7901 18.6668 24.1299 18.6671 24.4719C18.6671 26.2915 20.1422 27.7665 21.9617 27.7665H23.2169M25.0089 25.727C25.1729 25.3289 25.257 24.9024 25.2564 24.4719C25.2564 22.6523 23.7813 21.1772 21.9617 21.1772H20.236" stroke="#7210FF" stroke-miterlimit="10" stroke-linecap="round" stroke-linejoin="round"/>
<path d="M21.3342 20.0791L20.236 21.1774L21.3342 22.2755M22.1187 26.6684L23.2169 27.7666L22.1187 28.8649" stroke="#7210FF" stroke-miterlimit="10" stroke-linecap="round" stroke-linejoin="round"/>
</svg>
