<svg width="24" height="24" viewBox="0 0 24 24" fill="none" xmlns="http://www.w3.org/2000/svg">
<path d="M22 8.3C22 8.72 21.67 9.05 21.25 9.05H20V10.887C20 10.963 19.9799 11.0377 19.9418 11.1035C19.9037 11.1693 19.849 11.2239 19.783 11.2617C19.7171 11.2996 19.6423 11.3193 19.5663 11.319C19.4902 11.3187 19.4156 11.2984 19.35 11.26C18.92 11.01 18.42 10.93 17.94 11.06C17.632 11.134 17.26 10.935 17.26 10.618V9.74C17.26 8.09 15.91 6.74 14.26 6.74H9.74C8.09 6.74 6.74 8.09 6.74 9.74V14.26C6.74 15.91 8.09 17.26 9.74 17.26H10.19C10.2176 17.26 10.2449 17.2654 10.2704 17.276C10.2958 17.2865 10.319 17.302 10.3385 17.3215C10.358 17.341 10.3735 17.3642 10.384 17.3896C10.3946 17.4151 10.4 17.4424 10.4 17.47C10.4 18.433 11.098 19.244 12.017 19.43C12.19 19.465 12.307 19.672 12.25 19.838C12.2348 19.8846 12.2054 19.9252 12.166 19.9543C12.1265 19.9833 12.079 19.9993 12.03 20H9.06V21.25C9.06 21.4489 8.98098 21.6397 8.84033 21.7803C8.69968 21.921 8.50891 22 8.31 22C8.11109 22 7.92032 21.921 7.77967 21.7803C7.63902 21.6397 7.56 21.4489 7.56 21.25V19.78C6.77429 19.5408 6.05953 19.112 5.47878 18.5312C4.89803 17.9505 4.46916 17.2357 4.23 16.45H2.75C2.55109 16.45 2.36032 16.371 2.21967 16.2303C2.07902 16.0897 2 15.8989 2 15.7C2 15.5011 2.07902 15.3103 2.21967 15.1697C2.36032 15.029 2.55109 14.95 2.75 14.95H4V12.75H2.75C2.55109 12.75 2.36032 12.671 2.21967 12.5303C2.07902 12.3897 2 12.1989 2 12C2 11.8011 2.07902 11.6103 2.21967 11.4697C2.36032 11.329 2.55109 11.25 2.75 11.25H4V9.05H2.75C2.55109 9.05 2.36032 8.97098 2.21967 8.83033C2.07902 8.68968 2 8.49891 2 8.3C2 8.10109 2.07902 7.91032 2.21967 7.76967C2.36032 7.62902 2.55109 7.55 2.75 7.55H4.23C4.46916 6.76429 4.89803 6.04953 5.47878 5.46878C6.05953 4.88803 6.77429 4.45916 7.56 4.22V2.75C7.56 2.55109 7.63902 2.36032 7.77967 2.21967C7.92032 2.07902 8.11109 2 8.31 2C8.50891 2 8.69968 2.07902 8.84033 2.21967C8.98098 2.36032 9.06 2.55109 9.06 2.75V4H11.25V2.75C11.25 2.34 11.59 2 12 2C12.41 2 12.75 2.34 12.75 2.75V4H14.95V2.75C14.95 2.34 15.29 2 15.7 2C16.11 2 16.45 2.34 16.45 2.75V4.23C18.04 4.71 19.29 5.96 19.77 7.55H21.25C21.67 7.55 22 7.89 22 8.3Z" fill="#7210FF"/>
<path d="M20.99 15.5311C20.31 15.5311 19.92 15.1911 19.92 14.6911C19.92 14.4911 19.98 14.2611 20.12 14.0211C20.1861 13.9069 20.229 13.7809 20.2462 13.6501C20.2634 13.5193 20.2545 13.3864 20.2201 13.2591C20.1858 13.1317 20.1265 13.0125 20.0458 12.9081C19.9651 12.8038 19.8646 12.7164 19.75 12.6511L18.84 12.1211C18.7396 12.0626 18.6286 12.0246 18.5134 12.009C18.3982 11.9935 18.2811 12.0008 18.1687 12.0305C18.0564 12.0602 17.951 12.1117 17.8585 12.1822C17.7661 12.2526 17.6885 12.3406 17.63 12.4411L17.57 12.5411C17.09 13.3711 16.31 13.3711 15.83 12.5411L15.77 12.4411C15.7127 12.3408 15.6361 12.2528 15.5446 12.1823C15.4531 12.1118 15.3485 12.0602 15.2369 12.0305C15.1252 12.0007 15.0088 11.9934 14.8944 12.0089C14.7799 12.0245 14.6697 12.0626 14.57 12.1211L13.65 12.6511C13.33 12.8311 13.14 13.1711 13.14 13.5211C13.14 13.6911 13.19 13.8611 13.28 14.0211C13.42 14.2611 13.49 14.4911 13.49 14.6911C13.49 15.1911 13.09 15.5311 12.41 15.5311C11.86 15.5311 11.4 15.9811 11.4 16.5311V17.4711C11.4 18.0211 11.86 18.4711 12.41 18.4711C13.09 18.4711 13.49 18.8111 13.49 19.3111C13.49 19.5111 13.42 19.7411 13.28 19.9811C13.2139 20.0952 13.171 20.2213 13.1538 20.3521C13.1367 20.4829 13.1455 20.6157 13.1799 20.7431C13.2143 20.8704 13.2735 20.9897 13.3542 21.094C13.4349 21.1984 13.5354 21.2857 13.65 21.3511L14.57 21.8811C14.98 22.1311 15.53 21.9811 15.77 21.5611L15.83 21.4611C16.31 20.6311 17.09 20.6311 17.57 21.4611L17.63 21.5611C17.88 21.9811 18.42 22.1311 18.84 21.8811L19.75 21.3511C20.07 21.1711 20.26 20.8311 20.26 20.4811C20.26 20.3111 20.21 20.1411 20.12 19.9811C19.98 19.7411 19.92 19.5111 19.92 19.3111C19.92 18.8111 20.31 18.4711 20.99 18.4711C21.55 18.4711 22 18.0211 22 17.4711V16.5311C22 15.9811 21.55 15.5311 20.99 15.5311ZM16.7 18.7211C16.2439 18.7211 15.8064 18.5399 15.4838 18.2173C15.1612 17.8947 14.98 17.4572 14.98 17.0011C14.98 16.5449 15.1612 16.1074 15.4838 15.7849C15.8064 15.4623 16.2439 15.2811 16.7 15.2811C17.1562 15.2811 17.5937 15.4623 17.9162 15.7849C18.2388 16.1074 18.42 16.5449 18.42 17.0011C18.42 17.4572 18.2388 17.8947 17.9162 18.2173C17.5937 18.5399 17.1562 18.7211 16.7 18.7211Z" fill="#7210FF"/>
<path d="M16.25 10.02V10.592C16.25 10.927 15.805 11.138 15.48 11.06C14.98 10.93 14.48 11 14.07 11.25L13.16 11.78C12.8238 11.968 12.5493 12.2494 12.3697 12.5902C12.1901 12.9309 12.1131 13.3164 12.148 13.7C12.18 14.086 11.91 14.555 11.559 14.72C11.0742 14.9477 10.6995 15.3584 10.517 15.862C10.439 16.078 10.25 16.25 10.02 16.25C8.76 16.25 7.75 15.24 7.75 13.98V10.02C7.75 8.76 8.76 7.75 10.02 7.75H13.98C15.24 7.75 16.25 8.76 16.25 10.02Z" fill="#7210FF"/>
</svg>
