<svg width="24" height="24" viewBox="0 0 24 24" fill="none" xmlns="http://www.w3.org/2000/svg">
<path d="M20.4852 1.86024C20.2106 1.5856 19.7655 1.5857 19.4908 1.86024C19.2163 2.13484 19.2163 2.58001 19.4909 2.8546C21.4918 4.85546 22.5938 7.5158 22.5938 10.3456C22.5938 10.7339 22.9086 11.0487 23.2969 11.0487C23.6852 11.0487 24 10.7339 24 10.3456C24 7.14015 22.7518 4.1267 20.4852 1.86024ZM4.50905 1.86029C4.23441 1.58565 3.78928 1.58574 3.51464 1.86029C1.24823 4.12688 0 7.14029 0 10.3456C0 10.7339 0.314812 11.0487 0.703125 11.0487C1.09144 11.0487 1.40625 10.7339 1.40625 10.3456C1.40625 7.51594 2.50819 4.8556 4.50905 2.85465C4.78364 2.58005 4.78364 2.13488 4.50905 1.86029ZM17.3605 3.9902C17.0859 4.26479 17.0859 4.70996 17.3605 4.9846C18.7926 6.41649 19.5812 8.32037 19.5812 10.3456C19.5812 10.7339 19.896 11.0487 20.2843 11.0487C20.6727 11.0487 20.9874 10.7339 20.9874 10.3456C20.9874 7.94471 20.0525 5.68768 18.3549 3.99015C18.0803 3.7156 17.6351 3.71565 17.3605 3.9902ZM6.63909 3.99052C6.3645 3.71598 5.91933 3.71602 5.64473 3.99057C3.9473 5.6882 3.01247 7.94509 3.01247 10.3456C3.01247 10.7339 3.32733 11.0487 3.71559 11.0487C4.10395 11.0487 4.41872 10.7339 4.41872 10.3456C4.41872 8.32069 5.2073 6.41687 6.63914 4.98493C6.91369 4.71029 6.91369 4.26507 6.63909 3.99052ZM17.975 15.4515V11.8518C17.975 10.5388 17.557 9.29293 16.7662 8.24879C16.1051 7.37616 15.2037 6.69441 14.1909 6.29326C14.0498 5.20988 13.1212 4.37054 12 4.37054C10.8788 4.37054 9.95006 5.20988 9.80911 6.29326C8.79633 6.69441 7.89487 7.37616 7.23389 8.24879C6.44302 9.29293 6.02498 10.5388 6.02498 11.8518V15.4515L4.593 18.3155C4.5394 18.4227 4.5141 18.5418 4.51948 18.6615C4.52487 18.7812 4.56077 18.8976 4.62378 18.9996C4.68679 19.1015 4.77481 19.1857 4.87949 19.244C4.98417 19.3024 5.10203 19.333 5.22188 19.333H18.7781C18.898 19.3331 19.0159 19.3025 19.1206 19.2441C19.2253 19.1857 19.3133 19.1016 19.3763 18.9996C19.4393 18.8977 19.4752 18.7813 19.4806 18.6615C19.486 18.5418 19.4607 18.4227 19.407 18.3155L17.975 15.4515ZM12 22.3456C13.2659 22.3456 14.3853 21.7088 15.0564 20.7392H8.94352C9.61472 21.7088 10.7341 22.3456 12 22.3456Z" fill="white"/>
</svg>
