<svg width="28" height="28" viewBox="0 0 28 28" fill="none" xmlns="http://www.w3.org/2000/svg">
<path d="M18.6484 0H6.61719C5.411 0 4.42969 0.981313 4.42969 2.1875V25.8125C4.42969 27.0187 5.411 28 6.61719 28H18.6484C19.8546 28 20.8359 27.0187 20.8359 25.8125V18.2897C20.8359 17.9877 20.591 17.7428 20.2891 17.7428C19.987 17.7428 19.7422 17.9877 19.7422 18.2897V22.4766H5.52344V3.82812H19.7422V8.01505C19.7422 8.31704 19.987 8.56193 20.2891 8.56193C20.591 8.56193 20.8359 8.31704 20.8359 8.01505V2.1875C20.8359 0.981313 19.8546 0 18.6484 0ZM19.7422 23.5703V25.8125C19.7422 26.4156 19.2515 26.9062 18.6484 26.9062H6.61719C6.01409 26.9062 5.52344 26.4156 5.52344 25.8125V23.5703H19.7422ZM5.52344 2.73438V2.1875C5.52344 1.58441 6.01409 1.09375 6.61719 1.09375H18.6484C19.2515 1.09375 19.7422 1.58441 19.7422 2.1875V2.73438H5.52344Z" fill="#7210FF"/>
<path fill-rule="evenodd" clip-rule="evenodd" d="M17.0078 6.58984C15.0478 6.58984 13.288 7.44953 12.0859 8.81234V17.4923C13.288 18.8552 15.0478 19.7148 17.0078 19.7148C20.632 19.7148 23.5703 16.7765 23.5703 13.1523C23.5703 9.5282 20.632 6.58984 17.0078 6.58984Z" fill="#7210FF" fill-opacity="0.4"/>
<path d="M10.7188 25.7578H14.3281C14.6301 25.7578 14.875 25.5129 14.875 25.2109C14.875 24.909 14.6301 24.6641 14.3281 24.6641H10.7188C10.4167 24.6641 10.1719 24.909 10.1719 25.2109C10.1719 25.5129 10.4167 25.7578 10.7188 25.7578ZM17.3631 15.3413C17.7703 15.3413 18.1016 14.9731 18.1016 14.5204C18.1016 14.0677 17.7703 13.6994 17.3631 13.6994L16.6526 13.7018C15.6423 13.7018 14.8203 12.8429 14.8203 11.7871C14.8203 10.799 15.5404 9.98348 16.4609 9.88302V8.77734C16.4609 8.4753 16.7058 8.23047 17.0078 8.23047C17.3098 8.23047 17.5547 8.4753 17.5547 8.77734V9.87252H18.6484C18.9504 9.87252 19.1953 10.1174 19.1953 10.4194C19.1953 10.7214 18.9504 10.9663 18.6484 10.9663H16.6526C16.2454 10.9663 15.9141 11.3345 15.9141 11.7872C15.9141 12.2398 16.2454 12.6081 16.6526 12.6081L17.3631 12.6057C18.3734 12.6057 19.1953 13.4646 19.1953 14.5204C19.1953 15.5085 18.4752 16.3241 17.5547 16.4245V17.5273C17.5547 17.8293 17.3098 18.0742 17.0078 18.0742C16.7058 18.0742 16.4609 17.8293 16.4609 17.5273V16.435H15.3672C15.0651 16.435 14.8203 16.1901 14.8203 15.8881C14.8203 15.5862 15.0651 15.3413 15.3672 15.3413H17.3631ZM11.5391 5.49609V20.8086C11.5391 21.1106 11.7839 21.3555 12.0859 21.3555C12.388 21.3555 12.6328 21.1106 12.6328 20.8086V5.49609C12.6328 5.19411 12.388 4.94922 12.0859 4.94922C11.7839 4.94922 11.5391 5.19411 11.5391 5.49609Z" fill="#7210FF"/>
</svg>
