<svg width="24" height="24" viewBox="0 0 24 24" fill="none" xmlns="http://www.w3.org/2000/svg">
<g clip-path="url(#clip0_300_1855)">
<path d="M12 23.6475C18.1326 23.6475 23.1041 18.676 23.1041 12.5433C23.1041 6.4107 18.1326 1.43921 12 1.43921C5.86736 1.43921 0.895874 6.4107 0.895874 12.5433C0.895874 18.676 5.86736 23.6475 12 23.6475Z" fill="#F8D250"/>
<path d="M1.98844 12.5433C1.98844 6.59391 6.6674 1.73757 12.5463 1.45271C12.3643 1.4438 12.1822 1.4393 12 1.43921C5.86734 1.43921 0.895874 6.41073 0.895874 12.5433C0.895874 18.676 5.86734 23.6475 12 23.6475C12.1832 23.6475 12.3652 23.6427 12.5463 23.634C6.66745 23.3491 1.98844 18.4928 1.98844 12.5433Z" fill="#F8AE46"/>
<path d="M15.757 13.4716L13.533 13.208H10.336L8.2345 13.4651C7.09924 13.604 6.24597 14.5679 6.24597 15.7117V22.0422C7.92405 23.0609 9.8935 23.6474 12 23.6474C14.1064 23.6474 16.0759 23.0609 17.754 22.0422V15.7193C17.754 14.5723 16.8961 13.6066 15.757 13.4716Z" fill="#68C0E0"/>
<path d="M10.336 13.208L8.2345 13.4651C7.09924 13.604 6.24597 14.5679 6.24597 15.7117V22.0422C6.59926 22.2566 6.96429 22.451 7.33933 22.6245L7.33858 22.6241V15.7117C7.33858 14.568 8.19185 13.604 9.32711 13.4651L11.4286 13.208H10.336Z" fill="#3282A1"/>
<path d="M15.241 18.397V23.1664C16.1222 22.8979 16.9665 22.5203 17.754 22.0422V18.397H15.241ZM6.24597 18.397V22.0422C7.03347 22.5203 7.8777 22.898 8.75899 23.1664V18.397H6.24597Z" fill="#FFCEBF"/>
<path d="M16.2783 3.10866V2.74402C16.2783 1.42341 15.2077 0.35283 13.8871 0.35283H10.5355V0.352783H6.64807C6.64714 1.06717 6.86476 1.76474 7.27175 2.35186C7.12066 2.72822 7.04313 3.13005 7.04337 3.5356V7.01696H16.9565V4.61639C16.9565 4.01644 16.6942 3.47799 16.2783 3.10866Z" fill="#494A47"/>
<path d="M10.1188 12.7542V12.8466C10.1188 13.8495 10.9319 14.6624 11.9348 14.6622C12.9374 14.6621 13.7501 13.8492 13.7501 12.8466V12.7542H10.1188Z" fill="#FFB09E"/>
<path d="M14.5715 3.22778C11.9859 4.40149 9.00116 3.871 9.00116 3.871C8.98597 5.46588 7.82806 6.5231 7.82806 6.5231V9.02191C7.82806 11.2898 9.66655 13.1283 11.9345 13.1283C14.2024 13.1283 16.0408 11.2899 16.0408 9.02191V6.5231C14.6285 5.81153 14.5715 3.22778 14.5715 3.22778Z" fill="#FFCEBF"/>
<path d="M8.92067 9.02176V6.52294C8.92067 6.52294 10.0265 5.51237 10.0903 3.97716C9.42453 3.94604 9.00116 3.87085 9.00116 3.87085C8.98597 5.46572 7.82806 6.52294 7.82806 6.52294V9.02176C7.82806 11.2897 9.66655 13.1282 11.9345 13.1282C12.1197 13.1282 12.302 13.1157 12.4807 13.092C10.4712 12.8247 8.92067 11.1044 8.92067 9.02176ZM16.4268 7.01686H16.0409V8.6049H16.4268C16.8653 8.6049 17.2208 8.2494 17.2208 7.81088C17.2208 7.37232 16.8653 7.01686 16.4268 7.01686Z" fill="#FFB09E"/>
<path d="M7.44217 7.01685C7.00366 7.01685 6.64816 7.3723 6.64816 7.81086C6.64816 8.24938 7.00366 8.60488 7.44217 8.60488H7.8281V7.01685H7.44217ZM6.24597 18.3968V22.0421C6.59903 22.2561 6.96379 22.4503 7.33853 22.6236V18.3968H6.24597Z" fill="#FFB09E"/>
<path d="M12.6976 9.00659C12.6325 8.8932 12.4424 8.16626 12.3035 7.55773C12.2897 7.49712 12.2524 7.44449 12.1997 7.41142C12.1471 7.37834 12.0835 7.36753 12.0229 7.38136C11.9623 7.39519 11.9096 7.43253 11.8765 7.48517C11.8435 7.5378 11.8327 7.60142 11.8465 7.66203C11.9108 7.94365 12.1123 8.80503 12.2481 9.14609C12.1552 9.21322 11.9495 9.31212 11.7578 9.3784C11.6998 9.39923 11.6523 9.44208 11.6256 9.49769C11.5989 9.55329 11.5952 9.61717 11.6153 9.67547C11.6354 9.73377 11.6777 9.7818 11.733 9.80916C11.7882 9.83651 11.8521 9.84098 11.9106 9.82161C12.4943 9.62037 12.6747 9.419 12.7233 9.2855C12.7578 9.19062 12.7486 9.09148 12.6976 9.00659ZM13.5385 10.2346C13.5236 10.2077 13.5036 10.1839 13.4795 10.1647C13.4554 10.1455 13.4278 10.1313 13.3982 10.1228C13.3687 10.1142 13.3377 10.1116 13.3071 10.1151C13.2765 10.1185 13.2469 10.128 13.22 10.1428C11.8269 10.9127 10.7074 10.2331 10.6604 10.2037C10.6343 10.1872 10.6053 10.1761 10.575 10.1709C10.5447 10.1656 10.5136 10.1664 10.4836 10.1732C10.4536 10.18 10.4252 10.1926 10.4 10.2103C10.3749 10.2281 10.3535 10.2506 10.337 10.2766C10.3206 10.3026 10.3094 10.3316 10.3042 10.362C10.299 10.3923 10.2998 10.4234 10.3065 10.4534C10.3133 10.4834 10.3259 10.5118 10.3437 10.537C10.3614 10.5621 10.3839 10.5835 10.41 10.6C10.4463 10.623 11.0203 10.9778 11.867 10.9778C12.3272 10.9778 12.868 10.873 13.4468 10.5531C13.5011 10.523 13.5414 10.4726 13.5586 10.4129C13.5758 10.3531 13.5686 10.289 13.5385 10.2346Z" fill="black"/>
<path d="M10.1196 7.6654C10.3446 7.6654 10.5271 7.48295 10.5271 7.25787C10.5271 7.0328 10.3446 6.85034 10.1196 6.85034C9.89449 6.85034 9.71204 7.0328 9.71204 7.25787C9.71204 7.48295 9.89449 7.6654 10.1196 7.6654Z" fill="black"/>
<path d="M11.0443 6.1848C10.3564 5.59887 9.51135 5.92076 9.16058 6.1729C9.11042 6.20929 9.07672 6.26407 9.06684 6.32525C9.05696 6.38643 9.07172 6.44903 9.10788 6.49936C9.14404 6.54969 9.19866 6.58365 9.2598 6.59381C9.32093 6.60397 9.3836 6.5895 9.4341 6.55357C9.43593 6.5523 9.62136 6.42232 9.87847 6.3573C10.2088 6.27382 10.4986 6.33588 10.7402 6.54166C10.7637 6.56163 10.7908 6.57678 10.8201 6.58625C10.8494 6.59573 10.8802 6.59934 10.9109 6.59688C10.9416 6.59443 10.9715 6.58595 10.9989 6.57194C11.0263 6.55793 11.0507 6.53866 11.0706 6.51523C11.0906 6.4918 11.1058 6.46467 11.1153 6.43538C11.1247 6.4061 11.1284 6.37523 11.1259 6.34455C11.1235 6.31386 11.115 6.28396 11.101 6.25655C11.087 6.22914 11.0677 6.20476 11.0443 6.1848Z" fill="black"/>
<path d="M13.7494 7.6654C13.9745 7.6654 14.1569 7.48295 14.1569 7.25787C14.1569 7.0328 13.9745 6.85034 13.7494 6.85034C13.5243 6.85034 13.3419 7.0328 13.3419 7.25787C13.3419 7.48295 13.5243 7.6654 13.7494 7.6654Z" fill="black"/>
<path d="M14.7084 6.17287C14.3577 5.92082 13.5125 5.59884 12.8247 6.18478C12.8011 6.20468 12.7817 6.22906 12.7675 6.2565C12.7534 6.28394 12.7448 6.3139 12.7422 6.34467C12.7397 6.37544 12.7433 6.4064 12.7528 6.43579C12.7622 6.46517 12.7774 6.49239 12.7974 6.51589C12.8174 6.53939 12.8419 6.55871 12.8694 6.57272C12.8969 6.58674 12.9269 6.59519 12.9577 6.59757C12.9885 6.59996 13.0194 6.59624 13.0488 6.58664C13.0781 6.57703 13.1053 6.56172 13.1287 6.54159C13.7062 6.04949 14.4046 6.53212 14.4354 6.55392C14.4766 6.58335 14.5243 6.59756 14.5714 6.59756C14.6086 6.59761 14.6453 6.58878 14.6785 6.5718C14.7116 6.55481 14.7402 6.53017 14.7619 6.49992C14.7799 6.47493 14.7927 6.44665 14.7998 6.41669C14.8068 6.38673 14.8078 6.35567 14.8029 6.3253C14.7979 6.29493 14.787 6.26584 14.7708 6.23968C14.7546 6.21353 14.7333 6.19082 14.7084 6.17287Z" fill="black"/>
<path d="M21.3742 6.16289C20.1427 4.35699 18.4361 2.95622 16.4336 2.10497C16.1474 0.965111 15.1144 0.118455 13.8871 0.118455L10.5356 0.118408H6.64812C6.58596 0.118408 6.52635 0.143101 6.4824 0.187055C6.43844 0.231009 6.41375 0.290623 6.41375 0.352783C6.41375 0.985689 6.57083 1.599 6.87087 2.14781C6.87181 2.14964 6.87223 2.15156 6.87322 2.15335C6.91276 2.22526 6.95463 2.29588 6.99875 2.36508C5.14484 3.27755 3.57538 4.67756 2.45488 6.42094C1.28159 8.24639 0.661438 10.3635 0.661438 12.5433C0.661438 15.572 1.84086 18.4193 3.98244 20.5609C6.12402 22.7025 8.97134 23.8819 12 23.8819C15.0286 23.8819 17.876 22.7025 20.0175 20.5609C22.1591 18.4193 23.3385 15.572 23.3385 12.5433C23.3385 10.2536 22.6593 8.04727 21.3742 6.16289ZM6.89075 0.587111L13.8871 0.587158C15.0763 0.587158 16.0439 1.55471 16.0439 2.74397V3.10861C16.0439 3.1756 16.0725 3.23939 16.1227 3.28388C16.311 3.45107 16.4618 3.65626 16.5652 3.88593C16.6685 4.1156 16.722 4.36455 16.7222 4.61639V6.78258H16.2753V6.52303C16.2753 6.47963 16.2633 6.43708 16.2405 6.40012C16.2178 6.36316 16.1852 6.33326 16.1464 6.31374C14.8791 5.6753 14.8067 3.2543 14.8059 3.22256C14.8051 3.18381 14.7946 3.14586 14.7755 3.11214C14.7563 3.07842 14.7292 3.04996 14.6963 3.02933C14.6635 3.00869 14.6261 2.99651 14.5874 2.99389C14.5487 2.99127 14.51 2.99828 14.4747 3.0143C11.9885 4.14286 9.07119 3.64533 9.04212 3.64017C8.9742 3.62803 8.90445 3.64655 8.85144 3.69056C8.79842 3.73458 8.76744 3.79978 8.76673 3.86869C8.75277 5.33742 7.68055 6.34022 7.67005 6.34992C7.64599 6.37188 7.62678 6.39861 7.61363 6.42841C7.60048 6.45821 7.59369 6.49042 7.59369 6.52299V6.78253H7.2778V3.5356C7.2778 3.30089 7.30541 3.06952 7.35992 2.844C7.65037 3.17137 7.99578 3.44547 8.38058 3.65395C8.40763 3.66864 8.43732 3.67784 8.46794 3.68104C8.49855 3.68424 8.5295 3.68137 8.55901 3.67261C8.58851 3.66384 8.616 3.64934 8.6399 3.62994C8.6638 3.61054 8.68365 3.58662 8.6983 3.55955C8.72791 3.5049 8.73461 3.44073 8.71691 3.38115C8.69922 3.32157 8.65858 3.27145 8.60394 3.24183C8.15287 2.99773 7.76518 2.65145 7.47191 2.23069C7.46947 2.22661 7.46727 2.22239 7.46455 2.21846C7.12836 1.73269 6.93214 1.17291 6.89075 0.587111ZM16.9865 7.81097C16.9865 8.11955 16.7354 8.37061 16.4268 8.37061H16.2753V7.25133H16.4268C16.7353 7.25133 16.9865 7.50239 16.9865 7.81097ZM11.9345 12.8939C9.79944 12.8939 8.06244 11.1569 8.06244 9.02185V6.62138C8.31692 6.36094 9.11305 5.44941 9.22302 4.14042C9.98305 4.23769 12.2405 4.42308 14.3591 3.57324C14.4268 4.30266 14.7018 5.99222 15.8065 6.66094V9.02185C15.8065 11.1569 14.0695 12.8939 11.9345 12.8939ZM13.4998 13.0704C13.3908 13.8367 12.7306 14.4278 11.9347 14.4279H11.9344C11.5121 14.4279 11.1151 14.2635 10.8164 13.9649C10.571 13.7197 10.4165 13.4079 10.369 13.0704C10.8682 13.264 11.399 13.3631 11.9345 13.3626C12.4699 13.3631 13.0007 13.264 13.4998 13.0704ZM7.44219 7.25133H7.59369V8.37061H7.44219C7.13361 8.37061 6.88255 8.11955 6.88255 7.81097C6.8825 7.50239 7.13361 7.25133 7.44219 7.25133ZM6.01156 21.6183C5.40071 21.2132 4.83198 20.7479 4.31389 20.2294C2.26081 18.1763 1.13019 15.4467 1.13019 12.5433C1.13019 10.4535 1.72461 8.42405 2.84919 6.67435C3.85255 5.11322 5.23133 3.83925 6.857 2.96508C6.82508 3.15358 6.80904 3.34442 6.80905 3.5356V7.00144C6.56867 7.18988 6.41375 7.48256 6.41375 7.81097C6.41375 8.37806 6.87509 8.83936 7.44214 8.83936H7.59364V9.02185C7.59364 10.6743 8.52195 12.114 9.88438 12.8471C9.88438 12.9072 9.88742 12.9668 9.89253 13.026L8.20597 13.2324C6.95497 13.3854 6.01156 14.4513 6.01156 15.7117V21.6183ZM8.52458 22.8478C7.81227 22.6082 7.12709 22.2945 6.48031 21.9118V18.6313H8.52458V22.8478ZM17.5197 21.9119C16.8729 22.2946 16.1877 22.6083 15.4754 22.8478V18.6313H17.5197V21.9119ZM17.5197 18.1626H15.4754V16.6927C15.4754 16.6305 15.4507 16.5709 15.4067 16.5269C15.3628 16.483 15.3032 16.4583 15.241 16.4583C15.1789 16.4583 15.1192 16.483 15.0753 16.5269C15.0313 16.5709 15.0066 16.6305 15.0066 16.6927V22.9934C14.0413 23.2696 13.0317 23.4131 12 23.4131C10.9682 23.4131 9.95867 23.2696 8.99333 22.9934V16.6926C8.99333 16.6305 8.96863 16.5708 8.92468 16.5269C8.88073 16.4829 8.82111 16.4582 8.75895 16.4582C8.69679 16.4582 8.63718 16.4829 8.59322 16.5269C8.54927 16.5708 8.52458 16.6305 8.52458 16.6926V18.1625H6.48031V15.7117C6.48031 14.6878 7.24667 13.822 8.26292 13.6977L9.98647 13.4868C10.0866 13.7922 10.2573 14.0696 10.4849 14.2964C10.8722 14.6835 11.3869 14.8967 11.9344 14.8967H11.9348C12.842 14.8966 13.613 14.3038 13.8821 13.4854L15.7295 13.7044C16.75 13.8254 17.5196 14.6916 17.5196 15.7193L17.5197 18.1626ZM19.6861 20.2294C19.168 20.7479 18.5993 21.2132 17.9884 21.6183V15.7193C17.9884 14.4541 17.041 13.3878 15.7847 13.2389L13.9763 13.0245C13.9814 12.966 13.9845 12.9069 13.9845 12.8471C15.347 12.114 16.2753 10.6744 16.2753 9.02189V8.83941H16.4268C16.9939 8.83941 17.4552 8.37806 17.4552 7.81102C17.4552 7.5376 17.3477 7.28902 17.1731 7.10461C17.1842 7.07747 17.1909 7.04813 17.1909 7.017V4.61639C17.1907 4.31644 17.1306 4.01954 17.0141 3.74312C16.8976 3.46671 16.7271 3.21634 16.5125 3.00671V2.74397C16.5125 2.71261 16.5113 2.68153 16.5102 2.65041C18.3178 3.47489 19.8597 4.77413 20.9869 6.42694C22.2186 8.23322 22.8697 10.3482 22.8697 12.5433C22.8698 15.4467 21.7392 18.1763 19.6861 20.2294Z" fill="black"/>
</g>
<defs>
<clipPath id="clip0_300_1855">
<rect width="24" height="24" fill="white"/>
</clipPath>
</defs>
</svg>
