<svg width="20" height="20" viewBox="0 0 20 20" fill="none" xmlns="http://www.w3.org/2000/svg">
<path d="M13.675 3.33328C15.2917 3.33328 16.5917 4.64162 16.5917 6.24995C16.5917 7.82495 15.3417 9.10828 13.7833 9.16662C13.7113 9.15828 13.6386 9.15828 13.5667 9.16662M15.2833 16.6666C15.8833 16.5416 16.45 16.2999 16.9167 15.9416C18.2167 14.9666 18.2167 13.3583 16.9167 12.3833C16.4583 12.0333 15.9 11.7999 15.3083 11.6666M7.63333 9.05828C7.55 9.04995 7.45 9.04995 7.35833 9.05828C6.40183 9.02581 5.49553 8.62231 4.83135 7.93325C4.16718 7.24419 3.79728 6.32366 3.8 5.36662C3.8 3.32495 5.45 1.66662 7.5 1.66662C8.48019 1.64894 9.42726 2.02136 10.1329 2.70196C10.8385 3.38256 11.2448 4.31559 11.2625 5.29578C11.2802 6.27598 10.9078 7.22305 10.2272 7.92866C9.54655 8.63426 8.61353 9.0406 7.63333 9.05828ZM3.46666 12.1333C1.45 13.4833 1.45 15.6833 3.46666 17.025C5.75833 18.5583 9.51666 18.5583 11.8083 17.025C13.825 15.675 13.825 13.4749 11.8083 12.1333C9.525 10.6083 5.76666 10.6083 3.46666 12.1333Z" stroke="#989898" stroke-width="1.5" stroke-linecap="round" stroke-linejoin="round"/>
</svg>
