<svg width="40" height="40" viewBox="0 0 40 40" fill="none" xmlns="http://www.w3.org/2000/svg">
<circle cx="20" cy="20" r="19.5" fill="#7210FF" stroke="white"/>
<g clip-path="url(#clip0_906_4097)">
<path d="M14 12V28C13.9999 28.178 14.0474 28.3527 14.1374 28.5062C14.2274 28.6597 14.3567 28.7864 14.512 28.8732C14.6673 28.96 14.843 29.0038 15.0209 29.0001C15.1988 28.9964 15.3725 28.9453 15.524 28.852L28.524 20.852C28.6696 20.7626 28.7898 20.6373 28.8733 20.4881C28.9567 20.339 29.0005 20.1709 29.0005 20C29.0005 19.8291 28.9567 19.6611 28.8733 19.512C28.7898 19.3628 28.6696 19.2375 28.524 19.148L15.524 11.148C15.3725 11.0548 15.1988 11.0037 15.0209 11C14.843 10.9963 14.6673 11.0401 14.512 11.1269C14.3567 11.2137 14.2274 11.3404 14.1374 11.4939C14.0474 11.6474 13.9999 11.8221 14 12Z" fill="white"/>
</g>
<defs>
<clipPath id="clip0_906_4097">
<rect width="24" height="24" fill="white" transform="translate(8 8)"/>
</clipPath>
</defs>
</svg>
