<svg width="40" height="40" viewBox="0 0 40 40" fill="none" xmlns="http://www.w3.org/2000/svg">
<path d="M36.1845 8.8818C36.1832 4.41633 32.5328 0.782422 28.047 0.78125M32.5888 8.27625C32.5883 6.11422 30.8272 4.36117 28.6553 4.36055M18.0988 28.6047C22.3374 29.5601 26.9609 28.3952 30.2609 25.1102L31.5474 23.8296L13.031 5.39734L11.7446 6.67789C6.63149 11.7678 6.63149 20.0202 11.7446 25.1101C12.546 25.909 13.4475 26.6007 14.4266 27.168" stroke="#7210FF" stroke-miterlimit="10" stroke-linecap="round" stroke-linejoin="round"/>
<path d="M11.2231 34.2438H20.6909L18.9736 21.88H12.9404L11.2231 34.2438Z" fill="#7210FF" fill-opacity="0.4"/>
<path d="M28.0985 39.2186H3.81563V34.2437H28.0985V39.2186Z" stroke="#7210FF" stroke-miterlimit="10" stroke-linecap="round" stroke-linejoin="round"/>
<path d="M25.7595 11.1588L22.437 14.4662" stroke="#7210FF" stroke-miterlimit="10" stroke-linecap="round" stroke-linejoin="round"/>
<path d="M26.4507 12.9585C27.8309 12.9585 28.9499 11.8447 28.9499 10.4707C28.9499 9.09674 27.8309 7.98291 26.4507 7.98291C25.0705 7.98291 23.9516 9.09674 23.9516 10.4707C23.9516 11.8447 25.0705 12.9585 26.4507 12.9585Z" fill="#7210FF" fill-opacity="0.4"/>
</svg>
