<svg width="24" height="24" viewBox="0 0 24 24" fill="none" xmlns="http://www.w3.org/2000/svg">
<g clip-path="url(#clip0_291_1819)">
<path d="M22.0417 13.207L15.0661 1.39136C14.8475 1.02091 14.4616 0.800781 14.0322 0.800781L14.0206 0.800828C13.5874 0.804813 13.2012 1.03192 12.9873 1.40852L11.3506 4.38583C11.7092 4.45992 12.0626 4.55711 12.4086 4.67678C12.8181 4.79636 13.2717 4.99966 13.7948 5.29797C14.5425 5.71553 15.2216 6.24114 15.8194 6.86608C16.5698 7.65044 17.1579 8.55522 17.5676 9.55534C17.9917 10.591 18.2068 11.6882 18.2068 12.8165C18.2068 13.5656 18.1102 14.3052 17.9219 15.0189H21.0073C21.444 15.0189 21.834 14.7925 22.0505 14.4132C22.2669 14.034 22.2637 13.583 22.0417 13.207Z" fill="#FFDA8C"/>
<path d="M22.7313 12.7999L15.7558 0.984275C15.5697 0.669041 15.3047 0.412119 14.9895 0.241307C14.6925 0.080338 14.3554 -0.00309948 14.0133 8.80235e-05C13.6716 0.00322865 13.3356 0.0928537 13.0417 0.25926C12.7296 0.435885 12.4694 0.697635 12.2892 1.01624L12.2868 1.02056L10.5084 4.25549C10.3755 4.24157 10.242 4.23065 10.1079 4.22287C10.0492 4.20615 9.98734 4.20307 9.92719 4.21387C9.81735 4.20951 9.70744 4.20738 9.59752 4.20749C8.43548 4.20749 7.308 4.43521 6.24633 4.88423C5.73432 5.10101 5.24452 5.36687 4.78378 5.6781C4.32797 5.98603 3.89939 6.33965 3.50991 6.72913C3.12042 7.11862 2.7668 7.5472 2.45888 8.00301C2.14766 8.46375 1.88179 8.95356 1.665 9.46556C1.21594 10.5272 0.988266 11.6547 0.988266 12.8167C0.988266 13.9788 1.21594 15.1063 1.665 16.1679C1.88178 16.6799 2.14765 17.1697 2.45888 17.6305C2.7668 18.0862 3.12042 18.5149 3.50991 18.9044C3.89939 19.2938 4.32797 19.6475 4.78378 19.9554C5.24453 20.2666 5.73433 20.5325 6.24633 20.7493C7.30795 21.1983 8.43548 21.426 9.59752 21.426C10.3128 21.426 11.024 21.338 11.7113 21.1645C12.2832 21.0199 12.8386 20.8167 13.3688 20.558L16.1074 23.2972C16.3341 23.5246 16.6045 23.704 16.9022 23.8244C17.1901 23.941 17.4942 24.0001 17.8061 24.0001C18.118 24.0001 18.4222 23.941 18.71 23.8244C19.0078 23.704 19.2781 23.5246 19.5048 23.2972L19.677 23.125C20.6137 22.1884 20.6137 20.6643 19.677 19.7277L17.0609 17.111C17.2988 16.6983 17.5019 16.2665 17.668 15.82H21.0073C21.3755 15.82 21.7332 15.7214 22.0417 15.5349C22.3321 15.3593 22.5757 15.1088 22.746 14.8105C22.9163 14.5122 23.0082 14.1751 23.0117 13.8357C23.0154 13.4751 22.9185 13.117 22.7313 12.7999ZM21.0072 15.0191H17.9218C18.1113 14.3003 18.207 13.56 18.2067 12.8167C18.2067 11.6883 17.9917 10.5911 17.5675 9.55551C17.1578 8.55538 16.5697 7.6506 15.8193 6.86624C15.2215 6.24131 14.5424 5.7157 13.7948 5.29813C13.2717 4.99978 12.818 4.79653 12.4085 4.67695C12.0625 4.55727 11.7091 4.46008 11.3505 4.38599L12.9872 1.40868C13.2012 1.03209 13.5873 0.804979 14.0205 0.800994L14.0321 0.800947C14.4615 0.800947 14.8474 1.02107 15.066 1.39153L22.0415 13.2071C22.2636 13.5832 22.2668 14.0342 22.0503 14.4134C21.8339 14.7926 21.4439 15.0191 21.0072 15.0191ZM19.1106 22.5586L18.9384 22.7308C18.6364 23.0328 18.2343 23.1991 17.8061 23.1991C17.3779 23.1991 16.9757 23.0328 16.6737 22.7308L14.0995 20.1562C15.0884 19.5477 15.9448 18.7466 16.6178 17.8004L19.1106 20.2938C19.735 20.9182 19.735 21.9342 19.1106 22.5586ZM16.3023 16.821H5.55084C5.5237 16.821 5.4968 16.8201 5.47003 16.8184C5.06897 16.7924 4.71441 16.5735 4.5105 16.2218C4.48366 16.1755 4.45984 16.1276 4.4392 16.0782C4.29647 15.7364 4.31902 15.3526 4.50731 15.0238L10.2145 5.03268C10.6271 5.0646 11.0366 5.12912 11.439 5.22562C11.2821 5.45683 11.1985 5.72995 11.1992 6.00937V10.8145C11.1992 11.1871 11.3441 11.5388 11.6072 11.8049L11.6104 11.808C11.8764 12.0711 12.2281 12.216 12.6007 12.216C13.3735 12.216 14.0022 11.5873 14.0022 10.8145V6.36206C16.0639 7.76929 17.4059 10.1384 17.4059 12.8167C17.4059 14.2341 17.025 15.6138 16.3023 16.821ZM13.2014 5.88449V10.8145C13.2014 11.1457 12.9319 11.4152 12.6007 11.4152C12.4411 11.4152 12.2901 11.353 12.1751 11.2402C12.0622 11.1252 12 10.9741 12 10.8145V6.00937C11.9999 5.90237 12.0284 5.79728 12.0825 5.70497C12.1367 5.61267 12.2145 5.53651 12.3079 5.48437C12.5747 5.5732 12.8695 5.70524 13.2014 5.88449ZM9.30305 5.01374L3.81216 14.6261C3.63848 14.9294 3.54938 15.261 3.54488 15.5932C3.54431 15.6361 3.54511 15.679 3.54736 15.7218C3.56353 16.0324 3.65367 16.3405 3.81769 16.6234C3.98892 16.9188 4.23244 17.1667 4.52198 17.3402C4.57955 17.3747 4.63886 17.4062 4.69969 17.4346C4.96303 17.5575 5.25366 17.6218 5.55084 17.6218H15.7521L15.7508 17.6234L15.7417 17.6351C15.7208 17.6616 15.6998 17.6879 15.6787 17.7142L15.6543 17.7442C15.6378 17.7644 15.6212 17.7846 15.6046 17.8047C15.5955 17.8155 15.5865 17.8264 15.5774 17.8372C15.5607 17.8571 15.5439 17.8768 15.527 17.8965C15.5185 17.9064 15.51 17.9164 15.5014 17.9263C15.48 17.951 15.4584 17.9756 15.4367 18L15.425 18.0134C15.3994 18.0419 15.3737 18.0704 15.3477 18.0986C15.3398 18.1072 15.3317 18.1158 15.3237 18.1245C15.3053 18.1443 15.2869 18.164 15.2683 18.1836C15.2587 18.1938 15.2489 18.204 15.2392 18.2142C15.2216 18.2325 15.204 18.2508 15.1862 18.269L15.1571 18.2987C15.1372 18.3188 15.1172 18.3389 15.0972 18.3588C15.0898 18.3661 15.0825 18.3735 15.0751 18.3808C15.0479 18.4076 15.0204 18.4342 14.9928 18.4606L14.9722 18.4801C14.951 18.5002 14.9298 18.5202 14.9084 18.5401C14.8983 18.5494 14.8882 18.5587 14.8781 18.5679C14.8295 18.6127 14.7803 18.6568 14.7305 18.7002C14.7212 18.7083 14.712 18.7165 14.7026 18.7246C14.6736 18.7496 14.6445 18.7745 14.6152 18.7992L14.6068 18.8062C14.58 18.8286 14.5531 18.8508 14.5261 18.8729C14.5161 18.881 14.506 18.889 14.496 18.8971C14.4757 18.9135 14.4555 18.9298 14.435 18.9459C14.4239 18.9547 14.4127 18.9635 14.4015 18.9722C14.3812 18.988 14.361 19.0038 14.3406 19.0194C14.33 19.0275 14.3194 19.0357 14.3088 19.0437C14.2838 19.0626 14.2588 19.0813 14.2336 19.0999L14.216 19.113C14.1851 19.1357 14.154 19.1582 14.1228 19.1804C14.1136 19.187 14.1044 19.1934 14.0951 19.1999C14.0726 19.2158 14.0501 19.2316 14.0274 19.2472C14.016 19.2552 14.0045 19.263 13.993 19.2709C13.9719 19.2853 13.9507 19.2996 13.9295 19.3138C13.9179 19.3214 13.9065 19.3291 13.8949 19.3368C13.8715 19.3522 13.848 19.3675 13.8244 19.3828L13.7974 19.4003C13.765 19.421 13.7325 19.4415 13.6998 19.4617L13.6787 19.4746C13.6527 19.4906 13.6267 19.5064 13.6005 19.5221C13.589 19.529 13.5773 19.5358 13.5658 19.5427C13.5314 19.563 13.4969 19.5831 13.4623 19.6028C13.4392 19.616 13.4161 19.6289 13.393 19.6419C13.382 19.648 13.3711 19.6542 13.3601 19.6602C13.333 19.6752 13.3058 19.6899 13.2784 19.7045C13.2647 19.7108 13.2513 19.718 13.2384 19.7258C12.1246 20.3141 10.8662 20.625 9.59756 20.625C5.292 20.625 1.78917 17.1222 1.78917 12.8167C1.78913 8.60967 5.13328 5.16904 9.30305 5.01374Z" fill="#360535"/>
<path d="M9.59751 20.625C10.8661 20.625 12.1245 20.314 13.2383 19.7258C13.2514 19.7179 13.2647 19.7107 13.2784 19.7044C13.3057 19.6898 13.3329 19.6751 13.3601 19.6601C13.371 19.6541 13.382 19.6479 13.3929 19.6418C13.4285 19.6221 13.4638 19.602 13.499 19.5816C13.5213 19.5687 13.5435 19.5557 13.5657 19.5426L13.6005 19.522C13.6266 19.5063 13.6527 19.4905 13.6786 19.4746C13.6856 19.4703 13.6927 19.466 13.6997 19.4617C13.7324 19.4414 13.7649 19.4209 13.7973 19.4002C13.8064 19.3945 13.8154 19.3885 13.8244 19.3827C13.848 19.3675 13.8714 19.3522 13.8948 19.3367C13.9064 19.3291 13.9179 19.3214 13.9294 19.3137C13.9622 19.2917 13.9949 19.2696 14.0274 19.2472C14.05 19.2315 14.0726 19.2157 14.0951 19.1999C14.1043 19.1934 14.1135 19.1869 14.1227 19.1804C14.154 19.1581 14.1851 19.1357 14.216 19.1129C14.2219 19.1086 14.2277 19.1042 14.2335 19.0998C14.2587 19.0812 14.2838 19.0625 14.3087 19.0436C14.3194 19.0355 14.3299 19.0274 14.3405 19.0193C14.3722 18.9951 14.4037 18.9706 14.435 18.9458C14.4554 18.9297 14.4757 18.9134 14.496 18.8971C14.506 18.889 14.5161 18.8809 14.526 18.8728C14.5531 18.8508 14.58 18.8285 14.6068 18.8061L14.6152 18.7991C14.6445 18.7745 14.6736 18.7496 14.7025 18.7245C14.7119 18.7165 14.7211 18.7082 14.7305 18.7001C14.7504 18.6827 14.7703 18.6652 14.79 18.6476C14.8006 18.6382 14.8111 18.6287 14.8217 18.6192C14.8406 18.6022 14.8594 18.5851 14.8781 18.5679C14.8882 18.5586 14.8983 18.5493 14.9083 18.54C14.9297 18.5201 14.951 18.5001 14.9722 18.48C14.979 18.4735 14.9859 18.4671 14.9927 18.4606C15.0204 18.4341 15.0478 18.4075 15.075 18.3807C15.0825 18.3734 15.0898 18.366 15.0971 18.3587C15.1451 18.3112 15.1925 18.263 15.2391 18.2141L15.2683 18.1835C15.2868 18.1639 15.3052 18.1442 15.3236 18.1244C15.3316 18.1158 15.3397 18.1072 15.3477 18.0985C15.3736 18.0703 15.3994 18.0419 15.4249 18.0133L15.4367 17.9999C15.4584 17.9755 15.48 17.9509 15.5014 17.9262C15.51 17.9163 15.5184 17.9064 15.527 17.8964C15.553 17.866 15.5789 17.8354 15.6045 17.8046C15.6212 17.7845 15.6378 17.7644 15.6542 17.7441L15.6787 17.7141C15.6998 17.6879 15.7208 17.6615 15.7416 17.635C15.7447 17.6311 15.7478 17.6273 15.7508 17.6234L15.7521 17.6217H5.55084C5.25365 17.6217 4.96303 17.5575 4.69969 17.4345C4.6693 17.4203 4.63927 17.4054 4.60964 17.3897C4.58 17.3739 4.55077 17.3574 4.52198 17.3402C4.23244 17.1666 3.98887 16.9187 3.81769 16.6233C3.65362 16.3404 3.56353 16.0323 3.54736 15.7218C3.54512 15.6789 3.5443 15.636 3.54487 15.5932C3.54942 15.2609 3.63848 14.9293 3.81215 14.626L9.30305 5.01367C5.13333 5.16897 1.78912 8.60959 1.78912 12.8166C1.78912 17.1221 5.29195 20.625 9.59751 20.625Z" fill="#92CDF7"/>
<path d="M14.0022 6.36209V10.8146C14.0022 11.5873 13.3735 12.2161 12.6007 12.2161C12.2281 12.2161 11.8764 12.0712 11.6104 11.808L11.6072 11.8049C11.3441 11.5388 11.1992 11.1871 11.1992 10.8146V6.0094C11.1985 5.72999 11.2821 5.45686 11.439 5.22565C11.0366 5.12913 10.6271 5.06462 10.2145 5.03271L4.50736 15.0238C4.31907 15.3526 4.29647 15.7365 4.43925 16.0782C4.45988 16.1276 4.48369 16.1756 4.51055 16.2218C4.71446 16.5736 5.06902 16.7924 5.47008 16.8184C5.4968 16.8201 5.52375 16.821 5.55089 16.821H16.3023C17.025 15.6138 17.4059 14.2341 17.4059 12.8167C17.4059 10.1385 16.0639 7.76932 14.0022 6.36209ZM12.6008 16.0202C11.7175 16.0202 10.999 15.3016 10.999 14.4184C10.999 13.5352 11.7175 12.8167 12.6008 12.8167C13.4839 12.8167 14.2025 13.5352 14.2025 14.4184C14.2025 15.3016 13.4839 16.0202 12.6008 16.0202Z" fill="#FFDA8C"/>
<path d="M16.6177 17.8005C15.9448 18.7467 15.0884 19.5478 14.0995 20.1562L16.6737 22.7309C16.9757 23.0329 17.3778 23.1992 17.806 23.1992C18.2342 23.1992 18.6364 23.0329 18.9384 22.7308L19.1106 22.5587C19.7349 21.9343 19.7349 20.9183 19.1106 20.2939L16.6177 17.8005Z" fill="#FFA5A5"/>
<path d="M13.1639 14.9845C13.4766 14.6718 13.4766 14.1647 13.1639 13.8519C12.8511 13.5392 12.3441 13.5392 12.0313 13.8519C11.7185 14.1647 11.7185 14.6718 12.0313 14.9845C12.3441 15.2973 12.8511 15.2973 13.1639 14.9845Z" fill="white"/>
<path d="M12.6008 12.8167C11.7175 12.8167 10.999 13.5351 10.999 14.4184C10.999 15.3015 11.7175 16.0201 12.6008 16.0201C13.4839 16.0201 14.2025 15.3015 14.2025 14.4184C14.2025 13.5351 13.4839 12.8167 12.6008 12.8167ZM12.6008 15.2192C12.1591 15.2192 11.7999 14.86 11.7999 14.4184C11.7999 13.9768 12.1591 13.6175 12.6008 13.6175C13.0424 13.6175 13.4016 13.9768 13.4016 14.4184C13.4016 14.8599 13.0423 15.2192 12.6008 15.2192Z" fill="#360535"/>
<path d="M12.0001 6.00937V10.8145C12.0001 10.9741 12.0623 11.1252 12.1751 11.2402C12.2901 11.353 12.4411 11.4152 12.6008 11.4152C12.9319 11.4152 13.2014 11.1458 13.2014 10.8145V5.8845C12.8695 5.70525 12.5747 5.57325 12.308 5.48438C12.2146 5.53651 12.1367 5.61267 12.0826 5.70497C12.0285 5.79727 12 5.90237 12.0001 6.00937Z" fill="white"/>
</g>
<defs>
<clipPath id="clip0_291_1819">
<rect width="24" height="24" fill="white"/>
</clipPath>
</defs>
</svg>
