<svg width="20" height="20" viewBox="0 0 20 20" fill="none" xmlns="http://www.w3.org/2000/svg">
<path d="M16.6667 6.87496V15C16.6667 17.5 15.175 18.3333 13.3333 18.3333H6.66667C4.825 18.3333 3.33334 17.5 3.33334 15V6.87496C3.33334 4.16663 4.825 3.54163 6.66667 3.54163C6.66667 4.05829 6.875 4.52496 7.21667 4.86663C7.55834 5.20829 8.025 5.41663 8.54167 5.41663H11.4583C12.4917 5.41663 13.3333 4.57496 13.3333 3.54163C15.175 3.54163 16.6667 4.16663 16.6667 6.87496Z" stroke="#7210FF" stroke-width="1.5" stroke-linecap="round" stroke-linejoin="round"/>
<path d="M6.66666 10.8333H10M6.66666 14.1666H13.3333M13.3333 3.54163C13.3333 4.57496 12.4917 5.41663 11.4583 5.41663H8.54166C8.025 5.41663 7.55833 5.20829 7.21666 4.86663C6.875 4.52496 6.66666 4.05829 6.66666 3.54163C6.66666 2.50829 7.50833 1.66663 8.54166 1.66663H11.4583C11.975 1.66663 12.4417 1.87496 12.7833 2.21663C13.125 2.55829 13.3333 3.02496 13.3333 3.54163Z" stroke="#7210FF" stroke-width="1.5" stroke-linecap="round" stroke-linejoin="round"/>
</svg>
