<svg width="375" height="216" viewBox="0 0 375 216" fill="none" xmlns="http://www.w3.org/2000/svg">
    <g opacity=".5">
        <path d="M373.857 181.905v-42.216h-6.267v-5.065h-7.001v47.281h-3.08v-14.783h-7.003v14.783h-4.131v-33.213H317.95v33.213h-.562v-5.5h-16.034v5.5h-4.971v-42.216H280.35v42.216h-4.342v-19.638h-11.133v-15.404h-16.033v35.042h-3.502v-20.694h-4.62v-24.899h-13.233v-5.064h-16.034v50.657h-6.863v-32.087h-16.033v32.087h-3.5v-56.777h-16.034v56.777h-7.352v-42.216h-6.302v-8.441h-12.603v50.657h-6.652v-35.042h-34.446v35.042h-3.152v-43.482H75.41v43.482h-2.38v-20.694H60.428v13.084h-7.772v-29.121H40.051v29.121h-3.57v-16.037H25.35v-13.084H12.745v-8.862H.142v75.966h.001v3.375h148.925v.001h12.603v-.001H280.35v.001h16.033v-.001h70.472v.001h7.002v-.001h.001v-33.748h-.001z" fill="#D6EBFF"/>
        <path d="M30.972 160.023h31.153v55.631H30.972v-55.631z" fill="#fff"/>
        <path d="M62.125 215.654H30.972v-55.628h31.153v55.628zm-30.664-.491h30.174v-54.645H31.461v54.645z" fill="#1876BB"/>
        <path d="M40.043 169.352h-4.712v-4.734h4.712v4.734zm-4.222-.492h3.733v-3.75H35.82v3.75zm12.843.492h-4.712v-4.734h4.712v4.734zm-4.222-.492h3.732v-3.75h-3.732v3.75zm12.843.492h-4.713v-4.734h4.712v4.734zm-4.223-.492h3.733v-3.75h-3.733v3.75zm-4.398 10.282h-4.712v-4.734h4.712v4.734zm-4.222-.492h3.732v-3.75h-3.732v3.75zm12.843.492h-4.713v-4.734h4.712v4.734zm-4.223-.492h3.733v-3.75h-3.733v3.75zm-13.019 10.282h-4.712v-4.734h4.712v4.734zm-4.222-.492h3.733v-3.75H35.82v3.75zm12.843.492h-4.712v-4.734h4.712v4.734zm-4.222-.492h3.732v-3.75h-3.732v3.75zm12.843.492h-4.713v-4.734h4.712v4.734zm-4.223-.492h3.733v-3.75h-3.733v3.75zm-4.398 10.282h-4.712v-4.734h4.712v4.734zm-4.222-.492h3.732v-3.75h-3.732v3.75zm12.843.492h-4.713v-4.734h4.712v4.734zm-4.223-.492h3.733v-3.75h-3.733v3.75z" fill="#1876BB"/>
        <path d="m225.11 159.133.01.078v56.443h-23.063v-86.268l.073-.069a7.833 7.833 0 0 1 2.821-1.776l.063-.019.02.005v-19.166l.127-.074c.064-.034.128-.064.191-.098l.093-.049a72.339 72.339 0 0 1 6.381-2.908l.059-.014a68.312 68.312 0 0 1 8.182-.591h.245v.925c.206.202.504.694.984 2.101.039.113.064.246.069.398 0 .104 0 .202.004.295 0 .448.005.891.015 1.328 0 .586.005 1.171.015 1.756a7.767 7.767 0 0 1 2.404 1.604l.074.074v42.758c.45 1.073.862 2.163 1.233 3.267z" fill="#fff"/>
        <path d="M225.121 215.654h-23.065V129.39l.074-.072a7.883 7.883 0 0 1 2.823-1.773l.059-.022.023.004v-19.165l.127-.07c.064-.035.127-.068.192-.101l.091-.048a68.766 68.766 0 0 1 4.223-2.008 75.34 75.34 0 0 1 2.16-.899l.058-.016c.57-.074 1.139-.144 1.71-.209a67.546 67.546 0 0 1 6.469-.38l.248-.003v.928c.207.2.505.691.982 2.097.042.114.065.246.071.399 0 .106 0 .202.005.299 0 .447.003.887.012 1.327.003.586.007 1.169.014 1.752a7.674 7.674 0 0 1 2.405 1.607l.074.072v42.757c.717 1.695 1.228 3.256 1.233 3.271l.012.076v56.441zm-22.575-.491h22.085v-55.91a46.633 46.633 0 0 0-1.225-3.24l-.02-.097v-42.598a7.18 7.18 0 0 0-2.324-1.494l-.151-.061-.002-.163c-.007-.639-.013-1.277-.016-1.916-.009-.44-.013-.881-.012-1.322-.005-.093-.005-.197-.005-.3a.846.846 0 0 0-.043-.245c-.551-1.623-.824-1.89-.894-1.934l-.117-.072v-.685a66.992 66.992 0 0 0-6.173.375c-.563.065-1.119.13-1.669.203a77.29 77.29 0 0 0-2.118.882 68.352 68.352 0 0 0-4.192 1.994l-.093.048-.052.027v19.422l-.269-.026a11.731 11.731 0 0 1-.196-.022 7.33 7.33 0 0 0-2.515 1.569v85.565h.001z" fill="#1876BB"/>
        <path d="M211.219 118.851h-1.411v-9.266h1.411v9.266zm-.922-.492h.432v-8.282h-.432v8.282zm7.32.492h-1.412v-9.266h1.412v9.266zm-.922-.492h.432v-8.282h-.432v8.282zm-8.316 11.387h-1.412v-9.267h1.412v9.267zm-.922-.492h.433v-8.283h-.433v8.283zm7.229.492h-1.412v-9.267h1.412v9.267zm-.922-.492h.432v-8.283h-.432v8.283zm6.684.492h-1.411v-9.267h1.411v9.267zm-.922-.492h.432v-8.283h-.432v8.283zm-13.617 25.645h-1.411v-23.077h1.411v23.077zm-.922-.492h.433v-22.093h-.433v22.093zm5.956.492h-1.411v-23.077h1.411v23.077zm-.921-.492h.432v-22.093h-.432v22.093zm7.134.492h-1.412v-23.077h1.412v23.077zm-.922-.492h.432v-22.093h-.432v22.093zm5.861.492h-1.411v-23.077h1.411v23.077zm-.921-.492h.432v-22.093h-.432v22.093zm-15.726 55.53h-1.411v-50.105h1.411v50.105zm-.922-.492h.433v-49.121h-.433v49.121zm5.31.492h-1.411v-50.105h1.411v50.105zm-.921-.492h.432v-49.121h-.432v49.121zm5.31.492h-1.411v-50.105h1.411v50.105zm-.922-.492h.432v-49.121h-.432v49.121zm4.94.492h-1.412v-50.105h1.412v50.105zm-.922-.492h.433v-49.121h-.433v49.121zm4.314.492h-1.411v-50.105h1.411v50.105zm-.922-.492h.432v-49.121h-.432v49.121z" fill="#1876BB"/>
        <path d="M94.893 164.814h27.128v50.84H94.893v-50.84z" fill="#fff"/>
        <path d="M122.021 215.654H94.893v-50.839h27.128v50.839zm-26.638-.491h26.148v-49.856H95.383v49.856z" fill="#1876BB"/>
        <path d="M102.458 169.657h-5.839v-2.055h5.839v2.055zm-5.349-.492h4.859v-1.071h-4.859v1.071zm13.857.492h-5.838v-2.055h5.838v2.055zm-5.348-.492h4.858v-1.071h-4.858v1.071zm13.857.492h-5.839v-2.055h5.839v2.055zm-5.349-.492h4.859v-1.071h-4.859v1.071zm-11.668 6.387h-5.839v-2.055h5.839v2.055zm-5.349-.492h4.859v-1.07h-4.859v1.07zm13.857.492h-5.838v-2.055h5.838v2.055zm-5.348-.492h4.858v-1.07h-4.858v1.07zm13.857.492h-5.839v-2.055h5.839v2.055zm-5.349-.492h4.859v-1.07h-4.859v1.07zm-11.668 6.388h-5.839v-2.055h5.839v2.055zm-5.349-.492h4.859v-1.071h-4.859v1.071zm13.857.492h-5.838v-2.055h5.838v2.055zm-5.348-.492h4.858v-1.071h-4.858v1.071zm13.857.492h-5.839v-2.055h5.839v2.055zm-5.349-.492h4.859v-1.071h-4.859v1.071zm-11.668 6.387h-5.839v-2.055h5.839v2.055zm-5.349-.492h4.859v-1.071h-4.859v1.071zm13.857.492h-5.838v-2.055h5.838v2.055zm-5.348-.492h4.858v-1.071h-4.858v1.071zm13.857.492h-5.839v-2.055h5.839v2.055zm-5.349-.492h4.859v-1.071h-4.859v1.071zm-11.668 6.388h-5.839v-2.055h5.839v2.055zm-5.349-.492h4.859v-1.071h-4.859v1.071zm13.857.492h-5.838v-2.055h5.838v2.055zm-5.348-.492h4.858v-1.071h-4.858v1.071zm13.857.492h-5.839v-2.055h5.839v2.055zm-5.349-.492h4.859v-1.071h-4.859v1.071zm-11.668 6.387h-5.839v-2.055h5.839v2.055zm-5.349-.492h4.859v-1.071h-4.859v1.071zm13.857.492h-5.838v-2.055h5.838v2.055zm-5.348-.492h4.858v-1.071h-4.858v1.071zm13.857.492h-5.839v-2.055h5.839v2.055zm-5.349-.492h4.859v-1.071h-4.859v1.071z" fill="#1876BB"/>
        <path d="M85.827 142.682h5.2v72.972H63.9v-72.972h5.2v-2.592h16.728v2.592z" fill="#fff"/>
        <path d="M91.027 215.652H63.9V142.68h27.127v72.972zm-26.638-.492h26.149v-71.987H64.39v71.987z" fill="#1876BB"/>
        <path d="M85.825 143.173H69.102v-3.081h16.723v3.081zm-16.233-.493h15.743v-2.096H69.592v2.096zm.779 7.397h-3.136v-3.15h3.136v3.15zm-2.646-.492h2.156v-2.166h-2.156v2.166zm8.008.492h-3.136v-3.15h3.136v3.15zm-2.646-.492h2.156v-2.166h-2.156v2.166zm-2.716 5.312h-3.136v-3.15h3.136v3.15zm-2.646-.492h2.156v-2.166h-2.156v2.166zm8.008.492h-3.136v-3.15h3.136v3.15zm-2.646-.492h2.156v-2.166h-2.156v2.166zm9.243-4.328h-3.135v-3.15h3.135v3.15zm-2.646-.492h2.156v-2.166h-2.156v2.166zm8.008.492h-3.135v-3.15h3.135v3.15zm-2.645-.492h2.156v-2.166h-2.157v2.166zm-2.717 5.312h-3.135v-3.15h3.135v3.15zm-2.646-.492h2.156v-2.166h-2.156v2.166zm8.008.492h-3.135v-3.15h3.135v3.15zm-2.645-.492h2.156v-2.166h-2.157v2.166zm-14.676 9.819h-3.136v-3.15h3.136v3.15zm-2.646-.492h2.156v-2.166h-2.156v2.166zm8.008.492h-3.136v-3.15h3.136v3.15zm-2.646-.492h2.156v-2.166h-2.156v2.166zm-2.716 5.312h-3.136v-3.15h3.136v3.15zm-2.646-.492h2.156v-2.166h-2.156v2.166zm8.008.492h-3.136v-3.15h3.136v3.15zm-2.646-.492h2.156v-2.166h-2.156v2.166zm9.243-4.328h-3.135v-3.15h3.135v3.15zm-2.646-.492h2.156v-2.166h-2.156v2.166zm8.008.492h-3.135v-3.15h3.135v3.15zm-2.645-.492h2.156v-2.166h-2.157v2.166zm-2.717 5.312h-3.135v-3.15h3.135v3.15zm-2.646-.492h2.156v-2.166h-2.156v2.166zm8.008.492h-3.135v-3.15h3.135v3.15zm-2.645-.492h2.156v-2.166h-2.157v2.166zM70.37 178.37h-3.136v-3.149h3.136v3.149zm-2.646-.492h2.156v-2.166h-2.156v2.166zm8.008.492h-3.136v-3.149h3.136v3.149zm-2.646-.492h2.156v-2.166h-2.156v2.166zm-2.716 5.313h-3.136v-3.151h3.136v3.151zm-2.646-.492h2.156v-2.167h-2.156v2.167zm8.008.492h-3.136v-3.151h3.136v3.151zm-2.646-.492h2.156v-2.167h-2.156v2.167zm9.243-4.329h-3.135v-3.149h3.135v3.149zm-2.646-.492h2.156v-2.166h-2.156v2.166zm8.008.492h-3.135v-3.149h3.135v3.149zm-2.645-.492h2.156v-2.166h-2.157v2.166zm-2.717 5.313h-3.135v-3.151h3.135v3.151zm-2.646-.492h2.156v-2.167h-2.156v2.167zm8.008.492h-3.135v-3.151h3.135v3.151zm-2.645-.492h2.156v-2.167h-2.157v2.167zm-14.676 9.818h-3.136v-3.149h3.136v3.149zm-2.646-.491h2.156v-2.167h-2.156v2.167zm8.008.491h-3.136v-3.149h3.136v3.149zm-2.646-.491h2.156v-2.167h-2.156v2.167zm-2.716 5.311h-3.136v-3.149h3.136v3.149zm-2.646-.492h2.156v-2.166h-2.156v2.166zm8.008.492h-3.136v-3.149h3.136v3.149zm-2.646-.492h2.156v-2.166h-2.156v2.166zm9.243-4.328h-3.135v-3.149h3.135v3.149zm-2.646-.491h2.156v-2.167h-2.156v2.167zm8.008.491h-3.135v-3.149h3.135v3.149zm-2.645-.491h2.156v-2.167h-2.157v2.167zm-2.717 5.311h-3.135v-3.149h3.135v3.149zm-2.646-.492h2.156v-2.166h-2.156v2.166zm8.008.492h-3.135v-3.149h3.135v3.149zm-2.645-.492h2.156v-2.166h-2.157v2.166z" fill="#1876BB"/>
        <path d="M130.019 149.929h27.127v65.725h-27.127v-65.725z" fill="#fff"/>
        <path d="M157.146 215.654h-27.127v-65.723h27.127v65.723zm-26.638-.491h26.148v-64.74h-26.148v64.74z" fill="#1876BB"/>
        <path d="M134.409 213.161h-2.161v-60.736h2.161v60.736zm-1.671-.492h1.181v-59.753h-1.181v59.753zm6.798.492h-2.161v-60.736h2.161v60.736zm-1.671-.492h1.181v-59.753h-1.181v59.753zm6.797.492h-2.16v-60.736h2.16v60.736zm-1.67-.492h1.181v-59.753h-1.181v59.753zm6.798.492h-2.161v-60.736h2.161v60.736zm-1.671-.492h1.181v-59.753h-1.181v59.753zm6.798.492h-2.16v-60.736h2.16v60.736zm-1.67-.492h1.18v-59.753h-1.18v59.753z" fill="#1876BB"/>
        <path d="m166.801 147.179 27.157-14.763v83.238h-27.157v-68.475z" fill="#fff"/>
        <path d="M193.957 215.654h-27.158v-68.471l27.158-14.762v83.233zm-26.669-.491h26.18v-81.917l-26.18 14.229v67.688z" fill="#1876BB"/>
        <path d="M173.171 158.836h-2.786v-8.584h2.786v8.584zm-2.297-.491h1.807v-7.601h-1.807v7.601zm10.897.491h-2.786v-8.584h2.786v8.584zm-2.296-.491h1.806v-7.601h-1.806v7.601zm10.896.491h-2.786v-8.584h2.786v8.584zm-2.296-.491h1.807v-7.601h-1.807v7.601zm-14.904 13.706h-2.786v-8.585h2.786v8.585zm-2.297-.492h1.807v-7.601h-1.807v7.601zm10.897.492h-2.786v-8.585h2.786v8.585zm-2.296-.492h1.806v-7.601h-1.806v7.601zm10.896.492h-2.786v-8.585h2.786v8.585zm-2.296-.492h1.807v-7.601h-1.807v7.601zm-14.904 13.707h-2.786v-8.585h2.786v8.585zm-2.297-.492h1.807v-7.601h-1.807v7.601zm10.897.492h-2.786v-8.585h2.786v8.585zm-2.296-.492h1.806v-7.601h-1.806v7.601zm10.896.492h-2.786v-8.585h2.786v8.585zm-2.296-.492h1.807v-7.601h-1.807v7.601zm-14.904 13.706h-2.786v-8.584h2.786v8.584zm-2.297-.492h1.807v-7.6h-1.807v7.6zm10.897.492h-2.786v-8.584h2.786v8.584zm-2.296-.492h1.806v-7.6h-1.806v7.6zm10.896.492h-2.786v-8.584h2.786v8.584zm-2.296-.492h1.807v-7.6h-1.807v7.6z" fill="#1876BB"/>
        <path d="M237.759 115.371h27.128v100.283h-27.128V115.371z" fill="#fff"/>
        <path d="M264.885 215.654h-27.128V115.373h27.128v100.281zm-26.638-.491h26.148v-99.298h-26.148v99.298z" fill="#1876BB"/>
        <path d="M261.935 121.391h-21.228v-2.229h21.228v2.229zm-20.739-.492h20.25v-1.245h-20.25v1.245zm20.739 7.784h-21.228v-2.228h21.228v2.228zm-20.739-.492h20.25v-1.245h-20.25v1.245zm20.739 7.784h-21.228v-2.228h21.228v2.228zm-20.739-.492h20.25v-1.244h-20.25v1.244zm20.739 7.783h-21.228v-2.228h21.228v2.228zm-20.739-.492h20.25v-1.244h-20.25v1.244zm20.739 7.785h-21.228v-2.228h21.228v2.228zm-20.739-.492h20.25v-1.244h-20.25v1.244zm20.739 7.784h-21.228v-2.228h21.228v2.228zm-20.739-.492h20.25v-1.244h-20.25v1.244zm20.739 7.783h-21.228v-2.227h21.228v2.227zm-20.739-.491h20.25v-1.245h-20.25v1.245zm20.739 7.784h-21.228v-2.229h21.228v2.229zm-20.739-.492h20.25v-1.245h-20.25v1.245zm20.739 7.784h-21.228v-2.228h21.228v2.228zm-20.739-.492h20.25v-1.245h-20.25v1.245zm20.739 7.784h-21.228v-2.228h21.228v2.228zm-20.739-.492h20.25v-1.244h-20.25v1.244zm20.739 7.784h-21.228v-2.228h21.228v2.228zm-20.739-.493h20.25v-1.244h-20.25v1.244zm20.739 7.785h-21.228v-2.228h21.228v2.228zm-20.739-.492h20.25v-1.244h-20.25v1.244zm20.739 7.784h-21.228v-2.228h21.228v2.228zm-20.739-.492h20.25v-1.244h-20.25v1.244z" fill="#1876BB"/>
        <path d="M273.123 132.52h27.128v83.134h-27.128V132.52z" fill="#fff"/>
        <path d="M300.252 215.654h-27.128v-83.131h27.128v83.131zm-26.638-.491h26.148v-82.148h-26.148v82.148z" fill="#1876BB"/>
        <path d="M287.184 139.936h-2.279a.494.494 0 0 1-.496-.497v-2.29c0-.275.223-.498.496-.498h2.279c.273 0 .495.223.495.498v2.29a.5.5 0 0 1-.495.497zm-2.28-2.793-.005 2.296 2.285.005.004-.001.001-.004v-2.29l-2.285-.006zm7.335 2.793h-2.28a.497.497 0 0 1-.495-.497v-2.29c0-.275.222-.498.495-.498h2.28c.273 0 .495.223.495.498v2.29a.497.497 0 0 1-.495.497zm-2.28-2.793-.005 2.296 2.285.005c.003 0 .005-.002.005-.005v-2.29l-2.285-.006zm7.334 2.793h-2.279a.496.496 0 0 1-.495-.497v-2.29c0-.275.222-.498.495-.498h2.279c.273 0 .495.223.495.498v2.29a.496.496 0 0 1-.495.497zm-2.279-2.793-.006 2.296 2.285.005h.002l.002-.001.001-.002.001-.002v-2.29l-2.285-.006zm-12.885 7.935h-2.28a.496.496 0 0 1-.495-.498v-2.289c0-.275.222-.498.495-.498h2.28c.273 0 .495.223.495.498v2.289a.5.5 0 0 1-.495.498zm-2.28-2.793-.005 2.295 2.285.006c.003 0 .005-.003.005-.006v-2.289l-2.285-.006zm7.335 2.793h-2.279a.498.498 0 0 1-.496-.498v-2.289c0-.275.223-.498.496-.498h2.279c.273 0 .495.223.495.498v2.289a.5.5 0 0 1-.495.498zm-2.28-2.793-.005 2.295 2.285.006a.008.008 0 0 0 .004-.002l.001-.004v-2.289l-2.285-.006zm7.335 2.793h-2.28a.5.5 0 0 1-.495-.498v-2.289c0-.275.222-.498.495-.498h2.28c.273 0 .495.223.495.498v2.289a.5.5 0 0 1-.495.498zm-2.28-2.793-.005 2.295 2.285.006c.003 0 .005-.003.005-.006v-2.289l-2.285-.006zm-7.83 7.934h-2.28a.497.497 0 0 1-.495-.498v-2.29c0-.274.222-.497.495-.497h2.28c.273 0 .495.223.495.497v2.29a.497.497 0 0 1-.495.498zm-2.28-2.793-.005 2.296 2.285.005.004-.001.001-.004v-2.29l-2.285-.006zm7.335 2.793h-2.279a.498.498 0 0 1-.496-.498v-2.29c0-.274.223-.497.496-.497h2.279c.273 0 .495.223.495.497v2.29a.5.5 0 0 1-.495.498zm-2.28-2.793-.005 2.296 2.285.005.004-.001.001-.004v-2.29l-2.285-.006zm7.335 2.793h-2.28a.497.497 0 0 1-.495-.498v-2.29c0-.274.222-.497.495-.497h2.28c.273 0 .495.223.495.497v2.29a.499.499 0 0 1-.495.498zm-2.28-2.793-.005 2.296 2.285.005c.003 0 .005-.002.005-.005v-2.29l-2.285-.006zm7.334 2.793h-2.279a.5.5 0 0 1-.495-.498v-2.29c0-.274.222-.497.495-.497h2.279c.273 0 .495.223.495.497v2.29a.498.498 0 0 1-.495.498zm-2.279-2.793-.006 2.296 2.285.005h.002l.002-.001.001-.002.001-.002v-2.29l-2.285-.006zm-12.885 7.934h-2.28a.497.497 0 0 1-.495-.497v-2.29c0-.274.222-.498.495-.498h2.28c.273 0 .495.224.495.498v2.29a.497.497 0 0 1-.495.497zm-2.28-2.793-.005 2.296 2.285.005.004-.001.001-.004v-2.29l-2.285-.006zm7.335 2.793h-2.279a.493.493 0 0 1-.496-.497v-2.29c0-.274.223-.498.496-.498h2.279c.273 0 .495.224.495.498v2.29a.495.495 0 0 1-.495.497zm-2.28-2.793-.005 2.296 2.285.005.004-.001.001-.004v-2.29l-2.285-.006zm7.335 2.793h-2.28a.497.497 0 0 1-.495-.497v-2.29c0-.274.222-.498.495-.498h2.28c.273 0 .495.224.495.498v2.29a.5.5 0 0 1-.495.497zm-2.28-2.793-.005 2.296 2.285.005c.003 0 .005-.002.005-.005v-2.29l-2.285-.006zm7.334 2.793h-2.279a.495.495 0 0 1-.495-.497v-2.29c0-.274.222-.498.495-.498h2.279c.273 0 .495.224.495.498v2.29a.495.495 0 0 1-.495.497zm-2.279-2.793-.006 2.296 2.285.005h.002l.002-.001.001-.002.001-.002v-2.29l-2.285-.006zm-12.885 7.935h-2.28a.492.492 0 0 1-.349-.146.503.503 0 0 1-.146-.352v-2.289c0-.274.222-.498.495-.498h2.28c.273 0 .495.224.495.498v2.289a.498.498 0 0 1-.495.498zm-2.28-2.793-.005 2.295 2.285.006c.003 0 .005-.002.005-.006v-2.289l-2.285-.006zm7.335 2.793h-2.279a.494.494 0 0 1-.35-.146.503.503 0 0 1-.146-.352v-2.289c0-.274.223-.498.496-.498h2.279c.273 0 .495.224.495.498v2.289a.498.498 0 0 1-.495.498zm-2.28-2.793-.005 2.295 2.285.006c.001 0 .003 0 .004-.002l.001-.004v-2.289l-2.285-.006zm7.335 2.793h-2.28a.496.496 0 0 1-.495-.498v-2.289c0-.274.222-.498.495-.498h2.28c.273 0 .495.224.495.498v2.289a.496.496 0 0 1-.495.498zm-2.28-2.793-.005 2.295 2.285.006c.003 0 .005-.003.005-.006v-2.289l-2.285-.006z" fill="#1876BB"/>
        <path d="M343.029 105.607v110.047h-27.128v-96.175l2.062-1.053v-16.263l18.269 4.609v2.312l6.797-3.477z" fill="#fff"/>
        <path d="M343.027 215.655h-27.128V119.48l2.196-1.121 24.933-12.75-.001 110.046zm-26.638-.492h26.149V106.411l-26.149 13.371v95.381z" fill="#1876BB"/>
        <path d="M317.961 118.98v-16.813l18.269 4.605v2.866l-.133.068-18.136 9.274zm.49-16.182v15.38l17.29-8.841v-2.181l-17.29-4.358zm21.268 21.298h-9.033v-2.258h9.033v2.258zm-8.543-.492h8.053v-1.274h-8.053v1.274zm-4.634.492h-2.248v-2.258h2.248v2.258zm-1.758-.492h1.268v-1.274h-1.268v1.274zm-2.949.492h-2.247v-2.258h2.247v2.258zm-1.758-.492h1.269v-1.274h-1.269v1.274zm6.465 6.893h-2.248v-2.258h2.248v2.258zm-1.758-.492h1.268v-1.274h-1.268v1.274zm-2.949.492h-2.247v-2.258h2.247v2.258zm-1.758-.492h1.269v-1.274h-1.269v1.274zm6.465 6.892h-2.248v-2.257h2.248v2.257zm-1.758-.492h1.268v-1.274h-1.268v1.274zm-2.949.492h-2.247v-2.257h2.247v2.257zm-1.758-.492h1.269v-1.274h-1.269v1.274zm6.465 6.893h-2.248v-2.258h2.248v2.258zm-1.758-.492h1.268v-1.274h-1.268v1.274zm-2.949.492h-2.247v-2.258h2.247v2.258zm-1.758-.492h1.269v-1.274h-1.269v1.274zm6.465 6.893h-2.248v-2.258h2.248v2.258zm-1.758-.492h1.268v-1.274h-1.268v1.274zm-2.949.492h-2.247v-2.258h2.247v2.258zm-1.758-.492h1.269v-1.274h-1.269v1.274zm6.465 6.893h-2.248v-2.258h2.248v2.258zm-1.758-.492h1.268v-1.275h-1.268v1.275zm-2.949.492h-2.247v-2.258h2.247v2.258zm-1.758-.492h1.269v-1.275h-1.269v1.275zm6.465 6.893h-2.248v-2.258h2.248v2.258zm-1.758-.492h1.268v-1.274h-1.268v1.274zm-2.949.492h-2.247v-2.258h2.247v2.258zm-1.758-.492h1.269v-1.274h-1.269v1.274zm19.642-31.512h-9.033v-2.258h9.033v2.258zm-8.543-.492h8.053v-1.274h-8.053v1.274zm8.543 6.892h-9.033v-2.257h9.033v2.257zm-8.543-.492h8.053v-1.274h-8.053v1.274zm8.543 6.893h-9.033v-2.258h9.033v2.258zm-8.543-.492h8.053v-1.274h-8.053v1.274zm8.543 6.893h-9.033v-2.258h9.033v2.258zm-8.543-.492h8.053v-1.274h-8.053v1.274zm8.543 6.893h-9.033v-2.258h9.033v2.258zm-8.543-.492h8.053v-1.275h-8.053v1.275zm8.543 6.893h-9.033v-2.258h9.033v2.258zm-8.543-.492h8.053v-1.274h-8.053v1.274z" fill="#1876BB"/>
        <path d="M383.985 218.837H-9.985v-3.572h393.97v3.572zm-393.304-.669H383.32v-2.235H-9.32v2.235z" fill="#074884"/>
    </g>
</svg>
