<svg width="32" height="32" viewBox="0 0 32 32" fill="none" xmlns="http://www.w3.org/2000/svg">
    <g clip-path="url(#9s49g91d6a)">
        <path d="M25.692 6.621 27.7 4.613a.938.938 0 0 0-1.325-1.326l-2.009 2.008a.938.938 0 0 0 1.326 1.326zm4.358 4.425H28.04a.938.938 0 0 0 0 1.875h2.009a.937.937 0 1 0 0-1.875zM19.004 3.883c.518 0 .938-.42.938-.937V.937a.937.937 0 1 0-1.875 0v2.009c0 .518.42.937.937.937zM2.274 23.37a.938.938 0 0 0 0 1.326l4.017 4.017a.937.937 0 0 0 1.326 0l1.57-1.571L3.846 21.8l-1.57 1.57zm16.232.757-6.583 3.098 4.5 4.5a.938.938 0 0 0 1.326 0l3.514-3.514a.937.937 0 0 0 0-1.326l-2.757-2.758zm-3.86-20.84a.938.938 0 0 0-1.511.264L5.17 20.474l5.343 5.342 16.922-7.964a.936.936 0 0 0 .264-1.51L14.646 3.286z" fill="#fff"/>
    </g>
    <defs>
        <clipPath id="9s49g91d6a">
            <path fill="#fff" d="M0 0h32v32H0z"/>
        </clipPath>
    </defs>
</svg>
