<svg width="20" height="20" viewBox="0 0 20 20" fill="none" xmlns="http://www.w3.org/2000/svg">
    <g clip-path="url(#lg7xfbz88a)" stroke="#989898" stroke-width="1.5" stroke-linecap="round" stroke-linejoin="round">
        <path d="M3.333 4.167a.833.833 0 0 1 .833-.834H7.5a.833.833 0 0 1 .833.834V7.5a.833.833 0 0 1-.833.833H4.166a.833.833 0 0 1-.833-.833V4.167zM11.667 4.167a.833.833 0 0 1 .833-.834h3.334a.833.833 0 0 1 .833.834V7.5a.833.833 0 0 1-.833.833H12.5a.833.833 0 0 1-.833-.833V4.167zM3.333 12.5a.833.833 0 0 1 .833-.833H7.5a.833.833 0 0 1 .833.833v3.333a.833.833 0 0 1-.833.834H4.166a.833.833 0 0 1-.833-.834V12.5zM11.667 12.5a.833.833 0 0 1 .833-.833h3.334a.833.833 0 0 1 .833.833v3.333a.833.833 0 0 1-.833.834H12.5a.833.833 0 0 1-.833-.834V12.5z"/>
    </g>
    <defs>
        <clipPath id="lg7xfbz88a">
            <path fill="#fff" d="M0 0h20v20H0z"/>
        </clipPath>
    </defs>
</svg>
