<svg width="20" height="20" viewBox="0 0 20 20" fill="none" xmlns="http://www.w3.org/2000/svg">
<path d="M17.7083 7.62506C15.7833 4.60006 12.9667 2.8584 10 2.8584C8.51667 2.8584 7.075 3.29173 5.75833 4.10007C4.44167 4.91673 3.25833 6.1084 2.29167 7.62506C1.45833 8.9334 1.45833 11.0584 2.29167 12.3667C4.21667 15.4001 7.03333 17.1334 10 17.1334C11.4833 17.1334 12.925 16.7001 14.2417 15.8917C15.5583 15.0751 16.7417 13.8834 17.7083 12.3667C18.5417 11.0667 18.5417 8.9334 17.7083 7.62506ZM10 13.3667C8.13333 13.3667 6.63333 11.8584 6.63333 10.0001C6.63333 8.14173 8.13333 6.6334 10 6.6334C11.8667 6.6334 13.3667 8.14173 13.3667 10.0001C13.3667 11.8584 11.8667 13.3667 10 13.3667Z" fill="#989898"/>
<path d="M9.99833 7.6167C9.36734 7.6167 8.76219 7.86736 8.31601 8.31354C7.86983 8.75972 7.61917 9.36487 7.61917 9.99587C7.61917 10.6269 7.86983 11.232 8.31601 11.6782C8.76219 12.1244 9.36734 12.375 9.99833 12.375C11.3067 12.375 12.3817 11.3084 12.3817 10C12.3817 8.6917 11.3067 7.6167 9.99833 7.6167Z" fill="#989898"/>
</svg>
