<svg width="30" height="30" viewBox="0 0 30 30" fill="none" xmlns="http://www.w3.org/2000/svg">
    <g clip-path="url(#1a376jfiza)" fill="#fff">
        <path d="M3.348 12.084a.921.921 0 0 1-.93-.931V8.362a5.956 5.956 0 0 1 5.945-5.945h2.791a.923.923 0 0 1 .93.93.924.924 0 0 1-.93.93H8.363a4.087 4.087 0 0 0-4.084 4.085v2.791a.931.931 0 0 1-.931.931zM26.652 12.084a.93.93 0 0 1-.93-.93V8.362a4.087 4.087 0 0 0-4.084-4.084h-2.792a.93.93 0 0 1 0-1.861h2.793a5.956 5.956 0 0 1 5.945 5.945v2.791a.922.922 0 0 1-.931.931zM21.638 27.583h-1.68a.93.93 0 0 1 0-1.86h1.68a4.087 4.087 0 0 0 4.084-4.083v-1.67a.93.93 0 0 1 1.86 0v1.67a5.956 5.956 0 0 1-5.944 5.943zM11.154 27.584H8.363a5.956 5.956 0 0 1-5.945-5.945v-2.792a.923.923 0 0 1 .93-.93.924.924 0 0 1 .93.93v2.792a4.087 4.087 0 0 0 4.085 4.084h2.791a.93.93 0 0 1 0 1.861zM23.253 14.07H6.748a.958.958 0 0 0-.984.93.958.958 0 0 0 .984.93h16.505a.958.958 0 0 0 .984-.93.958.958 0 0 0-.984-.93zM8.838 17.515v.4a3.62 3.62 0 0 0 3.625 3.624h5.075a3.622 3.622 0 0 0 3.625-3.625v-.4a.249.249 0 0 0-.254-.253H9.092a.246.246 0 0 0-.236.156.248.248 0 0 0-.018.098zM8.838 12.485v-.4a3.62 3.62 0 0 1 3.625-3.624h5.075a3.62 3.62 0 0 1 3.625 3.625v.4a.248.248 0 0 1-.254.254H9.092a.247.247 0 0 1-.254-.255z"/>
    </g>
    <defs>
        <clipPath id="1a376jfiza">
            <path fill="#fff" d="M0 0h30v30H0z"/>
        </clipPath>
    </defs>
</svg>
