<svg width="24" height="24" viewBox="0 0 24 24" fill="none" xmlns="http://www.w3.org/2000/svg">
<g clip-path="url(#clip0_291_1800)">
<path d="M10.7532 14.3744C10.7676 14.3988 10.7836 14.4224 10.7976 14.4471C10.7836 14.4224 10.7676 14.3999 10.7532 14.3744ZM10.96 14.7852C10.9708 14.812 10.9796 14.84 10.99 14.8652C10.9796 14.84 10.9708 14.8119 10.96 14.7852ZM9.92522 13.4475C9.95044 13.4668 9.97683 13.4851 10.0016 13.5047C9.97679 13.4848 9.9504 13.4668 9.92522 13.4475ZM9.59321 13.2271C9.6256 13.2456 9.65719 13.2671 9.68921 13.2851C9.65719 13.2655 9.6256 13.2459 9.59321 13.2271ZM9.80602 18.6399C10.0423 18.4912 10.2641 18.3206 10.4684 18.1304C10.5249 18.077 10.5743 18.0165 10.6152 17.9504C10.8344 17.5968 10.9964 17.2108 11.0952 16.8067C10.9005 17.5532 10.4427 18.2043 9.80602 18.6399ZM8.3964 12.8271C8.43441 12.8316 8.47158 12.8384 8.5088 12.8444C8.47158 12.8399 8.43441 12.8316 8.3964 12.8271ZM7.98521 19.1999C7.89441 19.1999 7.80601 19.1908 7.71722 19.1827C7.80601 19.19 7.89441 19.1999 7.98521 19.1999ZM8.4136 19.1704C8.39518 19.1728 8.37802 19.1764 8.3596 19.1784C8.3776 19.1764 8.3956 19.1728 8.4136 19.1704ZM9.75399 18.6751C9.6969 18.7122 9.63874 18.7475 9.57957 18.7811C9.63999 18.7491 9.69601 18.7111 9.75399 18.6751ZM11.1976 16.0476C11.1976 16.0823 11.194 16.1164 11.1924 16.1508C11.194 16.1164 11.1972 16.0799 11.1976 16.0476ZM11.164 16.4556C11.1572 16.5028 11.1512 16.5503 11.1424 16.5967C11.1508 16.5495 11.1576 16.5028 11.164 16.4556Z" fill="#78B9EB"/>
<path d="M1.19999 17.6H1.64001C1.80191 17.6 1.95994 17.6495 2.09302 17.7417C2.2261 17.8339 2.32789 17.9644 2.38481 18.116C2.43042 18.236 2.47959 18.354 2.53242 18.47C2.60005 18.6176 2.62097 18.7824 2.59238 18.9423C2.56379 19.1021 2.48705 19.2494 2.37243 19.3644L2.06001 19.68C1.74843 19.9925 1.74843 20.4981 2.06001 20.8104L3.1904 21.9408C3.50282 22.2524 4.00842 22.2524 4.32079 21.9408L4.63481 21.628C4.74983 21.5134 4.89713 21.4367 5.05698 21.4081C5.21683 21.3795 5.3816 21.4004 5.52923 21.468C5.64547 21.5214 5.76355 21.5706 5.88323 21.6157C6.03485 21.6725 6.16555 21.7741 6.25789 21.9072C6.35023 22.0402 6.39981 22.1982 6.40003 22.3601V22.8001C6.40003 23.2421 6.75801 23.6001 7.20004 23.6001H8.80002C9.24201 23.6001 9.60004 23.2421 9.60004 22.8001V22.3601C9.60007 22.1982 9.64949 22.0401 9.74168 21.9071C9.83388 21.774 9.96448 21.6722 10.116 21.6153C10.236 21.5697 10.354 21.5205 10.47 21.4677C10.6177 21.4 10.7824 21.3791 10.9423 21.4077C11.1021 21.4363 11.2494 21.513 11.3645 21.6277L11.6785 21.9404C11.9909 22.252 12.4965 22.252 12.8089 21.9404L13.9393 20.8101C14.2508 20.4976 14.2508 19.992 13.9393 19.6797L13.6265 19.3657C13.5118 19.2506 13.4351 19.1033 13.4065 18.9435C13.3779 18.7836 13.3988 18.6189 13.4665 18.4712C13.5198 18.355 13.569 18.2369 13.6141 18.1172C13.6709 17.9653 13.7728 17.8343 13.9062 17.7419C14.0395 17.6494 14.1979 17.5999 14.3601 17.6H14.8001C15.2421 17.6 15.6001 17.242 15.6001 16.8V15.2C15.6001 14.758 15.2422 14.4 14.8001 14.4H14.3601C14.1982 14.4 14.0402 14.3506 13.9071 14.2584C13.774 14.1662 13.6722 14.0356 13.6153 13.884C13.5699 13.7644 13.5207 13.6464 13.4677 13.53C13.4 13.3824 13.379 13.2176 13.4076 13.0577C13.4362 12.8979 13.513 12.7506 13.6277 12.6356L13.9405 12.3216C14.2521 12.0091 14.2521 11.5035 13.9405 11.1912L12.81 10.0608C12.4976 9.7492 11.992 9.7492 11.6796 10.0608L11.3656 10.3736C11.2506 10.4882 11.1033 10.5649 10.9434 10.5935C10.7836 10.6221 10.6188 10.6012 10.4712 10.5336C10.3549 10.4802 10.2368 10.431 10.1172 10.3859C9.96521 10.3291 9.83424 10.2272 9.7418 10.0939C9.64936 9.96056 9.59987 9.80217 9.59995 9.63993V9.19992C9.59995 8.75793 9.24196 8.3999 8.79993 8.3999H7.19999C6.75801 8.3999 6.39998 8.75789 6.39998 9.19992V9.63993C6.39995 9.80183 6.35053 9.95987 6.25834 10.0929C6.16614 10.226 6.03554 10.3278 5.88398 10.3847C5.76398 10.4303 5.64599 10.4795 5.52998 10.5323C5.38235 10.6 5.21758 10.6209 5.05773 10.5923C4.89789 10.5637 4.75059 10.487 4.63556 10.3724L4.31995 10.0599C4.00753 9.74836 3.50193 9.74836 3.18956 10.0599L2.06076 11.1911C1.74918 11.5035 1.74918 12.0091 2.06076 12.3215L2.37356 12.6355C2.48825 12.7505 2.56505 12.8978 2.59365 13.0577C2.62224 13.2175 2.60127 13.3823 2.53354 13.5299C2.48023 13.6462 2.431 13.7643 2.38593 13.8839C2.32894 14.0357 2.22696 14.1664 2.09364 14.2586C1.96032 14.3509 1.80202 14.4002 1.63992 14.3999H1.19999C0.75801 14.3999 0.399979 14.7579 0.399979 15.2V16.8C0.399979 17.242 0.75801 17.6 1.19999 17.6ZM7.19999 12.9C7.46156 12.834 7.73025 12.8004 8.00001 12.8C8.13243 12.8008 8.26481 12.81 8.39643 12.8272C8.43445 12.8316 8.47162 12.8384 8.50884 12.8444C8.60606 12.8596 8.70126 12.8796 8.79524 12.9036C8.82965 12.9124 8.86443 12.92 8.89846 12.93C9.01997 12.9647 9.13925 13.0068 9.25565 13.056C9.26967 13.062 9.28246 13.0696 9.29564 13.0756C9.39727 13.1209 9.49647 13.1715 9.59282 13.2272C9.62521 13.246 9.65681 13.2672 9.68882 13.2852C9.7696 13.3362 9.84834 13.3904 9.92484 13.4476C9.95006 13.4668 9.97645 13.4848 10.0012 13.5048C10.0977 13.5823 10.1899 13.6651 10.2772 13.7528C10.2937 13.7696 10.308 13.7876 10.324 13.8048C10.4206 13.9063 10.5102 14.0143 10.5921 14.128C10.6492 14.208 10.7032 14.288 10.752 14.3744C10.7664 14.3988 10.7825 14.4224 10.7964 14.4472C10.8571 14.5566 10.9114 14.6695 10.9589 14.7852C10.9696 14.812 10.9784 14.8396 10.9889 14.8652C11.0243 14.9586 11.0553 15.0537 11.0817 15.15C11.0921 15.1876 11.1017 15.2252 11.1109 15.2632C11.1353 15.3676 11.1545 15.4732 11.1685 15.5797C11.1717 15.6032 11.1765 15.6261 11.1793 15.6496C11.1925 15.766 11.1996 15.8828 11.2001 16C11.2001 16.016 11.2001 16.0316 11.1977 16.0476C11.1977 16.0816 11.1941 16.1164 11.1925 16.1508C11.1879 16.2528 11.1784 16.3545 11.1641 16.4556C11.1578 16.5028 11.1506 16.5499 11.1425 16.5968C11.1289 16.6684 11.1112 16.738 11.0932 16.808C10.9944 17.2121 10.8324 17.598 10.6132 17.9516C10.5723 18.0177 10.523 18.0783 10.4664 18.1316C10.2627 18.3214 10.0416 18.4916 9.80601 18.64L9.75403 18.674C9.69604 18.71 9.63801 18.748 9.5796 18.78C9.33763 18.917 9.07876 19.0218 8.80959 19.0916L8.76159 19.104C8.64687 19.1321 8.5307 19.1539 8.41359 19.1692C8.39559 19.1716 8.37759 19.1752 8.35959 19.1772C8.24025 19.1916 8.1202 19.1992 8.00001 19.2H7.9852C7.8944 19.2 7.80599 19.1908 7.71721 19.1828C7.67362 19.1788 7.62843 19.1792 7.58521 19.1736C7.45553 19.1563 7.32692 19.1317 7.19999 19.1C5.48798 18.6572 4.45879 16.9104 4.90157 15.1984C5.04472 14.6451 5.33335 14.1401 5.73751 13.7359C6.14168 13.3318 6.64664 13.0431 7.19999 12.9Z" fill="#FFAF46"/>
<path d="M11.2 16.0001C11.1996 15.8835 11.1931 15.7671 11.1804 15.6513C11.1944 15.7828 11.2 15.9153 11.1976 16.0477C11.2 16.0317 11.2 16.0161 11.2 16.0001ZM8.5088 12.8445C8.60602 12.8597 8.70122 12.8797 8.7952 12.9037C8.70069 12.8796 8.60512 12.8598 8.5088 12.8445ZM9.29602 13.0757C9.39774 13.1208 9.49694 13.1714 9.5932 13.2273C9.49685 13.1716 9.39765 13.121 9.29602 13.0757ZM10.592 14.1281C10.6492 14.2081 10.7032 14.288 10.752 14.3745C10.7029 14.2897 10.6495 14.2074 10.592 14.1281ZM10.3244 13.8049C10.3947 13.8792 10.4614 13.9567 10.5244 14.0373C10.4616 13.9565 10.3949 13.879 10.3244 13.8049ZM9.68921 13.2853C9.76999 13.3363 9.84872 13.3905 9.92522 13.4477C9.84886 13.3903 9.77012 13.3361 9.68921 13.2853ZM9.99999 13.5049C10.0967 13.5821 10.1889 13.6649 10.276 13.7529C10.1886 13.6652 10.0965 13.5824 9.99999 13.5049ZM9.57961 18.7813C9.33652 18.916 9.07795 19.0206 8.8096 19.0929C9.07877 19.0231 9.33764 18.9183 9.57961 18.7813ZM8.00002 19.2001C8.12033 19.1997 8.24052 19.1925 8.36002 19.1785C8.23574 19.1928 8.11073 19.1997 7.98563 19.1993L8.00002 19.2001ZM11.1924 16.1509C11.1876 16.2528 11.1781 16.3545 11.164 16.4556C11.1784 16.3553 11.1876 16.2537 11.1924 16.1509ZM9.80602 18.6401C9.78881 18.6513 9.77161 18.6633 9.75403 18.674L9.80602 18.6401ZM11.1424 16.5969C11.1296 16.6669 11.1104 16.7377 11.0932 16.8081C11.1112 16.7381 11.1288 16.6685 11.1424 16.5969Z" fill="#78B9EB"/>
<path d="M14.8 14H14.36C14.2792 14.0002 14.2002 13.9755 14.1339 13.9293C14.0677 13.8831 14.0173 13.8175 13.9896 13.7416C13.941 13.6142 13.8884 13.4884 13.832 13.3644C13.7978 13.2908 13.7872 13.2084 13.8015 13.1285C13.8158 13.0487 13.8544 12.9751 13.912 12.918L14.2256 12.604C14.6912 12.1344 14.6904 11.3768 14.2236 10.9084L13.0932 9.77797C12.624 9.31156 11.8664 9.31156 11.3972 9.77797L11.0836 10.0912C11.0263 10.1486 10.9528 10.1871 10.873 10.2014C10.7932 10.2157 10.7109 10.2052 10.6372 10.1712C10.5126 10.1149 10.3867 10.0615 10.2596 10.0112C10.1834 9.98365 10.1175 9.93319 10.071 9.86674C10.0245 9.80029 9.99975 9.7211 10 9.64002V9.2C10 8.53719 9.46284 8 8.80003 8H7.2C6.53719 8 6 8.53719 6 9.2V9.64002C6.00023 9.72083 5.97554 9.79976 5.9293 9.86604C5.88305 9.93232 5.8175 9.98273 5.74158 10.0104C5.61422 10.059 5.48843 10.1115 5.36438 10.168C5.29073 10.202 5.20843 10.2125 5.12859 10.1982C5.04876 10.1839 4.97525 10.1454 4.91798 10.088L4.60397 9.77441C4.13475 9.30842 3.37758 9.30842 2.90836 9.77441L1.77797 10.9084C1.31156 11.3776 1.31156 12.1352 1.77797 12.6044L2.09119 12.918C2.14878 12.9752 2.18736 13.0487 2.20168 13.1285C2.216 13.2084 2.20535 13.2908 2.1712 13.3644C2.11471 13.4886 2.06201 13.6145 2.01319 13.742C1.98525 13.8182 1.93436 13.884 1.86753 13.9302C1.8007 13.9764 1.72121 14.0008 1.63997 14H1.2C0.537188 14 0 14.5371 0 15.2V16.8C0 17.4628 0.537188 18 1.2 18H1.64002C1.72083 17.9998 1.79976 18.0244 1.86604 18.0707C1.93232 18.1169 1.98273 18.1825 2.01042 18.2584C2.05899 18.3858 2.11155 18.5116 2.16802 18.6356C2.20218 18.7092 2.21283 18.7916 2.19851 18.8714C2.18419 18.9513 2.1456 19.0248 2.088 19.082L1.77441 19.396C1.30842 19.8652 1.30842 20.6224 1.77441 21.0916L2.9048 22.222C3.37402 22.6884 4.13161 22.6884 4.60078 22.222L4.91437 21.9088C4.97164 21.8514 5.04516 21.8129 5.12499 21.7986C5.20482 21.7843 5.28712 21.7948 5.36077 21.8288C5.48534 21.8851 5.61123 21.9384 5.73834 21.9888C5.81504 22.0159 5.8814 22.0662 5.92827 22.1327C5.97514 22.1992 6.00018 22.2786 5.99995 22.36V22.8C5.99995 23.4628 6.53714 24 7.19995 24H8.79994C9.46275 24 9.99994 23.4628 9.99994 22.8V22.36C9.99971 22.2792 10.0244 22.2002 10.0706 22.1339C10.1169 22.0677 10.1824 22.0172 10.2584 21.9896C10.3857 21.941 10.5115 21.8884 10.6356 21.832C10.7092 21.798 10.7915 21.7875 10.8713 21.8018C10.9512 21.8161 11.0247 21.8546 11.082 21.912L11.396 22.2256C11.8656 22.6908 12.6228 22.69 13.0916 22.2236L14.222 21.0932C14.6884 20.624 14.6884 19.8664 14.222 19.3972L13.9088 19.0836C13.8512 19.0264 13.8126 18.9529 13.7983 18.873C13.7839 18.7932 13.7946 18.7108 13.8287 18.6372C13.8851 18.5126 13.9384 18.3867 13.9887 18.2596C14.0163 18.1834 14.0667 18.1175 14.1332 18.071C14.1996 18.0245 14.2788 17.9998 14.3599 18H14.7999C15.4627 18 15.9999 17.4628 15.9999 16.8V15.2C16 14.5372 15.4628 14 14.8 14ZM15.2 16.8C15.2 16.9061 15.1578 17.0078 15.0828 17.0828C15.0078 17.1578 14.9061 17.1999 14.8 17.2H14.36C13.8628 17.202 13.4176 17.5092 13.24 17.9735C13.1977 18.0852 13.1518 18.1956 13.1025 18.3043C13.002 18.5261 12.9711 18.7731 13.014 19.0128C13.0568 19.2525 13.1714 19.4735 13.3425 19.6468L13.6553 19.96C13.8117 20.116 13.8117 20.3692 13.6557 20.5256L13.6553 20.526L12.5249 21.6564C12.3689 21.8124 12.1156 21.8124 11.9593 21.6564L11.6457 21.3432C11.4725 21.172 11.2515 21.0574 11.0118 21.0145C10.7721 20.9716 10.525 21.0026 10.3033 21.1032C10.1947 21.1524 10.0847 21.1983 9.97327 21.2407C9.74656 21.3276 9.55141 21.4809 9.41342 21.6806C9.27543 21.8804 9.20106 22.1172 9.20006 22.3599V22.7999C9.20003 22.906 9.15787 23.0077 9.08287 23.0827C9.00786 23.1577 8.90615 23.1999 8.80008 23.1999H7.2C7.09393 23.1999 6.99221 23.1577 6.91721 23.0827C6.84221 23.0077 6.80005 22.906 6.80002 22.7999V22.3599C6.798 21.8627 6.49083 21.4175 6.02644 21.2399C5.91474 21.1976 5.80442 21.1517 5.69564 21.1024C5.47385 21.002 5.22684 20.9712 4.98719 21.014C4.74754 21.0569 4.5265 21.1713 4.35323 21.3424L4.04002 21.6552C3.88402 21.8116 3.6308 21.8116 3.47442 21.6556L3.474 21.6552L2.34361 20.5259C2.18761 20.3699 2.18761 20.1163 2.34361 19.9603L2.65683 19.6468C2.82792 19.4735 2.94245 19.2525 2.9853 19.0128C3.02815 18.7731 2.9973 18.5261 2.89683 18.3043C2.84757 18.1958 2.80169 18.0857 2.75925 17.9743C2.67265 17.7474 2.5194 17.552 2.31964 17.4137C2.11988 17.2755 1.88298 17.201 1.64006 17.1999H1.2C1.09393 17.1999 0.992213 17.1577 0.91721 17.0827C0.842206 17.0077 0.800053 16.906 0.800016 16.7999V15.2C0.800053 15.0939 0.842206 14.9922 0.91721 14.9172C0.992213 14.8422 1.09393 14.8 1.2 14.8H1.64002C2.13722 14.798 2.58244 14.4908 2.76 14.0264C2.80233 13.9147 2.84821 13.8044 2.89758 13.6956C2.99805 13.4738 3.0289 13.2268 2.98605 12.9871C2.9432 12.7474 2.82867 12.5264 2.65758 12.3532L2.34319 12.04C2.18677 11.884 2.18677 11.6307 2.34277 11.4744L2.34319 11.474L3.47358 10.3436C3.54863 10.2687 3.65034 10.2266 3.75638 10.2266C3.86241 10.2266 3.96412 10.2687 4.03917 10.3436L4.35277 10.6568C4.52592 10.828 4.74697 10.9426 4.98666 10.9854C5.22636 11.0283 5.47342 10.9974 5.69517 10.8968C5.80373 10.8475 5.91378 10.8016 6.02517 10.7592C6.25217 10.6726 6.44767 10.5194 6.58596 10.3196C6.72424 10.1199 6.79885 9.88296 6.79997 9.64002V9.2C6.80001 9.09393 6.84216 8.99221 6.91716 8.91721C6.99217 8.84221 7.09388 8.80005 7.19995 8.80001H8.79994C8.90601 8.80005 9.00772 8.84221 9.08273 8.91721C9.15773 8.99221 9.19988 9.09393 9.19992 9.2V9.64002C9.20194 10.1372 9.50911 10.5824 9.9735 10.76C10.0855 10.8024 10.1959 10.8484 10.3043 10.8976C10.526 10.9982 10.7731 11.0291 11.0128 10.9862C11.2525 10.9434 11.4735 10.8288 11.6467 10.6576L11.9599 10.3448C12.0352 10.2702 12.1369 10.2284 12.2429 10.2284C12.3489 10.2284 12.4506 10.2702 12.5259 10.3448L13.6563 11.4752C13.8123 11.6312 13.8123 11.8848 13.6563 12.0408L13.3431 12.3544C13.172 12.5276 13.0575 12.7486 13.0146 12.9883C12.9718 13.228 13.0026 13.475 13.1031 13.6968C13.1524 13.8053 13.1982 13.9154 13.2407 14.0268C13.3275 14.2535 13.4809 14.4486 13.6806 14.5866C13.8803 14.7246 14.1171 14.799 14.3599 14.8H14.7999C14.906 14.8 15.0077 14.8422 15.0827 14.9172C15.1577 14.9922 15.1998 15.0939 15.1999 15.2V16.8H15.2Z" fill="#231F20"/>
<path d="M11.592 15.84C11.5884 15.7441 11.5809 15.6485 11.5696 15.5532C11.5568 15.4508 11.5416 15.3492 11.5204 15.2496C11.5064 15.1844 11.488 15.12 11.4704 15.0552C11.4481 14.9731 11.4228 14.8919 11.3947 14.8116C11.3751 14.7562 11.3549 14.701 11.3339 14.646C11.2824 14.5179 11.2235 14.3929 11.1576 14.2716C11.1524 14.2624 11.1492 14.2524 11.144 14.2432C11.04 14.0579 10.9195 13.8824 10.784 13.7188C10.7724 13.7044 10.7592 13.6908 10.7472 13.6768C10.6924 13.6117 10.6351 13.5487 10.5756 13.488C10.5443 13.4556 10.5116 13.4252 10.4788 13.394C10.4393 13.3571 10.3993 13.3207 10.3588 13.2848C10.3103 13.2428 10.2608 13.202 10.2104 13.1624L10.1448 13.1136C9.52585 12.65 8.77327 12.3996 7.99996 12.4C7.95998 12.4 7.91995 12.406 7.87996 12.4076C7.7942 12.4098 7.70855 12.4151 7.62318 12.4236C7.57799 12.4284 7.53238 12.4336 7.4872 12.44C7.35678 12.4572 7.22739 12.4813 7.09959 12.5124C5.17359 13.01 4.01559 14.9748 4.51316 16.9012C4.6742 17.5245 4.99931 18.0931 5.45467 18.5481C5.91003 19.003 6.47899 19.3276 7.10235 19.488C7.10877 19.488 7.11557 19.4901 7.12237 19.4917C7.2605 19.5261 7.40045 19.5528 7.54157 19.5717C7.63476 19.5833 7.72799 19.5857 7.82156 19.5901C7.88395 19.5933 7.94156 19.6025 8.00676 19.6025C8.12076 19.6025 8.23916 19.5949 8.35996 19.5829C8.37276 19.5829 8.38556 19.5793 8.39995 19.5777C8.49922 19.5669 8.59799 19.5518 8.69596 19.5325C8.73595 19.5249 8.77316 19.515 8.81156 19.5061C8.88287 19.4899 8.95369 19.4717 9.02395 19.4513C9.07996 19.4346 9.13434 19.4149 9.18913 19.3958C9.24393 19.3765 9.30074 19.3558 9.35756 19.3342C9.41437 19.3125 9.46195 19.2878 9.51356 19.2638C9.58077 19.233 9.64757 19.2025 9.71357 19.1665H9.71596C10.0892 18.9666 10.434 18.7176 10.7412 18.4261C10.8241 18.3487 10.8962 18.2604 10.9556 18.1637C11.2678 17.6633 11.4729 17.1035 11.558 16.5197C11.5692 16.4425 11.5791 16.3653 11.5851 16.2865C11.5909 16.2145 11.5946 16.1423 11.5964 16.0701C11.5964 16.0473 11.5995 16.0257 11.5995 16.0029C11.6 15.9464 11.5944 15.8944 11.592 15.84ZM7.29721 13.288C7.52699 13.23 7.76302 13.2004 8.00001 13.2C8.11443 13.2008 8.22843 13.2084 8.34201 13.2232C8.37243 13.2268 8.40243 13.2324 8.43243 13.2368C8.51882 13.2504 8.60441 13.2676 8.68884 13.2892C8.71645 13.2964 8.74406 13.3028 8.77124 13.3104C8.98397 13.3717 9.18872 13.4579 9.38123 13.5672C9.41202 13.5852 9.44202 13.604 9.47245 13.6228C9.53563 13.6627 9.59685 13.7028 9.65723 13.7483C9.68962 13.7719 9.72243 13.7951 9.75365 13.8203C9.83206 13.8832 9.90722 13.9499 9.97884 14.0204C10.0072 14.0491 10.0333 14.0808 10.0608 14.1108C10.1072 14.1609 10.1518 14.2126 10.1944 14.266C10.224 14.3035 10.2526 14.3416 10.2804 14.3804C10.3204 14.438 10.3604 14.498 10.3964 14.5588C10.4165 14.592 10.4364 14.6244 10.4569 14.6584C10.5085 14.7533 10.5545 14.8512 10.5944 14.9516C10.6104 14.9916 10.624 15.0316 10.6385 15.0716C10.6643 15.145 10.687 15.2195 10.7065 15.2948C10.7165 15.3348 10.7277 15.3705 10.7361 15.4093C10.7594 15.5174 10.7763 15.6268 10.7869 15.7369C10.7893 15.7661 10.7893 15.7957 10.7913 15.8249C10.7969 15.9169 10.7985 16.0093 10.7949 16.1021C10.7949 16.1353 10.7921 16.1685 10.7901 16.2013C10.7826 16.2987 10.7706 16.3958 10.7541 16.4921C10.6802 16.9027 10.5157 17.2917 10.2726 17.6308C10.0294 17.9698 9.71375 18.2504 9.34851 18.4521C9.30009 18.4776 9.25101 18.5019 9.20132 18.5249L9.16813 18.5408C8.93575 18.6463 8.69041 18.7206 8.43852 18.7616C8.42095 18.7644 8.40295 18.7676 8.38495 18.77C8.33579 18.7772 8.28644 18.7831 8.23696 18.7876C8.17203 18.7932 8.10693 18.7965 8.04177 18.7976H7.9582C7.86355 18.7965 7.76903 18.7906 7.67498 18.78L7.62698 18.7744C7.51696 18.7601 7.40784 18.7396 7.30017 18.7128C5.80218 18.3293 4.89857 16.804 5.28177 15.306C5.40616 14.82 5.65885 14.3763 6.01343 14.0214C6.36801 13.6665 6.81144 13.4133 7.29735 13.2885L7.29721 13.288ZM22.8 8.4H21.542C21.4602 8.4008 21.3802 8.3759 21.3134 8.32882C21.2465 8.28174 21.1961 8.21486 21.1692 8.13759C21.0453 7.76597 20.8952 7.40359 20.72 7.05319C20.6838 6.97938 20.6717 6.89605 20.6855 6.815C20.6993 6.73395 20.7382 6.65929 20.7968 6.60159L21.6888 5.70839C22.1568 5.23997 22.1568 4.48041 21.6888 4.01198L19.988 2.31398C19.5195 1.84598 18.76 1.84598 18.2916 2.31398L17.4 3.20522C17.3424 3.26377 17.2678 3.30272 17.1868 3.31658C17.1059 3.33043 17.0226 3.31848 16.9488 3.28242C16.5983 3.10641 16.2358 2.9555 15.864 2.83083C15.7864 2.8043 15.7191 2.75401 15.6718 2.68709C15.6244 2.62017 15.5993 2.54003 15.6 2.45803V1.2C15.6 0.537188 15.0628 0 14.4 0H12C11.3372 0 10.8 0.537188 10.8 1.2V2.45798C10.8008 2.53977 10.7759 2.61975 10.7288 2.68664C10.6817 2.75352 10.6149 2.80394 10.5376 2.83078C10.166 2.95557 9.80362 3.10635 9.45318 3.282C9.3794 3.31832 9.29604 3.33044 9.21496 3.31666C9.13389 3.30287 9.05922 3.26388 9.00159 3.20522L8.10838 2.31323C7.63917 1.84645 6.8812 1.84645 6.41198 2.31323L4.7144 4.01081C4.24598 4.47923 4.24598 5.23922 4.7144 5.70759L6.02601 7.02159C6.18482 7.1752 6.43799 7.17117 6.5916 7.01278C6.66378 6.93829 6.70421 6.83868 6.70436 6.73495C6.70451 6.63122 6.66437 6.5315 6.5924 6.4568L5.27999 5.14322C5.20508 5.06817 5.16301 4.96646 5.16301 4.86042C5.16301 4.75438 5.20508 4.65268 5.27999 4.57762L6.97757 2.88005C7.13357 2.72405 7.38717 2.72405 7.54317 2.88005L8.43674 3.77203C8.79834 4.13564 9.35235 4.22681 9.81116 3.99764C10.128 3.83892 10.4556 3.70272 10.7916 3.59006C11.028 3.51001 11.2333 3.35763 11.3784 3.15448C11.5234 2.95133 11.601 2.70771 11.6 2.45808V1.2C11.6 1.09393 11.6422 0.992213 11.7172 0.91721C11.7922 0.842206 11.8939 0.800053 11.9999 0.800016H14.3999C14.506 0.800053 14.6077 0.842206 14.6827 0.91721C14.7577 0.992213 14.7999 1.09393 14.7999 1.2V2.45798C14.7989 2.70757 14.8764 2.95115 15.0215 3.15424C15.1666 3.35733 15.3719 3.50963 15.6083 3.58959C15.9444 3.70241 16.2722 3.83874 16.5891 3.99759C17.048 4.22559 17.6011 4.13438 17.9631 3.77161L18.8567 2.88C19.0127 2.724 19.2663 2.724 19.4223 2.88L21.1199 4.578C21.1948 4.65298 21.2369 4.75462 21.2369 4.86061C21.2369 4.96659 21.1948 5.06824 21.1199 5.14322L20.2279 6.0368C19.8647 6.39839 19.7735 6.95241 20.0023 7.41122C20.161 7.72804 20.2972 8.05564 20.4099 8.39161C20.5739 8.87639 21.0299 9.20241 21.5419 9.20002H22.8C22.9061 9.20005 23.0078 9.24221 23.0828 9.31721C23.1578 9.39221 23.1999 9.49393 23.2 9.6V12C23.1999 12.1061 23.1578 12.2078 23.0828 12.2828C23.0078 12.3578 22.9061 12.3999 22.8 12.4H21.542C21.2924 12.399 21.0488 12.4765 20.8458 12.6216C20.6427 12.7667 20.4904 12.972 20.4104 13.2084C20.2976 13.5445 20.1613 13.8722 20.0024 14.1892C19.8911 14.413 19.853 14.6661 19.8935 14.9127C19.9341 15.1593 20.0513 15.3869 20.2284 15.5632L21.1204 16.4568C21.2764 16.6128 21.2764 16.8664 21.1204 17.0224L19.4219 18.72C19.347 18.7949 19.2453 18.8369 19.1393 18.8369C19.0334 18.8369 18.9317 18.7949 18.8567 18.72L17.5423 17.4083C17.3887 17.2495 17.1355 17.2455 16.9767 17.3992C16.8179 17.5528 16.8139 17.8059 16.9675 17.9647C16.9707 17.9679 16.9739 17.9712 16.9775 17.9744L18.2915 19.286C18.7599 19.754 19.5195 19.754 19.9879 19.286L21.6855 17.5888C22.1539 17.12 22.1539 16.3608 21.6855 15.892L20.7948 15C20.7362 14.9424 20.6973 14.8678 20.6834 14.7868C20.6696 14.7059 20.6815 14.6226 20.7176 14.5488C20.8936 14.1983 21.0445 13.8358 21.1692 13.464C21.1957 13.3864 21.246 13.3191 21.3129 13.2718C21.3798 13.2244 21.46 13.1993 21.542 13.2H22.8C23.4628 13.2 24 12.6628 24 12V9.6C24 8.93719 23.4628 8.4 22.8 8.4Z" fill="#231F20"/>
<path d="M16.8768 7.12322C14.8448 5.09564 11.5552 5.09564 9.52317 7.12322C9.36956 7.28204 9.37397 7.53521 9.53316 7.68882C9.68836 7.83839 9.93394 7.83839 10.0888 7.68882C11.7956 5.95922 14.5815 5.94043 16.3112 7.64724C18.0408 9.35405 18.0596 12.14 16.3528 13.8697C16.3388 13.8837 16.3252 13.8976 16.3112 13.9112C16.1524 14.0648 16.148 14.318 16.3016 14.4768C16.4552 14.6356 16.7084 14.6401 16.8672 14.4864L16.8768 14.4768C18.9044 12.4448 18.9044 9.15521 16.8768 7.12322Z" fill="#231F20"/>
</g>
<defs>
<clipPath id="clip0_291_1800">
<rect width="24" height="24" fill="white"/>
</clipPath>
</defs>
</svg>
