<svg width="40" height="40" viewBox="0 0 40 40" fill="none" xmlns="http://www.w3.org/2000/svg">
<g clip-path="url(#clip0_289_1466)">
<path d="M20 39.2188C30.6142 39.2188 39.2188 30.6142 39.2188 20C39.2188 9.38578 30.6142 0.78125 20 0.78125C9.38578 0.78125 0.78125 9.38578 0.78125 20C0.78125 30.6142 9.38578 39.2188 20 39.2188Z" stroke="#7210FF" stroke-miterlimit="22.9256" stroke-linecap="round" stroke-linejoin="round"/>
<path d="M20 22.8125C21.5533 22.8125 22.8125 21.5533 22.8125 20C22.8125 18.4467 21.5533 17.1875 20 17.1875C18.4467 17.1875 17.1875 18.4467 17.1875 20C17.1875 21.5533 18.4467 22.8125 20 22.8125Z" stroke="#7210FF" stroke-miterlimit="22.9256" stroke-linecap="round" stroke-linejoin="round"/>
<path fill-rule="evenodd" clip-rule="evenodd" d="M20 11.7188C24.5736 11.7188 28.2812 15.4264 28.2812 20C28.2812 24.5736 24.5736 28.2812 20 28.2812C15.4264 28.2812 11.7188 24.5736 11.7188 20C11.7188 15.4264 15.4264 11.7188 20 11.7188ZM33.75 20C33.75 12.4061 27.5939 6.25 20 6.25C12.4061 6.25 6.25 12.4061 6.25 20C6.25 27.5939 12.4061 33.75 20 33.75C27.5939 33.75 33.75 27.5939 33.75 20Z" fill="#7210FF" fill-opacity="0.4"/>
</g>
<defs>
<clipPath id="clip0_289_1466">
<rect width="40" height="40" fill="white"/>
</clipPath>
</defs>
</svg>
