<svg width="24" height="24" viewBox="0 0 24 24" fill="none" xmlns="http://www.w3.org/2000/svg">
    <g clip-path="url(#4chh0sdqsa)" stroke="#989898" stroke-width="1.5" stroke-linecap="round" stroke-linejoin="round">
        <path d="M4 13a8 8 0 0 1 7 7 6 6 0 0 0 3-5 9 9 0 0 0 6-8 3 3 0 0 0-3-3 9 9 0 0 0-8 6 6 6 0 0 0-5 3z"/>
        <path d="M7 14a6 6 0 0 0-3 6 6 6 0 0 0 6-3M14 9a1 1 0 1 0 2 0 1 1 0 0 0-2 0z"/>
    </g>
    <defs>
        <clipPath id="4chh0sdqsa">
            <path fill="#fff" d="M0 0h24v24H0z"/>
        </clipPath>
    </defs>
</svg>
