<svg width="24" height="24" viewBox="0 0 24 24" fill="none" xmlns="http://www.w3.org/2000/svg">
<g clip-path="url(#clip0_291_1713)">
<path d="M24 12C24 13.775 23.6145 15.46 22.923 16.9759C21.7407 19.5674 19.6633 21.6641 17.0865 22.872C16.6168 23.092 16.1331 23.281 15.6387 23.4377C15.0732 23.6181 14.4949 23.7555 13.9087 23.8486C13.9061 23.8492 13.9035 23.8496 13.9008 23.8497C13.6084 23.8964 13.3144 23.9322 13.0193 23.957C12.9558 23.9623 12.8923 23.9672 12.8287 23.9716C12.7386 23.9776 12.6485 23.9827 12.5583 23.9868C12.3731 23.9956 12.1871 24 12 24C11.8079 24 11.6175 23.9956 11.428 23.9863C11.3423 23.9824 11.2564 23.9775 11.1707 23.9711C11.1069 23.9668 11.043 23.9621 10.9792 23.957C10.6771 23.9316 10.376 23.8946 10.0767 23.8462C9.93497 23.8234 9.7937 23.7981 9.65292 23.7702C9.05128 23.6512 8.45979 23.4856 7.88377 23.2751C7.55435 23.155 7.23043 23.0203 6.91298 22.8715C6.80498 22.8209 6.69784 22.7684 6.59161 22.7142C6.31904 22.5764 6.05193 22.428 5.79089 22.2695C4.48552 21.479 3.34331 20.4465 2.42541 19.2343C1.87097 18.5022 1.40262 17.7087 1.02961 16.8695C0.367875 15.3817 0 13.7339 0 12C0 5.37248 5.37248 0 12 0C18.6275 0 24 5.37248 24 12Z" fill="#FFE152"/>
<path d="M9.65296 15.5726V23.7703C9.0513 23.6513 8.45979 23.4857 7.88376 23.2751C7.55434 23.1551 7.23043 23.0204 6.91298 22.8715C6.80498 22.8209 6.69784 22.7685 6.5916 22.7143C6.31903 22.5765 6.05193 22.4281 5.79088 22.2695C4.48551 21.4791 3.34331 20.4466 2.4254 19.2344C1.87096 18.5022 1.40261 17.7087 1.0296 16.8695V15.5726C1.0296 14.068 2.05134 12.8019 3.43888 12.4311C3.48977 12.4171 3.54107 12.4047 3.59273 12.3939C3.73218 12.3634 3.87356 12.3424 4.01587 12.3311C4.10432 12.3241 4.19301 12.3205 4.28174 12.3203H6.40007C6.63665 12.3203 6.86737 12.3454 7.08984 12.3939C7.10249 12.3963 7.11529 12.3993 7.12795 12.4022C7.16526 12.4106 7.20299 12.4197 7.2396 12.4296C7.24073 12.4302 7.24162 12.4302 7.24256 12.4306C7.6038 12.5272 7.94553 12.6858 8.25257 12.8993C9.09885 13.4865 9.65296 14.4647 9.65296 15.5726V15.5726Z" fill="#2BA1CF"/>
<path d="M9.65298 15.5726V23.7703C9.05132 23.6513 8.45981 23.4857 7.88377 23.2751C7.55436 23.1551 7.23044 23.0204 6.91299 22.8715C6.80499 22.8209 6.69785 22.7685 6.59162 22.7143C6.31905 22.5765 6.05194 22.4281 5.7909 22.2695C4.48552 21.4791 3.34332 20.4466 2.42542 19.2344V15.5726C2.42542 14.068 3.44715 12.8019 4.83474 12.4311C4.88561 12.4171 4.93688 12.4047 4.98849 12.3939C5.12797 12.3634 5.26936 12.3424 5.41168 12.3311C5.5002 12.3241 5.58895 12.3205 5.67774 12.3203H6.40009C6.63666 12.3203 6.86738 12.3454 7.08985 12.3939C7.10251 12.3963 7.11531 12.3993 7.12796 12.4022C7.16527 12.4106 7.20301 12.4197 7.23962 12.4296C7.24074 12.4302 7.24163 12.4302 7.24257 12.4306C7.60381 12.5272 7.94555 12.6858 8.25259 12.8993C9.09887 13.4865 9.65298 14.4647 9.65298 15.5726V15.5726Z" fill="#66BAED"/>
<path d="M7.25063 12.3936L7.24294 12.4304L6.26991 16.9559C6.17654 17.3908 5.79385 17.706 5.34929 17.7064H5.33279C4.88799 17.706 4.50549 17.3908 4.41212 16.9559L3.43908 12.4307L3.4314 12.3936L7.25063 12.3936Z" fill="#F2F0EC"/>
<path d="M5.34099 13.6518L3.87671 14.4656L3.4314 12.3937L4.34124 11.8579M5.34099 13.6518L6.80532 14.4656L7.25063 12.3937L6.34079 11.8579" fill="#D8D5D0"/>
<path d="M0.969177 11.5363V6.6312C0.969177 6.13277 1.05229 5.64443 1.21635 5.17971C1.83032 3.43291 3.48796 2.25879 5.34116 2.25879C5.5708 2.25879 5.79983 2.2766 6.02249 2.31176C7.04061 2.47085 7.97479 2.99051 8.65208 3.7751C9.33693 4.56906 9.71365 5.58268 9.71357 6.6312V11.5362" fill="#CC7A3B"/>
<path d="M2.76765 6.82279C2.76765 8.55768 3.78371 10.5649 4.34162 11.5363H0.968964V6.63131C0.968964 6.13303 1.05231 5.64473 1.21618 5.17982C1.82649 3.44311 3.46895 2.27245 5.30931 2.25928C3.96517 2.29279 2.76765 4.44942 2.76765 6.82284V6.82279Z" fill="#A35418"/>
<path d="M6.50172 11.0674V12.4916C6.50172 13.0129 6.15803 13.4536 5.68455 13.5999C5.57335 13.6344 5.45759 13.6519 5.34119 13.6517C4.70031 13.6517 4.18103 13.1325 4.18103 12.4916V11.0674H6.50172Z" fill="#EAB599"/>
<path d="M6.5017 12.4014V12.4917C6.5017 13.013 6.15802 13.4537 5.68453 13.6C5.25731 13.4687 4.93617 13.0972 4.87687 12.6427C5.17028 12.6604 5.46474 12.6454 5.75484 12.5981C6.00963 12.5571 6.25978 12.4913 6.5017 12.4014ZM2.15827 8.7336C2.15827 9.27084 1.76588 9.71634 1.25189 9.79893C1.19475 9.80823 1.13695 9.81288 1.07906 9.81285C0.483047 9.81285 0 9.32981 0 8.7336C0 8.13763 0.483047 7.65454 1.07906 7.65454C1.13798 7.65454 1.19588 7.65932 1.25189 7.66851C1.76588 7.75106 2.15827 8.19637 2.15827 8.7336Z" fill="#F6CAAE"/>
<path d="M2.15825 8.73355C2.15825 9.27079 1.76586 9.71629 1.25188 9.79888C1.15663 9.45179 1.10846 9.09347 1.10867 8.73355C1.10848 8.37371 1.15665 8.01547 1.25188 7.66846C1.76586 7.751 2.15825 8.19632 2.15825 8.73355Z" fill="#EAB599"/>
<path d="M1.46486 8.73354C1.46488 8.83584 1.42427 8.93397 1.35195 9.00632C1.27962 9.07868 1.18152 9.11934 1.07922 9.11937C0.976915 9.11939 0.878792 9.07878 0.806435 9.00646C0.734078 8.93413 0.693415 8.83603 0.69339 8.73373C0.693365 8.63143 0.733981 8.5333 0.806303 8.46095C0.878624 8.38859 0.976727 8.34793 1.07903 8.3479C1.18133 8.34788 1.27946 8.38849 1.35181 8.46081C1.42417 8.53313 1.46483 8.63124 1.46486 8.73354Z" fill="#EAB599"/>
<path d="M8.11213 7.35566V11.065C7.53885 11.6123 6.80367 11.9913 5.9857 12.1232L5.96592 12.1265C5.75927 12.1591 5.55037 12.1753 5.34117 12.175C3.12398 12.175 1.32642 10.3775 1.32642 8.16022V6.6313C1.32642 6.43555 1.34034 6.24294 1.36743 6.05469C2.3227 6.74169 3.69234 6.67377 4.56501 5.84905C4.85395 5.57605 5.05481 5.25102 5.16829 4.90625C5.23148 5.50995 5.50767 6.09753 5.99704 6.56023C6.5797 7.11027 7.34948 7.37562 8.11213 7.35566Z" fill="#EAB599"/>
<path d="M8.11213 7.35566V11.065C7.53885 11.6123 6.80366 11.9913 5.98569 12.1232L5.96591 12.1265C4.04554 11.8264 2.57666 10.1645 2.57666 8.16022V6.6313C2.57666 6.59066 2.57736 6.5502 2.57886 6.50989C3.28672 6.58241 4.0221 6.36228 4.56496 5.84886C4.85394 5.57605 5.0548 5.25087 5.16833 4.90625C5.23147 5.50995 5.50761 6.09753 5.99708 6.56023C6.57974 7.11027 7.34947 7.37562 8.11208 7.35566H8.11213Z" fill="#F6CAAE"/>
<path d="M7.49765 7.82119C7.49765 7.45275 7.19897 7.1543 6.83076 7.1543C6.46251 7.1543 6.16387 7.45275 6.16387 7.82119M4.51922 7.82119C4.51922 7.45275 4.22062 7.1543 3.85237 7.1543C3.48412 7.1543 3.18567 7.45275 3.18567 7.82119" fill="#EAB599"/>
<path d="M4.30789 8.10505C4.30789 8.35663 4.10394 8.56063 3.85236 8.56063C3.60074 8.56063 3.39697 8.35663 3.39697 8.10505C3.39697 7.85347 3.60074 7.64966 3.85236 7.64966C4.10394 7.64966 4.30789 7.85347 4.30789 8.10505ZM7.28614 8.10505C7.28614 8.35663 7.08233 8.56063 6.83075 8.56063C6.57913 8.56063 6.37536 8.35663 6.37536 8.10505C6.37536 7.85347 6.57913 7.64966 6.83075 7.64966C6.89056 7.64965 6.94977 7.66143 7.00502 7.68431C7.06028 7.7072 7.11048 7.74074 7.15276 7.78303C7.19505 7.82532 7.22858 7.87552 7.25146 7.93078C7.27434 7.98603 7.28611 8.04525 7.2861 8.10505H7.28614Z" fill="#3D4159"/>
<path d="M5.79712 9.25184H4.88615C4.83457 9.25104 4.78537 9.22999 4.74917 9.19323C4.71298 9.15647 4.69269 9.10695 4.69269 9.05536C4.69269 9.00377 4.71298 8.95425 4.74917 8.91749C4.78537 8.88073 4.83457 8.85968 4.88615 8.85889H5.79712C5.84923 8.85889 5.89921 8.87959 5.93605 8.91643C5.9729 8.95328 5.9936 9.00325 5.9936 9.05536C5.9936 9.10747 5.9729 9.15745 5.93605 9.19429C5.89921 9.23114 5.84923 9.25184 5.79712 9.25184ZM5.34155 10.4949C5.00536 10.4949 4.66917 10.4107 4.36265 10.2421C4.32116 10.2192 4.29043 10.1809 4.27722 10.1354C4.26402 10.0899 4.26942 10.041 4.29225 9.99954C4.31507 9.95804 4.35345 9.92731 4.39893 9.91411C4.44442 9.90091 4.49328 9.90631 4.53478 9.92914C5.04 10.2069 5.64314 10.2069 6.14831 9.92914C6.18981 9.90631 6.23867 9.90091 6.28416 9.91411C6.32964 9.92731 6.36802 9.95804 6.39084 9.99954C6.41367 10.041 6.41907 10.0899 6.40587 10.1354C6.39267 10.1809 6.36193 10.2192 6.32044 10.2421C6.01387 10.4107 5.67773 10.495 5.34155 10.495V10.4949Z" fill="#EAB599"/>
<path d="M4.21508 8.02458C4.21507 8.07636 4.19449 8.12601 4.15787 8.16262C4.12125 8.19922 4.07158 8.21978 4.0198 8.21977C3.96802 8.21976 3.91837 8.19917 3.88177 8.16255C3.84516 8.12593 3.8246 8.07627 3.82462 8.02449C3.82463 7.97271 3.84521 7.92305 3.88183 7.88645C3.91845 7.84984 3.96812 7.82929 4.0199 7.8293C4.07168 7.82931 4.12133 7.84989 4.15793 7.88652C4.19454 7.92314 4.2151 7.9728 4.21508 8.02458ZM7.21565 8.02458C7.21565 8.07633 7.19509 8.12596 7.1585 8.16255C7.12191 8.19914 7.07228 8.2197 7.02053 8.2197C6.96878 8.2197 6.91915 8.19914 6.88256 8.16255C6.84597 8.12596 6.82541 8.07633 6.82541 8.02458C6.82501 7.9987 6.82976 7.973 6.83939 7.94898C6.84901 7.92496 6.86332 7.90309 6.88148 7.88464C6.89964 7.8662 6.92128 7.85156 6.94515 7.84156C6.96903 7.83156 6.99465 7.82642 7.02053 7.82642C7.04641 7.82642 7.07203 7.83156 7.0959 7.84156C7.11978 7.85156 7.14142 7.8662 7.15958 7.88464C7.17774 7.90309 7.19205 7.92496 7.20167 7.94898C7.2113 7.973 7.21605 7.9987 7.21565 8.02458Z" fill="white"/>
<path d="M8.0742 9.21436C8.0742 9.49046 7.85028 9.71442 7.57395 9.71442C7.29786 9.71442 7.07389 9.4905 7.07389 9.21436C7.07389 8.93808 7.29786 8.71411 7.57395 8.71411C7.85028 8.71411 8.0742 8.93808 8.0742 9.21436ZM3.6088 9.21436C3.6088 9.49046 3.38506 9.71442 3.10874 9.71442C2.83264 9.71442 2.60867 9.4905 2.60867 9.21436C2.60867 8.93808 2.83264 8.71411 3.10874 8.71411C3.38506 8.71411 3.6088 8.93808 3.6088 9.21436Z" fill="#EAB599"/>
<path d="M22.9229 15.4736V16.9758C21.7407 19.5674 19.6633 21.6641 17.0865 22.8721C16.6167 23.092 16.1331 23.2809 15.6387 23.4377C15.0732 23.6181 14.4949 23.7554 13.9087 23.8486C13.9061 23.8492 13.9035 23.8496 13.9008 23.8496V15.4736C13.9008 13.6884 15.2758 12.2237 17.0253 12.0827C17.1178 12.075 17.2106 12.0713 17.3035 12.0715H19.5194C19.7814 12.0715 20.0365 12.1003 20.2815 12.1567C21.7939 12.5024 22.9229 13.8569 22.9229 15.4736Z" fill="#BFD5DE"/>
<path d="M22.923 15.4736V16.9758C21.7407 19.5674 19.6633 21.6641 17.0865 22.872C16.6168 23.092 16.1331 23.2809 15.6387 23.4376V15.4736C15.6387 13.5948 17.1625 12.0715 19.0419 12.0715H19.5198C21.3997 12.0715 22.923 13.5948 22.923 15.4736Z" fill="#DDE8ED"/>
<path d="M15.0813 8.31873C15.0813 8.88085 14.6708 9.34684 14.1332 9.43328C14.0734 9.44294 14.0128 9.44779 13.9522 9.44776C13.3286 9.44776 12.8232 8.9424 12.8232 8.31873C12.8232 7.69506 13.3286 7.1897 13.9522 7.1897C14.014 7.1897 14.0744 7.19462 14.1332 7.20418C14.6708 7.29076 15.0813 7.75679 15.0813 8.31873Z" fill="#D3A489"/>
<path d="M19.3253 13.2988L18.4118 14.7641L17.4983 13.2989" fill="#F74F4F"/>
<path d="M19.6408 18.9032L18.4118 20.4541L17.1826 18.9032L18.412 14.3831L19.6408 18.9032Z" fill="#F74F4F"/>
<path d="M15.0813 8.3187C15.0813 8.88082 14.6708 9.34681 14.1332 9.43324C14.0335 9.07012 13.9832 8.69525 13.9834 8.3187C13.9834 7.93305 14.0356 7.55932 14.1332 7.2041C14.6708 7.29073 15.0813 7.75676 15.0813 8.3187Z" fill="#BF8E75"/>
<path d="M14.3558 8.31869C14.3558 8.37169 14.3454 8.42417 14.3251 8.47314C14.3048 8.5221 14.2751 8.5666 14.2376 8.60407C14.2002 8.64155 14.1557 8.67128 14.1067 8.69156C14.0577 8.71184 14.0052 8.72228 13.9522 8.72228C13.7295 8.72228 13.5489 8.54153 13.5489 8.31869C13.5489 8.09585 13.7295 7.91528 13.9522 7.91528C14.1751 7.91528 14.3558 8.09585 14.3558 8.31869Z" fill="#BF8E75"/>
<path d="M18.4114 13.4644L16.8795 14.3158L16.4136 12.148L17.3654 11.5874M18.4114 13.4644L19.9435 14.3158L20.4095 12.148L19.4575 11.5874" fill="#BFD5DE"/>
<path d="M21.7419 8.31873C21.7419 8.88085 22.1525 9.34684 22.6901 9.43328C22.7489 9.44279 22.8093 9.44776 22.871 9.44776C23.4946 9.44776 24 8.9424 24 8.31873C24 7.69506 23.4946 7.1897 22.871 7.1897C22.8093 7.1897 22.7489 7.19462 22.69 7.20418C22.1525 7.29076 21.7419 7.75679 21.7419 8.31873Z" fill="#D3A489"/>
<path d="M21.7419 8.3187C21.7419 8.88082 22.1525 9.34681 22.6901 9.43324C22.7898 9.07014 22.8402 8.69525 22.8398 8.3187C22.8398 7.93305 22.7878 7.55932 22.6901 7.2041C22.1524 7.29073 21.7419 7.75676 21.7419 8.3187Z" fill="#BF8E75"/>
<path d="M23.2745 8.31869C23.2729 8.42465 23.2297 8.52573 23.1542 8.60009C23.0787 8.67445 22.9769 8.71613 22.871 8.71613C22.765 8.71613 22.6633 8.67445 22.5878 8.60009C22.5122 8.52573 22.469 8.42465 22.4674 8.31869C22.4674 8.09585 22.6481 7.91528 22.871 7.91528C23.0938 7.91528 23.2745 8.09585 23.2745 8.31869Z" fill="#BF8E75"/>
<path d="M22.6124 7.71865C22.6124 9.80899 21.0853 11.5432 19.0858 11.8651C18.8629 11.9014 18.6374 11.9196 18.4116 11.9193C16.0915 11.9193 14.211 10.0388 14.211 7.71865C14.211 6.62093 14.5922 4.97299 15.2816 4.22463C16.0492 3.39133 17.1892 3.51785 18.4116 3.51785C18.6414 3.51785 18.8664 3.53613 19.0858 3.57223C21.0853 3.89412 22.6124 5.62816 22.6124 7.71865Z" fill="#BF8E75"/>
<path d="M19.6258 10.7605V12.2504C19.6258 12.7959 19.2662 13.2569 18.7707 13.41C18.6543 13.446 18.5332 13.4643 18.4114 13.4642C17.7411 13.4642 17.1976 12.9208 17.1976 12.2504V10.7605H19.6258Z" fill="#BF8E75"/>
<path d="M19.6258 12.156V12.2505C19.6258 12.7959 19.2662 13.257 18.7707 13.4101C18.3237 13.2727 17.9877 12.884 17.9257 12.4085C18.2327 12.4268 18.5409 12.4112 18.8445 12.3618C19.111 12.3189 19.3727 12.25 19.6258 12.156V12.156ZM22.6124 7.71858C22.6124 9.80893 21.0853 11.5431 19.0858 11.865C17.0865 11.5431 15.5594 9.80893 15.5594 7.71858C15.5594 6.4314 16.1384 5.27926 17.0504 4.50858C17.6192 4.02774 18.3177 3.69577 19.0858 3.57202C20.9499 3.87207 22.4039 5.40015 22.5917 7.29966C22.6055 7.43752 22.6124 7.5774 22.6124 7.71858Z" fill="#D3A489"/>
<path d="M18.4118 9.78756C18.0598 9.78756 17.7083 9.69953 17.3877 9.52319C17.3661 9.5114 17.3471 9.49547 17.3318 9.47632C17.3164 9.45718 17.305 9.43519 17.2981 9.41161C17.2912 9.38804 17.2891 9.36334 17.2918 9.33894C17.2945 9.31454 17.302 9.29091 17.3139 9.26941C17.3257 9.2479 17.3416 9.22893 17.3608 9.21359C17.3799 9.19825 17.4019 9.18683 17.4255 9.17999C17.4491 9.17316 17.4738 9.17104 17.4982 9.17375C17.5225 9.17647 17.5462 9.18396 17.5677 9.19581C18.0961 9.4862 18.7273 9.4862 19.2559 9.19581C19.2774 9.18397 19.301 9.17649 19.3254 9.17378C19.3497 9.17107 19.3744 9.17319 19.398 9.18003C19.4215 9.18686 19.4435 9.19828 19.4626 9.21361C19.4818 9.22895 19.4977 9.24791 19.5095 9.26941C19.5214 9.2909 19.5288 9.31452 19.5316 9.33891C19.5343 9.3633 19.5322 9.38799 19.5253 9.41156C19.5185 9.43513 19.5071 9.45712 19.4917 9.47627C19.4764 9.49543 19.4574 9.51137 19.4359 9.52319C19.1153 9.69953 18.7633 9.78756 18.4118 9.78756Z" fill="#BF8E75"/>
<path d="M17.5172 7.47423C17.5172 7.73734 17.3038 7.95062 17.0405 7.95062C16.7774 7.95062 16.5641 7.73734 16.5641 7.47418C16.5641 7.21089 16.7774 6.99756 17.0405 6.99756C17.3038 6.99756 17.5171 7.21089 17.5171 7.47418L17.5172 7.47423ZM20.2594 7.47423C20.2594 7.73734 20.046 7.95062 19.7829 7.95062C19.5196 7.95062 19.3063 7.73734 19.3063 7.47418C19.3063 7.21089 19.5196 6.99756 19.7829 6.99756C20.046 6.99756 20.2593 7.21089 20.2593 7.47418L20.2594 7.47423Z" fill="#3D4159"/>
<path d="M17.4199 7.38993C17.4199 7.50276 17.3285 7.59431 17.2158 7.59431C17.1625 7.59291 17.1119 7.57078 17.0748 7.53262C17.0376 7.49447 17.0168 7.44331 17.0168 7.39005C17.0168 7.33679 17.0376 7.28563 17.0748 7.24747C17.1119 7.20932 17.1625 7.18719 17.2158 7.18579C17.2699 7.18582 17.3218 7.20733 17.3601 7.24561C17.3984 7.28389 17.4199 7.3358 17.4199 7.38993ZM20.1855 7.38993C20.1855 7.50276 20.0941 7.59431 19.9814 7.59431C19.9282 7.59291 19.8776 7.57078 19.8404 7.53262C19.8032 7.49447 19.7824 7.44331 19.7824 7.39005C19.7824 7.33679 19.8032 7.28563 19.8404 7.24747C19.8776 7.20932 19.9282 7.18719 19.9814 7.18579C20.0355 7.18582 20.0875 7.20733 20.1257 7.24561C20.164 7.28389 20.1855 7.3358 20.1855 7.38993Z" fill="white"/>
<path d="M18.8883 8.67379H17.9352C17.8806 8.67379 17.8284 8.65213 17.7898 8.61359C17.7513 8.57504 17.7296 8.52276 17.7296 8.46824C17.7296 8.41373 17.7513 8.36145 17.7898 8.3229C17.8284 8.28435 17.8806 8.2627 17.9352 8.2627H18.8882C18.9427 8.2627 18.995 8.28435 19.0336 8.3229C19.0721 8.36145 19.0938 8.41373 19.0938 8.46824C19.0938 8.52276 19.0721 8.57504 19.0336 8.61359C18.995 8.65213 18.9427 8.67379 18.8882 8.67379H18.8883Z" fill="#BF8E75"/>
<path d="M19.7948 15.3623H21.626V15.9228H19.7948V15.3623Z" fill="#BFD5DE"/>
<path d="M18.1659 2.31791C19.4384 2.4087 20.4602 3.43663 20.5248 4.73066L20.5369 4.97361H21.269L21.6632 7.59533L22.6181 7.29978L22.4899 4.73084C22.4222 3.37147 21.2979 2.30614 19.9374 2.3113L18.1659 2.31791Z" fill="#2A2F4F"/>
<path d="M22.409 1.30396C23.4223 2.3173 23.4223 3.96027 22.409 4.97361C21.3957 5.98691 19.7527 5.98691 18.7393 4.97361L22.409 1.30396Z" fill="#3D4159"/>
<path d="M18.7393 4.97341H15.5548L15.1604 7.59527L14.2055 7.29973L14.3335 4.7306C14.4013 3.3716 15.5255 2.3059 16.8861 2.31105L21.4856 2.3284L22.0937 3.42284" fill="#3D4159"/>
<path d="M18.6575 2.31791C17.3849 2.4087 16.3632 3.43663 16.2986 4.73066L16.2865 4.97361H15.5546L15.1602 7.59533L14.2053 7.29978L14.3335 4.73084C14.4013 3.37147 15.5255 2.30614 16.886 2.3113L18.6575 2.31791Z" fill="#2A2F4F"/>
<path d="M17.0865 21.9724V22.8722C15.5422 23.5957 13.8186 24.0001 12 24.0001C10.1814 24.0001 8.45729 23.5956 6.91299 22.8716V21.9724C6.91299 20.1968 8.11834 18.7034 9.75568 18.2656C9.81572 18.2494 9.87616 18.2347 9.93695 18.2215C10.1015 18.186 10.2683 18.1614 10.4361 18.1481C10.5406 18.1395 10.6453 18.1353 10.7501 18.1353H13.249C13.5286 18.1353 13.8005 18.1647 14.0631 18.2215C14.0783 18.2244 14.0934 18.2279 14.1081 18.2313C14.1522 18.2417 14.1962 18.2524 14.2398 18.2642C14.2414 18.2645 14.2418 18.2645 14.2432 18.2651C14.6693 18.3791 15.0724 18.5662 15.4345 18.818C16.4332 19.5108 17.0865 20.6651 17.0865 21.9724Z" fill="#3D4159"/>
<path d="M14.2526 18.2214L14.2432 18.265L13.0193 23.957C12.9559 23.9624 12.8923 23.9673 12.8288 23.9717C12.7387 23.9777 12.6485 23.9827 12.5583 23.9869C12.3731 23.9956 12.1871 24 12 24C11.8079 24 11.6175 23.9956 11.428 23.9863C11.3423 23.9825 11.2564 23.9775 11.1707 23.9711C11.1069 23.9669 11.043 23.9622 10.9792 23.957L9.75563 18.2655L9.74649 18.2214H14.2526Z" fill="#66BAED"/>
<path d="M13.0298 19.5198L11.9996 21.1717L10.9697 19.5198" fill="#3D4159"/>
<path d="M12.8288 23.9717C12.7387 23.9777 12.6485 23.9828 12.5583 23.9869C12.3731 23.9957 12.1871 24.0001 12 24.0001C11.8079 24.0001 11.6175 23.9957 11.428 23.9863C11.3423 23.9825 11.2564 23.9776 11.1707 23.9712L12 20.7419L12.8288 23.9717Z" fill="#3D4159"/>
<path d="M11.9994 19.7059L10.2719 20.6659L9.74634 18.2216L10.8197 17.5894M11.9994 19.7059L13.7269 20.6659L14.2523 18.2216L13.179 17.5894" fill="#2BA1CF"/>
<path d="M14.3177 21.5203H14.8658L13.9087 23.8486C13.4615 23.9203 13.0107 23.9665 12.5583 23.9869L14.2397 18.2641L14.2526 18.2214L15.4345 18.6074L14.3177 21.5203ZM11.428 23.9863C10.9752 23.9654 10.5241 23.9187 10.0767 23.8462L9.12045 21.5203H9.66852L8.55139 18.6074L9.73367 18.2214L9.74652 18.2641L11.428 23.9863Z" fill="#2A2F4F"/>
<path d="M13.3688 16.657V18.337C13.3688 18.9522 12.9631 19.4721 12.4045 19.6447C12.2733 19.6854 12.1366 19.706 11.9993 19.7059C11.2432 19.7059 10.6306 19.093 10.6306 18.337V16.657L13.3688 16.657Z" fill="#EAB599"/>
<path d="M13.3687 18.2306V18.3372C13.3687 18.9522 12.9631 19.472 12.4045 19.6449C11.9004 19.4898 11.5213 19.0517 11.4514 18.5153C11.7976 18.5361 12.1451 18.5184 12.4874 18.4628C12.7881 18.4143 13.0832 18.3366 13.3687 18.2306H13.3687ZM8.24413 13.9035C8.24413 14.5372 7.78105 15.0627 7.17477 15.1603C7.10739 15.1711 7.03925 15.1766 6.97101 15.1766C6.26769 15.1766 5.69769 14.6068 5.69769 13.9035C5.69769 13.2002 6.26751 12.6301 6.97101 12.6301C7.04038 12.6301 7.10849 12.6358 7.17477 12.6466C7.78105 12.7442 8.24413 13.2698 8.24413 13.9035Z" fill="#F6CAAE"/>
<path d="M8.24414 13.9036C8.24414 14.5373 7.78106 15.0628 7.17478 15.1604C7.06244 14.7509 7.00567 14.3282 7.00598 13.9035C7.00598 13.4685 7.06476 13.0471 7.17478 12.6467C7.78106 12.7443 8.24414 13.2699 8.24414 13.9036Z" fill="#EAB599"/>
<path d="M7.42602 13.9035C7.42602 14.1548 7.22221 14.3585 6.97101 14.3585C6.71962 14.3585 6.51599 14.1548 6.51599 13.9035C6.51597 13.8437 6.52773 13.7846 6.55059 13.7294C6.57345 13.6741 6.60697 13.624 6.64922 13.5817C6.69148 13.5395 6.74165 13.5059 6.79686 13.4831C6.85207 13.4602 6.91125 13.4485 6.97101 13.4485C7.22226 13.4485 7.42602 13.6522 7.42602 13.9035Z" fill="#EAB599"/>
<path d="M15.7549 13.9035C15.7549 14.5372 16.218 15.0627 16.8243 15.1603C16.8904 15.1709 16.9587 15.1766 17.0281 15.1766C17.7314 15.1766 18.3014 14.6068 18.3014 13.9035C18.3014 13.2002 17.7315 12.6301 17.0281 12.6301C16.9587 12.6301 16.8904 12.6358 16.8243 12.6466C16.218 12.7442 15.7549 13.2698 15.7549 13.9035Z" fill="#F6CAAE"/>
<path d="M15.7549 13.9036C15.7549 14.5373 16.218 15.0628 16.8243 15.1604C16.9366 14.7509 16.9934 14.3282 16.9931 13.9035C16.9931 13.4685 16.9343 13.0471 16.8243 12.6467C16.218 12.7443 15.7549 13.2699 15.7549 13.9036Z" fill="#EAB599"/>
<path d="M16.7366 11.4231V13.2269C16.7366 15.5842 15.0145 17.5396 12.7597 17.9025L12.7366 17.9064C12.4968 17.9448 12.2507 17.9637 11.9994 17.9637C9.38343 17.9637 7.26285 15.8429 7.26285 13.2271V11.4231C7.26285 10.8723 7.35679 10.343 7.53036 9.85118C8.17818 8.00768 9.93472 6.68604 11.9994 6.68604H11.9998C12.2507 6.68604 12.4971 6.70544 12.7373 6.74332C15.0031 7.09727 16.7366 9.058 16.7366 11.4231Z" fill="#EAB599"/>
<path d="M17.4831 13.9035C17.4831 14.1548 17.2795 14.3585 17.0281 14.3585C16.7769 14.3585 16.5731 14.1548 16.5731 13.9035C16.5731 13.6521 16.7769 13.4485 17.0281 13.4485C17.0879 13.4485 17.147 13.4602 17.2023 13.4831C17.2575 13.5059 17.3076 13.5395 17.3499 13.5817C17.3921 13.624 17.4257 13.6741 17.4485 13.7294C17.4714 13.7846 17.4831 13.8438 17.4831 13.9035Z" fill="#EAB599"/>
<path d="M16.7364 11.4232V13.227C16.7364 15.5841 15.0145 17.5397 12.7597 17.9026L12.7365 17.9065C10.4709 17.5523 8.73779 15.5918 8.73779 13.227V11.4233C8.73779 9.05805 10.4712 7.09736 12.7374 6.74341C15.0031 7.09736 16.7364 9.0581 16.7364 11.4232Z" fill="#F6CAAE"/>
<path d="M10.9907 12.9511C10.9907 13.2478 10.7501 13.4884 10.4535 13.4884C10.1567 13.4884 9.91608 13.2478 9.91608 12.951C9.91608 12.6544 10.1567 12.4138 10.4535 12.4138C10.7501 12.4138 10.9907 12.6544 10.9907 12.951L10.9907 12.9511ZM14.0832 12.9511C14.0832 13.2478 13.8426 13.4884 13.5458 13.4884C13.249 13.4884 13.0084 13.2478 13.0084 12.951C13.0084 12.6544 13.249 12.4138 13.5458 12.4138C13.8426 12.4138 14.0832 12.6544 14.0832 12.951V12.9511Z" fill="#3D4159"/>
<path d="M10.8812 12.8563C10.8812 12.9174 10.8569 12.9759 10.8137 13.0191C10.7705 13.0623 10.712 13.0865 10.6509 13.0865C10.5898 13.0865 10.5313 13.0622 10.4881 13.019C10.445 12.9758 10.4207 12.9172 10.4207 12.8561C10.4208 12.8259 10.4267 12.796 10.4383 12.768C10.4499 12.7401 10.4669 12.7147 10.4883 12.6933C10.5096 12.672 10.535 12.655 10.563 12.6435C10.5909 12.6319 10.6209 12.626 10.6511 12.626C10.6813 12.626 10.7113 12.632 10.7392 12.6435C10.7671 12.6551 10.7925 12.6721 10.8139 12.6935C10.8352 12.7149 10.8522 12.7403 10.8638 12.7682C10.8753 12.7961 10.8813 12.8261 10.8812 12.8563ZM13.9999 12.8563C13.9999 12.8866 13.9939 12.9165 13.9823 12.9444C13.9707 12.9724 13.9538 12.9977 13.9324 13.0191C13.911 13.0405 13.8856 13.0574 13.8577 13.069C13.8297 13.0805 13.7998 13.0865 13.7695 13.0865C13.7393 13.0865 13.7094 13.0805 13.6814 13.0689C13.6535 13.0573 13.6281 13.0404 13.6068 13.019C13.5854 12.9976 13.5684 12.9722 13.5569 12.9443C13.5453 12.9163 13.5394 12.8864 13.5394 12.8561C13.5394 12.7951 13.5637 12.7365 13.6069 12.6933C13.6501 12.6502 13.7087 12.626 13.7697 12.626C13.8308 12.626 13.8894 12.6503 13.9325 12.6935C13.9757 12.7367 13.9999 12.7953 13.9999 12.8563Z" fill="white"/>
<path d="M12.5371 14.0935H11.4622C11.4015 14.0923 11.3438 14.0673 11.3013 14.024C11.2588 13.9806 11.235 13.9224 11.235 13.8617C11.235 13.801 11.2588 13.7427 11.3013 13.6994C11.3438 13.6561 11.4015 13.6311 11.4622 13.6299H12.5371C12.665 13.6299 12.7689 13.7335 12.7689 13.8617C12.7688 13.9231 12.7443 13.982 12.7009 14.0255C12.6574 14.069 12.5985 14.0934 12.5371 14.0935ZM11.9996 15.56C11.6031 15.56 11.2062 15.4606 10.8448 15.2617C10.8205 15.2484 10.7991 15.2304 10.7818 15.2088C10.7645 15.1873 10.7516 15.1625 10.7439 15.1359C10.7362 15.1093 10.7338 15.0815 10.7368 15.054C10.7399 15.0265 10.7483 14.9999 10.7617 14.9757C10.7886 14.9267 10.8339 14.8904 10.8875 14.8748C10.9412 14.8592 10.9989 14.8655 11.0479 14.8924C11.6439 15.2201 12.3554 15.2201 12.9514 14.8924C12.9757 14.879 13.0023 14.8706 13.0299 14.8676C13.0574 14.8646 13.0852 14.867 13.1118 14.8747C13.1384 14.8824 13.1632 14.8953 13.1847 14.9127C13.2063 14.93 13.2243 14.9514 13.2376 14.9757C13.251 14.9999 13.2594 15.0265 13.2624 15.054C13.2655 15.0815 13.2631 15.1093 13.2554 15.1359C13.2476 15.1625 13.2347 15.1873 13.2174 15.2088C13.2001 15.2304 13.1787 15.2484 13.1545 15.2617C12.7929 15.4605 12.3962 15.56 11.9996 15.56Z" fill="#EAB599"/>
<path d="M16.7366 9.7863V11.634H15.8549V10.187L9.49093 9.00447L8.14435 8.75416V11.634H7.26273V9.78616C7.26273 7.67969 8.96996 5.97241 11.0761 5.97241H12.9232C12.9734 5.97241 13.0235 5.97335 13.0737 5.97588C15.1097 6.05426 16.7365 7.73004 16.7365 9.78635L16.7366 9.7863Z" fill="#2A2F4F"/>
<path d="M16.7366 9.78625V11.634H15.8549V10.1869L9.49094 9.00442C9.84156 7.3202 11.3027 6.04413 13.0737 5.97583C15.1097 6.05421 16.7365 7.72999 16.7365 9.7863L16.7366 9.78625Z" fill="#3D4159"/>
</g>
<defs>
<clipPath id="clip0_291_1713">
<rect width="24" height="24" fill="white"/>
</clipPath>
</defs>
</svg>
