<svg width="32" height="32" viewBox="0 0 32 32" fill="none" xmlns="http://www.w3.org/2000/svg">
<path d="M23.285 8.53491H8.715C6.73516 8.53491 4.83641 9.3214 3.43645 10.7214C2.03649 12.1213 1.25 14.0201 1.25 15.9999C1.25 17.9798 2.03649 19.8785 3.43645 21.2785C4.83641 22.6784 6.73516 23.4649 8.715 23.4649H23.285C25.2648 23.4649 27.1636 22.6784 28.5636 21.2785C29.9635 19.8785 30.75 17.9798 30.75 15.9999C30.75 14.0201 29.9635 12.1213 28.5636 10.7214C27.1636 9.3214 25.2648 8.53491 23.285 8.53491ZM23.285 21.9649H8.715C7.13298 21.9649 5.61576 21.3365 4.49711 20.2178C3.37845 19.0991 2.75 17.5819 2.75 15.9999C2.75 14.4179 3.37845 12.9007 4.49711 11.782C5.61576 10.6634 7.13298 10.0349 8.715 10.0349H23.285C24.867 10.0349 26.3842 10.6634 27.5029 11.782C28.6215 12.9007 29.25 14.4179 29.25 15.9999C29.25 17.5819 28.6215 19.0991 27.5029 20.2178C26.3842 21.3365 24.867 21.9649 23.285 21.9649Z" fill="#989898"/>
<path d="M8.93 10.855C7.91221 10.854 6.91698 11.1549 6.07023 11.7196C5.22348 12.2844 4.56326 13.0876 4.17308 14.0276C3.7829 14.9676 3.6803 16.0023 3.87825 17.0007C4.07621 17.999 4.56583 18.9162 5.28517 19.6363C6.00451 20.3563 6.92125 20.8468 7.91942 21.0458C8.91759 21.2447 9.95233 21.1431 10.8928 20.7538C11.8332 20.3646 12.637 19.7051 13.2026 18.8589C13.7681 18.0127 14.07 17.0178 14.07 16C14.0674 14.6371 13.5251 13.3308 12.5619 12.3666C11.5987 11.4024 10.2929 10.8589 8.93 10.855Z" fill="#989898"/>
</svg>
