<svg width="24" height="24" viewBox="0 0 24 24" fill="none" xmlns="http://www.w3.org/2000/svg">
<path d="M20.042 20.0205L16.4029 23.2847V20.0205H20.042Z" fill="#FFCFCF"/>
<path d="M20.042 1.18164V20.0205H16.4029V23.2847H4.42435C4.3631 23.2848 4.30243 23.2727 4.24583 23.2493C4.18922 23.2259 4.13779 23.1916 4.09448 23.1483C4.05117 23.1049 4.01682 23.0535 3.99341 22.9969C3.97 22.9403 3.95798 22.8796 3.95804 22.8184V1.18164C3.95798 1.12039 3.97 1.05973 3.99341 1.00312C4.01682 0.946518 4.05117 0.895088 4.09448 0.851774C4.13779 0.808461 4.18922 0.774115 4.24583 0.750703C4.30243 0.72729 4.3631 0.715271 4.42435 0.715332H19.5757C19.6369 0.715283 19.6976 0.727311 19.7542 0.750728C19.8108 0.774145 19.8622 0.808491 19.9055 0.851802C19.9488 0.895113 19.9832 0.946538 20.0066 1.00314C20.03 1.05973 20.042 1.12039 20.042 1.18164Z" fill="#FFE2E2"/>
<path d="M5.82329 23.2847H4.42435C4.3631 23.2848 4.30243 23.2727 4.24583 23.2493C4.18922 23.2259 4.13779 23.1916 4.09448 23.1483C4.05117 23.1049 4.01682 23.0535 3.99341 22.9969C3.97 22.9403 3.95798 22.8796 3.95804 22.8184V1.18164C3.95798 1.12039 3.97 1.05973 3.99341 1.00312C4.01682 0.946518 4.05117 0.895088 4.09448 0.851774C4.13779 0.808461 4.18922 0.774115 4.24583 0.750703C4.30243 0.72729 4.3631 0.715271 4.42435 0.715332H5.82329C5.76203 0.715271 5.70137 0.72729 5.64477 0.750703C5.58816 0.774115 5.53673 0.808461 5.49342 0.851774C5.4501 0.895088 5.41576 0.946518 5.39235 1.00312C5.36893 1.05973 5.35691 1.12039 5.35698 1.18164V22.8183C5.35691 22.8796 5.36893 22.9402 5.39234 22.9968C5.41576 23.0534 5.4501 23.1049 5.49341 23.1482C5.53672 23.1915 5.58815 23.2259 5.64476 23.2493C5.70136 23.2727 5.76203 23.2848 5.82329 23.2847Z" fill="#FFEFEE"/>
<path d="M20.042 1.18164V20.0205H18.643V1.18164C18.6431 1.12039 18.6311 1.05973 18.6077 1.00312C18.5843 0.946518 18.5499 0.895088 18.5066 0.851774C18.4633 0.808461 18.4119 0.774115 18.3553 0.750703C18.2986 0.72729 18.238 0.715271 18.1767 0.715332H19.5757C19.6369 0.715283 19.6976 0.727311 19.7542 0.750728C19.8108 0.774145 19.8622 0.808491 19.9055 0.851802C19.9488 0.895113 19.9832 0.946538 20.0066 1.00314C20.03 1.05973 20.042 1.12039 20.042 1.18164Z" fill="#FFCFCF"/>
<path d="M6.41025 3.00269H8.77987V5.37231H6.41025V3.00269ZM6.41025 7.99825H8.77987V10.3679H6.41025V7.99825ZM6.41025 12.9939H8.77987V15.3635H6.41025V12.9939ZM6.41025 17.9896H8.77987V20.3592H6.41025V17.9896Z" fill="#5FCDFF"/>
<path d="M20.4169 1.18164C20.4169 0.71777 20.0395 0.340332 19.5756 0.340332H4.42435C3.96048 0.340332 3.58304 0.71777 3.58304 1.18164V22.8183C3.58304 23.2822 3.96038 23.6596 4.42435 23.6596H16.4029C16.4966 23.6596 16.5901 23.6203 16.6532 23.5638L20.2922 20.2996C20.3638 20.2352 20.4168 20.1273 20.4168 20.0204V1.18164H20.4169ZM16.0279 22.9097H4.42435C4.41232 22.9098 4.40039 22.9076 4.38926 22.903C4.37812 22.8985 4.36801 22.8917 4.3595 22.8832C4.351 22.8747 4.34428 22.8646 4.33973 22.8535C4.33519 22.8424 4.33291 22.8304 4.33304 22.8184V1.18164C4.33304 1.13046 4.37316 1.09033 4.42435 1.09033H19.5756C19.6268 1.09033 19.6669 1.13046 19.6669 1.18164V19.6454H16.4029C16.3034 19.6454 16.208 19.6849 16.1377 19.7553C16.0674 19.8256 16.0279 19.921 16.0279 20.0204V22.9097ZM19.0623 20.3955L16.7779 22.4446V20.3955H19.0623Z" fill="#5F266D"/>
<path d="M10.5713 4.5625H17.5897C17.6892 4.5625 17.7846 4.52299 17.8549 4.45266C17.9252 4.38234 17.9647 4.28695 17.9647 4.1875C17.9647 4.08804 17.9252 3.99266 17.8549 3.92233C17.7846 3.85201 17.6892 3.8125 17.5897 3.8125H10.5713C10.4719 3.8125 10.3765 3.85201 10.3062 3.92233C10.2359 3.99266 10.1963 4.08804 10.1963 4.1875C10.1963 4.28695 10.2359 4.38234 10.3062 4.45266C10.3765 4.52299 10.4719 4.5625 10.5713 4.5625ZM8.77978 2.62769H6.41025C6.31079 2.62769 6.21541 2.66719 6.14508 2.73752C6.07476 2.80785 6.03525 2.90323 6.03525 3.00269V5.37231C6.03525 5.47177 6.07476 5.56715 6.14508 5.63748C6.21541 5.7078 6.31079 5.74731 6.41025 5.74731H8.77978C8.87924 5.74731 8.97462 5.7078 9.04494 5.63748C9.11527 5.56715 9.15478 5.47177 9.15478 5.37231V3.00269C9.15478 2.90323 9.11527 2.80785 9.04494 2.73752C8.97462 2.66719 8.87924 2.62769 8.77978 2.62769ZM8.40478 4.99731H6.78525V3.37769H8.40478V4.99731ZM10.5713 9.55806H17.5897C17.6892 9.55806 17.7846 9.51855 17.8549 9.44823C17.9252 9.3779 17.9647 9.28252 17.9647 9.18306C17.9647 9.0836 17.9252 8.98822 17.8549 8.9179C17.7846 8.84757 17.6892 8.80806 17.5897 8.80806H10.5713C10.4719 8.80806 10.3765 8.84757 10.3062 8.9179C10.2359 8.98822 10.1963 9.0836 10.1963 9.18306C10.1963 9.28252 10.2359 9.3779 10.3062 9.44823C10.3765 9.51855 10.4719 9.55806 10.5713 9.55806ZM8.77978 7.62325H6.41025C6.31079 7.62325 6.21541 7.66276 6.14508 7.73308C6.07476 7.80341 6.03525 7.89879 6.03525 7.99825V10.3679C6.03525 10.4673 6.07476 10.5627 6.14508 10.633C6.21541 10.7034 6.31079 10.7429 6.41025 10.7429H8.77978C8.87924 10.7429 8.97462 10.7034 9.04494 10.633C9.11527 10.5627 9.15478 10.4673 9.15478 10.3679V7.99825C9.15478 7.89879 9.11527 7.80341 9.04494 7.73308C8.97462 7.66276 8.87924 7.62325 8.77978 7.62325ZM8.40478 9.99287H6.78525V8.37325H8.40478V9.99287ZM17.9647 14.1787C17.9647 14.0793 17.9252 13.9839 17.8549 13.9136C17.7846 13.8432 17.6892 13.8037 17.5897 13.8037H10.5713C10.4719 13.8037 10.3765 13.8432 10.3062 13.9136C10.2359 13.9839 10.1963 14.0793 10.1963 14.1787C10.1963 14.2782 10.2359 14.3736 10.3062 14.4439C10.3765 14.5142 10.4719 14.5537 10.5713 14.5537H17.5897C17.6892 14.5537 17.7846 14.5142 17.8549 14.4439C17.9252 14.3736 17.9647 14.2782 17.9647 14.1787ZM8.77978 12.6189H6.41025C6.31079 12.6189 6.21541 12.6584 6.14508 12.7287C6.07476 12.7991 6.03525 12.8944 6.03525 12.9939V15.3635C6.03525 15.463 6.07476 15.5584 6.14508 15.6287C6.21541 15.699 6.31079 15.7385 6.41025 15.7385H8.77978C8.87924 15.7385 8.97462 15.699 9.04494 15.6287C9.11527 15.5584 9.15478 15.463 9.15478 15.3635V12.9939C9.15478 12.8944 9.11527 12.7991 9.04494 12.7287C8.97462 12.6584 8.87924 12.6189 8.77978 12.6189ZM8.40478 14.9885H6.78525V13.3689H8.40478V14.9885ZM12.4463 18.7993H10.5713C10.4719 18.7993 10.3765 18.8388 10.3062 18.9091C10.2359 18.9794 10.1963 19.0748 10.1963 19.1743C10.1963 19.2737 10.2359 19.3691 10.3062 19.4394C10.3765 19.5098 10.4719 19.5493 10.5713 19.5493H12.4463C12.5458 19.5493 12.6412 19.5098 12.7115 19.4394C12.7818 19.3691 12.8213 19.2737 12.8213 19.1743C12.8213 19.0748 12.7818 18.9794 12.7115 18.9091C12.6412 18.8388 12.5458 18.7993 12.4463 18.7993ZM14.5938 18.7993H13.8526C13.7531 18.7993 13.6578 18.8388 13.5874 18.9091C13.5171 18.9794 13.4776 19.0748 13.4776 19.1743C13.4776 19.2737 13.5171 19.3691 13.5874 19.4394C13.6578 19.5098 13.7531 19.5493 13.8526 19.5493H14.5938C14.6932 19.5493 14.7886 19.5098 14.8589 19.4394C14.9293 19.3691 14.9688 19.2737 14.9688 19.1743C14.9688 19.0748 14.9293 18.9794 14.8589 18.9091C14.7886 18.8388 14.6932 18.7993 14.5938 18.7993ZM8.77978 17.6146H6.41025C6.31079 17.6146 6.21541 17.6541 6.14508 17.7244C6.07476 17.7947 6.03525 17.8901 6.03525 17.9896V20.3592C6.03525 20.4586 6.07476 20.554 6.14508 20.6243C6.21541 20.6947 6.31079 20.7342 6.41025 20.7342H8.77978C8.87924 20.7342 8.97462 20.6947 9.04494 20.6243C9.11527 20.554 9.15478 20.4586 9.15478 20.3592V17.9896C9.15478 17.8901 9.11527 17.7947 9.04494 17.7244C8.97462 17.6541 8.87924 17.6146 8.77978 17.6146ZM8.40478 19.9842H6.78525V18.3646H8.40478V19.9842Z" fill="#5F266D"/>
</svg>
