<svg width="28" height="28" viewBox="0 0 28 28" fill="none" xmlns="http://www.w3.org/2000/svg">
    <g clip-path="url(#7085fx2wga)" fill="#7210FF">
        <path d="m13.234 15.367-3.281 3.429-2.734-3.429-4.485 4.375v4.922h15.969l-5.469-9.297z" fill-opacity=".24"/>
        <path d="M18.703 10.993H2.734a.547.547 0 0 0-.547.546v13.125c0 .302.245.547.547.547h15.969a.547.547 0 0 0 .547-.547V11.54a.547.547 0 0 0-.547-.546zm-.547 13.124H3.28v-12.03h14.875v12.03z"/>
        <path d="M27.359 11.297 17.305 1.243a2.186 2.186 0 0 0-3.094 0L6.65 8.805H2.187A2.19 2.19 0 0 0 0 10.993V25.21a2.19 2.19 0 0 0 2.187 2.187H19.25a2.19 2.19 0 0 0 2.187-2.187v-4.899l5.922-5.922a2.186 2.186 0 0 0 0-3.093zM20.343 25.21c0 .603-.49 1.094-1.093 1.094H2.187c-.603 0-1.093-.49-1.093-1.094V10.993c0-.604.49-1.094 1.093-1.094H19.25c.603 0 1.093.49 1.093 1.094V25.21zm6.242-11.594-5.148 5.148v-7.773a2.19 2.19 0 0 0-2.187-2.187H8.196l6.789-6.789a1.093 1.093 0 0 1 1.546 0L26.585 12.07c.428.428.428 1.12 0 1.547z"/>
    </g>
    <defs>
        <clipPath id="7085fx2wga">
            <path fill="#fff" d="M0 0h28v28H0z"/>
        </clipPath>
    </defs>
</svg>
