<svg width="16" height="16" viewBox="0 0 16 16" fill="none" xmlns="http://www.w3.org/2000/svg">
<path d="M5.99997 1.33325C4.25331 1.33325 2.83331 2.75325 2.83331 4.49992C2.83331 6.21325 4.17331 7.59992 5.91997 7.65992C5.97331 7.65325 6.02664 7.65325 6.06664 7.65992H6.11331C6.93288 7.63257 7.70969 7.28757 8.2795 6.69786C8.84931 6.10814 9.16744 5.31995 9.16664 4.49992C9.16664 2.75325 7.74664 1.33325 5.99997 1.33325ZM9.38664 9.43259C7.52664 8.19259 4.49331 8.19259 2.61997 9.43259C1.77331 9.99925 1.30664 10.7659 1.30664 11.5859C1.30664 12.4059 1.77331 13.1659 2.61331 13.7259C3.54664 14.3526 4.77331 14.6659 5.99997 14.6659C7.22664 14.6659 8.45331 14.3526 9.38664 13.7259C10.2266 13.1593 10.6933 12.3993 10.6933 11.5726C10.6866 10.7526 10.2266 9.99259 9.38664 9.43259ZM13.3266 4.89192C13.4333 6.18525 12.5133 7.31859 11.24 7.47192H11.2066C11.1666 7.47192 11.1266 7.47192 11.0933 7.48525C10.4466 7.51859 9.85331 7.31192 9.40664 6.93192C10.0933 6.31859 10.4866 5.39859 10.4066 4.39859C10.3609 3.87859 10.1843 3.37862 9.89331 2.94525C10.2426 2.77531 10.6281 2.6929 11.0163 2.70513C11.4046 2.71737 11.7841 2.82388 12.122 3.01549C12.46 3.20709 12.7462 3.47803 12.9561 3.80494C13.1659 4.13184 13.2931 4.5049 13.3266 4.89192Z" fill="#989898"/>
<path d="M14.6587 11.0599C14.6053 11.7066 14.192 12.2666 13.4987 12.6466C12.832 13.0133 11.992 13.1866 11.1587 13.1666C11.6387 12.7333 11.9187 12.1933 11.972 11.6199C12.0387 10.7933 11.6453 9.99994 10.8587 9.36661C10.412 9.01327 9.89201 8.73327 9.32535 8.52661C10.7987 8.09994 12.652 8.38661 13.792 9.30661C14.4053 9.79994 14.7187 10.4199 14.6587 11.0599Z" fill="#989898"/>
</svg>
