<svg width="24" height="24" viewBox="0 0 24 24" fill="none" xmlns="http://www.w3.org/2000/svg">
<path d="M4.5 2.25V22.5H6V3H16.5V22.5H18V2.25C18 2.05109 17.921 1.86032 17.7803 1.71967C17.6397 1.57902 17.4489 1.5 17.25 1.5H5.25C5.05109 1.5 4.86032 1.57902 4.71967 1.71967C4.57902 1.86032 4.5 2.05109 4.5 2.25Z" fill="#FAB400"/>
<path d="M16.5 3H20.25C20.4489 3 20.6397 3.07902 20.7803 3.21967C20.921 3.36032 21 3.55109 21 3.75V21.75C21 21.9489 20.921 22.1397 20.7803 22.2803C20.6397 22.421 20.4489 22.5 20.25 22.5H16.5V3Z" fill="#C80A50"/>
<path d="M18 7.125V9.375H16.5V10.875H18C18.3978 10.875 18.7794 10.717 19.0607 10.4357C19.342 10.1544 19.5 9.77282 19.5 9.375V7.125H18Z" fill="#A00028"/>
<path d="M8.25 4.5H9.75C10.1478 4.5 10.5294 4.65804 10.8107 4.93934C11.092 5.22064 11.25 5.60218 11.25 6V7.875C11.25 7.97446 11.2105 8.06984 11.1402 8.14017C11.0698 8.21049 10.9745 8.25 10.875 8.25H7.125C7.02554 8.25 6.93016 8.21049 6.85983 8.14017C6.78951 8.06984 6.75 7.97446 6.75 7.875V6C6.75 5.60218 6.90804 5.22064 7.18934 4.93934C7.47064 4.65804 7.85218 4.5 8.25 4.5Z" fill="#0A5078"/>
<path d="M8.25 7.875H9.75V9H8.25V7.875Z" fill="#D2AA82"/>
<path d="M6.75 9H11.25C11.4489 9 11.6397 9.07902 11.7803 9.21967C11.921 9.36032 12 9.55109 12 9.75V14.25H6.75V9Z" fill="#C80A50"/>
<path d="M7.5 9H10.5C10.5 9.39782 10.342 9.77936 10.0607 10.0607C9.77936 10.342 9.39782 10.5 9 10.5C8.60218 10.5 8.22064 10.342 7.93934 10.0607C7.65804 9.77936 7.5 9.39782 7.5 9Z" fill="#D2AA82"/>
<path d="M9.375 8.25H8.625C8.32663 8.25 8.04048 8.13147 7.8295 7.9205C7.61853 7.70952 7.5 7.42337 7.5 7.125V6C7.5 5.80109 7.57902 5.61032 7.71967 5.46967C7.86032 5.32902 8.05109 5.25 8.25 5.25H8.625C8.625 5.44891 8.70402 5.63968 8.84467 5.78033C8.98532 5.92098 9.17609 6 9.375 6H10.5V7.125C10.5 7.42337 10.3815 7.70952 10.1705 7.9205C9.95952 8.13147 9.67337 8.25 9.375 8.25Z" fill="#F0C8A0"/>
<path d="M6.75 14.25H11.25V21.75H6.75V14.25Z" fill="#0A5078"/>
<path d="M10.875 15.75C10.875 15.8816 10.9097 16.011 10.9755 16.125C11.0413 16.239 11.136 16.3337 11.25 16.3995V14.25H10.875V15.75ZM9 21.9375C8.95027 21.9375 8.90258 21.9177 8.86742 21.8826C8.83225 21.8474 8.8125 21.7997 8.8125 21.75V16.5C8.8125 16.4503 8.83225 16.4026 8.86742 16.3674C8.90258 16.3323 8.95027 16.3125 9 16.3125C9.04973 16.3125 9.09742 16.3323 9.13258 16.3674C9.16775 16.4026 9.1875 16.4503 9.1875 16.5V21.75C9.1875 21.7997 9.16775 21.8474 9.13258 21.8826C9.09742 21.9177 9.04973 21.9375 9 21.9375Z" fill="#00325A"/>
<path d="M6 15H6.75V16.5C6.55109 16.5 6.36032 16.421 6.21967 16.2803C6.07902 16.1397 6 15.9489 6 15.75V15ZM11.25 16.5V15H12V15.75C12 15.9489 11.921 16.1397 11.7803 16.2803C11.6397 16.421 11.4489 16.5 11.25 16.5Z" fill="#F0C8A0"/>
<path d="M6.75 9V15H6V9.75C6 9.55109 6.07902 9.36032 6.21967 9.21967C6.36032 9.07902 6.55109 9 6.75 9ZM12 15H11.25V9C11.4489 9 11.6397 9.07902 11.7803 9.21967C11.921 9.36032 12 9.55109 12 9.75V15Z" fill="#C80A50"/>
<path d="M11.625 9.10056C11.5662 9.06663 11.5032 9.04078 11.4375 9.02368C11.2765 9.06526 11.1338 9.15917 11.032 9.29066C10.9302 9.42215 10.875 9.58375 10.875 9.75006V14.2501H11.625V9.10056Z" fill="#A00028"/>
<path d="M7.5 21H8.25C8.44891 21 8.63968 21.079 8.78033 21.2197C8.92098 21.3603 9 21.5511 9 21.75V22.5H6.75V21.75C6.75 21.5511 6.82902 21.3603 6.96967 21.2197C7.11032 21.079 7.30109 21 7.5 21ZM9.75 21H10.5C10.6989 21 10.8897 21.079 11.0303 21.2197C11.171 21.3603 11.25 21.5511 11.25 21.75V22.5H9V21.75C9 21.5511 9.07902 21.3603 9.21967 21.2197C9.36032 21.079 9.55109 21 9.75 21Z" fill="#C80A50"/>
<path d="M12 9H16.5V14.25H12V9ZM18 6.75V9H16.5V10.5H18C18.3978 10.5 18.7794 10.342 19.0607 10.0607C19.342 9.77936 19.5 9.39782 19.5 9V6.75H18Z" fill="#FAB400"/>
<path d="M18.75 5.25C18.9489 5.25 19.1397 5.32902 19.2803 5.46967C19.421 5.61032 19.5 5.80109 19.5 6V6.75H18V6C18 5.80109 18.079 5.61032 18.2197 5.46967C18.3603 5.32902 18.5511 5.25 18.75 5.25Z" fill="#F0C8A0"/>
<path d="M13.5 7.875H15V9C15 9.19891 14.921 9.38968 14.7803 9.53033C14.6397 9.67098 14.4489 9.75 14.25 9.75C14.0511 9.75 13.8603 9.67098 13.7197 9.53033C13.579 9.38968 13.5 9.19891 13.5 9V7.875Z" fill="#D2AA82"/>
<path d="M13.5 5.25H15C15.1989 5.25 15.3897 5.32902 15.5303 5.46967C15.671 5.61032 15.75 5.80109 15.75 6V7.125C15.75 7.42337 15.6315 7.70952 15.4205 7.9205C15.2095 8.13147 14.9234 8.25 14.625 8.25H13.875C13.5766 8.25 13.2905 8.13147 13.0795 7.9205C12.8685 7.70952 12.75 7.42337 12.75 7.125V6C12.75 5.80109 12.829 5.61032 12.9697 5.46967C13.1103 5.32902 13.3011 5.25 13.5 5.25Z" fill="#F0C8A0"/>
<path d="M15 5.25H13.5C13.3011 5.25 13.1103 5.32902 12.9697 5.46967C12.829 5.61032 12.75 5.80109 12.75 6V5.25C12.75 5.05109 12.829 4.86032 12.9697 4.71967C13.1103 4.57902 13.3011 4.5 13.5 4.5H15C15.1989 4.5 15.3897 4.57902 15.5303 4.71967C15.671 4.86032 15.75 5.05109 15.75 5.25V6C15.75 5.80109 15.671 5.61032 15.5303 5.46967C15.3897 5.32902 15.1989 5.25 15 5.25Z" fill="#C80A50"/>
<path d="M12 14.25H16.5V21.75H12V14.25Z" fill="#0A5078"/>
<path d="M14.25 21.9375C14.2003 21.9375 14.1526 21.9177 14.1174 21.8826C14.0823 21.8474 14.0625 21.7997 14.0625 21.75V16.5C14.0625 16.4503 14.0823 16.4026 14.1174 16.3674C14.1526 16.3323 14.2003 16.3125 14.25 16.3125C14.2997 16.3125 14.3474 16.3323 14.3826 16.3674C14.4177 16.4026 14.4375 16.4503 14.4375 16.5V21.75C14.4375 21.7997 14.4177 21.8474 14.3826 21.8826C14.3474 21.9177 14.2997 21.9375 14.25 21.9375Z" fill="#00325A"/>
<path d="M11.25 15H12V16.5C11.8011 16.5 11.6103 16.421 11.4697 16.2803C11.329 16.1397 11.25 15.9489 11.25 15.75V15Z" fill="#F0C8A0"/>
<path d="M12 9V15H11.25V9.75C11.25 9.55109 11.329 9.36032 11.4697 9.21967C11.6103 9.07902 11.8011 9 12 9Z" fill="#FAB400"/>
<path d="M12.75 21H13.5C13.6989 21 13.8897 21.079 14.0303 21.2197C14.171 21.3603 14.25 21.5511 14.25 21.75V22.5H12V21.75C12 21.5511 12.079 21.3603 12.2197 21.2197C12.3603 21.079 12.5511 21 12.75 21ZM15 21H15.75C15.9489 21 16.1397 21.079 16.2803 21.2197C16.421 21.3603 16.5 21.5511 16.5 21.75V22.5H14.25V21.75C14.25 21.5511 14.329 21.3603 14.4697 21.2197C14.6103 21.079 14.8011 21 15 21Z" fill="#00A0C8"/>
<path d="M19.5 13.5C19.9142 13.5 20.25 13.1642 20.25 12.75C20.25 12.3358 19.9142 12 19.5 12C19.0858 12 18.75 12.3358 18.75 12.75C18.75 13.1642 19.0858 13.5 19.5 13.5Z" fill="#F0F0F0"/>
</svg>
