<svg width="24" height="24" viewBox="0 0 24 24" fill="none" xmlns="http://www.w3.org/2000/svg">
    <g clip-path="url(#9z9co0jkda)">
        <path d="M21.328 24a.703.703 0 0 0 .703-.703v-3.063h1.265a.703.703 0 0 0 .703-.703V5.975a.703.703 0 0 0-.703-.703h-12.05a.703.703 0 0 0-.703.703v13.556c0 .389.315.703.703.703h6.025l3.56 3.56a.702.702 0 0 0 .497.206z" fill="#00B6FF"/>
        <path d="M21.328 24a.703.703 0 0 0 .703-.703v-3.063h1.266a.703.703 0 0 0 .703-.703V5.975a.703.703 0 0 0-.703-.703H17.27v14.962l3.56 3.56a.702.702 0 0 0 .497.206z" fill="#4893FF"/>
        <path d="M20.213 15.595 18.889 10.3a1.664 1.664 0 0 0-1.618-1.263 1.665 1.665 0 0 0-1.618 1.263l-1.323 5.295a.703.703 0 0 0 1.364.341l.243-.973h2.668l.244.973a.703.703 0 0 0 1.364-.34zm-3.924-2.039.729-2.915a.261.261 0 0 1 .507 0l.729 2.915h-1.965z" fill="#F5FAFF"/>
        <path d="M2.671 18.728a.703.703 0 0 1-.703-.703v-3.062H.703A.703.703 0 0 1 0 14.258V.703C0 .315.315 0 .703 0h12.05c.388 0 .703.315.703.703V14.26a.703.703 0 0 1-.703.704H6.728l-3.56 3.56a.702.702 0 0 1-.497.205z" fill="#FFCB00"/>
        <path d="M12.754 0H6.729v14.963h6.025a.703.703 0 0 0 .703-.704V.703A.703.703 0 0 0 12.753 0z" fill="#FF9D22"/>
        <path d="M9.94 10.573a6.535 6.535 0 0 1-2.192-1.137A8.292 8.292 0 0 0 9.56 5.925h.179a.703.703 0 0 0 0-1.406H7.43v-.803a.703.703 0 0 0-1.406 0v.803H3.715a.703.703 0 0 0 0 1.406h4.39a6.908 6.908 0 0 1-1.377 2.522 6.335 6.335 0 0 1-.396-.555l-.523-.797a.703.703 0 1 0-1.175.772l.522.796c.174.264.363.518.567.76-.98.761-1.881 1.04-2.23 1.156a.703.703 0 0 0 .222 1.371c.215 0 1.67-.44 3.013-1.53 1.34 1.111 2.794 1.53 3.012 1.53a.703.703 0 0 0 .2-1.377z" fill="#F5FAFF"/>
        <path d="M9.94 10.573A6.535 6.535 0 0 1 7.75 9.436a8.292 8.292 0 0 0 1.813-3.511h.179a.703.703 0 0 0 0-1.406h-2.31v-.803a.703.703 0 0 0-.702-.703v2.912h1.377a6.908 6.908 0 0 1-1.377 2.522v1.973c1.34 1.111 2.794 1.53 3.012 1.53a.704.704 0 0 0 .2-1.377zm8.91 5.363a.703.703 0 0 0 1.364-.34L18.89 10.3a1.665 1.665 0 0 0-1.618-1.263v1.407a.26.26 0 0 1 .254.197l.729 2.915h-.983v1.407h1.334l.243.973z" fill="#DFE9EE"/>
    </g>
    <defs>
        <clipPath id="9z9co0jkda">
            <path fill="#fff" d="M0 0h24v24H0z"/>
        </clipPath>
    </defs>
</svg>
