<svg width="24" height="24" viewBox="0 0 24 24" fill="none" xmlns="http://www.w3.org/2000/svg">
    <g clip-path="url(#api1i1cs2a)" stroke="#fff" stroke-width="1.5" stroke-linecap="round" stroke-linejoin="round">
        <path d="M5 13a2 2 0 0 1 2-2h10a2 2 0 0 1 2 2v6a2 2 0 0 1-2 2H7a2 2 0 0 1-2-2v-6z"/>
        <path d="M11 16a1 1 0 1 0 2 0 1 1 0 0 0-2 0zM8 11V7a4 4 0 0 1 8 0v4"/>
    </g>
    <defs>
        <clipPath id="api1i1cs2a">
            <path fill="#fff" d="M0 0h24v24H0z"/>
        </clipPath>
    </defs>
</svg>
