<svg width="44" height="44" viewBox="0 0 44 44" fill="none" xmlns="http://www.w3.org/2000/svg">
    <path d="M12.375 27.5h19.25v2.75h-19.25V27.5z" fill="#BBBDBF"/>
    <path d="M31.625 13.063h-2.063V9.624a7.563 7.563 0 0 0-15.125 0v3.438h-2.062a.687.687 0 0 0-.688.687v16.5a.687.687 0 0 0 .688.688h6.875a.687.687 0 1 0 0-1.375h-6.188V14.438h17.876v15.124H24.75a.687.687 0 1 0 0 1.375h6.875a.687.687 0 0 0 .688-.687v-16.5a.687.687 0 0 0-.688-.688zm-7.563 0h-4.125V9.624a2.062 2.062 0 0 1 4.125 0v3.438zm1.375 0V9.624a3.438 3.438 0 0 0-6.875 0v3.438h-2.75V9.624a6.187 6.187 0 1 1 12.376 0v3.438h-2.75z" fill="#222"/>
    <path d="M25.438 20.625a3.437 3.437 0 1 0-4.125 3.369v2.131a.687.687 0 1 0 1.375 0v-2.131a3.443 3.443 0 0 0 2.75-3.369zm-5.5 0a2.062 2.062 0 1 1 4.124 0 2.062 2.062 0 0 1-4.125 0z" fill="#222"/>
    <path d="M35.75 32.313H8.25a.681.681 0 0 0-.687.687v8.25a.68.68 0 0 0 .687.688h27.5a.68.68 0 0 0 .688-.688V33a.68.68 0 0 0-.688-.688zM15.29 37.22a.687.687 0 0 1-.344 1.279.621.621 0 0 1-.344-.096l-.165-.083v.179a.688.688 0 1 1-1.374 0v-.179l-.165.083a.62.62 0 0 1-.344.096.687.687 0 0 1-.344-1.279l.165-.096-.165-.096a.685.685 0 0 1 .688-1.183l.165.083v-.179a.688.688 0 0 1 1.374 0v.179l.165-.083a.684.684 0 1 1 .688 1.183l-.165.096.165.096zm8.25 0a.687.687 0 0 1-.344 1.279.621.621 0 0 1-.344-.096l-.165-.083v.179a.688.688 0 1 1-1.375 0v-.179l-.165.083a.62.62 0 0 1-.343.096.687.687 0 0 1-.344-1.279l.165-.096-.165-.096a.685.685 0 0 1 .688-1.183l.165.083v-.179a.688.688 0 0 1 1.375 0v.179l.165-.083a.684.684 0 1 1 .687 1.183l-.165.096.165.096zm8.25 0a.687.687 0 0 1-.344 1.279.621.621 0 0 1-.344-.096l-.165-.083v.179a.688.688 0 1 1-1.375 0v-.179l-.165.083a.62.62 0 0 1-.343.096.687.687 0 0 1-.344-1.279l.165-.096-.165-.096a.685.685 0 0 1 .688-1.183l.165.083v-.179a.688.688 0 0 1 1.375 0v.179l.165-.083a.684.684 0 1 1 .687 1.183l-.165.096.165.096z" fill="#31D474"/>
    <path d="M22 30.938a.687.687 0 1 0 0-1.375.687.687 0 0 0 0 1.375z" fill="#222"/>
</svg>
