<svg width="100" height="100" viewBox="0 0 100 100" fill="none" xmlns="http://www.w3.org/2000/svg">
<g clip-path="url(#clip0_921_4404)">
<path d="M18.4277 70.0893C18.4309 70.9094 18.6771 71.7103 19.135 72.3907C19.593 73.0711 20.2423 73.6005 21.001 73.9122C21.7596 74.2239 22.5936 74.3038 23.3976 74.1419C24.2016 73.9799 24.9397 73.5834 25.5185 73.0024C26.0974 72.4213 26.4911 71.6818 26.65 70.8772C26.8089 70.0726 26.7259 69.2389 26.4113 68.4814C26.0968 67.7239 25.5649 67.0766 24.8828 66.6212C24.2007 66.1658 23.3989 65.9227 22.5787 65.9226C21.4761 65.9259 20.4199 66.3665 19.6417 67.1476C18.8635 67.9287 18.4269 68.9867 18.4277 70.0893ZM24.3569 70.0893C24.3556 70.4408 24.2501 70.7841 24.0538 71.0757C23.8574 71.3673 23.5791 71.5942 23.2539 71.7277C22.9288 71.8613 22.5713 71.8955 22.2267 71.826C21.8821 71.7566 21.5658 71.5865 21.3178 71.3375C21.0697 71.0884 20.901 70.7713 20.833 70.4265C20.765 70.0816 20.8007 69.7242 20.9356 69.3996C21.0706 69.075 21.2986 68.7977 21.5911 68.6026C21.8835 68.4075 22.2272 68.3034 22.5787 68.3036C23.0512 68.3051 23.5037 68.4939 23.8371 68.8287C24.1705 69.1635 24.3574 69.6168 24.3569 70.0893Z" fill="#7210FF"/>
<path d="M29.6934 67.7083C29.6928 68.0234 29.8174 68.3259 30.0398 68.5491C30.2621 68.7724 30.5641 68.8981 30.8792 68.8988H40.1262C39.6404 68.1884 39.3318 67.372 39.2262 66.5178H30.8792C30.5641 66.5184 30.2621 66.6442 30.0398 66.8675C29.8174 67.0907 29.6928 67.3932 29.6934 67.7083ZM29.6934 72.4702C29.6928 72.7853 29.8174 73.0878 30.0398 73.311C30.2621 73.5343 30.5641 73.6601 30.8792 73.6607H43.9235V71.2797H30.8792C30.5641 71.2804 30.2621 71.4061 30.0398 71.6294C29.8174 71.8526 29.6928 72.1551 29.6934 72.4702Z" fill="#989898"/>
<path d="M55.78 38.5417C57.5125 38.5364 59.1722 37.844 60.3949 36.6165C61.6177 35.389 62.3036 33.7266 62.3021 31.9941V27.8274C62.3055 26.9688 62.1393 26.1179 61.8131 25.3236C61.4868 24.5293 61.0069 23.8073 60.401 23.1989C59.795 22.5906 59.0748 22.1079 58.2819 21.7785C57.4889 21.4491 56.6387 21.2795 55.78 21.2795C54.9213 21.2795 54.0711 21.4491 53.2781 21.7785C52.4852 22.1079 51.765 22.5906 51.159 23.1989C50.5531 23.8073 50.0732 24.5293 49.7469 25.3236C49.4207 26.1179 49.2545 26.9688 49.2579 27.8274V31.9941C49.2564 33.7266 49.9423 35.389 51.165 36.6165C52.3877 37.844 54.0474 38.5364 55.78 38.5417ZM51.6296 27.8274C51.6275 27.281 51.7333 26.7397 51.941 26.2343C52.1486 25.7289 52.454 25.2695 52.8396 24.8824C53.2252 24.4954 53.6835 24.1882 54.1881 23.9787C54.6926 23.7691 55.2336 23.6612 55.78 23.6612C56.3264 23.6612 56.8674 23.7691 57.372 23.9787C57.8765 24.1882 58.3348 24.4954 58.7204 24.8824C59.106 25.2695 59.4114 25.7289 59.619 26.2343C59.8267 26.7397 59.9325 27.281 59.9304 27.8274V31.9941C59.9325 32.5405 59.8267 33.0818 59.619 33.5872C59.4114 34.0926 59.106 34.552 58.7204 34.9391C58.3348 35.3261 57.8765 35.6333 57.372 35.8428C56.8674 36.0524 56.3264 36.1603 55.78 36.1603C55.2336 36.1603 54.6926 36.0524 54.1881 35.8428C53.6835 35.6333 53.2252 35.3261 52.8396 34.9391C52.454 34.552 52.1486 34.0926 51.941 33.5872C51.7333 33.0818 51.6275 32.5405 51.6296 31.9941V27.8274Z" fill="#7210FF"/>
<path d="M62.303 40.3274C63.7103 40.3217 65.0624 40.8744 66.0627 41.8642C67.0631 42.8541 67.63 44.2002 67.6392 45.6075C68.2724 44.9838 69.0377 44.5103 69.8784 44.2221C69.5477 42.4717 68.6203 40.8901 67.2544 39.7466C65.8885 38.6031 64.1685 37.9684 62.3872 37.9507C61.4452 39.0045 60.2661 39.8191 58.9473 40.3274H62.303Z" fill="#989898"/>
<path d="M70.307 64.7322C69.9918 64.7328 69.6899 64.8586 69.4675 65.0818C69.2451 65.3051 69.1205 65.6075 69.1211 65.9227V70.6846C69.1206 70.8406 69.1509 70.9952 69.2103 71.1395C69.2697 71.2838 69.3569 71.415 69.4671 71.5255C69.5773 71.636 69.7082 71.7237 69.8523 71.7835C69.9964 71.8434 70.1509 71.8742 70.3069 71.8742C70.463 71.8742 70.6175 71.8434 70.7616 71.7835C70.9057 71.7237 71.0366 71.636 71.1468 71.5255C71.257 71.415 71.3442 71.2838 71.4036 71.1395C71.463 70.9952 71.4933 70.8406 71.4928 70.6846V65.9227C71.4934 65.6075 71.3688 65.3051 71.1464 65.0818C70.924 64.8586 70.6221 64.7328 70.307 64.7322ZM79.7937 64.7322C79.4786 64.7328 79.1766 64.8586 78.9542 65.0818C78.7319 65.3051 78.6073 65.6075 78.6079 65.9227V70.6846C78.6074 70.8406 78.6377 70.9952 78.697 71.1395C78.7564 71.2838 78.8437 71.415 78.9538 71.5255C79.064 71.636 79.1949 71.7237 79.339 71.7835C79.4831 71.8434 79.6377 71.8742 79.7937 71.8742C79.9497 71.8742 80.1042 71.8434 80.2484 71.7835C80.3925 71.7237 80.5234 71.636 80.6335 71.5255C80.7437 71.415 80.831 71.2838 80.8903 71.1395C80.9497 70.9952 80.98 70.8406 80.9795 70.6846V65.9227C80.9801 65.6075 80.8555 65.3051 80.6332 65.0818C80.4108 64.8586 80.1088 64.7328 79.7937 64.7322Z" fill="#7210FF"/>
<path d="M75.0519 62.9464C74.7368 62.947 74.4348 63.0728 74.2125 63.296C73.9901 63.5193 73.8655 63.8217 73.8661 64.1368V72.4702C73.8656 72.6262 73.8959 72.7808 73.9552 72.9251C74.0146 73.0694 74.1019 73.2006 74.2121 73.3111C74.3222 73.4216 74.4531 73.5093 74.5972 73.5692C74.7413 73.629 74.8959 73.6598 75.0519 73.6598C75.2079 73.6598 75.3625 73.629 75.5066 73.5692C75.6507 73.5093 75.7816 73.4216 75.8918 73.3111C76.0019 73.2006 76.0892 73.0694 76.1486 72.9251C76.2079 72.7808 76.2382 72.6262 76.2377 72.4702V64.1368C76.2383 63.8217 76.1138 63.5193 75.8914 63.296C75.669 63.0728 75.367 62.947 75.0519 62.9464ZM54.3886 15.3215C54.7418 15.3215 55.087 15.2168 55.3807 15.0205C55.6743 14.8243 55.9032 14.5454 56.0384 14.2191C56.1735 13.8928 56.2089 13.5338 56.14 13.1874C56.0711 12.841 55.901 12.5228 55.6513 12.2731C55.4015 12.0234 55.0834 11.8533 54.737 11.7844C54.3906 11.7155 54.0315 11.7508 53.7052 11.886C53.3789 12.0212 53.1 12.25 52.9038 12.5437C52.7076 12.8374 52.6029 13.1826 52.6029 13.5358C52.6034 14.0092 52.7917 14.4631 53.1265 14.7979C53.4613 15.1326 53.9151 15.321 54.3886 15.3215ZM54.3886 12.6429C54.5652 12.6429 54.7378 12.6953 54.8846 12.7934C55.0315 12.8915 55.1459 13.031 55.2135 13.1941C55.2811 13.3572 55.2987 13.5368 55.2643 13.71C55.2298 13.8832 55.1448 14.0423 55.0199 14.1671C54.8951 14.292 54.736 14.377 54.5628 14.4115C54.3896 14.4459 54.21 14.4283 54.0469 14.3607C53.8838 14.2931 53.7443 14.1787 53.6462 14.0318C53.5481 13.885 53.4957 13.7124 53.4957 13.5358C53.496 13.2991 53.5901 13.0721 53.7575 12.9047C53.9249 12.7373 54.1519 12.6432 54.3886 12.6429ZM74.4401 6.69636C74.2046 6.69636 73.9745 6.76618 73.7787 6.89699C73.5829 7.0278 73.4304 7.21373 73.3402 7.43126C73.2501 7.64879 73.2266 7.88816 73.2725 8.11909C73.3184 8.35002 73.4318 8.56214 73.5983 8.72863C73.7648 8.89512 73.9769 9.0085 74.2079 9.05444C74.4388 9.10037 74.6782 9.0768 74.8957 8.98669C75.1132 8.89659 75.2991 8.744 75.4299 8.54823C75.5608 8.35246 75.6306 8.12229 75.6306 7.88684C75.6302 7.57121 75.5047 7.26862 75.2815 7.04544C75.0583 6.82226 74.7557 6.69672 74.4401 6.69636ZM74.4401 8.48207C74.3224 8.48207 74.2073 8.44716 74.1094 8.38176C74.0115 8.31635 73.9352 8.22339 73.8902 8.11462C73.8451 8.00586 73.8333 7.88617 73.8563 7.77071C73.8793 7.65525 73.936 7.54918 74.0192 7.46594C74.1025 7.38269 74.2085 7.326 74.324 7.30303C74.4394 7.28007 74.5591 7.29185 74.6679 7.33691C74.7767 7.38196 74.8696 7.45825 74.935 7.55614C75.0004 7.65402 75.0353 7.76911 75.0353 7.88684C75.0352 8.04465 74.9724 8.19596 74.8608 8.30756C74.7492 8.41915 74.5979 8.48192 74.4401 8.48207ZM36.3449 4.91064C36.1094 4.91064 35.8792 4.98046 35.6835 5.11128C35.4877 5.24209 35.3351 5.42801 35.245 5.64555C35.1549 5.86308 35.1313 6.10244 35.1773 6.33337C35.2232 6.5643 35.3366 6.77642 35.5031 6.94291C35.6696 7.10941 35.8817 7.22279 36.1126 7.26872C36.3435 7.31466 36.5829 7.29108 36.8004 7.20098C37.018 7.11087 37.2039 6.95829 37.3347 6.76251C37.4655 6.56674 37.5353 6.33657 37.5353 6.10112C37.535 5.7855 37.4094 5.48291 37.1863 5.25973C36.9631 5.03655 36.6605 4.91101 36.3449 4.91064ZM36.3449 6.69636C36.2271 6.69636 36.1121 6.66145 36.0142 6.59604C35.9163 6.53064 35.84 6.43767 35.7949 6.32891C35.7499 6.22014 35.7381 6.10046 35.7611 5.985C35.784 5.86953 35.8407 5.76347 35.924 5.68022C36.0072 5.59698 36.1133 5.54029 36.2287 5.51732C36.3442 5.49435 36.4639 5.50614 36.5727 5.55119C36.6814 5.59624 36.7744 5.67254 36.8398 5.77042C36.9052 5.86831 36.9401 5.98339 36.9401 6.10112C36.9399 6.25894 36.8772 6.41025 36.7656 6.52184C36.654 6.63344 36.5027 6.6962 36.3449 6.69636ZM80.3925 17.4106C80.157 17.4106 79.9269 17.4805 79.7311 17.6113C79.5353 17.7421 79.3827 17.928 79.2926 18.1455C79.2025 18.3631 79.1789 18.6024 79.2249 18.8334C79.2708 19.0643 79.3842 19.2764 79.5507 19.4429C79.7172 19.6094 79.9293 19.7228 80.1602 19.7687C80.3912 19.8147 80.6305 19.7911 80.8481 19.701C81.0656 19.6109 81.2515 19.4583 81.3823 19.2625C81.5131 19.0667 81.583 18.8366 81.583 18.6011C81.5826 18.2855 81.4571 17.9829 81.2339 17.7597C81.0107 17.5365 80.7081 17.411 80.3925 17.4106ZM80.3925 19.1964C80.2748 19.1964 80.1597 19.1615 80.0618 19.096C79.9639 19.0306 79.8876 18.9377 79.8426 18.8289C79.7975 18.7201 79.7857 18.6005 79.8087 18.485C79.8317 18.3695 79.8883 18.2635 79.9716 18.1802C80.0548 18.097 80.1609 18.0403 80.2764 18.0173C80.3918 17.9944 80.5115 18.0061 80.6203 18.0512C80.729 18.0962 80.822 18.1725 80.8874 18.2704C80.9528 18.3683 80.9877 18.4834 80.9877 18.6011C80.9876 18.7589 80.9248 18.9102 80.8132 19.0218C80.7016 19.1334 80.5503 19.1962 80.3925 19.1964ZM10.1544 37.6487C10.1544 37.4133 10.0846 37.1831 9.95376 36.9873C9.82295 36.7916 9.63702 36.639 9.41949 36.5489C9.20196 36.4588 8.96259 36.4352 8.73166 36.4811C8.50073 36.5271 8.28861 36.6405 8.12212 36.8069C7.95563 36.9734 7.84225 37.1856 7.79631 37.4165C7.75038 37.6474 7.77395 37.8868 7.86406 38.1043C7.95416 38.3218 8.10675 38.5078 8.30252 38.6386C8.49829 38.7694 8.72846 38.8392 8.96391 38.8392C9.27954 38.8389 9.58213 38.7133 9.80531 38.4901C10.0285 38.267 10.154 37.9644 10.1544 37.6487ZM8.36868 37.6487C8.36868 37.531 8.40359 37.4159 8.46899 37.318C8.5344 37.2202 8.62736 37.1439 8.73613 37.0988C8.84489 37.0538 8.96457 37.042 9.08004 37.0649C9.1955 37.0879 9.30157 37.1446 9.38481 37.2278C9.46806 37.3111 9.52475 37.4172 9.54771 37.5326C9.57068 37.6481 9.55889 37.7678 9.51384 37.8765C9.46879 37.9853 9.3925 38.0783 9.29461 38.1437C9.19672 38.2091 9.08164 38.244 8.96391 38.244C8.8061 38.2438 8.65479 38.1811 8.54319 38.0695C8.4316 37.9579 8.36883 37.8066 8.36868 37.6487Z" fill="#989898"/>
<path d="M31.592 27.6779L32.4765 26.5142L31.9182 26.1975L31.3497 27.5011H31.3313L30.7539 26.2064L30.1855 26.5326L31.061 27.6689V27.6874L29.6914 27.5106V28.1439L31.07 27.9672V27.9856L30.1855 29.1213L30.7158 29.457L31.3218 28.1439H31.3402L31.8991 29.4475L32.486 29.1124L31.592 27.9945V27.9761L32.998 28.1439V27.5106L31.592 27.6969V27.6779Z" fill="#7210FF"/>
<path d="M5.2583 12.6887L4.74877 13.3429L5.05472 13.5357L5.40353 12.7798H5.41365L5.73568 13.5304L6.07377 13.3375L5.55889 12.6935V12.6827L6.36842 12.7798V12.4149L5.55889 12.522V12.5113L6.06842 11.8411L5.74699 11.6589L5.41961 12.4095H5.40889L5.07615 11.6637L4.74877 11.8518L5.25353 12.506V12.5167L4.46484 12.4149V12.7798L5.2583 12.678V12.6887Z" fill="#7210FF"/>
<path d="M94.677 32.1208V31.5L93.2979 31.6827V31.6643L94.1657 30.5226L93.6175 30.2119L93.0604 31.4905H93.0419L92.4759 30.2208L91.9181 30.5411L92.777 31.6554V31.6738L91.4336 31.5V32.1208L92.786 31.9476V31.9661L91.9181 33.0804L92.439 33.4095L93.033 32.1208H93.0509L93.5991 33.4L94.1747 33.0714L93.2979 31.975V31.9566L94.677 32.1208Z" fill="#7210FF"/>
<path d="M94.346 7.04521L95.0948 6.06009L94.6222 5.79224L94.1413 6.89521H94.1252L93.6371 5.79997L93.1555 6.07617L93.8966 7.03747V7.05295L92.7383 6.90355V7.43926L93.9044 7.28926V7.30533L93.1555 8.26664L93.6049 8.55057L94.1174 7.43926H94.1329L94.6061 8.54224L95.1026 8.2589L94.346 7.31307V7.297L95.5353 7.43926V6.90355L94.346 7.06069V7.04521Z" fill="#7210FF"/>
<path d="M1.19048 86.756C1.84796 86.756 2.38095 86.223 2.38095 85.5655C2.38095 84.908 1.84796 84.375 1.19048 84.375C0.532994 84.375 0 84.908 0 85.5655C0 86.223 0.532994 86.756 1.19048 86.756Z" fill="#989898"/>
<path d="M6.54846 84.375H4.76274C4.44701 84.375 4.14421 84.5004 3.92095 84.7237C3.69769 84.9469 3.57227 85.2497 3.57227 85.5655C3.57227 85.8812 3.69769 86.184 3.92095 86.4073C4.14421 86.6305 4.44701 86.756 4.76274 86.756H6.54846C6.86419 86.756 7.16699 86.6305 7.39025 86.4073C7.61351 86.184 7.73893 85.8812 7.73893 85.5655C7.73893 85.2497 7.61351 84.9469 7.39025 84.7237C7.16699 84.5004 6.86419 84.375 6.54846 84.375Z" fill="#989898"/>
<path d="M98.8096 86.756C99.4671 86.756 100 86.223 100 85.5655C100 84.908 99.4671 84.375 98.8096 84.375C98.1521 84.375 97.6191 84.908 97.6191 85.5655C97.6191 86.223 98.1521 86.756 98.8096 86.756Z" fill="#989898"/>
<path d="M70.3305 89.137H65.3855C65.0862 89.1609 64.8069 89.2968 64.6033 89.5174C64.3996 89.738 64.2865 90.0272 64.2865 90.3274C64.2865 90.6277 64.3996 90.9169 64.6033 91.1375C64.8069 91.3581 65.0862 91.4939 65.3855 91.5179H70.3305C70.6298 91.4939 70.9091 91.3581 71.1127 91.1375C71.3164 90.9169 71.4294 90.6277 71.4294 90.3274C71.4294 90.0272 71.3164 89.738 71.1127 89.5174C70.9091 89.2968 70.6298 89.1609 70.3305 89.137ZM34.6163 89.137H29.6712C29.3719 89.1609 29.0926 89.2968 28.889 89.5174C28.6853 89.738 28.5723 90.0272 28.5723 90.3274C28.5723 90.6277 28.6853 90.9169 28.889 91.1375C29.0926 91.3581 29.3719 91.4939 29.6712 91.5179H34.6163C34.9155 91.4939 35.1948 91.3581 35.3984 91.1375C35.6021 90.9169 35.7152 90.6277 35.7152 90.3274C35.7152 90.0272 35.6021 89.738 35.3984 89.5174C35.1948 89.2968 34.9155 89.1609 34.6163 89.137ZM61.9056 89.137H38.0961C37.7804 89.137 37.4776 89.2624 37.2543 89.4856C37.031 89.7089 36.9056 90.0117 36.9056 90.3274C36.9056 90.6432 37.031 90.946 37.2543 91.1692C37.4776 91.3925 37.7804 91.5179 38.0961 91.5179H47.5842V92.7084H42.858C42.5423 92.7084 42.2395 92.8338 42.0162 93.0571C41.7929 93.2803 41.6675 93.5831 41.6675 93.8989C41.6675 94.2146 41.7929 94.5174 42.0162 94.7407C42.2395 94.9639 42.5423 95.0893 42.858 95.0893H57.7389C58.0547 95.0893 58.3575 94.9639 58.5807 94.7407C58.804 94.5174 58.9294 94.2146 58.9294 93.8989C58.9294 93.5831 58.804 93.2803 58.5807 93.0571C58.3575 92.8338 58.0547 92.7084 57.7389 92.7084H52.4175V91.5179H61.9056C62.2213 91.5179 62.5242 91.3925 62.7474 91.1692C62.9707 90.946 63.0961 90.6432 63.0961 90.3274C63.0961 90.0117 62.9707 89.7089 62.7474 89.4856C62.5242 89.2624 62.2213 89.137 61.9056 89.137Z" fill="#7210FF"/>
<path d="M95.239 84.375H93.4533C93.1376 84.375 92.8347 84.5004 92.6115 84.7237C92.3882 84.9469 92.2628 85.2497 92.2628 85.5655C92.2628 85.8812 92.3882 86.184 92.6115 86.4073C92.8347 86.6305 93.1376 86.756 93.4533 86.756H95.239C95.5547 86.756 95.8575 86.6305 96.0808 86.4073C96.3041 86.184 96.4295 85.8812 96.4295 85.5655C96.4295 85.2497 96.3041 84.9469 96.0808 84.7237C95.8575 84.5004 95.5547 84.375 95.239 84.375ZM89.716 84.375H84.3311C84.4676 83.9929 84.5378 83.5903 84.5386 83.1845V81.9465C85.5272 81.801 86.4304 81.3048 87.0835 80.5486C87.7366 79.7924 88.096 78.8266 88.0961 77.8274V58.7798C88.0971 57.6772 87.6606 56.6193 86.8825 55.8382C86.1044 55.0571 85.0482 54.6165 83.9457 54.6131H81.2775V49.8512C81.2783 48.9062 80.9042 47.9994 80.2373 47.3298C79.5704 46.6603 78.6651 46.2826 77.72 46.2798H71.7908C70.8457 46.2826 69.9404 46.6603 69.2735 47.3298C68.6066 47.9994 68.2325 48.9062 68.2333 49.8512V54.6131H66.158C65.0555 54.6165 63.9993 55.0571 63.2212 55.8382C62.4431 56.6193 62.0067 57.6772 62.0076 58.7798V77.8274C62.0067 78.9299 62.4431 79.9878 63.2212 80.7689C63.9993 81.5501 65.0555 81.9907 66.158 81.9941V83.1845C66.1589 83.5903 66.2291 83.9929 66.3656 84.375H65.0568C65.0682 84.3426 65.0852 84.313 65.0957 84.2802C64.3064 84.1499 63.5482 83.8739 62.8597 83.4664C62.7976 83.7245 62.6507 83.9544 62.4424 84.1191C62.2342 84.2839 61.9767 84.374 61.7111 84.375H60.5253C60.2102 84.3741 59.9085 84.2482 59.6861 84.025C59.4638 83.8018 59.3391 83.4995 59.3394 83.1845V68.9442C59.3394 68.9286 59.3354 68.9142 59.3349 68.8988H59.6359V66.5179H48.6668V56.3988C48.6673 56.2428 48.637 56.0882 48.5777 55.9439C48.5183 55.7995 48.431 55.6684 48.3208 55.5579C48.2107 55.4473 48.0798 55.3597 47.9357 55.2998C47.7916 55.24 47.637 55.2092 47.481 55.2092C47.325 55.2092 47.1704 55.24 47.0263 55.2998C46.8822 55.3597 46.7513 55.4473 46.6411 55.5579C46.531 55.6684 46.4437 55.7995 46.3843 55.9439C46.325 56.0882 46.2947 56.2428 46.2952 56.3988V66.5179H44.6012C44.4226 66.5187 44.2509 66.4486 44.1238 66.323C43.9967 66.1974 43.9247 66.0266 43.9234 65.8479V45.6081C43.9325 44.2007 44.4994 42.8544 45.4998 41.8644C46.5001 40.8744 47.8523 40.3217 49.2597 40.3274H52.6154C51.2966 39.8191 50.1175 39.0045 49.1755 37.9507C47.1532 37.9682 45.2192 38.7817 43.7923 40.2149C42.3653 41.6481 41.5604 43.5857 41.5517 45.6081V65.8479C41.5524 66.6566 41.8739 67.432 42.4456 68.0039C43.0173 68.5759 43.7925 68.8977 44.6012 68.8988H46.2951V83.1845C46.296 83.5903 46.3662 83.9929 46.5027 84.375H25.5006C25.9146 83.7489 26.1355 83.0149 26.1358 82.2644V80.8036H43.9234V78.4226H15.6948C15.3281 78.4311 14.973 78.2938 14.7073 78.0409C14.4416 77.788 14.287 77.4401 14.2773 77.0735V65.6451C14.2964 64.5965 14.7305 63.5983 15.4845 62.8692C16.2384 62.1402 17.2506 61.7398 18.2993 61.756H39.1801V59.375H19.6939L22.2656 53.8199C23.6061 51.4811 26.1514 49.8512 28.471 49.8512H39.1801V47.4702H28.471C25.2748 47.4702 21.9428 49.5661 20.1796 52.6856C20.164 52.7135 20.1493 52.7419 20.1359 52.7713L17.0199 59.5015C15.5894 59.778 14.2986 60.5408 13.3665 61.6606C12.4343 62.7804 11.9182 64.1881 11.9057 65.6451V77.0735C11.9142 78.0296 12.2869 78.9465 12.9479 79.6374C13.6088 80.3283 14.5084 80.7412 15.4632 80.792V82.2644C15.4635 83.0149 15.6843 83.7489 16.0982 84.375H10.2858C10.1165 84.3529 9.94434 84.3671 9.78093 84.4168C9.61752 84.4665 9.46659 84.5505 9.33824 84.6632C9.20988 84.7759 9.10704 84.9147 9.03658 85.0703C8.96613 85.2258 8.92969 85.3947 8.92969 85.5655C8.92969 85.7363 8.96613 85.9051 9.03658 86.0607C9.10704 86.2163 9.20988 86.3551 9.33824 86.4677C9.46659 86.5804 9.61752 86.6644 9.78093 86.7141C9.94434 86.7638 10.1165 86.7781 10.2858 86.756H89.716C89.8853 86.7781 90.0575 86.7638 90.2209 86.7141C90.3843 86.6644 90.5352 86.5804 90.6636 86.4677C90.7919 86.3551 90.8948 86.2163 90.9652 86.0607C91.0357 85.9051 91.0721 85.7363 91.0721 85.5655C91.0721 85.3947 91.0357 85.2258 90.9652 85.0703C90.8948 84.9147 90.7919 84.7759 90.6636 84.6632C90.5352 84.5505 90.3843 84.4665 90.2209 84.4168C90.0575 84.3671 89.8853 84.3529 89.716 84.375ZM17.8349 80.8036H23.7641V82.2644C23.7546 82.6749 23.5828 83.0649 23.2863 83.349C22.9898 83.633 22.5927 83.7879 22.1822 83.7798H19.4156C19.0052 83.7878 18.6084 83.6328 18.3121 83.3487C18.0158 83.0647 17.8442 82.6747 17.8349 82.2644V80.8036ZM56.9723 68.8988C56.9717 68.9142 56.9677 68.9286 56.9677 68.9442V83.1845C56.9686 83.5903 57.0387 83.9929 57.1753 84.375H54.3885C54.525 83.9929 54.5952 83.5903 54.596 83.1845V68.9442C54.596 68.9286 54.5921 68.9142 54.5915 68.8988H56.9723ZM49.8527 84.375C49.5376 84.3741 49.2359 84.2482 49.0135 84.025C48.7912 83.8018 48.6665 83.4996 48.6668 83.1845V68.8988H52.2289C52.2283 68.9142 52.2243 68.9286 52.2243 68.9442V83.1845C52.2246 83.4996 52.0999 83.8018 51.8776 84.025C51.6553 84.2482 51.3535 84.3741 51.0385 84.375H49.8527ZM77.6311 84.375H73.0655C73.2021 83.9929 73.2723 83.5903 73.2731 83.1845V81.9941H77.4236V83.1845C77.4244 83.5903 77.4946 83.9929 77.6311 84.375ZM79.7952 83.1845V81.9941H82.1669V83.1845C82.1674 83.3406 82.1371 83.4952 82.0777 83.6395C82.0184 83.7838 81.9311 83.915 81.8209 84.0255C81.7108 84.136 81.5799 84.2237 81.4358 84.2835C81.2916 84.3433 81.1371 84.3741 80.9811 84.3741C80.825 84.3741 80.6705 84.3433 80.5264 84.2835C80.3823 84.2237 80.2514 84.136 80.1412 84.0255C80.0311 83.915 79.9438 83.7838 79.8844 83.6395C79.8251 83.4952 79.7947 83.3406 79.7952 83.1845ZM70.6049 49.8512C70.6046 49.5362 70.7293 49.2339 70.9516 49.0107C71.174 48.7875 71.4758 48.6616 71.7908 48.6607H77.72C78.035 48.6617 78.3368 48.7875 78.5591 49.0107C78.7815 49.2339 78.9061 49.5362 78.9058 49.8512V54.6131H70.6049V49.8512ZM64.3792 77.8274V58.7798C64.3788 58.3072 64.5659 57.8539 64.8994 57.5191C65.2328 57.1843 65.6855 56.9955 66.158 56.9941H83.9457C84.4182 56.9955 84.8708 57.1843 85.2043 57.5191C85.5378 57.8539 85.7248 58.3072 85.7244 58.7798V77.8274C85.7248 78.2999 85.5378 78.7533 85.2043 79.0881C84.8708 79.4228 84.4182 79.6117 83.9457 79.6131H66.158C65.6855 79.6117 65.2329 79.4228 64.8994 79.0881C64.5659 78.7533 64.3788 78.2999 64.3792 77.8274ZM68.5297 83.1845V81.9941H70.9014V83.1845C70.9019 83.3406 70.8716 83.4952 70.8122 83.6395C70.7528 83.7838 70.6656 83.915 70.5554 84.0255C70.4452 84.136 70.3143 84.2237 70.1702 84.2835C70.0261 84.3433 69.8716 84.3741 69.7156 84.3741C69.5595 84.3741 69.405 84.3433 69.2609 84.2835C69.1168 84.2237 68.9859 84.136 68.8757 84.0255C68.7655 83.915 68.6783 83.7838 68.6189 83.6395C68.5595 83.4952 68.5292 83.3406 68.5297 83.1845Z" fill="#989898"/>
</g>
<defs>
<clipPath id="clip0_921_4404">
<rect width="100" height="100" fill="white"/>
</clipPath>
</defs>
</svg>
